<?xml version="1.0" standalone="no"?>
<!DOCTYPE svg PUBLIC "-//W3C//DTD SVG 1.1//EN" "http://www.w3.org/Graphics/SVG/1.1/DTD/svg11.dtd" >
<svg xmlns="http://www.w3.org/2000/svg">
<metadata></metadata>
<defs>
<font id="bariol_serif_boldbold" horiz-adv-x="567" >
<font-face units-per-em="1000" ascent="787" descent="-213" />
<missing-glyph horiz-adv-x="210" />
<glyph unicode="&#x2e;&#x2e;&#x2e;" horiz-adv-x="714" d="M173 57c0 -44 -23 -65 -65 -65s-66 21 -66 65c0 45 24 67 66 67s65 -22 65 -67zM422 57c0 -44 -23 -65 -65 -65s-66 21 -66 65c0 45 24 67 66 67s65 -22 65 -67zM672 57c0 -44 -23 -65 -65 -65s-66 21 -66 65c0 45 24 67 66 67s65 -22 65 -67z" />
<glyph unicode="ff" horiz-adv-x="643" d="M561 0h-179c-25 0 -45 19 -45 45c0 25 20 45 45 45h24v274h-199v-274h47c25 0 45 -20 45 -45s-20 -45 -45 -45h-179c-25 0 -45 19 -45 45c0 25 20 45 45 45h24v274h-21c-25 0 -45 20 -45 45s20 45 45 45h21v81c0 92 61 177 187 177h59c26 0 47 -21 47 -47 s-21 -47 -47 -47h-59c-53 0 -79 -32 -79 -75v-89h199v81c0 93 62 177 191 177h55c26 0 47 -21 47 -47s-21 -47 -47 -47h-55c-55 0 -83 -31 -83 -75v-89h67c25 0 45 -20 45 -45s-20 -45 -45 -45h-67v-274h47c25 0 45 -20 45 -45s-20 -45 -45 -45z" />
<glyph unicode="fi" horiz-adv-x="582" d="M516 0h-156c-25 0 -45 19 -45 45c0 25 20 45 45 45h24v274h-177v-274h47c25 0 45 -20 45 -45s-20 -45 -45 -45h-179c-25 0 -45 19 -45 45c0 25 20 45 45 45h24v274h-21c-25 0 -45 20 -45 45s20 45 45 45h21v74c0 92 69 184 199 184c46 0 92 -10 113 -23 c19 -11 27 -25 27 -45c0 -28 -23 -51 -51 -51c-8 0 -15 2 -26 6c-17 5 -40 13 -63 13c-55 0 -91 -32 -91 -76v-82h231c29 0 54 -25 54 -54v-310h24c25 0 45 -20 45 -45s-20 -45 -45 -45z" />
<glyph unicode="fl" horiz-adv-x="582" d="M254 0h-179c-25 0 -45 19 -45 45c0 25 20 45 45 45h24v274h-21c-25 0 -45 20 -45 45s20 45 45 45h21v74c0 93 69 184 199 184c85 0 141 -24 167 -40c18 -11 27 -27 27 -47v-515c0 -12 12 -18 19 -18c28 0 50 -22 50 -50s-22 -50 -50 -50c-78 0 -127 44 -127 128v244h-177 v-274h47c25 0 45 -20 45 -45s-20 -45 -45 -45zM207 536v-82h177v143c-22 8 -52 15 -86 15c-55 0 -91 -32 -91 -76z" />
<glyph unicode="ffi" horiz-adv-x="889" d="M561 0h-179c-25 0 -45 19 -45 45c0 25 20 45 45 45h24v274h-199v-274h47c25 0 45 -20 45 -45s-20 -45 -45 -45h-179c-25 0 -45 19 -45 45c0 25 20 45 45 45h24v274h-21c-25 0 -45 20 -45 45s20 45 45 45h21v81c0 92 62 177 191 177h55c26 0 47 -21 47 -47 s-21 -47 -47 -47h-55c-55 0 -83 -31 -83 -75v-89h199v74c0 92 69 184 199 184c46 0 92 -10 113 -23c19 -11 27 -25 27 -45c0 -28 -23 -51 -51 -51c-8 0 -15 2 -26 6c-17 5 -40 13 -63 13c-55 0 -91 -32 -91 -76v-82h231c29 0 54 -25 54 -54v-310h24c25 0 45 -20 45 -45 s-20 -45 -45 -45h-156c-25 0 -45 19 -45 45c0 25 20 45 45 45h24v274h-177v-274h47c25 0 45 -20 45 -45s-20 -45 -45 -45z" />
<glyph unicode="ffl" horiz-adv-x="888" d="M345 618h-55c-55 0 -83 -31 -83 -75v-89h198v74c0 93 69 184 199 184c85 0 141 -24 167 -40c18 -11 27 -27 27 -47v-515c0 -12 12 -18 19 -18c28 0 50 -22 50 -50s-22 -50 -50 -50c-78 0 -127 44 -127 128v244h-177v-274h47c25 0 45 -20 45 -45s-20 -45 -45 -45h-179 c-25 0 -45 19 -45 45c0 25 20 45 45 45h24v274h-198v-274h47c25 0 45 -20 45 -45s-20 -45 -45 -45h-179c-25 0 -45 19 -45 45c0 25 20 45 45 45h24v274h-21c-25 0 -45 20 -45 45s20 45 45 45h21v81c0 93 62 177 191 177h55c26 0 47 -21 47 -47s-21 -47 -47 -47zM513 536v-82 h177v143c-22 8 -52 15 -86 15c-55 0 -91 -32 -91 -76z" />
<glyph unicode="fb" horiz-adv-x="840" d="M254 0h-179c-25 0 -45 19 -45 45c0 25 20 45 45 45h24v274h-21c-25 0 -45 20 -45 45s20 45 45 45h21v74c0 93 69 184 199 184c85 0 141 -24 167 -40c18 -11 27 -27 27 -47v-197c20 20 62 40 110 40c126 0 203 -78 203 -241c0 -157 -73 -240 -205 -240 c-40 0 -88 19 -109 47c-8 -26 -28 -42 -53 -42c-32 0 -54 22 -54 52v553c-22 8 -52 15 -86 15c-55 0 -91 -32 -91 -76v-82h67c25 0 45 -20 45 -45s-20 -45 -45 -45h-67v-274h47c25 0 45 -20 45 -45s-20 -45 -45 -45zM492 325v-157c0 -55 40 -89 101 -89c68 0 105 50 105 148 c0 99 -39 149 -107 149c-60 0 -99 -51 -99 -51z" />
<glyph unicode="ffb" horiz-adv-x="1147" d="M345 618h-59c-51 0 -79 -32 -79 -75v-89h199v74c0 93 69 184 199 184c85 0 141 -24 167 -40c18 -11 27 -27 27 -47v-197c20 20 62 40 110 40c126 0 203 -78 203 -241c0 -157 -73 -240 -205 -240c-40 0 -88 19 -109 47c-8 -26 -28 -42 -53 -42c-32 0 -54 22 -54 52v553 c-22 8 -52 15 -86 15c-55 0 -91 -32 -91 -76v-82h67c25 0 45 -20 45 -45s-20 -45 -45 -45h-67v-274h47c25 0 45 -20 45 -45s-20 -45 -45 -45h-179c-25 0 -45 19 -45 45c0 25 20 45 45 45h24v274h-199v-274h47c25 0 45 -20 45 -45s-20 -45 -45 -45h-179c-25 0 -45 19 -45 45 c0 25 20 45 45 45h24v274h-21c-25 0 -45 20 -45 45s20 45 45 45h21v81c0 93 62 177 191 177h55c26 0 47 -21 47 -47s-21 -47 -47 -47zM799 325v-157c0 -55 40 -89 101 -89c68 0 105 50 105 148c0 99 -39 149 -107 149c-60 0 -99 -51 -99 -51z" />
<glyph unicode="ffh" horiz-adv-x="1178" d="M1119 0h-156c-25 0 -45 19 -45 45c0 25 20 45 45 45h24v184c0 57 -23 96 -88 96c-75 0 -100 -44 -100 -103v-177h24c25 0 45 -20 45 -45s-20 -45 -45 -45h-156c-25 0 -45 19 -45 45c0 25 20 45 45 45h24v507c-22 8 -52 15 -86 15c-55 0 -91 -32 -91 -76v-82h67 c25 0 45 -20 45 -45s-20 -45 -45 -45h-67v-274h29c25 0 45 -20 45 -45s-20 -45 -45 -45h-161c-25 0 -45 19 -45 45c0 25 20 45 45 45h24v274h-199v-274h47c25 0 45 -20 45 -45s-20 -45 -45 -45h-179c-25 0 -45 19 -45 45c0 25 20 45 45 45h24v274h-21c-25 0 -45 20 -45 45 s20 45 45 45h21v81c0 92 63 177 187 177h59c26 0 47 -21 47 -47s-21 -47 -47 -47h-55c-55 0 -83 -31 -83 -75v-89h199v75c0 92 69 183 199 183c85 0 141 -24 167 -40c18 -11 27 -27 27 -47v-217c19 29 61 60 128 60c136 0 168 -87 168 -174v-204h24c25 0 45 -20 45 -45 s-20 -45 -45 -45z" />
<glyph unicode="ffj" horiz-adv-x="866" d="M561 0h-179c-25 0 -45 19 -45 45c0 25 20 45 45 45h24v274h-199v-274h47c25 0 45 -20 45 -45s-20 -45 -45 -45h-179c-25 0 -45 19 -45 45c0 25 20 45 45 45h24v274h-21c-25 0 -45 20 -45 45s20 45 45 45h21v81c0 91 61 177 187 177h59c26 0 47 -21 47 -47 s-21 -47 -47 -47h-55c-55 0 -83 -31 -83 -75v-89h199v74c0 92 69 184 199 184c46 0 92 -10 113 -23c19 -11 27 -25 27 -45c0 -28 -23 -51 -51 -51c-8 0 -15 2 -26 6c-17 5 -40 13 -63 13c-55 0 -91 -32 -91 -76v-82h231c29 0 54 -25 54 -54v-443c0 -84 -61 -158 -150 -158 h-27c-26 0 -47 22 -47 50c0 29 21 50 47 50h15c32 0 54 26 54 58v407h-177v-274h47c25 0 45 -20 45 -45s-20 -45 -45 -45z" />
<glyph unicode="ffk" horiz-adv-x="1143" d="M551 0h-169c-25 0 -45 19 -45 45c0 25 20 45 45 45h24v274h-199v-274h47c25 0 45 -20 45 -45s-20 -45 -45 -45h-179c-25 0 -45 19 -45 45c0 25 20 45 45 45h24v274h-21c-25 0 -45 20 -45 45s20 45 45 45h21v81c0 93 62 177 191 177h55c26 0 47 -21 47 -47 s-21 -47 -47 -47h-55c-55 0 -83 -31 -83 -75v-89h199v74c0 93 69 184 199 184c85 0 141 -24 167 -40c18 -11 27 -27 27 -47v-325l152 141c11 11 20 13 31 13h80c25 0 45 -20 45 -45s-20 -45 -45 -45h-53l-95 -82l141 -192h38c25 0 45 -20 45 -45s-20 -45 -45 -45h-75 c-19 0 -34 9 -42 21l-134 199l-43 -38v-92h24c25 0 45 -20 45 -45s-20 -45 -45 -45h-156c-25 0 -45 19 -45 45c0 25 20 45 45 45h24v507c-22 8 -52 15 -86 15c-55 0 -91 -32 -91 -76v-82h67c25 0 45 -20 45 -45s-20 -45 -45 -45h-67v-274h37c25 0 45 -20 45 -45 s-20 -45 -45 -45z" />
<glyph unicode="fh" horiz-adv-x="871" d="M812 0h-156c-25 0 -45 19 -45 45c0 25 20 45 45 45h24v184c0 57 -23 96 -88 96c-75 0 -100 -44 -100 -103v-177h24c25 0 45 -20 45 -45s-20 -45 -45 -45h-156c-25 0 -45 19 -45 45c0 25 20 45 45 45h24v507c-22 8 -52 15 -86 15c-55 0 -91 -32 -91 -76v-82h67 c25 0 45 -20 45 -45s-20 -45 -45 -45h-67v-274h47c25 0 45 -20 45 -45s-20 -45 -45 -45h-179c-25 0 -45 19 -45 45c0 25 20 45 45 45h24v274h-21c-25 0 -45 20 -45 45s20 45 45 45h21v74c0 93 69 184 199 184c85 0 141 -24 167 -40c18 -11 27 -27 27 -47v-217 c19 29 61 60 128 60c136 0 168 -87 168 -174v-204h24c25 0 45 -20 45 -45s-20 -45 -45 -45z" />
<glyph unicode="fj" horiz-adv-x="559" d="M314 -101h20c30 0 50 28 50 58v407h-177v-274h47c25 0 45 -20 45 -45s-20 -45 -45 -45h-179c-25 0 -45 19 -45 45c0 25 20 45 45 45h24v274h-21c-25 0 -45 20 -45 45s20 45 45 45h21v74c0 92 69 184 199 184c46 0 92 -10 113 -23c19 -11 27 -25 27 -45 c0 -28 -23 -51 -51 -51c-8 0 -15 2 -26 6c-17 5 -40 13 -63 13c-55 0 -91 -32 -91 -76v-82h231c29 0 54 -25 54 -54v-443c0 -85 -64 -158 -154 -158h-24c-26 0 -47 22 -47 50c0 29 21 50 47 50z" />
<glyph unicode="fk" horiz-adv-x="829" d="M516 0h-156c-25 0 -45 19 -45 45c0 25 20 45 45 45h24v507c-22 8 -52 15 -86 15c-55 0 -91 -32 -91 -76v-82h67c25 0 45 -20 45 -45s-20 -45 -45 -45h-67v-274h28c25 0 45 -20 45 -45s-20 -45 -45 -45h-160c-25 0 -45 19 -45 45c0 25 20 45 45 45h24v274h-21 c-25 0 -45 20 -45 45s20 45 45 45h21v74c0 93 69 184 199 184c85 0 141 -24 167 -40c18 -11 27 -27 27 -47v-325l152 141c11 11 21 13 31 13h70c25 0 45 -20 45 -45s-20 -45 -45 -45h-52l-87 -79l136 -195h38c25 0 45 -20 45 -45s-20 -45 -45 -45h-71c-19 0 -34 9 -42 21 l-133 200l-42 -38v-93h24c25 0 45 -20 45 -45s-20 -45 -45 -45z" />
<glyph unicode=" "  horiz-adv-x="210" />
<glyph unicode="&#x09;" horiz-adv-x="210" />
<glyph unicode="&#xa0;" horiz-adv-x="210" />
<glyph unicode="&#x2009;" horiz-adv-x="15" />
<glyph unicode="A" horiz-adv-x="680" d="M627 0h-151c-28 0 -51 23 -51 51s23 51 51 51h16l-29 74h-238l-30 -74h15c28 0 51 -23 51 -51s-23 -51 -51 -51h-151c-28 0 -51 23 -51 51s23 51 51 51h15l187 469h-21c-28 0 -51 23 -51 51s23 51 51 51h108c21 0 43 -14 52 -36l214 -535h13c28 0 51 -23 51 -51 s-23 -51 -51 -51zM344 500l-81 -220h161z" />
<glyph unicode="B" horiz-adv-x="618" d="M365 0h-272c-28 0 -51 23 -51 51s23 51 51 51h16v469h-16c-28 0 -51 23 -51 51s23 51 51 51h254c151 0 205 -82 205 -174c0 -66 -33 -116 -74 -136c75 -29 104 -83 104 -161c0 -122 -73 -202 -217 -202zM225 300v-196h140c71 0 99 38 99 98c0 61 -33 98 -99 98h-140z M225 569v-171h122c63 0 89 36 89 86c0 52 -26 85 -89 85h-122z" />
<glyph unicode="C" horiz-adv-x="627" d="M601 94c-48 -64 -142 -108 -249 -108c-199 0 -313 105 -313 350c0 237 114 351 313 351c121 0 200 -48 241 -108c8 -12 11 -22 11 -33c0 -29 -24 -53 -54 -53c-14 0 -28 6 -41 20c-41 45 -84 70 -157 70c-133 0 -193 -82 -193 -247c0 -175 60 -246 193 -246 c74 0 114 17 162 66c16 16 29 22 43 22c30 0 54 -24 54 -54c0 -12 -4 -22 -10 -30z" />
<glyph unicode="D" horiz-adv-x="666" d="M302 0h-209c-28 0 -51 23 -51 51s23 51 51 51h16v469h-16c-28 0 -51 23 -51 51s23 51 51 51h209c199 0 325 -90 325 -337s-126 -336 -325 -336zM225 569v-465h77c128 0 205 58 205 232s-77 233 -205 233h-77z" />
<glyph unicode="E" horiz-adv-x="574" d="M225 569v-179h189c28 0 51 -23 51 -51s-23 -51 -51 -51h-189v-184h215v22c0 28 23 51 51 51s51 -23 51 -51v-74c0 -29 -23 -52 -52 -52h-397c-28 0 -51 23 -51 51s23 51 51 51h16v469h-16c-28 0 -51 23 -51 51s23 51 51 51h386c29 0 52 -23 52 -52v-74 c0 -28 -23 -51 -51 -51s-51 23 -51 51v22h-204z" />
<glyph unicode="F" horiz-adv-x="555" d="M266 0h-173c-28 0 -51 23 -51 51s23 51 51 51h16v469h-16c-28 0 -51 23 -51 51s23 51 51 51h386c29 0 52 -23 52 -52v-74c0 -28 -23 -51 -51 -51s-51 23 -51 51v22h-204v-185h189c28 0 51 -23 51 -51s-23 -51 -51 -51h-189v-180h41c28 0 51 -23 51 -51s-23 -51 -51 -51z " />
<glyph unicode="G" horiz-adv-x="667" d="M517 147v112h-136c-28 0 -51 23 -51 51s23 51 51 51h194c28 0 55 -24 55 -53v-160c0 -23 -5 -38 -17 -53c-48 -64 -154 -109 -261 -109c-199 0 -313 105 -313 350c0 237 114 351 313 351c121 0 200 -48 241 -108c8 -12 11 -22 11 -33c0 -29 -24 -53 -54 -53 c-14 0 -28 6 -41 20c-41 45 -84 70 -157 70c-133 0 -193 -82 -193 -247c0 -175 60 -246 193 -246c74 0 126 17 165 57z" />
<glyph unicode="H" horiz-adv-x="736" d="M241 571h-16v-174h286v174h-16c-28 0 -51 23 -51 51s23 51 51 51h148c28 0 51 -23 51 -51s-23 -51 -51 -51h-16v-469h16c28 0 51 -23 51 -51s-23 -51 -51 -51h-148c-28 0 -51 23 -51 51s23 51 51 51h16v189h-286v-189h16c28 0 51 -23 51 -51s-23 -51 -51 -51h-148 c-28 0 -51 23 -51 51s23 51 51 51h16v469h-16c-28 0 -51 23 -51 51s23 51 51 51h148c28 0 51 -23 51 -51s-23 -51 -51 -51z" />
<glyph unicode="I" horiz-adv-x="334" d="M241 571h-16v-469h16c28 0 51 -23 51 -51s-23 -51 -51 -51h-148c-28 0 -51 23 -51 51s23 51 51 51h16v469h-16c-28 0 -51 23 -51 51s23 51 51 51h148c28 0 51 -23 51 -51s-23 -51 -51 -51z" />
<glyph unicode="J" horiz-adv-x="462" d="M214 571c-28 0 -51 23 -51 51s23 51 51 51h167c28 0 51 -23 51 -51s-23 -51 -51 -51h-16v-361c0 -128 -56 -223 -209 -223c-40 0 -91 10 -119 27c-17 9 -28 25 -28 46c0 29 23 52 52 52c9 0 15 -2 23 -5c25 -10 51 -15 72 -15c67 0 93 50 93 118v361h-35z" />
<glyph unicode="K" horiz-adv-x="659" d="M605 0h-79c-27 0 -41 13 -49 24l-189 265l-63 -65v-122h16c28 0 51 -23 51 -51s-23 -51 -51 -51h-148c-28 0 -51 23 -51 51s23 51 51 51h16v469h-16c-28 0 -51 23 -51 51s23 51 51 51h148c29 0 53 -23 53 -51s-24 -51 -53 -51h-16v-198l194 198h-4c-28 0 -51 23 -51 51 s23 51 51 51h184c28 0 51 -23 51 -51s-23 -51 -51 -51h-34l-198 -202l193 -267h45c28 0 51 -23 51 -51s-23 -51 -51 -51z" />
<glyph unicode="L" horiz-adv-x="542" d="M225 104h191v52c0 28 23 51 51 51s51 -23 51 -51v-105c0 -28 -25 -51 -56 -51h-369c-28 0 -51 23 -51 51s23 51 51 51h16v469h-16c-28 0 -51 23 -51 51s23 51 51 51h148c28 0 51 -23 51 -51s-23 -51 -51 -51h-16v-467z" />
<glyph unicode="M" horiz-adv-x="858" d="M478 177c-11 -17 -29 -28 -49 -28s-38 11 -49 28l-157 246v-321h17c28 0 51 -23 51 -51s-23 -51 -51 -51h-148c-28 0 -51 23 -51 51s23 51 51 51h17v469h-17c-28 0 -51 23 -51 51s23 51 51 51h80c28 0 46 -17 57 -35l200 -329l204 336c11 18 25 28 53 28h80 c28 0 51 -23 51 -51s-23 -51 -51 -51h-17v-469h17c28 0 51 -23 51 -51s-23 -51 -51 -51h-148c-28 0 -51 23 -51 51s23 51 51 51h17v321z" />
<glyph unicode="N" horiz-adv-x="720" d="M240 0h-148c-28 0 -51 23 -51 51s23 51 51 51h17v469h-17c-28 0 -51 23 -51 51s23 51 51 51h81c19 0 33 -7 43 -22l292 -423v343h-17c-28 0 -51 23 -51 51s23 51 51 51h148c28 0 51 -23 51 -51s-23 -51 -51 -51h-17v-522c0 -31 -26 -57 -57 -57c-19 0 -37 10 -47 25 l-295 426v-341h17c28 0 51 -23 51 -51s-23 -51 -51 -51z" />
<glyph unicode="O" horiz-adv-x="712" d="M39 336c0 237 115 351 317 351s317 -114 317 -351c0 -234 -115 -350 -317 -350s-317 116 -317 350zM159 336c0 -165 65 -246 197 -246s197 81 197 246c0 166 -65 247 -197 247s-197 -81 -197 -247z" />
<glyph unicode="P" horiz-adv-x="593" d="M241 0h-148c-28 0 -51 23 -51 51s23 51 51 51h16v469h-16c-28 0 -51 23 -51 51s23 51 51 51h265c117 0 210 -65 210 -205c0 -138 -91 -206 -210 -206h-133v-160h16c28 0 51 -23 51 -51s-23 -51 -51 -51zM349 569h-124v-203h124c62 0 99 37 99 102c0 66 -38 101 -99 101z " />
<glyph unicode="Q" horiz-adv-x="712" d="M39 336c0 237 115 351 317 351s317 -114 317 -351c0 -143 -48 -244 -128 -297c35 -11 74 -37 95 -64c12 -16 13 -26 13 -39c0 -28 -23 -54 -54 -54c-15 0 -30 4 -43 17c-55 54 -88 87 -200 87c-202 0 -317 116 -317 350zM159 336c0 -165 65 -246 197 -246s197 81 197 246 c0 166 -65 247 -197 247s-197 -81 -197 -247z" />
<glyph unicode="R" horiz-adv-x="632" d="M576 0h-82c-17 0 -31 6 -41 21l-163 237h-65v-156h16c28 0 51 -23 51 -51s-23 -51 -51 -51h-148c-28 0 -51 23 -51 51s23 51 51 51h16v469h-16c-28 0 -51 23 -51 51s23 51 51 51h265c135 0 211 -96 211 -209c0 -95 -58 -187 -154 -199l117 -163h44c28 0 51 -23 51 -51 s-23 -51 -51 -51zM357 569h-132v-209h135c62 0 89 51 89 104c0 54 -27 105 -92 105z" />
<glyph unicode="S" d="M466 508c-14 0 -28 8 -43 22c-31 30 -83 53 -140 53c-83 0 -114 -39 -114 -79c0 -131 365 -70 365 -320c0 -122 -86 -198 -251 -198c-119 0 -215 56 -253 117c-5 8 -8 18 -8 28c0 30 24 54 53 54c22 0 34 -12 44 -22c41 -41 95 -71 164 -71c91 0 135 30 135 92 c0 146 -365 79 -365 320c0 99 71 183 230 183c100 0 187 -37 227 -94c6 -9 10 -20 10 -32c0 -29 -24 -53 -54 -53z" />
<glyph unicode="T" horiz-adv-x="574" d="M367 0h-160c-28 0 -51 23 -51 51s23 51 51 51h22v469h-102v-47c0 -28 -23 -51 -51 -51s-51 23 -51 51v100c0 27 23 49 51 49h422c27 0 51 -22 51 -49v-100c0 -28 -23 -51 -51 -51s-51 23 -51 51v47h-102v-469h22c28 0 51 -23 51 -51s-23 -51 -51 -51z" />
<glyph unicode="U" horiz-adv-x="696" d="M233 571h-21v-351c0 -61 23 -132 136 -132s136 71 136 132v351h-21c-28 0 -51 23 -51 51s23 51 51 51h153c28 0 51 -23 51 -51s-23 -51 -51 -51h-16v-351c0 -114 -50 -234 -252 -234s-252 120 -252 234v351h-16c-28 0 -51 23 -51 51s23 51 51 51h153c28 0 51 -23 51 -51 s-23 -51 -51 -51z" />
<glyph unicode="V" horiz-adv-x="678" d="M214 571h-21l146 -385l145 385h-19c-28 0 -51 23 -51 51s23 51 51 51h157c28 0 51 -23 51 -51s-23 -51 -51 -51h-14l-215 -542c-8 -20 -24 -37 -54 -37s-46 17 -54 37l-216 542h-12c-28 0 -51 23 -51 51s23 51 51 51h157c28 0 51 -23 51 -51s-23 -51 -51 -51z" />
<glyph unicode="W" horiz-adv-x="914" d="M856 571h-12l-161 -539c-7 -23 -29 -40 -55 -40c-27 0 -48 18 -55 43l-116 404l-116 -404c-7 -25 -28 -43 -55 -43c-26 0 -48 17 -55 40l-161 539h-12c-28 0 -51 23 -51 51s23 51 51 51h157c28 0 51 -23 51 -51s-23 -51 -51 -51h-26l99 -356l116 416c7 26 28 42 53 42 c26 0 49 -16 56 -42l116 -419l100 359h-27c-28 0 -51 23 -51 51s23 51 51 51h154c28 0 51 -23 51 -51s-23 -51 -51 -51z" />
<glyph unicode="X" horiz-adv-x="627" d="M563 0h-157c-28 0 -51 23 -51 51s23 51 51 51h5l-101 145l-97 -145h8c28 0 51 -23 51 -51s-23 -51 -51 -51h-157c-28 0 -51 23 -51 51s23 51 51 51h12l171 243l-165 226h-16c-28 0 -51 23 -51 51s23 51 51 51h153c28 0 51 -23 51 -51c0 -27 -22 -50 -49 -51l93 -132 l99 132h-4c-28 0 -51 23 -51 51s23 51 51 51h154c28 0 51 -23 51 -51s-23 -51 -51 -51h-16l-171 -229l175 -240h12c28 0 51 -23 51 -51s-23 -51 -51 -51z" />
<glyph unicode="Y" horiz-adv-x="607" d="M392 0h-178c-28 0 -51 23 -51 51s23 51 51 51h31v205l-178 264h-12c-28 0 -51 23 -51 51s23 51 51 51h157c28 0 51 -23 51 -51s-23 -51 -51 -51h-7l98 -154l98 154h-7c-28 0 -51 23 -51 51s23 51 51 51h157c28 0 51 -23 51 -51s-23 -51 -51 -51h-13l-177 -264v-205h31 c28 0 51 -23 51 -51s-23 -51 -51 -51z" />
<glyph unicode="Z" horiz-adv-x="568" d="M44 519v105c0 27 23 49 51 49h378c28 0 51 -23 51 -51c0 -9 -2 -19 -9 -29l-335 -489h255v53c0 28 23 51 51 51s51 -23 51 -51v-105c0 -29 -23 -52 -52 -52h-409c-29 0 -52 23 -52 52c0 11 4 23 10 31l336 488h-224v-52c0 -28 -23 -51 -51 -51s-51 23 -51 51z" />
<glyph unicode="&#xc6;" horiz-adv-x="890" d="M202 0h-151c-28 0 -51 23 -51 51s23 51 51 51h19l313 469h-4c-28 0 -51 23 -51 51s23 51 51 51h416c29 0 52 -23 52 -52v-74c0 -28 -23 -51 -51 -51s-51 23 -51 51v22h-204v-179h189c28 0 51 -23 51 -51s-23 -51 -51 -51h-189v-184h215v22c0 28 23 51 51 51 s51 -23 51 -51v-78c0 -27 -25 -48 -52 -48h-323c-32 0 -58 24 -58 56v119h-174l-47 -73c27 -2 49 -24 49 -51c0 -28 -23 -51 -51 -51zM310 277h115v187z" />
<glyph unicode="&#x152;" horiz-adv-x="925" d="M882 623v-76c0 -28 -23 -51 -51 -51s-51 23 -51 51v22h-204v-179h189c28 0 51 -23 51 -51s-23 -51 -51 -51h-189v-184h215v22c0 28 23 51 51 51s51 -23 51 -51v-74c0 -29 -23 -52 -52 -52h-323c-10 0 -21 3 -28 9c-38 -14 -84 -23 -134 -23c-202 0 -317 116 -317 350 c0 237 115 351 317 351c50 0 93 -6 134 -25c7 7 18 11 28 11h312c28 0 51 -22 52 -50zM460 560c-29 15 -64 23 -104 23c-132 0 -197 -81 -197 -247c0 -165 65 -246 197 -246c40 0 75 7 104 22v448z" />
<glyph unicode="&#xc0;" horiz-adv-x="680" d="M627 0h-151c-28 0 -51 23 -51 51s23 51 51 51h16l-29 74h-238l-30 -74h15c28 0 51 -23 51 -51s-23 -51 -51 -51h-151c-28 0 -51 23 -51 51s23 51 51 51h15l187 469h-21c-28 0 -51 23 -51 51s23 51 51 51h108c21 0 43 -14 52 -36l214 -535h13c28 0 51 -23 51 -51 s-23 -51 -51 -51zM344 500l-81 -220h161zM423 774c11 -12 11 -30 -5 -45c-13 -12 -29 -15 -46 0l-98 90c-16 15 -18 39 4 60c20 20 46 21 60 3z" />
<glyph unicode="`" horiz-adv-x="384" d="M269 570c11 -12 11 -30 -5 -45c-13 -12 -29 -15 -46 0l-98 90c-16 15 -18 39 4 60c20 20 46 21 60 3z" />
<glyph unicode="&#xc1;" horiz-adv-x="680" d="M627 0h-151c-28 0 -51 23 -51 51s23 51 51 51h16l-29 74h-238l-30 -74h15c28 0 51 -23 51 -51s-23 -51 -51 -51h-151c-28 0 -51 23 -51 51s23 51 51 51h15l187 469h-21c-28 0 -51 23 -51 51s23 51 51 51h108c21 0 43 -14 52 -36l214 -535h13c28 0 51 -23 51 -51 s-23 -51 -51 -51zM344 500l-81 -220h161zM318 729c-17 -15 -33 -12 -46 0c-16 15 -16 34 -5 46l85 108c14 18 40 17 60 -3c22 -21 20 -45 4 -60z" />
<glyph unicode="&#xb4;" horiz-adv-x="384" d="M166 525c-17 -15 -33 -12 -46 0c-16 15 -16 34 -5 46l85 108c14 18 40 17 60 -3c22 -21 20 -45 4 -60z" />
<glyph unicode="&#xc2;" horiz-adv-x="680" d="M627 0h-151c-28 0 -51 23 -51 51s23 51 51 51h16l-29 74h-238l-30 -74h15c28 0 51 -23 51 -51s-23 -51 -51 -51h-151c-28 0 -51 23 -51 51s23 51 51 51h15l187 469h-21c-28 0 -51 23 -51 51s23 51 51 51h108c21 0 43 -14 52 -36l214 -535h13c28 0 51 -23 51 -51 s-23 -51 -51 -51zM344 500l-81 -220h161zM321 854c7 5 15 7 23 7s16 -2 23 -7l93 -62c10 -7 18 -17 18 -33c0 -22 -17 -39 -39 -39c-9 0 -18 3 -23 7l-72 50l-72 -50c-5 -4 -14 -7 -23 -7c-22 0 -39 17 -39 39c0 16 8 26 18 33z" />
<glyph unicode="&#x2c6;" horiz-adv-x="334" d="M144 657c7 5 15 7 23 7s16 -2 23 -7l93 -62c10 -7 18 -17 18 -33c0 -22 -17 -39 -39 -39c-9 0 -18 3 -23 7l-72 50l-72 -50c-5 -4 -14 -7 -23 -7c-22 0 -39 17 -39 39c0 16 8 26 18 33z" />
<glyph unicode="&#xc3;" horiz-adv-x="680" d="M627 0h-151c-28 0 -51 23 -51 51s23 51 51 51h16l-29 74h-238l-30 -74h15c28 0 51 -23 51 -51s-23 -51 -51 -51h-151c-28 0 -51 23 -51 51s23 51 51 51h15l187 469h-21c-28 0 -51 23 -51 51s23 51 51 51h108c21 0 43 -14 52 -36l214 -535h13c28 0 51 -23 51 -51 s-23 -51 -51 -51zM344 500l-81 -220h161zM275 835c56 0 92 -33 129 -33c11 0 18 5 26 16c7 10 19 17 33 17c22 0 39 -16 39 -37c0 -4 -1 -12 -3 -16c-13 -31 -48 -49 -86 -49c-56 0 -96 33 -129 33c-11 0 -18 -5 -26 -16c-7 -10 -19 -17 -33 -17c-22 0 -39 16 -39 37 c0 4 1 12 3 16c13 31 48 49 86 49z" />
<glyph unicode="&#x2dc;" horiz-adv-x="393" d="M127 632c56 0 92 -33 129 -33c11 0 18 5 26 16c7 10 19 17 33 17c22 0 39 -16 39 -37c0 -4 -1 -12 -3 -16c-13 -31 -48 -49 -86 -49c-56 0 -96 33 -129 33c-11 0 -18 -5 -26 -16c-7 -10 -19 -17 -33 -17c-22 0 -39 16 -39 37c0 4 1 12 3 16c13 31 48 49 86 49z" />
<glyph unicode="&#xc4;" horiz-adv-x="680" d="M627 0h-151c-28 0 -51 23 -51 51s23 51 51 51h16l-29 74h-238l-30 -74h15c28 0 51 -23 51 -51s-23 -51 -51 -51h-151c-28 0 -51 23 -51 51s23 51 51 51h15l187 469h-21c-28 0 -51 23 -51 51s23 51 51 51h108c21 0 43 -14 52 -36l214 -535h13c28 0 51 -23 51 -51 s-23 -51 -51 -51zM344 500l-81 -220h161zM304 802c0 -34 -18 -51 -50 -51s-50 17 -50 51c0 37 18 53 50 53s50 -16 50 -53zM485 802c0 -34 -18 -51 -50 -51s-50 17 -50 51c0 37 18 53 50 53s50 -16 50 -53z" />
<glyph unicode="&#xa8;" horiz-adv-x="329" d="M124 595c0 -34 -18 -51 -50 -51s-50 17 -50 51c0 37 18 53 50 53s50 -16 50 -53zM305 595c0 -34 -18 -51 -50 -51s-50 17 -50 51c0 37 18 53 50 53s50 -16 50 -53z" />
<glyph unicode="&#xc5;" horiz-adv-x="680" d="M627 0h-151c-28 0 -51 23 -51 51s23 51 51 51h16l-29 74h-238l-30 -74h15c28 0 51 -23 51 -51s-23 -51 -51 -51h-151c-28 0 -51 23 -51 51s23 51 51 51h15l187 469h-21c-28 0 -51 23 -51 51s23 51 51 51h108c21 0 43 -14 52 -36l214 -535h13c28 0 51 -23 51 -51 s-23 -51 -51 -51zM344 500l-81 -220h161zM293 805c0 -32 13 -50 51 -50s51 18 51 50s-13 50 -51 50s-51 -18 -51 -50zM236 805c0 62 36 101 108 101s108 -39 108 -101s-36 -101 -108 -101s-108 39 -108 101z" />
<glyph unicode="&#x2da;" horiz-adv-x="277" d="M87 604c0 -32 13 -50 51 -50s51 18 51 50s-13 50 -51 50s-51 -18 -51 -50zM30 604c0 62 36 101 108 101s108 -39 108 -101s-36 -101 -108 -101s-108 39 -108 101z" />
<glyph unicode="&#x100;" horiz-adv-x="680" d="M627 0h-151c-28 0 -51 23 -51 51s23 51 51 51h16l-29 74h-238l-30 -74h15c28 0 51 -23 51 -51s-23 -51 -51 -51h-151c-28 0 -51 23 -51 51s23 51 51 51h15l187 469h-21c-28 0 -51 23 -51 51s23 51 51 51h108c21 0 43 -14 52 -36l214 -535h13c28 0 51 -23 51 -51 s-23 -51 -51 -51zM344 500l-81 -220h161zM436 810c19 0 34 -14 34 -34c0 -18 -15 -34 -34 -34h-181c-19 0 -34 16 -34 34c0 20 15 34 34 34h181z" />
<glyph unicode="&#xaf;" horiz-adv-x="397" d="M289 614c19 0 34 -14 34 -34c0 -18 -15 -34 -34 -34h-181c-19 0 -34 16 -34 34c0 20 15 34 34 34h181z" />
<glyph unicode="&#x102;" horiz-adv-x="680" d="M627 0h-151c-28 0 -51 23 -51 51s23 51 51 51h16l-29 74h-238l-30 -74h15c28 0 51 -23 51 -51s-23 -51 -51 -51h-151c-28 0 -51 23 -51 51s23 51 51 51h15l187 469h-21c-28 0 -51 23 -51 51s23 51 51 51h108c21 0 43 -14 52 -36l214 -535h13c28 0 51 -23 51 -51 s-23 -51 -51 -51zM344 500l-81 -220h161zM482 833c0 -76 -61 -107 -138 -107s-138 31 -138 107c0 20 16 36 36 36s36 -16 36 -36c0 -30 34 -39 66 -39s66 9 66 39c0 20 16 36 36 36s36 -16 36 -36z" />
<glyph unicode="&#x2d8;" horiz-adv-x="327" d="M301 630c0 -76 -61 -107 -138 -107s-138 31 -138 107c0 20 16 36 36 36s36 -16 36 -36c0 -30 34 -39 66 -39s66 9 66 39c0 20 16 36 36 36s36 -16 36 -36z" />
<glyph unicode="&#x104;" horiz-adv-x="680" d="M648 -119c17 0 30 -13 30 -30c0 -11 -5 -18 -10 -22c-18 -15 -54 -17 -73 -17c-57 0 -117 22 -117 88c0 39 25 77 65 100h-67c-28 0 -51 23 -51 51s23 51 51 51h16l-29 74h-238l-30 -74h15c28 0 51 -23 51 -51s-23 -51 -51 -51h-151c-28 0 -51 23 -51 51s23 51 51 51h15 l187 469h-21c-28 0 -51 23 -51 51s23 51 51 51h108c21 0 43 -14 52 -36l214 -535h13c28 0 51 -23 51 -51s-23 -51 -51 -51h-31c-32 -23 -54 -50 -54 -80c0 -35 30 -46 62 -46c19 0 31 7 44 7zM344 500l-81 -220h161z" />
<glyph unicode="&#x2db;" horiz-adv-x="319" d="M229 -119c17 0 30 -13 30 -30c0 -11 -5 -18 -10 -22c-18 -15 -54 -17 -73 -17c-57 0 -117 22 -117 88c0 45 34 88 85 110l40 -5c-35 -25 -61 -53 -61 -85c0 -35 30 -46 62 -46c19 0 31 7 44 7z" />
<glyph unicode="&#x1fa;" horiz-adv-x="680" d="M236 805c0 62 36 101 108 101h8l87 110c14 18 40 17 60 -3c22 -21 20 -45 4 -60l-79 -73c18 -18 28 -44 28 -75c0 -62 -36 -101 -108 -101s-108 39 -108 101zM293 805c0 -32 13 -50 51 -50s51 18 51 50s-13 50 -51 50s-51 -18 -51 -50zM627 0h-151c-28 0 -51 23 -51 51 s23 51 51 51h16l-29 74h-238l-30 -74h15c28 0 51 -23 51 -51s-23 -51 -51 -51h-151c-28 0 -51 23 -51 51s23 51 51 51h15l187 469h-21c-28 0 -51 23 -51 51s23 51 51 51h108c21 0 43 -14 52 -36l214 -535h13c28 0 51 -23 51 -51s-23 -51 -51 -51zM344 500l-81 -220h161z" />
<glyph unicode="&#x1e2;" horiz-adv-x="890" d="M668 818c19 0 34 -14 34 -34c0 -18 -15 -34 -34 -34h-181c-19 0 -34 16 -34 34c0 20 15 34 34 34h181zM202 0h-151c-28 0 -51 23 -51 51s23 51 51 51h19l313 469h-4c-28 0 -51 23 -51 51s23 51 51 51h416c29 0 52 -23 52 -52v-74c0 -28 -23 -51 -51 -51s-51 23 -51 51v22 h-204v-179h189c28 0 51 -23 51 -51s-23 -51 -51 -51h-189v-184h215v22c0 28 23 51 51 51s51 -23 51 -51v-78c0 -27 -25 -48 -52 -48h-323c-32 0 -58 24 -58 56v119h-174l-47 -73c27 -2 49 -24 49 -51c0 -28 -23 -51 -51 -51zM310 277h115v187z" />
<glyph unicode="&#x1fc;" horiz-adv-x="890" d="M564 729c-17 -15 -33 -12 -46 0c-16 15 -16 34 -5 46l85 108c14 18 40 17 60 -3c22 -21 20 -45 4 -60zM202 0h-151c-28 0 -51 23 -51 51s23 51 51 51h19l313 469h-4c-28 0 -51 23 -51 51s23 51 51 51h416c29 0 52 -23 52 -52v-74c0 -28 -23 -51 -51 -51s-51 23 -51 51v22 h-204v-179h189c28 0 51 -23 51 -51s-23 -51 -51 -51h-189v-184h215v22c0 28 23 51 51 51s51 -23 51 -51v-78c0 -27 -25 -48 -52 -48h-323c-32 0 -58 24 -58 56v119h-174l-47 -73c27 -2 49 -24 49 -51c0 -28 -23 -51 -51 -51zM310 277h115v187z" />
<glyph unicode="&#xc7;" horiz-adv-x="628" d="M371 -34c49 0 85 -26 85 -74c0 -50 -31 -80 -99 -80c-25 0 -59 8 -80 22c-6 4 -11 11 -11 21c0 14 12 26 26 26c5 0 8 -1 12 -3c17 -9 31 -14 55 -14s38 7 38 28c0 17 -17 24 -41 24c-17 0 -30 -4 -44 -4s-21 9 -21 22v56c-161 20 -251 128 -251 346 c0 237 114 351 313 351c121 0 200 -48 241 -108c8 -12 11 -22 11 -33c0 -29 -24 -53 -54 -53c-14 0 -28 6 -41 20c-41 45 -84 70 -157 70c-133 0 -193 -82 -193 -247c0 -175 60 -246 193 -246c74 0 114 17 162 66c16 16 29 22 43 22c30 0 54 -24 54 -54 c0 -12 -4 -22 -10 -30c-48 -64 -142 -108 -249 -108h-13l-2 -23s12 3 33 3z" />
<glyph unicode="&#xb8;" horiz-adv-x="327" d="M168 -34c49 0 85 -26 85 -74c0 -50 -31 -80 -99 -80c-25 0 -59 8 -80 22c-6 4 -11 11 -11 21c0 14 12 26 26 26c5 0 8 -1 12 -3c17 -9 31 -14 55 -14s38 7 38 28c0 17 -17 24 -41 24c-17 0 -30 -4 -44 -4s-21 9 -21 22v66h50l-3 -37s12 3 33 3z" />
<glyph unicode="&#x106;" horiz-adv-x="627" d="M601 94c-48 -64 -142 -108 -249 -108c-199 0 -313 105 -313 350c0 237 114 351 313 351c121 0 200 -48 241 -108c8 -12 11 -22 11 -33c0 -29 -24 -53 -54 -53c-14 0 -28 6 -41 20c-41 45 -84 70 -157 70c-133 0 -193 -82 -193 -247c0 -175 60 -246 193 -246 c74 0 114 17 162 66c16 16 29 22 43 22c30 0 54 -24 54 -54c0 -12 -4 -22 -10 -30zM334 729c-17 -15 -33 -12 -46 0c-16 15 -16 34 -5 46l85 108c14 18 40 17 60 -3c22 -21 20 -45 4 -60z" />
<glyph unicode="&#x108;" horiz-adv-x="627" d="M601 94c-48 -64 -142 -108 -249 -108c-199 0 -313 105 -313 350c0 237 114 351 313 351c121 0 200 -48 241 -108c8 -12 11 -22 11 -33c0 -29 -24 -53 -54 -53c-14 0 -28 6 -41 20c-41 45 -84 70 -157 70c-133 0 -193 -82 -193 -247c0 -175 60 -246 193 -246 c74 0 114 17 162 66c16 16 29 22 43 22c30 0 54 -24 54 -54c0 -12 -4 -22 -10 -30zM338 854c7 5 15 7 23 7s16 -2 23 -7l93 -62c10 -7 18 -17 18 -33c0 -22 -17 -39 -39 -39c-9 0 -18 3 -23 7l-72 50l-72 -50c-5 -4 -14 -7 -23 -7c-22 0 -39 17 -39 39c0 16 8 26 18 33z" />
<glyph unicode="&#x10a;" horiz-adv-x="627" d="M601 94c-48 -64 -142 -108 -249 -108c-199 0 -313 105 -313 350c0 237 114 351 313 351c121 0 200 -48 241 -108c8 -12 11 -22 11 -33c0 -29 -24 -53 -54 -53c-14 0 -28 6 -41 20c-41 45 -84 70 -157 70c-133 0 -193 -82 -193 -247c0 -175 60 -246 193 -246 c74 0 114 17 162 66c16 16 29 22 43 22c30 0 54 -24 54 -54c0 -12 -4 -22 -10 -30zM409 789c0 -35 -19 -51 -52 -51s-52 16 -52 51c0 38 19 54 52 54s52 -16 52 -54z" />
<glyph unicode="&#x2d9;" horiz-adv-x="288" d="M196 597c0 -35 -19 -51 -52 -51s-52 16 -52 51c0 38 19 54 52 54s52 -16 52 -54z" />
<glyph unicode="&#x10c;" horiz-adv-x="627" d="M601 94c-48 -64 -142 -108 -249 -108c-199 0 -313 105 -313 350c0 237 114 351 313 351c121 0 200 -48 241 -108c8 -12 11 -22 11 -33c0 -29 -24 -53 -54 -53c-14 0 -28 6 -41 20c-41 45 -84 70 -157 70c-133 0 -193 -82 -193 -247c0 -175 60 -246 193 -246 c74 0 114 17 162 66c16 16 29 22 43 22c30 0 54 -24 54 -54c0 -12 -4 -22 -10 -30zM377 750c-7 -5 -15 -7 -23 -7s-16 2 -23 7l-93 62c-10 7 -18 17 -18 33c0 22 17 39 39 39c9 0 18 -3 23 -7l72 -50l72 50c5 4 14 7 23 7c22 0 39 -17 39 -39c0 -16 -8 -26 -18 -33z" />
<glyph unicode="&#x2c7;" horiz-adv-x="334" d="M190 530c-7 -5 -15 -7 -23 -7s-16 2 -23 7l-93 62c-10 7 -18 17 -18 33c0 22 17 39 39 39c9 0 18 -3 23 -7l72 -50l72 50c5 4 14 7 23 7c22 0 39 -17 39 -39c0 -16 -8 -26 -18 -33z" />
<glyph unicode="&#x10e;" horiz-adv-x="666" d="M302 0h-209c-28 0 -51 23 -51 51s23 51 51 51h16v469h-16c-28 0 -51 23 -51 51s23 51 51 51h209c199 0 325 -90 325 -337s-126 -336 -325 -336zM225 569v-465h77c128 0 205 58 205 232s-77 233 -205 233h-77zM351 751c-7 -5 -15 -7 -23 -7s-16 2 -23 7l-93 62 c-10 7 -18 17 -18 33c0 22 17 39 39 39c9 0 18 -3 23 -7l72 -50l72 50c5 4 14 7 23 7c22 0 39 -17 39 -39c0 -16 -8 -26 -18 -33z" />
<glyph unicode="&#x110;" horiz-adv-x="667" d="M303 0h-209c-28 0 -51 23 -51 51s23 51 51 51h16v200h-46c-25 0 -46 21 -46 46s21 46 46 46h46v177h-16c-28 0 -51 23 -51 51s23 51 51 51h209c199 0 325 -90 325 -337s-126 -336 -325 -336zM226 569v-175h74c25 0 46 -21 46 -46s-21 -46 -46 -46h-74v-198h77 c128 0 205 58 205 232s-77 233 -205 233h-77z" />
<glyph unicode="&#xd0;" horiz-adv-x="667" d="M303 0h-209c-28 0 -51 23 -51 51s23 51 51 51h16v200h-46c-25 0 -46 21 -46 46s21 46 46 46h46v177h-16c-28 0 -51 23 -51 51s23 51 51 51h209c199 0 325 -90 325 -337s-126 -336 -325 -336zM226 569v-175h74c25 0 46 -21 46 -46s-21 -46 -46 -46h-74v-198h77 c128 0 205 58 205 232s-77 233 -205 233h-77z" />
<glyph unicode="&#xc8;" horiz-adv-x="574" d="M225 569v-179h189c28 0 51 -23 51 -51s-23 -51 -51 -51h-189v-184h215v22c0 28 23 51 51 51s51 -23 51 -51v-74c0 -29 -23 -52 -52 -52h-397c-28 0 -51 23 -51 51s23 51 51 51h16v469h-16c-28 0 -51 23 -51 51s23 51 51 51h386c29 0 52 -23 52 -52v-74 c0 -28 -23 -51 -51 -51s-51 23 -51 51v22h-204zM383 774c11 -12 11 -30 -5 -45c-13 -12 -29 -15 -46 0l-98 90c-16 15 -18 39 4 60c20 20 46 21 60 3z" />
<glyph unicode="&#xc9;" horiz-adv-x="574" d="M225 569v-179h189c28 0 51 -23 51 -51s-23 -51 -51 -51h-189v-184h215v22c0 28 23 51 51 51s51 -23 51 -51v-74c0 -29 -23 -52 -52 -52h-397c-28 0 -51 23 -51 51s23 51 51 51h16v469h-16c-28 0 -51 23 -51 51s23 51 51 51h386c29 0 52 -23 52 -52v-74 c0 -28 -23 -51 -51 -51s-51 23 -51 51v22h-204zM328 729c-17 -15 -33 -12 -46 0c-16 15 -16 34 -5 46l85 108c14 18 40 17 60 -3c22 -21 20 -45 4 -60z" />
<glyph unicode="&#xca;" horiz-adv-x="574" d="M225 569v-179h189c28 0 51 -23 51 -51s-23 -51 -51 -51h-189v-184h215v22c0 28 23 51 51 51s51 -23 51 -51v-74c0 -29 -23 -52 -52 -52h-397c-28 0 -51 23 -51 51s23 51 51 51h16v469h-16c-28 0 -51 23 -51 51s23 51 51 51h386c29 0 52 -23 52 -52v-74 c0 -28 -23 -51 -51 -51s-51 23 -51 51v22h-204zM305 855c7 5 15 7 23 7s16 -2 23 -7l93 -62c10 -7 18 -17 18 -33c0 -22 -17 -39 -39 -39c-9 0 -18 3 -23 7l-72 50l-72 -50c-5 -4 -14 -7 -23 -7c-22 0 -39 17 -39 39c0 16 8 26 18 33z" />
<glyph unicode="&#xcb;" horiz-adv-x="574" d="M225 569v-179h189c28 0 51 -23 51 -51s-23 -51 -51 -51h-189v-184h215v22c0 28 23 51 51 51s51 -23 51 -51v-74c0 -29 -23 -52 -52 -52h-397c-28 0 -51 23 -51 51s23 51 51 51h16v469h-16c-28 0 -51 23 -51 51s23 51 51 51h386c29 0 52 -23 52 -52v-74 c0 -28 -23 -51 -51 -51s-51 23 -51 51v22h-204zM277 801c0 -34 -18 -51 -50 -51s-50 17 -50 51c0 37 18 53 50 53s50 -16 50 -53zM458 801c0 -34 -18 -51 -50 -51s-50 17 -50 51c0 37 18 53 50 53s50 -16 50 -53z" />
<glyph unicode="&#x112;" horiz-adv-x="574" d="M225 569v-179h189c28 0 51 -23 51 -51s-23 -51 -51 -51h-189v-184h215v22c0 28 23 51 51 51s51 -23 51 -51v-74c0 -29 -23 -52 -52 -52h-397c-28 0 -51 23 -51 51s23 51 51 51h16v469h-16c-28 0 -51 23 -51 51s23 51 51 51h386c29 0 52 -23 52 -52v-74 c0 -28 -23 -51 -51 -51s-51 23 -51 51v22h-204zM409 810c19 0 34 -14 34 -34c0 -18 -15 -34 -34 -34h-181c-19 0 -34 16 -34 34c0 20 15 34 34 34h181z" />
<glyph unicode="&#x114;" horiz-adv-x="574" d="M225 569v-179h189c28 0 51 -23 51 -51s-23 -51 -51 -51h-189v-184h215v22c0 28 23 51 51 51s51 -23 51 -51v-74c0 -29 -23 -52 -52 -52h-397c-28 0 -51 23 -51 51s23 51 51 51h16v469h-16c-28 0 -51 23 -51 51s23 51 51 51h386c29 0 52 -23 52 -52v-74 c0 -28 -23 -51 -51 -51s-51 23 -51 51v22h-204zM457 833c0 -76 -61 -107 -138 -107s-138 31 -138 107c0 20 16 36 36 36s36 -16 36 -36c0 -30 34 -39 66 -39s66 9 66 39c0 20 16 36 36 36s36 -16 36 -36z" />
<glyph unicode="&#x116;" horiz-adv-x="574" d="M225 569v-179h189c28 0 51 -23 51 -51s-23 -51 -51 -51h-189v-184h215v22c0 28 23 51 51 51s51 -23 51 -51v-74c0 -29 -23 -52 -52 -52h-397c-28 0 -51 23 -51 51s23 51 51 51h16v469h-16c-28 0 -51 23 -51 51s23 51 51 51h386c29 0 52 -23 52 -52v-74 c0 -28 -23 -51 -51 -51s-51 23 -51 51v22h-204zM380 789c0 -35 -19 -51 -52 -51s-52 16 -52 51c0 38 19 54 52 54s52 -16 52 -54z" />
<glyph unicode="&#x118;" horiz-adv-x="574" d="M510 -119c17 0 30 -13 30 -30c0 -11 -5 -18 -10 -22c-18 -15 -54 -17 -73 -17c-57 0 -117 22 -117 88c0 39 25 77 65 100h-312c-28 0 -51 23 -51 51s23 51 51 51h16v469h-16c-28 0 -51 23 -51 51s23 51 51 51h386c29 0 52 -23 52 -52v-74c0 -28 -23 -51 -51 -51 s-51 23 -51 51v22h-204v-179h189c28 0 51 -23 51 -51s-23 -51 -51 -51h-189v-184h215v22c0 28 23 51 51 51s51 -23 51 -51v-74c0 -29 -23 -52 -52 -52h-32c-32 -23 -54 -50 -54 -80c0 -35 30 -46 62 -46c19 0 31 7 44 7z" />
<glyph unicode="&#x11a;" horiz-adv-x="574" d="M225 569v-179h189c28 0 51 -23 51 -51s-23 -51 -51 -51h-189v-184h215v22c0 28 23 51 51 51s51 -23 51 -51v-74c0 -29 -23 -52 -52 -52h-397c-28 0 -51 23 -51 51s23 51 51 51h16v469h-16c-28 0 -51 23 -51 51s23 51 51 51h386c29 0 52 -23 52 -52v-74 c0 -28 -23 -51 -51 -51s-51 23 -51 51v22h-204zM345 750c-7 -5 -15 -7 -23 -7s-16 2 -23 7l-93 62c-10 7 -18 17 -18 33c0 22 17 39 39 39c9 0 18 -3 23 -7l72 -50l72 50c5 4 14 7 23 7c22 0 39 -17 39 -39c0 -16 -8 -26 -18 -33z" />
<glyph unicode="&#x11c;" horiz-adv-x="667" d="M517 147v112h-136c-28 0 -51 23 -51 51s23 51 51 51h194c28 0 55 -24 55 -53v-160c0 -23 -5 -38 -17 -53c-48 -64 -154 -109 -261 -109c-199 0 -313 105 -313 350c0 237 114 351 313 351c121 0 200 -48 241 -108c8 -12 11 -22 11 -33c0 -29 -24 -53 -54 -53 c-14 0 -28 6 -41 20c-41 45 -84 70 -157 70c-133 0 -193 -82 -193 -247c0 -175 60 -246 193 -246c74 0 126 17 165 57zM335 855c7 5 15 7 23 7s16 -2 23 -7l93 -62c10 -7 18 -17 18 -33c0 -22 -17 -39 -39 -39c-9 0 -18 3 -23 7l-72 50l-72 -50c-5 -4 -14 -7 -23 -7 c-22 0 -39 17 -39 39c0 16 8 26 18 33z" />
<glyph unicode="&#x11e;" horiz-adv-x="667" d="M517 147v112h-136c-28 0 -51 23 -51 51s23 51 51 51h194c28 0 55 -24 55 -53v-160c0 -23 -5 -38 -17 -53c-48 -64 -154 -109 -261 -109c-199 0 -313 105 -313 350c0 237 114 351 313 351c121 0 200 -48 241 -108c8 -12 11 -22 11 -33c0 -29 -24 -53 -54 -53 c-14 0 -28 6 -41 20c-41 45 -84 70 -157 70c-133 0 -193 -82 -193 -247c0 -175 60 -246 193 -246c74 0 126 17 165 57zM495 832c0 -76 -61 -107 -138 -107s-138 31 -138 107c0 20 16 36 36 36s36 -16 36 -36c0 -30 34 -39 66 -39s66 9 66 39c0 20 16 36 36 36s36 -16 36 -36 z" />
<glyph unicode="&#x120;" horiz-adv-x="667" d="M517 147v112h-136c-28 0 -51 23 -51 51s23 51 51 51h194c28 0 55 -24 55 -53v-160c0 -23 -5 -38 -17 -53c-48 -64 -154 -109 -261 -109c-199 0 -313 105 -313 350c0 237 114 351 313 351c121 0 200 -48 241 -108c8 -12 11 -22 11 -33c0 -29 -24 -53 -54 -53 c-14 0 -28 6 -41 20c-41 45 -84 70 -157 70c-133 0 -193 -82 -193 -247c0 -175 60 -246 193 -246c74 0 126 17 165 57zM412 789c0 -35 -19 -51 -52 -51s-52 16 -52 51c0 38 19 54 52 54s52 -16 52 -54z" />
<glyph unicode="&#x122;" horiz-adv-x="667" d="M517 147v112h-136c-28 0 -51 23 -51 51s23 51 51 51h194c28 0 55 -24 55 -53v-160c0 -23 -5 -38 -17 -53c-48 -64 -154 -109 -261 -109c-199 0 -313 105 -313 350c0 237 114 351 313 351c121 0 200 -48 241 -108c8 -12 11 -22 11 -33c0 -29 -24 -53 -54 -53 c-14 0 -28 6 -41 20c-41 45 -84 70 -157 70c-133 0 -193 -82 -193 -247c0 -175 60 -246 193 -246c74 0 126 17 165 57zM310 -98c0 36 20 55 55 55c34 0 53 -21 53 -57c0 -73 -41 -133 -77 -159c-4 -3 -8 -6 -17 -6c-10 0 -17 9 -17 18c0 6 2 10 6 15c24 30 35 48 38 84 c-29 5 -41 26 -41 50z" />
<glyph unicode="&#xf6c3;" horiz-adv-x="146" d="M23 -94c0 36 20 55 55 55c34 0 53 -21 53 -57c0 -73 -41 -133 -77 -159c-4 -3 -8 -6 -17 -6c-10 0 -17 9 -17 18c0 6 2 10 6 15c24 30 35 48 38 84c-29 5 -41 26 -41 50z" />
<glyph unicode="&#x124;" horiz-adv-x="736" d="M241 571h-16v-174h286v174h-16c-28 0 -51 23 -51 51s23 51 51 51h148c28 0 51 -23 51 -51s-23 -51 -51 -51h-16v-469h16c28 0 51 -23 51 -51s-23 -51 -51 -51h-148c-28 0 -51 23 -51 51s23 51 51 51h16v189h-286v-189h16c28 0 51 -23 51 -51s-23 -51 -51 -51h-148 c-28 0 -51 23 -51 51s23 51 51 51h16v469h-16c-28 0 -51 23 -51 51s23 51 51 51h148c28 0 51 -23 51 -51s-23 -51 -51 -51zM352 856c7 5 15 7 23 7s16 -2 23 -7l93 -62c10 -7 18 -17 18 -33c0 -22 -17 -39 -39 -39c-9 0 -18 3 -23 7l-72 50l-72 -50c-5 -4 -14 -7 -23 -7 c-22 0 -39 17 -39 39c0 16 8 26 18 33z" />
<glyph unicode="&#x126;" horiz-adv-x="736" d="M241 571h-16v-37h286v37h-16c-28 0 -51 23 -51 51s23 51 51 51h148c28 0 51 -23 51 -51s-23 -51 -51 -51h-16v-37h23c23 0 42 -17 42 -38s-19 -38 -42 -38h-23v-356h16c28 0 51 -23 51 -51s-23 -51 -51 -51h-148c-28 0 -51 23 -51 51s23 51 51 51h16v189h-286v-189h16 c28 0 51 -23 51 -51s-23 -51 -51 -51h-148c-28 0 -51 23 -51 51s23 51 51 51h16v356h-23c-23 0 -42 17 -42 38s19 38 42 38h23v37h-16c-28 0 -51 23 -51 51s23 51 51 51h148c28 0 51 -23 51 -51s-23 -51 -51 -51zM225 397h286v61h-286v-61z" />
<glyph unicode="&#xcc;" horiz-adv-x="334" d="M241 571h-16v-469h16c28 0 51 -23 51 -51s-23 -51 -51 -51h-148c-28 0 -51 23 -51 51s23 51 51 51h16v469h-16c-28 0 -51 23 -51 51s23 51 51 51h148c28 0 51 -23 51 -51s-23 -51 -51 -51zM244 774c11 -12 11 -30 -5 -45c-13 -12 -29 -15 -46 0l-98 90 c-16 15 -18 39 4 60c20 20 46 21 60 3z" />
<glyph unicode="&#xcd;" horiz-adv-x="334" d="M241 571h-16v-469h16c28 0 51 -23 51 -51s-23 -51 -51 -51h-148c-28 0 -51 23 -51 51s23 51 51 51h16v469h-16c-28 0 -51 23 -51 51s23 51 51 51h148c28 0 51 -23 51 -51s-23 -51 -51 -51zM159 729c-17 -15 -33 -12 -46 0c-16 15 -16 34 -5 46l85 108c14 18 40 17 60 -3 c22 -21 20 -45 4 -60z" />
<glyph unicode="&#xce;" horiz-adv-x="334" d="M241 571h-16v-469h16c28 0 51 -23 51 -51s-23 -51 -51 -51h-148c-28 0 -51 23 -51 51s23 51 51 51h16v469h-16c-28 0 -51 23 -51 51s23 51 51 51h148c28 0 51 -23 51 -51s-23 -51 -51 -51zM145 855c7 5 15 7 23 7s16 -2 23 -7l93 -62c10 -7 18 -17 18 -33 c0 -22 -17 -39 -39 -39c-9 0 -18 3 -23 7l-72 50l-72 -50c-5 -4 -14 -7 -23 -7c-22 0 -39 17 -39 39c0 16 8 26 18 33z" />
<glyph unicode="&#xcf;" horiz-adv-x="334" d="M241 571h-16v-469h16c28 0 51 -23 51 -51s-23 -51 -51 -51h-148c-28 0 -51 23 -51 51s23 51 51 51h16v469h-16c-28 0 -51 23 -51 51s23 51 51 51h148c28 0 51 -23 51 -51s-23 -51 -51 -51zM129 802c0 -34 -18 -51 -50 -51s-50 17 -50 51c0 37 18 53 50 53s50 -16 50 -53z M310 802c0 -34 -18 -51 -50 -51s-50 17 -50 51c0 37 18 53 50 53s50 -16 50 -53z" />
<glyph unicode="&#x128;" horiz-adv-x="334" d="M241 571h-16v-469h16c28 0 51 -23 51 -51s-23 -51 -51 -51h-148c-28 0 -51 23 -51 51s23 51 51 51h16v469h-16c-28 0 -51 23 -51 51s23 51 51 51h148c28 0 51 -23 51 -51s-23 -51 -51 -51zM98 835c56 0 92 -33 129 -33c11 0 18 5 26 16c7 10 19 17 33 17 c22 0 39 -16 39 -37c0 -4 -1 -12 -3 -16c-13 -31 -48 -49 -86 -49c-56 0 -96 33 -129 33c-11 0 -18 -5 -26 -16c-7 -10 -19 -17 -33 -17c-22 0 -39 16 -39 37c0 4 1 12 3 16c13 31 48 49 86 49z" />
<glyph unicode="&#x12a;" horiz-adv-x="334" d="M241 571h-16v-469h16c28 0 51 -23 51 -51s-23 -51 -51 -51h-148c-28 0 -51 23 -51 51s23 51 51 51h16v469h-16c-28 0 -51 23 -51 51s23 51 51 51h148c28 0 51 -23 51 -51s-23 -51 -51 -51zM257 810c19 0 34 -14 34 -34c0 -18 -15 -34 -34 -34h-181c-19 0 -34 16 -34 34 c0 20 15 34 34 34h181z" />
<glyph unicode="&#x12c;" horiz-adv-x="334" d="M241 571h-16v-469h16c28 0 51 -23 51 -51s-23 -51 -51 -51h-148c-28 0 -51 23 -51 51s23 51 51 51h16v469h-16c-28 0 -51 23 -51 51s23 51 51 51h148c28 0 51 -23 51 -51s-23 -51 -51 -51zM304 832c0 -76 -61 -107 -138 -107s-138 31 -138 107c0 20 16 36 36 36 s36 -16 36 -36c0 -30 34 -39 66 -39s66 9 66 39c0 20 16 36 36 36s36 -16 36 -36z" />
<glyph unicode="&#x12e;" horiz-adv-x="334" d="M262 -119c17 0 30 -13 30 -30c0 -11 -5 -18 -10 -22c-18 -15 -54 -17 -73 -17c-57 0 -117 22 -117 88c0 39 25 77 65 100h-64c-28 0 -51 23 -51 51s23 51 51 51h16v469h-16c-28 0 -51 23 -51 51s23 51 51 51h148c28 0 51 -23 51 -51s-23 -51 -51 -51h-16v-469h16 c28 0 51 -23 51 -51s-23 -51 -51 -51h-31c-32 -23 -54 -50 -54 -80c0 -35 30 -46 62 -46c19 0 31 7 44 7z" />
<glyph unicode="&#x130;" horiz-adv-x="334" d="M241 571h-16v-469h16c28 0 51 -23 51 -51s-23 -51 -51 -51h-148c-28 0 -51 23 -51 51s23 51 51 51h16v469h-16c-28 0 -51 23 -51 51s23 51 51 51h148c28 0 51 -23 51 -51s-23 -51 -51 -51zM219 788c0 -35 -19 -51 -52 -51s-52 16 -52 51c0 38 19 54 52 54s52 -16 52 -54z " />
<glyph unicode="&#x134;" horiz-adv-x="462" d="M214 571c-28 0 -51 23 -51 51s23 51 51 51h167c28 0 51 -23 51 -51s-23 -51 -51 -51h-16v-361c0 -128 -56 -223 -209 -223c-40 0 -91 10 -119 27c-17 9 -28 25 -28 46c0 29 23 52 52 52c9 0 15 -2 23 -5c25 -10 51 -15 72 -15c67 0 93 50 93 118v361h-35zM283 853 c7 5 15 7 23 7s16 -2 23 -7l93 -62c10 -7 18 -17 18 -33c0 -22 -17 -39 -39 -39c-9 0 -18 3 -23 7l-72 50l-72 -50c-5 -4 -14 -7 -23 -7c-22 0 -39 17 -39 39c0 16 8 26 18 33z" />
<glyph unicode="&#x136;" horiz-adv-x="659" d="M605 0h-79c-27 0 -41 13 -49 24l-189 265l-63 -65v-122h16c28 0 51 -23 51 -51s-23 -51 -51 -51h-148c-28 0 -51 23 -51 51s23 51 51 51h16v469h-16c-28 0 -51 23 -51 51s23 51 51 51h148c29 0 53 -23 53 -51s-24 -51 -53 -51h-16v-198l194 198h-4c-28 0 -51 23 -51 51 s23 51 51 51h184c28 0 51 -23 51 -51s-23 -51 -51 -51h-34l-198 -202l193 -267h45c28 0 51 -23 51 -51s-23 -51 -51 -51zM283 -98c0 36 20 55 55 55c34 0 53 -21 53 -57c0 -73 -41 -133 -77 -159c-4 -3 -8 -6 -17 -6c-10 0 -17 9 -17 18c0 6 2 10 6 15c24 30 35 48 38 84 c-29 5 -41 26 -41 50z" />
<glyph unicode="&#x139;" horiz-adv-x="542" d="M225 104h191v52c0 28 23 51 51 51s51 -23 51 -51v-105c0 -28 -25 -51 -56 -51h-369c-28 0 -51 23 -51 51s23 51 51 51h16v469h-16c-28 0 -51 23 -51 51s23 51 51 51h148c28 0 51 -23 51 -51s-23 -51 -51 -51h-16v-467zM158 729c-17 -15 -33 -12 -46 0 c-16 15 -16 34 -5 46l85 108c14 18 40 17 60 -3c22 -21 20 -45 4 -60z" />
<glyph unicode="&#x13b;" horiz-adv-x="542" d="M225 104h191v52c0 28 23 51 51 51s51 -23 51 -51v-105c0 -28 -25 -51 -56 -51h-369c-28 0 -51 23 -51 51s23 51 51 51h16v469h-16c-28 0 -51 23 -51 51s23 51 51 51h148c28 0 51 -23 51 -51s-23 -51 -51 -51h-16v-467zM267 -98c0 36 20 55 55 55c34 0 53 -21 53 -57 c0 -73 -41 -133 -77 -159c-4 -3 -8 -6 -17 -6c-10 0 -17 9 -17 18c0 6 2 10 6 15c24 30 35 48 38 84c-29 5 -41 26 -41 50z" />
<glyph unicode="&#x13d;" horiz-adv-x="559" d="M225 104h191v52c0 28 23 51 51 51s51 -23 51 -51v-105c0 -28 -25 -51 -56 -51h-369c-28 0 -51 23 -51 51s23 51 51 51h16v469h-16c-28 0 -51 23 -51 51s23 51 51 51h148c28 0 51 -23 51 -51s-23 -51 -51 -51h-16v-467zM400 681h18c29 0 42 -15 42 -41l-26 -160 c-4 -23 -11 -36 -34 -36c-24 0 -35 13 -35 36l-9 160c-1 26 13 41 44 41z" />
<glyph unicode="&#x2019;" horiz-adv-x="211" d="M47 616c0 43 26 65 70 65c40 0 63 -25 63 -67c0 -85 -52 -153 -95 -185c-4 -3 -8 -6 -16 -6c-13 0 -22 11 -22 23c0 6 2 11 6 16c27 33 40 53 44 94c-34 7 -50 31 -50 60z" />
<glyph unicode="&#x13f;" horiz-adv-x="542" d="M225 104h191v52c0 28 23 51 51 51s51 -23 51 -51v-105c0 -28 -25 -51 -56 -51h-369c-28 0 -51 23 -51 51s23 51 51 51h16v469h-16c-28 0 -51 23 -51 51s23 51 51 51h148c28 0 51 -23 51 -51s-23 -51 -51 -51h-16v-467zM476 342c0 -44 -23 -65 -65 -65s-66 21 -66 65 c0 45 24 67 66 67s65 -22 65 -67z" />
<glyph unicode="&#xb7;" horiz-adv-x="229" d="M180 300c0 -44 -23 -65 -65 -65s-66 21 -66 65c0 45 24 67 66 67s65 -22 65 -67z" />
<glyph unicode="&#x141;" horiz-adv-x="543" d="M91 227c-7 -3 -15 -4 -20 -4c-25 0 -47 22 -47 47c0 19 8 35 32 46l54 18v237h-16c-28 0 -51 23 -51 51s23 51 51 51h148c28 0 51 -23 51 -51s-23 -51 -51 -51h-16v-196l136 47c7 3 12 4 19 4c27 0 48 -21 48 -48c0 -20 -13 -38 -28 -43l-175 -61v-170h191v52 c0 28 23 51 51 51s51 -23 51 -51v-105c0 -28 -25 -51 -56 -51h-369c-28 0 -51 23 -51 51s23 51 51 51h16v131z" />
<glyph unicode="&#xd1;" horiz-adv-x="720" d="M240 0h-148c-28 0 -51 23 -51 51s23 51 51 51h17v469h-17c-28 0 -51 23 -51 51s23 51 51 51h81c19 0 33 -7 43 -22l292 -423v343h-17c-28 0 -51 23 -51 51s23 51 51 51h148c28 0 51 -23 51 -51s-23 -51 -51 -51h-17v-522c0 -31 -26 -57 -57 -57c-19 0 -37 10 -47 25 l-295 426v-341h17c28 0 51 -23 51 -51s-23 -51 -51 -51zM296 834c56 0 92 -33 129 -33c11 0 18 5 26 16c7 10 19 17 33 17c22 0 39 -16 39 -37c0 -4 -1 -12 -3 -16c-13 -31 -48 -49 -86 -49c-56 0 -96 33 -129 33c-11 0 -18 -5 -26 -16c-7 -10 -19 -17 -33 -17 c-22 0 -39 16 -39 37c0 4 1 12 3 16c13 31 48 49 86 49z" />
<glyph unicode="&#x143;" horiz-adv-x="720" d="M240 0h-148c-28 0 -51 23 -51 51s23 51 51 51h17v469h-17c-28 0 -51 23 -51 51s23 51 51 51h81c19 0 33 -7 43 -22l292 -423v343h-17c-28 0 -51 23 -51 51s23 51 51 51h148c28 0 51 -23 51 -51s-23 -51 -51 -51h-17v-522c0 -31 -26 -57 -57 -57c-19 0 -37 10 -47 25 l-295 426v-341h17c28 0 51 -23 51 -51s-23 -51 -51 -51zM367 729c-17 -15 -33 -12 -46 0c-16 15 -16 34 -5 46l85 108c14 18 40 17 60 -3c22 -21 20 -45 4 -60z" />
<glyph unicode="&#x145;" horiz-adv-x="720" d="M240 0h-148c-28 0 -51 23 -51 51s23 51 51 51h17v469h-17c-28 0 -51 23 -51 51s23 51 51 51h81c19 0 33 -7 43 -22l292 -423v343h-17c-28 0 -51 23 -51 51s23 51 51 51h148c28 0 51 -23 51 -51s-23 -51 -51 -51h-17v-522c0 -31 -26 -57 -57 -57c-19 0 -37 10 -47 25 l-295 426v-341h17c28 0 51 -23 51 -51s-23 -51 -51 -51zM318 -98c0 36 20 55 55 55c34 0 53 -21 53 -57c0 -73 -41 -133 -77 -159c-4 -3 -8 -6 -17 -6c-10 0 -17 9 -17 18c0 6 2 10 6 15c24 30 35 48 38 84c-29 5 -41 26 -41 50z" />
<glyph unicode="&#x147;" horiz-adv-x="720" d="M240 0h-148c-28 0 -51 23 -51 51s23 51 51 51h17v469h-17c-28 0 -51 23 -51 51s23 51 51 51h81c19 0 33 -7 43 -22l292 -423v343h-17c-28 0 -51 23 -51 51s23 51 51 51h148c28 0 51 -23 51 -51s-23 -51 -51 -51h-17v-522c0 -31 -26 -57 -57 -57c-19 0 -37 10 -47 25 l-295 426v-341h17c28 0 51 -23 51 -51s-23 -51 -51 -51zM398 727c-7 -5 -15 -7 -23 -7s-16 2 -23 7l-93 62c-10 7 -18 17 -18 33c0 22 17 39 39 39c9 0 18 -3 23 -7l72 -50l72 50c5 4 14 7 23 7c22 0 39 -17 39 -39c0 -16 -8 -26 -18 -33z" />
<glyph unicode="&#x14a;" horiz-adv-x="720" d="M639 571h-17v-549c0 -128 -56 -223 -209 -223c-29 0 -52 23 -52 52c0 30 23 53 52 53c67 0 95 50 95 118v9l-285 412v-341h17c28 0 51 -23 51 -51s-23 -51 -51 -51h-148c-28 0 -51 23 -51 51s23 51 51 51h17v469h-17c-28 0 -51 23 -51 51s23 51 51 51h80 c22 0 35 -9 45 -23l291 -422v343h-17c-28 0 -51 23 -51 51s23 51 51 51h148c28 0 51 -23 51 -51s-23 -51 -51 -51z" />
<glyph unicode="&#xd2;" horiz-adv-x="712" d="M39 336c0 237 115 351 317 351s317 -114 317 -351c0 -234 -115 -350 -317 -350s-317 116 -317 350zM159 336c0 -165 65 -246 197 -246s197 81 197 246c0 166 -65 247 -197 247s-197 -81 -197 -247zM434 774c11 -12 11 -30 -5 -45c-13 -12 -29 -15 -46 0l-98 90 c-16 15 -18 39 4 60c20 20 46 21 60 3z" />
<glyph unicode="&#xd3;" horiz-adv-x="712" d="M39 336c0 237 115 351 317 351s317 -114 317 -351c0 -234 -115 -350 -317 -350s-317 116 -317 350zM159 336c0 -165 65 -246 197 -246s197 81 197 246c0 166 -65 247 -197 247s-197 -81 -197 -247zM347 729c-17 -15 -33 -12 -46 0c-16 15 -16 34 -5 46l85 108 c14 18 40 17 60 -3c22 -21 20 -45 4 -60z" />
<glyph unicode="&#xd4;" horiz-adv-x="712" d="M39 336c0 237 115 351 317 351s317 -114 317 -351c0 -234 -115 -350 -317 -350s-317 116 -317 350zM159 336c0 -165 65 -246 197 -246s197 81 197 246c0 166 -65 247 -197 247s-197 -81 -197 -247zM332 855c7 5 15 7 23 7s16 -2 23 -7l93 -62c10 -7 18 -17 18 -33 c0 -22 -17 -39 -39 -39c-9 0 -18 3 -23 7l-72 50l-72 -50c-5 -4 -14 -7 -23 -7c-22 0 -39 17 -39 39c0 16 8 26 18 33z" />
<glyph unicode="&#xd5;" horiz-adv-x="712" d="M39 336c0 237 115 351 317 351s317 -114 317 -351c0 -234 -115 -350 -317 -350s-317 116 -317 350zM159 336c0 -165 65 -246 197 -246s197 81 197 246c0 166 -65 247 -197 247s-197 -81 -197 -247zM287 834c56 0 92 -33 129 -33c11 0 18 5 26 16c7 10 19 17 33 17 c22 0 39 -16 39 -37c0 -4 -1 -12 -3 -16c-13 -31 -48 -49 -86 -49c-56 0 -96 33 -129 33c-11 0 -18 -5 -26 -16c-7 -10 -19 -17 -33 -17c-22 0 -39 16 -39 37c0 4 1 12 3 16c13 31 48 49 86 49z" />
<glyph unicode="&#xd6;" horiz-adv-x="712" d="M39 336c0 237 115 351 317 351s317 -114 317 -351c0 -234 -115 -350 -317 -350s-317 116 -317 350zM159 336c0 -165 65 -246 197 -246s197 81 197 246c0 166 -65 247 -197 247s-197 -81 -197 -247zM315 792c0 -34 -18 -51 -50 -51s-50 17 -50 51c0 37 18 53 50 53 s50 -16 50 -53zM496 792c0 -34 -18 -51 -50 -51s-50 17 -50 51c0 37 18 53 50 53s50 -16 50 -53z" />
<glyph unicode="&#x14c;" horiz-adv-x="712" d="M39 336c0 237 115 351 317 351s317 -114 317 -351c0 -234 -115 -350 -317 -350s-317 116 -317 350zM159 336c0 -165 65 -246 197 -246s197 81 197 246c0 166 -65 247 -197 247s-197 -81 -197 -247zM446 799c19 0 34 -14 34 -34c0 -18 -15 -34 -34 -34h-181 c-19 0 -34 16 -34 34c0 20 15 34 34 34h181z" />
<glyph unicode="&#x14e;" horiz-adv-x="712" d="M39 336c0 237 115 351 317 351s317 -114 317 -351c0 -234 -115 -350 -317 -350s-317 116 -317 350zM159 336c0 -165 65 -246 197 -246s197 81 197 246c0 166 -65 247 -197 247s-197 -81 -197 -247zM494 832c0 -76 -61 -107 -138 -107s-138 31 -138 107c0 20 16 36 36 36 s36 -16 36 -36c0 -30 34 -39 66 -39s66 9 66 39c0 20 16 36 36 36s36 -16 36 -36z" />
<glyph unicode="&#x150;" horiz-adv-x="712" d="M39 336c0 237 115 351 317 351s317 -114 317 -351c0 -234 -115 -350 -317 -350s-317 116 -317 350zM159 336c0 -165 65 -246 197 -246s197 81 197 246c0 166 -65 247 -197 247s-197 -81 -197 -247zM289 729c-17 -15 -33 -12 -46 0c-16 15 -16 33 -5 45l85 108 c14 18 40 17 60 -3c22 -21 20 -45 4 -60zM432 729c-17 -15 -33 -12 -46 0c-16 15 -16 33 -5 45l85 108c14 18 40 17 60 -3c22 -21 20 -45 4 -60z" />
<glyph unicode="&#x2dd;" horiz-adv-x="508" d="M156 525c-17 -15 -33 -12 -46 0c-16 15 -16 33 -5 45l85 108c14 18 40 17 60 -3c22 -21 20 -45 4 -60zM299 525c-17 -15 -33 -12 -46 0c-16 15 -16 33 -5 45l85 108c14 18 40 17 60 -3c22 -21 20 -45 4 -60z" />
<glyph unicode="&#xd8;" horiz-adv-x="712" d="M39 336c0 237 115 351 317 351c73 0 136 -15 185 -46l30 37c10 13 22 18 36 18c28 0 51 -20 51 -46c0 -9 -3 -21 -9 -28l-38 -47c40 -57 62 -137 62 -239c0 -234 -115 -350 -317 -350c-74 0 -137 15 -186 47l-33 -41c-10 -12 -23 -18 -38 -18c-27 0 -49 21 -49 46 c0 9 3 19 9 28l41 51c-40 57 -61 136 -61 237zM356 90c132 0 197 81 197 246c0 56 -8 103 -23 140l-289 -356c30 -20 68 -30 115 -30zM159 336c0 -55 7 -101 22 -138l288 355c-30 20 -67 30 -113 30c-132 0 -197 -81 -197 -247z" />
<glyph unicode="&#x1fe;" horiz-adv-x="712" d="M347 729c-17 -15 -33 -12 -46 0c-16 15 -16 34 -5 46l85 108c14 18 40 17 60 -3c22 -21 20 -45 4 -60zM39 336c0 237 115 351 317 351c73 0 136 -15 185 -46l30 37c10 13 22 18 36 18c28 0 51 -20 51 -46c0 -9 -3 -21 -9 -28l-38 -47c40 -57 62 -137 62 -239 c0 -234 -115 -350 -317 -350c-74 0 -137 15 -186 47l-33 -41c-10 -12 -23 -18 -38 -18c-27 0 -49 21 -49 46c0 9 3 19 9 28l41 51c-40 57 -61 136 -61 237zM356 90c132 0 197 81 197 246c0 56 -8 103 -23 140l-289 -356c30 -20 68 -30 115 -30zM159 336 c0 -55 7 -101 22 -138l288 355c-30 20 -67 30 -113 30c-132 0 -197 -81 -197 -247z" />
<glyph unicode="&#x154;" horiz-adv-x="632" d="M576 0h-82c-17 0 -31 6 -41 21l-163 237h-65v-156h16c28 0 51 -23 51 -51s-23 -51 -51 -51h-148c-28 0 -51 23 -51 51s23 51 51 51h16v469h-16c-28 0 -51 23 -51 51s23 51 51 51h265c135 0 211 -96 211 -209c0 -95 -58 -187 -154 -199l117 -163h44c28 0 51 -23 51 -51 s-23 -51 -51 -51zM357 569h-132v-209h135c62 0 89 51 89 104c0 54 -27 105 -92 105zM301 729c-17 -15 -33 -12 -46 0c-16 15 -16 34 -5 46l85 108c14 18 40 17 60 -3c22 -21 20 -45 4 -60z" />
<glyph unicode="&#x156;" horiz-adv-x="632" d="M576 0h-82c-17 0 -31 6 -41 21l-163 237h-65v-156h16c28 0 51 -23 51 -51s-23 -51 -51 -51h-148c-28 0 -51 23 -51 51s23 51 51 51h16v469h-16c-28 0 -51 23 -51 51s23 51 51 51h265c135 0 211 -96 211 -209c0 -95 -58 -187 -154 -199l117 -163h44c28 0 51 -23 51 -51 s-23 -51 -51 -51zM357 569h-132v-209h135c62 0 89 51 89 104c0 54 -27 105 -92 105zM282 -98c0 36 20 55 55 55c34 0 53 -21 53 -57c0 -73 -41 -133 -77 -159c-4 -3 -8 -6 -17 -6c-10 0 -17 9 -17 18c0 6 2 10 6 15c24 30 35 48 38 84c-29 5 -41 26 -41 50z" />
<glyph unicode="&#x158;" horiz-adv-x="632" d="M576 0h-82c-17 0 -31 6 -41 21l-163 237h-65v-156h16c28 0 51 -23 51 -51s-23 -51 -51 -51h-148c-28 0 -51 23 -51 51s23 51 51 51h16v469h-16c-28 0 -51 23 -51 51s23 51 51 51h265c135 0 211 -96 211 -209c0 -95 -58 -187 -154 -199l117 -163h44c28 0 51 -23 51 -51 s-23 -51 -51 -51zM357 569h-132v-209h135c62 0 89 51 89 104c0 54 -27 105 -92 105zM350 728c-7 -5 -15 -7 -23 -7s-16 2 -23 7l-93 62c-10 7 -18 17 -18 33c0 22 17 39 39 39c9 0 18 -3 23 -7l72 -50l72 50c5 4 14 7 23 7c22 0 39 -17 39 -39c0 -16 -8 -26 -18 -33z" />
<glyph unicode="&#x15a;" d="M466 508c-14 0 -28 8 -43 22c-31 30 -83 53 -140 53c-83 0 -114 -39 -114 -79c0 -131 365 -70 365 -320c0 -122 -86 -198 -251 -198c-119 0 -215 56 -253 117c-5 8 -8 18 -8 28c0 30 24 54 53 54c22 0 34 -12 44 -22c41 -41 95 -71 164 -71c91 0 135 30 135 92 c0 146 -365 79 -365 320c0 99 71 183 230 183c100 0 187 -37 227 -94c6 -9 10 -20 10 -32c0 -29 -24 -53 -54 -53zM272 729c-17 -15 -33 -12 -46 0c-16 15 -16 34 -5 46l85 108c14 18 40 17 60 -3c22 -21 20 -45 4 -60z" />
<glyph unicode="&#x15c;" d="M466 508c-14 0 -28 8 -43 22c-31 30 -83 53 -140 53c-83 0 -114 -39 -114 -79c0 -131 365 -70 365 -320c0 -122 -86 -198 -251 -198c-119 0 -215 56 -253 117c-5 8 -8 18 -8 28c0 30 24 54 53 54c22 0 34 -12 44 -22c41 -41 95 -71 164 -71c91 0 135 30 135 92 c0 146 -365 79 -365 320c0 99 71 183 230 183c100 0 187 -37 227 -94c6 -9 10 -20 10 -32c0 -29 -24 -53 -54 -53zM268 854c7 5 15 7 23 7s16 -2 23 -7l93 -62c10 -7 18 -17 18 -33c0 -22 -17 -39 -39 -39c-9 0 -18 3 -23 7l-72 50l-72 -50c-5 -4 -14 -7 -23 -7 c-22 0 -39 17 -39 39c0 16 8 26 18 33z" />
<glyph unicode="&#x15e;" d="M307 -34c49 0 85 -26 85 -74c0 -50 -31 -80 -99 -80c-25 0 -59 8 -80 22c-6 4 -11 11 -11 21c0 14 12 26 26 26c5 0 8 -1 12 -3c17 -9 31 -14 55 -14s38 7 38 28c0 17 -17 24 -41 24c-17 0 -30 -4 -44 -4s-21 9 -21 22v56c-93 14 -165 62 -197 113c-5 8 -8 18 -8 28 c0 30 24 54 53 54c22 0 34 -12 44 -22c41 -41 95 -71 164 -71c91 0 135 30 135 92c0 146 -365 79 -365 320c0 99 71 183 230 183c100 0 187 -37 227 -94c6 -9 10 -20 10 -32c0 -29 -24 -53 -54 -53c-14 0 -28 8 -43 22c-31 30 -83 53 -140 53c-83 0 -114 -39 -114 -79 c0 -131 365 -70 365 -320c0 -122 -86 -198 -251 -198h-7l-2 -23s12 3 33 3z" />
<glyph unicode="&#x160;" d="M466 508c-14 0 -28 8 -43 22c-31 30 -83 53 -140 53c-83 0 -114 -39 -114 -79c0 -131 365 -70 365 -320c0 -122 -86 -198 -251 -198c-119 0 -215 56 -253 117c-5 8 -8 18 -8 28c0 30 24 54 53 54c22 0 34 -12 44 -22c41 -41 95 -71 164 -71c91 0 135 30 135 92 c0 146 -365 79 -365 320c0 99 71 183 230 183c100 0 187 -37 227 -94c6 -9 10 -20 10 -32c0 -29 -24 -53 -54 -53zM314 751c-7 -5 -15 -7 -23 -7s-16 2 -23 7l-93 62c-10 7 -18 17 -18 33c0 22 17 39 39 39c9 0 18 -3 23 -7l72 -50l72 50c5 4 14 7 23 7c22 0 39 -17 39 -39 c0 -16 -8 -26 -18 -33z" />
<glyph unicode="&#x218;" d="M466 508c-14 0 -28 8 -43 22c-31 30 -83 53 -140 53c-83 0 -114 -39 -114 -79c0 -131 365 -70 365 -320c0 -122 -86 -198 -251 -198c-119 0 -215 56 -253 117c-5 8 -8 18 -8 28c0 30 24 54 53 54c22 0 34 -12 44 -22c41 -41 95 -71 164 -71c91 0 135 30 135 92 c0 146 -365 79 -365 320c0 99 71 183 230 183c100 0 187 -37 227 -94c6 -9 10 -20 10 -32c0 -29 -24 -53 -54 -53zM232 -98c0 36 20 55 55 55c34 0 53 -21 53 -57c0 -73 -41 -133 -77 -159c-4 -3 -8 -6 -17 -6c-10 0 -17 9 -17 18c0 6 2 10 6 15c24 30 35 48 38 84 c-29 5 -41 26 -41 50z" />
<glyph unicode="&#x162;" horiz-adv-x="574" d="M344 -34c49 0 85 -26 85 -74c0 -50 -31 -80 -99 -80c-25 0 -59 8 -80 22c-6 4 -11 11 -11 21c0 14 12 26 26 26c5 0 8 -1 12 -3c17 -9 31 -14 55 -14s38 7 38 28c0 17 -17 24 -41 24c-17 0 -30 -4 -44 -4s-21 9 -21 22v66h-57c-28 0 -51 23 -51 51s23 51 51 51h22v469 h-102v-47c0 -28 -23 -51 -51 -51s-51 23 -51 51v100c0 27 23 49 51 49h422c27 0 51 -22 51 -49v-100c0 -28 -23 -51 -51 -51s-51 23 -51 51v47h-102v-469h22c28 0 51 -23 51 -51s-23 -51 -51 -51h-53l-3 -37s12 3 33 3z" />
<glyph unicode="&#x164;" horiz-adv-x="574" d="M367 0h-160c-28 0 -51 23 -51 51s23 51 51 51h22v469h-102v-47c0 -28 -23 -51 -51 -51s-51 23 -51 51v100c0 27 23 49 51 49h422c27 0 51 -22 51 -49v-100c0 -28 -23 -51 -51 -51s-51 23 -51 51v47h-102v-469h22c28 0 51 -23 51 -51s-23 -51 -51 -51zM313 729 c-7 -5 -15 -7 -23 -7s-16 2 -23 7l-93 62c-10 7 -18 17 -18 33c0 22 17 39 39 39c9 0 18 -3 23 -7l72 -50l72 50c5 4 14 7 23 7c22 0 39 -17 39 -39c0 -16 -8 -26 -18 -33z" />
<glyph unicode="&#x166;" horiz-adv-x="574" d="M367 0h-160c-28 0 -51 23 -51 51s23 51 51 51h22v194h-62c-27 0 -51 25 -51 51c0 27 24 51 51 51h62v173h-102v-47c0 -28 -23 -51 -51 -51s-51 23 -51 51v100c0 27 23 49 51 49h422c27 0 51 -22 51 -49v-100c0 -28 -23 -51 -51 -51s-51 23 -51 51v47h-102v-173h62 c27 0 51 -24 51 -51c0 -26 -24 -51 -51 -51h-62v-194h22c28 0 51 -23 51 -51s-23 -51 -51 -51z" />
<glyph unicode="&#xde;" horiz-adv-x="587" d="M241 571h-16v-43h133c117 0 210 -60 210 -190c0 -127 -91 -190 -210 -190h-133v-48h16c28 0 51 -22 51 -49c0 -28 -23 -51 -51 -51h-148c-28 0 -51 23 -51 51s23 51 51 51h16v469h-16c-28 0 -51 23 -51 51s23 51 51 51h148c28 0 51 -23 51 -51s-23 -51 -51 -51zM349 424 h-124v-172h124c62 0 99 31 99 86c0 56 -38 86 -99 86z" />
<glyph unicode="&#xd9;" horiz-adv-x="696" d="M233 571h-21v-351c0 -61 23 -132 136 -132s136 71 136 132v351h-21c-28 0 -51 23 -51 51s23 51 51 51h153c28 0 51 -23 51 -51s-23 -51 -51 -51h-16v-351c0 -114 -50 -234 -252 -234s-252 120 -252 234v351h-16c-28 0 -51 23 -51 51s23 51 51 51h153c28 0 51 -23 51 -51 s-23 -51 -51 -51zM415 774c11 -12 11 -30 -5 -45c-13 -12 -29 -15 -46 0l-98 90c-16 15 -18 39 4 60c20 20 46 21 60 3z" />
<glyph unicode="&#xda;" horiz-adv-x="696" d="M233 571h-21v-351c0 -61 23 -132 136 -132s136 71 136 132v351h-21c-28 0 -51 23 -51 51s23 51 51 51h153c28 0 51 -23 51 -51s-23 -51 -51 -51h-16v-351c0 -114 -50 -234 -252 -234s-252 120 -252 234v351h-16c-28 0 -51 23 -51 51s23 51 51 51h153c28 0 51 -23 51 -51 s-23 -51 -51 -51zM353 729c-17 -15 -33 -12 -46 0c-16 15 -16 34 -5 46l85 108c14 18 40 17 60 -3c22 -21 20 -45 4 -60z" />
<glyph unicode="&#xdb;" horiz-adv-x="696" d="M233 571h-21v-351c0 -61 23 -132 136 -132s136 71 136 132v351h-21c-28 0 -51 23 -51 51s23 51 51 51h153c28 0 51 -23 51 -51s-23 -51 -51 -51h-16v-351c0 -114 -50 -234 -252 -234s-252 120 -252 234v351h-16c-28 0 -51 23 -51 51s23 51 51 51h153c28 0 51 -23 51 -51 s-23 -51 -51 -51zM327 854c7 5 15 7 23 7s16 -2 23 -7l93 -62c10 -7 18 -17 18 -33c0 -22 -17 -39 -39 -39c-9 0 -18 3 -23 7l-72 50l-72 -50c-5 -4 -14 -7 -23 -7c-22 0 -39 17 -39 39c0 16 8 26 18 33z" />
<glyph unicode="&#xdc;" horiz-adv-x="696" d="M233 571h-21v-351c0 -61 23 -132 136 -132s136 71 136 132v351h-21c-28 0 -51 23 -51 51s23 51 51 51h153c28 0 51 -23 51 -51s-23 -51 -51 -51h-16v-351c0 -114 -50 -234 -252 -234s-252 120 -252 234v351h-16c-28 0 -51 23 -51 51s23 51 51 51h153c28 0 51 -23 51 -51 s-23 -51 -51 -51zM309 793c0 -34 -18 -51 -50 -51s-50 17 -50 51c0 37 18 53 50 53s50 -16 50 -53zM490 793c0 -34 -18 -51 -50 -51s-50 17 -50 51c0 37 18 53 50 53s50 -16 50 -53z" />
<glyph unicode="&#x168;" horiz-adv-x="696" d="M233 571h-21v-351c0 -61 23 -132 136 -132s136 71 136 132v351h-21c-28 0 -51 23 -51 51s23 51 51 51h153c28 0 51 -23 51 -51s-23 -51 -51 -51h-16v-351c0 -114 -50 -234 -252 -234s-252 120 -252 234v351h-16c-28 0 -51 23 -51 51s23 51 51 51h153c28 0 51 -23 51 -51 s-23 -51 -51 -51zM281 836c56 0 92 -33 129 -33c11 0 18 5 26 16c7 10 19 17 33 17c22 0 39 -16 39 -37c0 -4 -1 -12 -3 -16c-13 -31 -48 -49 -86 -49c-56 0 -96 33 -129 33c-11 0 -18 -5 -26 -16c-7 -10 -19 -17 -33 -17c-22 0 -39 16 -39 37c0 4 1 12 3 16 c13 31 48 49 86 49z" />
<glyph unicode="&#x16a;" horiz-adv-x="696" d="M233 571h-21v-351c0 -61 23 -132 136 -132s136 71 136 132v351h-21c-28 0 -51 23 -51 51s23 51 51 51h153c28 0 51 -23 51 -51s-23 -51 -51 -51h-16v-351c0 -114 -50 -234 -252 -234s-252 120 -252 234v351h-16c-28 0 -51 23 -51 51s23 51 51 51h153c28 0 51 -23 51 -51 s-23 -51 -51 -51zM439 810c19 0 34 -14 34 -34c0 -18 -15 -34 -34 -34h-181c-19 0 -34 16 -34 34c0 20 15 34 34 34h181z" />
<glyph unicode="&#x16c;" horiz-adv-x="696" d="M233 571h-21v-351c0 -61 23 -132 136 -132s136 71 136 132v351h-21c-28 0 -51 23 -51 51s23 51 51 51h153c28 0 51 -23 51 -51s-23 -51 -51 -51h-16v-351c0 -114 -50 -234 -252 -234s-252 120 -252 234v351h-16c-28 0 -51 23 -51 51s23 51 51 51h153c28 0 51 -23 51 -51 s-23 -51 -51 -51zM490 833c0 -76 -61 -107 -138 -107s-138 31 -138 107c0 20 16 36 36 36s36 -16 36 -36c0 -30 34 -39 66 -39s66 9 66 39c0 20 16 36 36 36s36 -16 36 -36z" />
<glyph unicode="&#x16e;" horiz-adv-x="696" d="M233 571h-21v-351c0 -61 23 -132 136 -132s136 71 136 132v351h-21c-28 0 -51 23 -51 51s23 51 51 51h153c28 0 51 -23 51 -51s-23 -51 -51 -51h-16v-351c0 -114 -50 -234 -252 -234s-252 120 -252 234v351h-16c-28 0 -51 23 -51 51s23 51 51 51h153c28 0 51 -23 51 -51 s-23 -51 -51 -51zM301 805c0 -32 13 -50 51 -50s51 18 51 50s-13 50 -51 50s-51 -18 -51 -50zM244 805c0 62 36 101 108 101s108 -39 108 -101s-36 -101 -108 -101s-108 39 -108 101z" />
<glyph unicode="&#x170;" horiz-adv-x="696" d="M233 571h-21v-351c0 -61 23 -132 136 -132s136 71 136 132v351h-21c-28 0 -51 23 -51 51s23 51 51 51h153c28 0 51 -23 51 -51s-23 -51 -51 -51h-16v-351c0 -114 -50 -234 -252 -234s-252 120 -252 234v351h-16c-28 0 -51 23 -51 51s23 51 51 51h153c28 0 51 -23 51 -51 s-23 -51 -51 -51zM285 729c-17 -15 -33 -12 -46 0c-16 15 -16 33 -5 45l85 108c14 18 40 17 60 -3c22 -21 20 -45 4 -60zM428 729c-17 -15 -33 -12 -46 0c-16 15 -16 33 -5 45l85 108c14 18 40 17 60 -3c22 -21 20 -45 4 -60z" />
<glyph unicode="&#x172;" horiz-adv-x="696" d="M490 -119c17 0 30 -13 30 -30c0 -11 -5 -18 -10 -22c-18 -15 -54 -17 -73 -17c-57 0 -117 22 -117 88c0 32 17 63 45 86h-17c-202 0 -252 120 -252 234v351h-16c-28 0 -51 23 -51 51s23 51 51 51h153c28 0 51 -23 51 -51s-23 -51 -51 -51h-21v-351 c0 -61 23 -132 136 -132s136 71 136 132v351h-21c-28 0 -51 23 -51 51s23 51 51 51h153c28 0 51 -23 51 -51s-23 -51 -51 -51h-16v-351c0 -97 -36 -198 -170 -226c-27 -22 -46 -46 -46 -74c0 -35 30 -46 62 -46c19 0 31 7 44 7z" />
<glyph unicode="&#x174;" horiz-adv-x="914" d="M856 571h-12l-161 -539c-7 -23 -29 -40 -55 -40c-27 0 -48 18 -55 43l-116 404l-116 -404c-7 -25 -28 -43 -55 -43c-26 0 -48 17 -55 40l-161 539h-12c-28 0 -51 23 -51 51s23 51 51 51h157c28 0 51 -23 51 -51s-23 -51 -51 -51h-26l99 -356l116 416c7 26 28 42 53 42 c26 0 49 -16 56 -42l116 -419l100 359h-27c-28 0 -51 23 -51 51s23 51 51 51h154c28 0 51 -23 51 -51s-23 -51 -51 -51zM435 855c7 5 15 7 23 7s16 -2 23 -7l93 -62c10 -7 18 -17 18 -33c0 -22 -17 -39 -39 -39c-9 0 -18 3 -23 7l-72 50l-72 -50c-5 -4 -14 -7 -23 -7 c-22 0 -39 17 -39 39c0 16 8 26 18 33z" />
<glyph unicode="&#x1e80;" horiz-adv-x="914" d="M856 571h-12l-161 -539c-7 -23 -29 -40 -55 -40c-27 0 -48 18 -55 43l-116 404l-116 -404c-7 -25 -28 -43 -55 -43c-26 0 -48 17 -55 40l-161 539h-12c-28 0 -51 23 -51 51s23 51 51 51h157c28 0 51 -23 51 -51s-23 -51 -51 -51h-26l99 -356l116 416c7 26 28 42 53 42 c26 0 49 -16 56 -42l116 -419l100 359h-27c-28 0 -51 23 -51 51s23 51 51 51h154c28 0 51 -23 51 -51s-23 -51 -51 -51zM535 774c11 -12 11 -30 -5 -45c-13 -12 -29 -15 -46 0l-98 90c-16 15 -18 39 4 60c20 20 46 21 60 3z" />
<glyph unicode="&#x1e82;" horiz-adv-x="914" d="M856 571h-12l-161 -539c-7 -23 -29 -40 -55 -40c-27 0 -48 18 -55 43l-116 404l-116 -404c-7 -25 -28 -43 -55 -43c-26 0 -48 17 -55 40l-161 539h-12c-28 0 -51 23 -51 51s23 51 51 51h157c28 0 51 -23 51 -51s-23 -51 -51 -51h-26l99 -356l116 416c7 26 28 42 53 42 c26 0 49 -16 56 -42l116 -419l100 359h-27c-28 0 -51 23 -51 51s23 51 51 51h154c28 0 51 -23 51 -51s-23 -51 -51 -51zM430 729c-17 -15 -33 -12 -46 0c-16 15 -16 34 -5 46l85 108c14 18 40 17 60 -3c22 -21 20 -45 4 -60z" />
<glyph unicode="&#x1e84;" horiz-adv-x="914" d="M856 571h-12l-161 -539c-7 -23 -29 -40 -55 -40c-27 0 -48 18 -55 43l-116 404l-116 -404c-7 -25 -28 -43 -55 -43c-26 0 -48 17 -55 40l-161 539h-12c-28 0 -51 23 -51 51s23 51 51 51h157c28 0 51 -23 51 -51s-23 -51 -51 -51h-26l99 -356l116 416c7 26 28 42 53 42 c26 0 49 -16 56 -42l116 -419l100 359h-27c-28 0 -51 23 -51 51s23 51 51 51h154c28 0 51 -23 51 -51s-23 -51 -51 -51zM417 794c0 -34 -18 -51 -50 -51s-50 17 -50 51c0 37 18 53 50 53s50 -16 50 -53zM598 794c0 -34 -18 -51 -50 -51s-50 17 -50 51c0 37 18 53 50 53 s50 -16 50 -53z" />
<glyph unicode="&#xdd;" horiz-adv-x="607" d="M392 0h-178c-28 0 -51 23 -51 51s23 51 51 51h31v205l-178 264h-12c-28 0 -51 23 -51 51s23 51 51 51h157c28 0 51 -23 51 -51s-23 -51 -51 -51h-7l98 -154l98 154h-7c-28 0 -51 23 -51 51s23 51 51 51h157c28 0 51 -23 51 -51s-23 -51 -51 -51h-13l-177 -264v-205h31 c28 0 51 -23 51 -51s-23 -51 -51 -51zM312 729c-17 -15 -33 -12 -46 0c-16 15 -16 34 -5 46l85 108c14 18 40 17 60 -3c22 -21 20 -45 4 -60z" />
<glyph unicode="&#x176;" horiz-adv-x="607" d="M392 0h-178c-28 0 -51 23 -51 51s23 51 51 51h31v205l-178 264h-12c-28 0 -51 23 -51 51s23 51 51 51h157c28 0 51 -23 51 -51s-23 -51 -51 -51h-7l98 -154l98 154h-7c-28 0 -51 23 -51 51s23 51 51 51h157c28 0 51 -23 51 -51s-23 -51 -51 -51h-13l-177 -264v-205h31 c28 0 51 -23 51 -51s-23 -51 -51 -51zM280 854c7 5 15 7 23 7s16 -2 23 -7l93 -62c10 -7 18 -17 18 -33c0 -22 -17 -39 -39 -39c-9 0 -18 3 -23 7l-72 50l-72 -50c-5 -4 -14 -7 -23 -7c-22 0 -39 17 -39 39c0 16 8 26 18 33z" />
<glyph unicode="&#x178;" horiz-adv-x="607" d="M392 0h-178c-28 0 -51 23 -51 51s23 51 51 51h31v205l-178 264h-12c-28 0 -51 23 -51 51s23 51 51 51h157c28 0 51 -23 51 -51s-23 -51 -51 -51h-7l98 -154l98 154h-7c-28 0 -51 23 -51 51s23 51 51 51h157c28 0 51 -23 51 -51s-23 -51 -51 -51h-13l-177 -264v-205h31 c28 0 51 -23 51 -51s-23 -51 -51 -51zM263 794c0 -34 -18 -51 -50 -51s-50 17 -50 51c0 37 18 53 50 53s50 -16 50 -53zM444 794c0 -34 -18 -51 -50 -51s-50 17 -50 51c0 37 18 53 50 53s50 -16 50 -53z" />
<glyph unicode="&#x1ef2;" horiz-adv-x="607" d="M392 0h-178c-28 0 -51 23 -51 51s23 51 51 51h31v205l-178 264h-12c-28 0 -51 23 -51 51s23 51 51 51h157c28 0 51 -23 51 -51s-23 -51 -51 -51h-7l98 -154l98 154h-7c-28 0 -51 23 -51 51s23 51 51 51h157c28 0 51 -23 51 -51s-23 -51 -51 -51h-13l-177 -264v-205h31 c28 0 51 -23 51 -51s-23 -51 -51 -51zM357 774c11 -12 11 -30 -5 -45c-13 -12 -29 -15 -46 0l-98 90c-16 15 -18 39 4 60c20 20 46 21 60 3z" />
<glyph unicode="&#x179;" horiz-adv-x="568" d="M44 519v105c0 27 23 49 51 49h378c28 0 51 -23 51 -51c0 -9 -2 -19 -9 -29l-335 -489h255v53c0 28 23 51 51 51s51 -23 51 -51v-105c0 -29 -23 -52 -52 -52h-409c-29 0 -52 23 -52 52c0 11 4 23 10 31l336 488h-224v-52c0 -28 -23 -51 -51 -51s-51 23 -51 51zM278 729 c-17 -15 -33 -12 -46 0c-16 15 -16 34 -5 46l85 108c14 18 40 17 60 -3c22 -21 20 -45 4 -60z" />
<glyph unicode="&#x17b;" horiz-adv-x="568" d="M44 519v105c0 27 23 49 51 49h378c28 0 51 -23 51 -51c0 -9 -2 -19 -9 -29l-335 -489h255v53c0 28 23 51 51 51s51 -23 51 -51v-105c0 -29 -23 -52 -52 -52h-409c-29 0 -52 23 -52 52c0 11 4 23 10 31l336 488h-224v-52c0 -28 -23 -51 -51 -51s-51 23 -51 51zM339 788 c0 -35 -19 -51 -52 -51s-52 16 -52 51c0 38 19 54 52 54s52 -16 52 -54z" />
<glyph unicode="&#x17d;" horiz-adv-x="568" d="M44 519v105c0 27 23 49 51 49h378c28 0 51 -23 51 -51c0 -9 -2 -19 -9 -29l-335 -489h255v53c0 28 23 51 51 51s51 -23 51 -51v-105c0 -29 -23 -52 -52 -52h-409c-29 0 -52 23 -52 52c0 11 4 23 10 31l336 488h-224v-52c0 -28 -23 -51 -51 -51s-51 23 -51 51zM310 727 c-7 -5 -15 -7 -23 -7s-16 2 -23 7l-93 62c-10 7 -18 17 -18 33c0 22 17 39 39 39c9 0 18 -3 23 -7l72 -50l72 50c5 4 14 7 23 7c22 0 39 -17 39 -39c0 -16 -8 -26 -18 -33z" />
<glyph unicode="&#x132;" horiz-adv-x="796" d="M241 571h-16v-469h16c28 0 51 -23 51 -51s-23 -51 -51 -51h-148c-28 0 -51 23 -51 51s23 51 51 51h16v469h-16c-28 0 -51 23 -51 51s23 51 51 51h148c28 0 51 -23 51 -51s-23 -51 -51 -51zM548 571c-28 0 -51 23 -51 51s23 51 51 51h167c28 0 51 -23 51 -51 s-23 -51 -51 -51h-16v-361c0 -128 -56 -223 -209 -223c-40 0 -91 10 -119 27c-17 9 -28 25 -28 46c0 29 23 52 52 52c9 0 15 -2 23 -5c25 -10 51 -15 72 -15c67 0 93 50 93 118v361h-35z" />
<glyph unicode="a" horiz-adv-x="508" d="M454 0h-81c-27 0 -49 20 -49 45c-27 -43 -71 -58 -131 -58c-98 0 -163 61 -163 151c0 93 75 141 162 141h131v18c0 45 -33 75 -91 75c-44 0 -75 -20 -100 -38c-10 -7 -18 -10 -30 -10c-26 0 -47 21 -47 47c0 11 4 23 13 33c28 31 78 64 164 64c124 0 198 -61 198 -167 v-211h24c25 0 45 -20 45 -45s-20 -45 -45 -45zM138 138c0 -38 27 -61 83 -61c53 0 102 34 102 90v28h-117c-44 0 -68 -21 -68 -57z" />
<glyph unicode="b" horiz-adv-x="523" d="M67 622h-25c-25 0 -45 20 -45 45s20 45 45 45h82c29 0 51 -25 51 -54v-230c20 20 62 40 110 40c126 0 203 -78 203 -241c0 -157 -73 -240 -205 -240c-40 0 -88 19 -109 47c-8 -26 -28 -42 -53 -42c-32 0 -54 22 -54 52v578zM175 325v-157c0 -55 40 -89 101 -89 c68 0 105 50 105 148c0 99 -39 149 -107 149c-60 0 -99 -51 -99 -51z" />
<glyph unicode="c" horiz-adv-x="453" d="M252 -13c-135 0 -217 78 -217 241s82 240 217 240c92 0 146 -46 163 -69c8 -11 11 -19 11 -31c0 -27 -21 -48 -48 -48c-16 0 -28 8 -37 17c-13 13 -39 39 -89 39c-70 0 -108 -54 -108 -148c0 -96 38 -149 108 -149c46 0 76 23 99 40c11 8 21 10 30 10c27 0 48 -21 48 -48 c0 -13 -5 -26 -17 -37c-23 -21 -78 -57 -160 -57z" />
<glyph unicode="d" horiz-adv-x="546" d="M323 622c-25 0 -45 20 -45 45s20 45 45 45h79c30 0 54 -24 54 -54v-568h25c25 0 45 -20 45 -45s-20 -45 -45 -45h-79c-24 0 -44 15 -50 34c-31 -32 -69 -47 -115 -47c-123 0 -202 77 -202 240s77 241 203 241c48 0 90 -20 110 -40v194h-25zM348 325c0 0 -39 51 -99 51 c-68 0 -107 -50 -107 -149c0 -98 37 -148 105 -148c61 0 101 34 101 89v157z" />
<glyph unicode="e" horiz-adv-x="483" d="M260 -13c-139 0 -225 75 -225 242c0 153 80 239 216 239c169 0 200 -130 200 -199c0 -37 0 -80 -61 -80h-247c0 -72 51 -105 117 -105c44 0 75 15 99 31c11 7 19 11 32 11c26 0 47 -21 47 -47c0 -16 -8 -29 -17 -37c-17 -16 -70 -55 -161 -55zM344 279 c0 49 -28 97 -93 97c-58 0 -100 -33 -105 -97h198z" />
<glyph unicode="f" horiz-adv-x="336" d="M254 0h-179c-25 0 -45 19 -45 45c0 25 20 45 45 45h24v274h-21c-25 0 -45 20 -45 45s20 45 45 45h21v81c0 92 61 177 187 177h46c26 0 47 -21 47 -47s-21 -47 -47 -47h-42c-55 0 -83 -31 -83 -75v-89h67c25 0 45 -20 45 -45s-20 -45 -45 -45h-67v-274h47 c25 0 45 -20 45 -45s-20 -45 -45 -45z" />
<glyph unicode="g" horiz-adv-x="505" d="M412 398c20 -27 30 -61 30 -101c0 -106 -73 -171 -196 -171c-35 0 -68 6 -94 16c-6 -5 -9 -14 -9 -21c0 -17 13 -34 59 -34h93c103 0 186 -36 186 -137c0 -102 -96 -151 -223 -151c-109 0 -223 31 -223 148c0 36 17 71 60 98c-26 16 -47 41 -47 76c0 20 8 51 35 67 c-29 43 -33 74 -33 109c0 106 73 171 196 171c37 0 69 -6 96 -17c19 24 52 46 100 46c25 0 45 -20 45 -45s-20 -45 -45 -45c-13 0 -23 -3 -30 -9zM246 379c-58 0 -91 -36 -91 -82s33 -82 91 -82s91 36 91 82s-33 82 -91 82zM259 -109c60 0 114 18 114 59c0 32 -33 49 -78 49 h-94c-38 -8 -58 -30 -58 -52c0 -38 40 -56 116 -56z" />
<glyph unicode="h" horiz-adv-x="577" d="M518 0h-156c-25 0 -45 19 -45 45c0 25 20 45 45 45h24v184c0 57 -23 96 -88 96c-75 0 -100 -46 -100 -108v-172h24c25 0 45 -20 45 -45s-20 -45 -45 -45h-156c-25 0 -45 19 -45 45c0 25 20 45 45 45h24v532h-24c-25 0 -45 19 -45 45c0 25 20 45 45 45h81 c30 0 51 -26 51 -54v-250c19 29 61 60 128 60c136 0 168 -87 168 -174v-204h24c25 0 45 -20 45 -45s-20 -45 -45 -45z" />
<glyph unicode="i" horiz-adv-x="297" d="M231 0h-156c-25 0 -45 19 -45 45c0 25 20 45 45 45h24v274h-24c-25 0 -45 19 -45 45c0 25 20 45 45 45h81c32 0 51 -23 51 -54v-310h24c25 0 45 -20 45 -45s-20 -45 -45 -45zM215 579c0 -39 -23 -63 -65 -63c-41 0 -64 24 -64 63c0 46 23 66 64 66c42 0 65 -20 65 -66z " />
<glyph unicode="j" horiz-adv-x="265" d="M20 -101h16c32 0 54 26 54 58v407h-24c-25 0 -45 19 -45 45c0 25 20 45 45 45h81c31 0 51 -24 51 -51v-446c0 -86 -64 -158 -153 -158h-25c-26 0 -47 22 -47 50c0 29 21 50 47 50zM206 579c0 -39 -23 -63 -65 -63c-41 0 -64 24 -64 63c0 46 23 66 64 66 c42 0 65 -20 65 -66z" />
<glyph unicode="k" horiz-adv-x="535" d="M222 0h-156c-25 0 -45 19 -45 45c0 25 20 45 45 45h24v532h-24c-25 0 -45 19 -45 45c0 25 20 45 45 45h81c29 0 51 -23 51 -52v-360l152 141c10 9 18 13 31 13h70c25 0 45 -20 45 -45s-20 -45 -45 -45h-52l-88 -78l137 -196h38c25 0 45 -20 45 -45s-20 -45 -45 -45h-74 c-19 0 -31 9 -39 21l-133 200l-42 -38v-93h24c25 0 45 -20 45 -45s-20 -45 -45 -45z" />
<glyph unicode="l" horiz-adv-x="273" d="M223 92c26 0 47 -22 47 -50s-21 -50 -47 -50h-31c-78 0 -127 44 -127 128v502h-24c-25 0 -45 19 -45 45c0 25 20 45 45 45h81c29 0 51 -25 51 -54v-548c0 -11 8 -18 17 -18h33z" />
<glyph unicode="m" horiz-adv-x="881" d="M231 0h-156c-25 0 -45 19 -45 45c0 25 20 45 45 45h24v274h-24c-25 0 -45 19 -45 45c0 25 20 45 45 45h81c29 0 51 -17 51 -46c19 29 61 60 128 60c82 0 123 -26 148 -65c32 43 75 65 143 65c136 0 173 -87 173 -174v-204h24c25 0 45 -20 45 -45s-20 -45 -45 -45h-156 c-25 0 -45 19 -45 45c0 25 20 45 45 45h24v184c0 57 -23 96 -88 96c-72 0 -100 -39 -100 -95v-185h24c25 0 45 -20 45 -45s-20 -45 -45 -45h-156c-25 0 -45 19 -45 45c0 25 20 45 45 45h24v184c0 57 -23 96 -88 96c-75 0 -100 -46 -100 -107v-173h24c25 0 45 -20 45 -45 s-20 -45 -45 -45z" />
<glyph unicode="n" horiz-adv-x="586" d="M231 0h-156c-25 0 -45 19 -45 45c0 25 20 45 45 45h24v274h-24c-25 0 -45 19 -45 45c0 25 20 45 45 45h81c29 0 51 -17 51 -46c19 29 61 60 128 60c136 0 168 -87 168 -174v-204h24c25 0 45 -20 45 -45s-20 -45 -45 -45h-156c-25 0 -45 19 -45 45c0 25 20 45 45 45h24 v184c0 57 -23 96 -88 96c-75 0 -100 -46 -100 -108v-172h24c25 0 45 -20 45 -45s-20 -45 -45 -45z" />
<glyph unicode="o" horiz-adv-x="508" d="M473 227c0 -163 -84 -240 -219 -240s-219 77 -219 240c0 164 84 241 219 241s219 -77 219 -241zM254 79c72 0 110 50 110 148c0 99 -38 149 -110 149s-110 -50 -110 -149c0 -98 38 -148 110 -148z" />
<glyph unicode="p" horiz-adv-x="554" d="M66 454h78c30 0 54 -16 54 -46c15 25 62 60 118 60c131 0 203 -77 203 -240s-73 -241 -203 -241c-50 0 -94 16 -118 43v-141h40c25 0 45 -20 45 -45s-20 -45 -45 -45h-172c-25 0 -45 20 -45 45s20 45 45 45h24v475h-24c-25 0 -45 20 -45 45s20 45 45 45zM302 79 c70 0 107 50 107 148c0 99 -37 149 -107 149s-107 -50 -107 -149c0 -98 37 -148 107 -148z" />
<glyph unicode="q" horiz-adv-x="547" d="M306 -111h43v137c-20 -20 -62 -39 -110 -39c-126 0 -203 77 -203 240s78 241 204 241c42 0 93 -19 117 -54c3 32 26 40 46 40h78c25 0 45 -20 45 -45s-20 -45 -45 -45h-24v-475h24c25 0 45 -20 45 -45s-20 -45 -45 -45h-175c-25 0 -45 20 -45 45s20 45 45 45zM349 129 v157c0 55 -40 90 -101 90c-68 0 -105 -51 -105 -149c0 -99 39 -148 107 -148c60 0 99 50 99 50z" />
<glyph unicode="r" horiz-adv-x="373" d="M231 0h-156c-25 0 -45 19 -45 45c0 25 20 45 45 45h24v274h-24c-25 0 -45 19 -45 45c0 25 20 45 45 45h82c27 0 50 -18 50 -46v-5c19 39 66 64 108 64c28 0 51 -23 51 -51s-23 -51 -51 -51c-69 0 -108 -44 -108 -111v-164h24c25 0 45 -20 45 -45s-20 -45 -45 -45z" />
<glyph unicode="s" horiz-adv-x="431" d="M302 342c-22 16 -49 32 -90 32c-37 0 -59 -13 -59 -38c0 -74 246 -40 246 -205c0 -94 -80 -142 -183 -142c-86 0 -152 39 -177 70c-8 10 -12 19 -12 31c0 26 22 48 48 48c10 0 20 -3 31 -12c27 -22 60 -41 110 -41c45 0 74 12 74 40c0 81 -245 39 -245 209 c0 90 75 134 167 134c71 0 134 -27 162 -62c6 -8 10 -15 10 -30c0 -26 -22 -48 -48 -48c-14 0 -23 6 -34 14z" />
<glyph unicode="t" horiz-adv-x="308" d="M85 454v84c0 29 24 53 53 53s53 -24 53 -53v-84h45c25 0 45 -20 45 -45s-20 -45 -45 -45h-45v-242c0 -23 24 -36 46 -36c26 0 47 -21 47 -47s-21 -47 -47 -47c-94 0 -152 57 -152 136v236h-23c-25 0 -45 20 -45 45s20 45 45 45h23z" />
<glyph unicode="u" d="M476 90h25c25 0 45 -20 45 -45s-20 -45 -45 -45h-79c-30 0 -52 20 -54 48c-15 -29 -52 -60 -108 -60c-145 0 -179 89 -179 187v189h-23c-25 0 -45 19 -45 45c0 25 20 45 45 45h80c29 0 51 -25 51 -54v-225c0 -46 16 -90 90 -90c73 0 89 44 89 90v189h-23 c-25 0 -45 19 -45 45c0 25 20 45 45 45h80c29 0 51 -25 51 -54v-310z" />
<glyph unicode="v" horiz-adv-x="528" d="M189 364h-10l85 -214l84 214h-9c-25 0 -45 19 -45 45c0 25 20 45 45 45h136c25 0 45 -20 45 -45s-20 -45 -45 -45h-11l-150 -339c-9 -20 -27 -33 -50 -33s-41 13 -50 33l-150 339h-11c-25 0 -45 19 -45 45c0 25 20 45 45 45h136c25 0 45 -20 45 -45s-20 -45 -45 -45z" />
<glyph unicode="w" horiz-adv-x="712" d="M659 364h-11l-128 -338c-8 -22 -26 -34 -50 -34c-25 0 -46 16 -52 38l-62 219l-62 -218c-7 -23 -27 -39 -52 -39c-26 0 -43 15 -51 35l-127 337h-10c-25 0 -45 19 -45 45c0 25 20 45 45 45h133c25 0 45 -20 45 -45s-20 -45 -45 -45h-12l64 -189l69 240c5 18 21 39 51 39 c25 0 43 -19 48 -36l70 -248l64 194h-9c-25 0 -45 19 -45 45c0 25 20 45 45 45h127c25 0 45 -20 45 -45s-20 -45 -45 -45z" />
<glyph unicode="x" horiz-adv-x="509" d="M441 364h-10l-114 -134l115 -140h9c25 0 45 -20 45 -45s-20 -45 -45 -45h-127c-25 0 -45 19 -45 45c0 22 15 40 36 44l-53 71l-52 -71c22 -3 39 -21 39 -44c0 -25 -20 -45 -45 -45h-125c-25 0 -45 19 -45 45c0 25 20 45 45 45h8l114 140l-112 134h-10 c-25 0 -45 19 -45 45c0 25 20 45 45 45h122c25 0 45 -20 45 -45c0 -20 -12 -36 -30 -42l48 -62l48 61c-18 6 -30 22 -30 43c0 25 20 45 45 45h124c25 0 45 -20 45 -45s-20 -45 -45 -45z" />
<glyph unicode="y" horiz-adv-x="529" d="M477 364h-11l-176 -397c-43 -98 -107 -168 -207 -168c-29 0 -52 21 -52 50s23 50 52 50c64 0 94 51 127 133l-144 332h-11c-25 0 -45 19 -45 45c0 25 20 45 45 45h136c25 0 45 -20 45 -45s-20 -45 -45 -45h-10l85 -214l84 214h-9c-25 0 -45 19 -45 45c0 25 20 45 45 45 h136c25 0 45 -20 45 -45s-20 -45 -45 -45z" />
<glyph unicode="z" horiz-adv-x="433" d="M398 118v-72c0 -25 -21 -46 -46 -46h-276c-25 0 -46 21 -46 46c0 14 5 22 11 30l215 288h-124v-18c0 -25 -19 -45 -45 -45c-25 0 -45 20 -45 45v66c0 24 21 42 45 42h257c26 0 48 -22 48 -48c0 -14 -5 -23 -11 -31l-211 -283h138v26c0 25 20 45 45 45s45 -20 45 -45z" />
<glyph unicode="&#xe0;" horiz-adv-x="508" d="M454 0h-81c-27 0 -49 20 -49 45c-27 -43 -71 -58 -131 -58c-98 0 -163 61 -163 151c0 93 75 141 162 141h131v18c0 45 -33 75 -91 75c-44 0 -75 -20 -100 -38c-10 -7 -18 -10 -30 -10c-26 0 -47 21 -47 47c0 11 4 23 13 33c28 31 78 64 164 64c124 0 198 -61 198 -167 v-211h24c25 0 45 -20 45 -45s-20 -45 -45 -45zM138 138c0 -38 27 -61 83 -61c53 0 102 34 102 90v28h-117c-44 0 -68 -21 -68 -57zM311 570c11 -12 11 -30 -5 -45c-13 -12 -29 -15 -46 0l-98 90c-16 15 -18 39 4 60c20 20 46 21 60 3z" />
<glyph unicode="&#xe1;" horiz-adv-x="508" d="M454 0h-81c-27 0 -49 20 -49 45c-27 -43 -71 -58 -131 -58c-98 0 -163 61 -163 151c0 93 75 141 162 141h131v18c0 45 -33 75 -91 75c-44 0 -75 -20 -100 -38c-10 -7 -18 -10 -30 -10c-26 0 -47 21 -47 47c0 11 4 23 13 33c28 31 78 64 164 64c124 0 198 -61 198 -167 v-211h24c25 0 45 -20 45 -45s-20 -45 -45 -45zM138 138c0 -38 27 -61 83 -61c53 0 102 34 102 90v28h-117c-44 0 -68 -21 -68 -57zM231 525c-17 -15 -33 -12 -46 0c-16 15 -16 34 -5 46l85 108c14 18 40 17 60 -3c22 -21 20 -45 4 -60z" />
<glyph unicode="&#xe2;" horiz-adv-x="508" d="M454 0h-81c-27 0 -49 20 -49 45c-27 -43 -71 -58 -131 -58c-98 0 -163 61 -163 151c0 93 75 141 162 141h131v18c0 45 -33 75 -91 75c-44 0 -75 -20 -100 -38c-10 -7 -18 -10 -30 -10c-26 0 -47 21 -47 47c0 11 4 23 13 33c28 31 78 64 164 64c124 0 198 -61 198 -167 v-211h24c25 0 45 -20 45 -45s-20 -45 -45 -45zM138 138c0 -38 27 -61 83 -61c53 0 102 34 102 90v28h-117c-44 0 -68 -21 -68 -57zM220 657c7 5 15 7 23 7s16 -2 23 -7l93 -62c10 -7 18 -17 18 -33c0 -22 -17 -39 -39 -39c-9 0 -18 3 -23 7l-72 50l-72 -50 c-5 -4 -14 -7 -23 -7c-22 0 -39 17 -39 39c0 16 8 26 18 33z" />
<glyph unicode="&#xe3;" horiz-adv-x="508" d="M454 0h-81c-27 0 -49 20 -49 45c-27 -43 -71 -58 -131 -58c-98 0 -163 61 -163 151c0 93 75 141 162 141h131v18c0 45 -33 75 -91 75c-44 0 -75 -20 -100 -38c-10 -7 -18 -10 -30 -10c-26 0 -47 21 -47 47c0 11 4 23 13 33c28 31 78 64 164 64c124 0 198 -61 198 -167 v-211h24c25 0 45 -20 45 -45s-20 -45 -45 -45zM138 138c0 -38 27 -61 83 -61c53 0 102 34 102 90v28h-117c-44 0 -68 -21 -68 -57zM176 632c56 0 92 -33 129 -33c11 0 18 5 26 16c7 10 19 17 33 17c22 0 39 -16 39 -37c0 -4 -1 -12 -3 -16c-13 -31 -48 -49 -86 -49 c-56 0 -96 33 -129 33c-11 0 -18 -5 -26 -16c-7 -10 -19 -17 -33 -17c-22 0 -39 16 -39 37c0 4 1 12 3 16c13 31 48 49 86 49z" />
<glyph unicode="&#xe4;" horiz-adv-x="508" d="M454 0h-81c-27 0 -49 20 -49 45c-27 -43 -71 -58 -131 -58c-98 0 -163 61 -163 151c0 93 75 141 162 141h131v18c0 45 -33 75 -91 75c-44 0 -75 -20 -100 -38c-10 -7 -18 -10 -30 -10c-26 0 -47 21 -47 47c0 11 4 23 13 33c28 31 78 64 164 64c124 0 198 -61 198 -167 v-211h24c25 0 45 -20 45 -45s-20 -45 -45 -45zM138 138c0 -38 27 -61 83 -61c53 0 102 34 102 90v28h-117c-44 0 -68 -21 -68 -57zM205 595c0 -34 -18 -51 -50 -51s-50 17 -50 51c0 37 18 53 50 53s50 -16 50 -53zM386 595c0 -34 -18 -51 -50 -51s-50 17 -50 51 c0 37 18 53 50 53s50 -16 50 -53z" />
<glyph unicode="&#xe5;" horiz-adv-x="508" d="M454 0h-81c-27 0 -49 20 -49 45c-27 -43 -71 -58 -131 -58c-98 0 -163 61 -163 151c0 93 75 141 162 141h131v18c0 45 -33 75 -91 75c-44 0 -75 -20 -100 -38c-10 -7 -18 -10 -30 -10c-26 0 -47 21 -47 47c0 11 4 23 13 33c28 31 78 64 164 64c124 0 198 -61 198 -167 v-211h24c25 0 45 -20 45 -45s-20 -45 -45 -45zM138 138c0 -38 27 -61 83 -61c53 0 102 34 102 90v28h-117c-44 0 -68 -21 -68 -57zM191 604c0 -32 13 -50 51 -50s51 18 51 50s-13 50 -51 50s-51 -18 -51 -50zM134 604c0 62 36 101 108 101s108 -39 108 -101 s-36 -101 -108 -101s-108 39 -108 101z" />
<glyph unicode="&#x101;" horiz-adv-x="508" d="M454 0h-81c-27 0 -49 20 -49 45c-27 -43 -71 -58 -131 -58c-98 0 -163 61 -163 151c0 93 75 141 162 141h131v18c0 45 -33 75 -91 75c-44 0 -75 -20 -100 -38c-10 -7 -18 -10 -30 -10c-26 0 -47 21 -47 47c0 11 4 23 13 33c28 31 78 64 164 64c124 0 198 -61 198 -167 v-211h24c25 0 45 -20 45 -45s-20 -45 -45 -45zM138 138c0 -38 27 -61 83 -61c53 0 102 34 102 90v28h-117c-44 0 -68 -21 -68 -57zM331 614c19 0 34 -14 34 -34c0 -18 -15 -34 -34 -34h-181c-19 0 -34 16 -34 34c0 20 15 34 34 34h181z" />
<glyph unicode="&#x103;" horiz-adv-x="508" d="M454 0h-81c-27 0 -49 20 -49 45c-27 -43 -71 -58 -131 -58c-98 0 -163 61 -163 151c0 93 75 141 162 141h131v18c0 45 -33 75 -91 75c-44 0 -75 -20 -100 -38c-10 -7 -18 -10 -30 -10c-26 0 -47 21 -47 47c0 11 4 23 13 33c28 31 78 64 164 64c124 0 198 -61 198 -167 v-211h24c25 0 45 -20 45 -45s-20 -45 -45 -45zM138 138c0 -38 27 -61 83 -61c53 0 102 34 102 90v28h-117c-44 0 -68 -21 -68 -57zM392 630c0 -76 -61 -107 -138 -107s-138 31 -138 107c0 20 16 36 36 36s36 -16 36 -36c0 -30 34 -39 66 -39s66 9 66 39c0 20 16 36 36 36 s36 -16 36 -36z" />
<glyph unicode="&#x105;" horiz-adv-x="508" d="M469 -119c17 0 30 -13 30 -30c0 -11 -5 -18 -10 -22c-18 -15 -54 -17 -73 -17c-57 0 -117 22 -117 88c0 39 25 77 66 100c-23 4 -41 22 -41 45c-27 -43 -71 -58 -131 -58c-98 0 -163 61 -163 151c0 93 75 141 162 141h131v18c0 45 -33 75 -91 75c-44 0 -75 -20 -100 -38 c-10 -7 -18 -10 -30 -10c-26 0 -47 21 -47 47c0 11 4 23 13 33c28 31 78 64 164 64c124 0 198 -61 198 -167v-211h24c25 0 45 -20 45 -45s-20 -45 -45 -45h-37c-32 -23 -54 -50 -54 -80c0 -35 30 -46 62 -46c19 0 31 7 44 7zM138 138c0 -38 27 -61 83 -61 c53 0 102 34 102 90v28h-117c-44 0 -68 -21 -68 -57z" />
<glyph unicode="&#x1fb;" horiz-adv-x="508" d="M141 604c0 62 36 101 108 101h8l87 110c14 18 40 17 60 -3c22 -21 20 -45 4 -60l-79 -73c18 -18 28 -44 28 -75c0 -62 -36 -101 -108 -101s-108 39 -108 101zM198 604c0 -32 13 -50 51 -50s51 18 51 50s-13 50 -51 50s-51 -18 -51 -50zM454 0h-81c-27 0 -49 20 -49 45 c-27 -43 -71 -58 -131 -58c-98 0 -163 61 -163 151c0 93 75 141 162 141h131v18c0 45 -33 75 -91 75c-44 0 -75 -20 -100 -38c-10 -7 -18 -10 -30 -10c-26 0 -47 21 -47 47c0 11 4 23 13 33c28 31 78 64 164 64c124 0 198 -61 198 -167v-211h24c25 0 45 -20 45 -45 s-20 -45 -45 -45zM138 138c0 -38 27 -61 83 -61c53 0 102 34 102 90v28h-117c-44 0 -68 -21 -68 -57z" />
<glyph unicode="&#xe6;" horiz-adv-x="769" d="M323 297c0 45 -33 75 -91 75c-44 0 -75 -20 -100 -38c-10 -7 -18 -10 -30 -10c-26 0 -47 21 -47 47c0 11 4 23 13 33c28 31 78 64 164 64c69 0 122 -19 156 -54c36 35 86 54 150 54c169 0 200 -130 200 -199c0 -37 0 -80 -61 -80h-247c0 -76 52 -105 117 -105 c44 0 75 15 99 31c11 7 19 11 32 11c26 0 47 -21 47 -47c0 -16 -8 -29 -17 -37c-17 -16 -70 -55 -161 -55c-81 0 -146 27 -180 82c-32 -46 -75 -82 -174 -82c-98 0 -163 61 -163 151c0 93 75 141 162 141h131v18zM138 138c0 -38 27 -61 83 -61c53 0 102 34 102 90v28h-117 c-44 0 -68 -21 -68 -57zM631 279c0 49 -28 97 -93 97c-58 0 -100 -33 -105 -97h198z" />
<glyph unicode="&#x1e3;" horiz-adv-x="769" d="M474 614c19 0 34 -14 34 -34c0 -18 -15 -34 -34 -34h-181c-19 0 -34 16 -34 34c0 20 15 34 34 34h181zM323 297c0 45 -33 75 -91 75c-44 0 -75 -20 -100 -38c-10 -7 -18 -10 -30 -10c-26 0 -47 21 -47 47c0 11 4 23 13 33c28 31 78 64 164 64c69 0 122 -19 156 -54 c36 35 86 54 150 54c169 0 200 -130 200 -199c0 -37 0 -80 -61 -80h-247c0 -76 52 -105 117 -105c44 0 75 15 99 31c11 7 19 11 32 11c26 0 47 -21 47 -47c0 -16 -8 -29 -17 -37c-17 -16 -70 -55 -161 -55c-81 0 -146 27 -180 82c-32 -46 -75 -82 -174 -82 c-98 0 -163 61 -163 151c0 93 75 141 162 141h131v18zM138 138c0 -38 27 -61 83 -61c53 0 102 34 102 90v28h-117c-44 0 -68 -21 -68 -57zM631 279c0 49 -28 97 -93 97c-58 0 -100 -33 -105 -97h198z" />
<glyph unicode="&#x1fd;" horiz-adv-x="769" d="M378 525c-17 -15 -33 -12 -46 0c-16 15 -16 34 -5 46l85 108c14 18 40 17 60 -3c22 -21 20 -45 4 -60zM323 297c0 45 -33 75 -91 75c-44 0 -75 -20 -100 -38c-10 -7 -18 -10 -30 -10c-26 0 -47 21 -47 47c0 11 4 23 13 33c28 31 78 64 164 64c69 0 122 -19 156 -54 c36 35 86 54 150 54c169 0 200 -130 200 -199c0 -37 0 -80 -61 -80h-247c0 -76 52 -105 117 -105c44 0 75 15 99 31c11 7 19 11 32 11c26 0 47 -21 47 -47c0 -16 -8 -29 -17 -37c-17 -16 -70 -55 -161 -55c-81 0 -146 27 -180 82c-32 -46 -75 -82 -174 -82 c-98 0 -163 61 -163 151c0 93 75 141 162 141h131v18zM138 138c0 -38 27 -61 83 -61c53 0 102 34 102 90v28h-117c-44 0 -68 -21 -68 -57zM631 279c0 49 -28 97 -93 97c-58 0 -100 -33 -105 -97h198z" />
<glyph unicode="&#xe7;" horiz-adv-x="453" d="M273 -34c49 0 85 -26 85 -74c0 -50 -31 -80 -99 -80c-25 0 -59 8 -80 22c-6 4 -11 11 -11 21c0 14 12 26 26 26c5 0 8 -1 12 -3c17 -9 31 -14 55 -14s38 7 38 28c0 17 -17 24 -41 24c-17 0 -30 -4 -44 -4s-21 9 -21 22v59c-100 20 -158 97 -158 235c0 163 82 240 217 240 c92 0 146 -46 163 -69c8 -11 11 -19 11 -31c0 -27 -21 -48 -48 -48c-16 0 -28 8 -37 17c-13 13 -39 39 -89 39c-70 0 -108 -54 -108 -148c0 -96 38 -149 108 -149c46 0 76 23 99 40c11 8 21 10 30 10c27 0 48 -21 48 -48c0 -13 -5 -26 -17 -37c-23 -21 -78 -57 -160 -57h-10 l-2 -24s12 3 33 3z" />
<glyph unicode="&#x107;" horiz-adv-x="453" d="M252 -13c-135 0 -217 78 -217 241s82 240 217 240c92 0 146 -46 163 -69c8 -11 11 -19 11 -31c0 -27 -21 -48 -48 -48c-16 0 -28 8 -37 17c-13 13 -39 39 -89 39c-70 0 -108 -54 -108 -148c0 -96 38 -149 108 -149c46 0 76 23 99 40c11 8 21 10 30 10c27 0 48 -21 48 -48 c0 -13 -5 -26 -17 -37c-23 -21 -78 -57 -160 -57zM242 525c-17 -15 -33 -12 -46 0c-16 15 -16 34 -5 46l85 108c14 18 40 17 60 -3c22 -21 20 -45 4 -60z" />
<glyph unicode="&#x109;" horiz-adv-x="453" d="M252 -13c-135 0 -217 78 -217 241s82 240 217 240c92 0 146 -46 163 -69c8 -11 11 -19 11 -31c0 -27 -21 -48 -48 -48c-16 0 -28 8 -37 17c-13 13 -39 39 -89 39c-70 0 -108 -54 -108 -148c0 -96 38 -149 108 -149c46 0 76 23 99 40c11 8 21 10 30 10c27 0 48 -21 48 -48 c0 -13 -5 -26 -17 -37c-23 -21 -78 -57 -160 -57zM231 656c7 5 15 7 23 7s16 -2 23 -7l93 -62c10 -7 18 -17 18 -33c0 -22 -17 -39 -39 -39c-9 0 -18 3 -23 7l-72 50l-72 -50c-5 -4 -14 -7 -23 -7c-22 0 -39 17 -39 39c0 16 8 26 18 33z" />
<glyph unicode="&#x10b;" horiz-adv-x="453" d="M252 -13c-135 0 -217 78 -217 241s82 240 217 240c92 0 146 -46 163 -69c8 -11 11 -19 11 -31c0 -27 -21 -48 -48 -48c-16 0 -28 8 -37 17c-13 13 -39 39 -89 39c-70 0 -108 -54 -108 -148c0 -96 38 -149 108 -149c46 0 76 23 99 40c11 8 21 10 30 10c27 0 48 -21 48 -48 c0 -13 -5 -26 -17 -37c-23 -21 -78 -57 -160 -57zM304 597c0 -35 -19 -51 -52 -51s-52 16 -52 51c0 38 19 54 52 54s52 -16 52 -54z" />
<glyph unicode="&#x10d;" horiz-adv-x="453" d="M252 -13c-135 0 -217 78 -217 241s82 240 217 240c92 0 146 -46 163 -69c8 -11 11 -19 11 -31c0 -27 -21 -48 -48 -48c-16 0 -28 8 -37 17c-13 13 -39 39 -89 39c-70 0 -108 -54 -108 -148c0 -96 38 -149 108 -149c46 0 76 23 99 40c11 8 21 10 30 10c27 0 48 -21 48 -48 c0 -13 -5 -26 -17 -37c-23 -21 -78 -57 -160 -57zM254 530c-7 -5 -15 -7 -23 -7s-16 2 -23 7l-93 62c-10 7 -18 17 -18 33c0 22 17 39 39 39c9 0 18 -3 23 -7l72 -50l72 50c5 4 14 7 23 7c22 0 39 -17 39 -39c0 -16 -8 -26 -18 -33z" />
<glyph unicode="&#x10f;" horiz-adv-x="558" d="M323 622c-25 0 -45 20 -45 45s20 45 45 45h79c30 0 54 -24 54 -54v-568h25c25 0 45 -20 45 -45s-20 -45 -45 -45h-79c-24 0 -44 15 -50 34c-31 -32 -69 -47 -115 -47c-123 0 -202 77 -202 240s77 241 203 241c48 0 90 -20 110 -40v194h-25zM348 325c0 0 -39 51 -99 51 c-68 0 -107 -50 -107 -149c0 -98 37 -148 105 -148c61 0 101 34 101 89v157zM552 712h18c29 0 42 -15 42 -41l-26 -160c-4 -23 -11 -36 -34 -36c-24 0 -35 13 -35 36l-9 160c-1 26 13 41 44 41z" />
<glyph unicode="&#x111;" horiz-adv-x="546" d="M323 622c-25 0 -45 20 -45 45s20 45 45 45h79c30 0 54 -24 54 -54v-71h32c21 0 40 -17 40 -38c0 -22 -19 -39 -40 -39h-32v-420h25c25 0 45 -20 45 -45s-20 -45 -45 -45h-79c-24 0 -44 15 -50 34c-31 -32 -69 -47 -115 -47c-123 0 -202 77 -202 240s77 241 203 241 c48 0 90 -20 110 -40v82h-71c-21 0 -40 17 -40 39c0 21 19 38 40 38h71v35h-25zM348 325c0 0 -39 51 -99 51c-68 0 -107 -50 -107 -149c0 -98 37 -148 105 -148c61 0 101 34 101 89v157z" />
<glyph unicode="&#xf0;" horiz-adv-x="523" d="M394 594l-19 -12c60 -79 96 -190 98 -343v-12c0 -163 -84 -240 -219 -240s-219 77 -219 240c0 164 84 241 219 241c34 0 67 -7 93 -21c-10 32 -23 61 -43 88l-44 -29c-6 -4 -12 -6 -22 -6c-25 0 -46 21 -46 46c0 17 9 30 21 38l22 15c-18 12 -39 23 -62 33 c-19 8 -27 24 -27 39c0 23 18 41 41 41c9 0 16 -2 24 -5c36 -15 69 -34 100 -59l36 24c6 4 12 6 22 6c25 0 46 -21 46 -46c0 -17 -9 -30 -21 -38zM254 79c72 0 110 50 110 148c0 99 -38 149 -110 149s-110 -50 -110 -149c0 -98 38 -148 110 -148z" />
<glyph unicode="&#xe8;" horiz-adv-x="483" d="M260 -13c-139 0 -225 75 -225 242c0 153 80 239 216 239c169 0 200 -130 200 -199c0 -37 0 -80 -61 -80h-247c0 -72 51 -105 117 -105c44 0 75 15 99 31c11 7 19 11 32 11c26 0 47 -21 47 -47c0 -16 -8 -29 -17 -37c-17 -16 -70 -55 -161 -55zM344 279 c0 49 -28 97 -93 97c-58 0 -100 -33 -105 -97h198zM326 570c11 -12 11 -30 -5 -45c-13 -12 -29 -15 -46 0l-98 90c-16 15 -18 39 4 60c20 20 46 21 60 3z" />
<glyph unicode="&#xe9;" horiz-adv-x="483" d="M260 -13c-139 0 -225 75 -225 242c0 153 80 239 216 239c169 0 200 -130 200 -199c0 -37 0 -80 -61 -80h-247c0 -72 51 -105 117 -105c44 0 75 15 99 31c11 7 19 11 32 11c26 0 47 -21 47 -47c0 -16 -8 -29 -17 -37c-17 -16 -70 -55 -161 -55zM344 279 c0 49 -28 97 -93 97c-58 0 -100 -33 -105 -97h198zM250 525c-17 -15 -33 -12 -46 0c-16 15 -16 34 -5 46l85 108c14 18 40 17 60 -3c22 -21 20 -45 4 -60z" />
<glyph unicode="&#xea;" horiz-adv-x="483" d="M260 -13c-139 0 -225 75 -225 242c0 153 80 239 216 239c169 0 200 -130 200 -199c0 -37 0 -80 -61 -80h-247c0 -72 51 -105 117 -105c44 0 75 15 99 31c11 7 19 11 32 11c26 0 47 -21 47 -47c0 -16 -8 -29 -17 -37c-17 -16 -70 -55 -161 -55zM344 279 c0 49 -28 97 -93 97c-58 0 -100 -33 -105 -97h198zM228 657c7 5 15 7 23 7s16 -2 23 -7l93 -62c10 -7 18 -17 18 -33c0 -22 -17 -39 -39 -39c-9 0 -18 3 -23 7l-72 50l-72 -50c-5 -4 -14 -7 -23 -7c-22 0 -39 17 -39 39c0 16 8 26 18 33z" />
<glyph unicode="&#xeb;" horiz-adv-x="483" d="M260 -13c-139 0 -225 75 -225 242c0 153 80 239 216 239c169 0 200 -130 200 -199c0 -37 0 -80 -61 -80h-247c0 -72 51 -105 117 -105c44 0 75 15 99 31c11 7 19 11 32 11c26 0 47 -21 47 -47c0 -16 -8 -29 -17 -37c-17 -16 -70 -55 -161 -55zM344 279 c0 49 -28 97 -93 97c-58 0 -100 -33 -105 -97h198zM214 595c0 -34 -18 -51 -50 -51s-50 17 -50 51c0 37 18 53 50 53s50 -16 50 -53zM395 595c0 -34 -18 -51 -50 -51s-50 17 -50 51c0 37 18 53 50 53s50 -16 50 -53z" />
<glyph unicode="&#x113;" horiz-adv-x="483" d="M260 -13c-139 0 -225 75 -225 242c0 153 80 239 216 239c169 0 200 -130 200 -199c0 -37 0 -80 -61 -80h-247c0 -72 51 -105 117 -105c44 0 75 15 99 31c11 7 19 11 32 11c26 0 47 -21 47 -47c0 -16 -8 -29 -17 -37c-17 -16 -70 -55 -161 -55zM344 279 c0 49 -28 97 -93 97c-58 0 -100 -33 -105 -97h198zM344 614c19 0 34 -14 34 -34c0 -18 -15 -34 -34 -34h-181c-19 0 -34 16 -34 34c0 20 15 34 34 34h181z" />
<glyph unicode="&#x115;" horiz-adv-x="483" d="M260 -13c-139 0 -225 75 -225 242c0 153 80 239 216 239c169 0 200 -130 200 -199c0 -37 0 -80 -61 -80h-247c0 -72 51 -105 117 -105c44 0 75 15 99 31c11 7 19 11 32 11c26 0 47 -21 47 -47c0 -16 -8 -29 -17 -37c-17 -16 -70 -55 -161 -55zM344 279 c0 49 -28 97 -93 97c-58 0 -100 -33 -105 -97h198zM394 630c0 -76 -61 -107 -138 -107s-138 31 -138 107c0 20 16 36 36 36s36 -16 36 -36c0 -30 34 -39 66 -39s66 9 66 39c0 20 16 36 36 36s36 -16 36 -36z" />
<glyph unicode="&#x117;" horiz-adv-x="483" d="M260 -13c-139 0 -225 75 -225 242c0 153 80 239 216 239c169 0 200 -130 200 -199c0 -37 0 -80 -61 -80h-247c0 -72 51 -105 117 -105c44 0 75 15 99 31c11 7 19 11 32 11c26 0 47 -21 47 -47c0 -16 -8 -29 -17 -37c-17 -16 -70 -55 -161 -55zM344 279 c0 49 -28 97 -93 97c-58 0 -100 -33 -105 -97h198zM304 597c0 -35 -19 -51 -52 -51s-52 16 -52 51c0 38 19 54 52 54s52 -16 52 -54z" />
<glyph unicode="&#x119;" horiz-adv-x="483" d="M398 -119c17 0 30 -13 30 -30c0 -11 -5 -18 -10 -22c-18 -15 -54 -17 -73 -17c-57 0 -117 22 -117 88c0 33 17 64 47 88c0 0 -10 -1 -15 -1c-139 0 -225 75 -225 242c0 153 80 239 216 239c169 0 200 -130 200 -199c0 -37 0 -80 -61 -80h-247c0 -72 51 -105 117 -105 c44 0 75 15 99 31c11 7 19 11 32 11c26 0 47 -21 47 -47c0 -16 -8 -29 -17 -37c-11 -10 -36 -29 -75 -42c-32 -23 -54 -50 -54 -80c0 -35 30 -46 62 -46c19 0 31 7 44 7zM344 279c0 49 -28 97 -93 97c-58 0 -100 -33 -105 -97h198z" />
<glyph unicode="&#x11b;" horiz-adv-x="483" d="M260 -13c-139 0 -225 75 -225 242c0 153 80 239 216 239c169 0 200 -130 200 -199c0 -37 0 -80 -61 -80h-247c0 -72 51 -105 117 -105c44 0 75 15 99 31c11 7 19 11 32 11c26 0 47 -21 47 -47c0 -16 -8 -29 -17 -37c-17 -16 -70 -55 -161 -55zM344 279 c0 49 -28 97 -93 97c-58 0 -100 -33 -105 -97h198zM278 530c-7 -5 -15 -7 -23 -7s-16 2 -23 7l-93 62c-10 7 -18 17 -18 33c0 22 17 39 39 39c9 0 18 -3 23 -7l72 -50l72 50c5 4 14 7 23 7c22 0 39 -17 39 -39c0 -16 -8 -26 -18 -33z" />
<glyph unicode="&#x11d;" horiz-adv-x="505" d="M412 398c20 -27 30 -61 30 -101c0 -106 -73 -171 -196 -171c-35 0 -68 6 -94 16c-6 -5 -9 -14 -9 -21c0 -17 13 -34 59 -34h93c103 0 186 -36 186 -137c0 -102 -96 -151 -223 -151c-109 0 -223 31 -223 148c0 36 17 71 60 98c-26 16 -47 41 -47 76c0 20 8 51 35 67 c-29 43 -33 74 -33 109c0 106 73 171 196 171c37 0 69 -6 96 -17c19 24 52 46 100 46c25 0 45 -20 45 -45s-20 -45 -45 -45c-13 0 -23 -3 -30 -9zM246 379c-58 0 -91 -36 -91 -82s33 -82 91 -82s91 36 91 82s-33 82 -91 82zM259 -109c60 0 114 18 114 59c0 32 -33 49 -78 49 h-94c-38 -8 -58 -30 -58 -52c0 -38 40 -56 116 -56zM224 657c7 5 15 7 23 7s16 -2 23 -7l93 -62c10 -7 18 -17 18 -33c0 -22 -17 -39 -39 -39c-9 0 -18 3 -23 7l-72 50l-72 -50c-5 -4 -14 -7 -23 -7c-22 0 -39 17 -39 39c0 16 8 26 18 33z" />
<glyph unicode="&#x11f;" horiz-adv-x="505" d="M412 398c20 -27 30 -61 30 -101c0 -106 -73 -171 -196 -171c-35 0 -68 6 -94 16c-6 -5 -9 -14 -9 -21c0 -17 13 -34 59 -34h93c103 0 186 -36 186 -137c0 -102 -96 -151 -223 -151c-109 0 -223 31 -223 148c0 36 17 71 60 98c-26 16 -47 41 -47 76c0 20 8 51 35 67 c-29 43 -33 74 -33 109c0 106 73 171 196 171c37 0 69 -6 96 -17c19 24 52 46 100 46c25 0 45 -20 45 -45s-20 -45 -45 -45c-13 0 -23 -3 -30 -9zM246 379c-58 0 -91 -36 -91 -82s33 -82 91 -82s91 36 91 82s-33 82 -91 82zM259 -109c60 0 114 18 114 59c0 32 -33 49 -78 49 h-94c-38 -8 -58 -30 -58 -52c0 -38 40 -56 116 -56zM386 630c0 -76 -61 -107 -138 -107s-138 31 -138 107c0 20 16 36 36 36s36 -16 36 -36c0 -30 34 -39 66 -39s66 9 66 39c0 20 16 36 36 36s36 -16 36 -36z" />
<glyph unicode="&#x121;" horiz-adv-x="505" d="M412 398c20 -27 30 -61 30 -101c0 -106 -73 -171 -196 -171c-35 0 -68 6 -94 16c-6 -5 -9 -14 -9 -21c0 -17 13 -34 59 -34h93c103 0 186 -36 186 -137c0 -102 -96 -151 -223 -151c-109 0 -223 31 -223 148c0 36 17 71 60 98c-26 16 -47 41 -47 76c0 20 8 51 35 67 c-29 43 -33 74 -33 109c0 106 73 171 196 171c37 0 69 -6 96 -17c19 24 52 46 100 46c25 0 45 -20 45 -45s-20 -45 -45 -45c-13 0 -23 -3 -30 -9zM246 379c-58 0 -91 -36 -91 -82s33 -82 91 -82s91 36 91 82s-33 82 -91 82zM259 -109c60 0 114 18 114 59c0 32 -33 49 -78 49 h-94c-38 -8 -58 -30 -58 -52c0 -38 40 -56 116 -56zM299 597c0 -35 -19 -51 -52 -51s-52 16 -52 51c0 38 19 54 52 54s52 -16 52 -54z" />
<glyph unicode="&#x123;" horiz-adv-x="505" d="M412 398c20 -27 30 -61 30 -101c0 -106 -73 -171 -196 -171c-35 0 -68 6 -94 16c-6 -5 -9 -14 -9 -21c0 -17 13 -34 59 -34h93c103 0 186 -36 186 -137c0 -102 -96 -151 -223 -151c-109 0 -223 31 -223 148c0 36 17 71 60 98c-26 16 -47 41 -47 76c0 20 8 51 35 67 c-29 43 -33 74 -33 109c0 106 73 171 196 171c37 0 69 -6 96 -17c19 24 52 46 100 46c25 0 45 -20 45 -45s-20 -45 -45 -45c-13 0 -23 -3 -30 -9zM246 379c-58 0 -91 -36 -91 -82s33 -82 91 -82s91 36 91 82s-33 82 -91 82zM259 -109c60 0 114 18 114 59c0 32 -33 49 -78 49 h-94c-38 -8 -58 -30 -58 -52c0 -38 40 -56 116 -56zM303 579c0 -36 -20 -55 -55 -55c-34 0 -53 21 -53 57c0 73 41 133 77 159c4 3 8 6 17 6c10 0 17 -9 17 -18c0 -6 -2 -10 -6 -15c-24 -30 -35 -48 -38 -84c29 -5 41 -26 41 -50z" />
<glyph unicode="&#x125;" horiz-adv-x="577" d="M518 0h-156c-25 0 -45 19 -45 45c0 25 20 45 45 45h24v184c0 57 -23 96 -88 96c-75 0 -100 -46 -100 -108v-172h24c25 0 45 -20 45 -45s-20 -45 -45 -45h-156c-25 0 -45 19 -45 45c0 25 20 45 45 45h24v532h-24c-25 0 -45 19 -45 45c0 25 20 45 45 45h81 c30 0 51 -26 51 -54v-250c19 29 61 60 128 60c136 0 168 -87 168 -174v-204h24c25 0 45 -20 45 -45s-20 -45 -45 -45zM123 880c7 5 15 7 23 7s16 -2 23 -7l93 -62c10 -7 18 -17 18 -33c0 -22 -17 -39 -39 -39c-9 0 -18 3 -23 7l-72 50l-72 -50c-5 -4 -14 -7 -23 -7 c-22 0 -39 17 -39 39c0 16 8 26 18 33z" />
<glyph unicode="&#x127;" horiz-adv-x="577" d="M518 0h-156c-25 0 -45 19 -45 45c0 25 20 45 45 45h24v184c0 57 -23 96 -88 96c-75 0 -100 -46 -100 -108v-172h24c25 0 45 -20 45 -45s-20 -45 -45 -45h-156c-25 0 -45 19 -45 45c0 25 20 45 45 45h24v420h-29c-21 0 -40 17 -40 39c0 21 19 38 40 38h29v35h-24 c-25 0 -45 19 -45 45c0 25 20 45 45 45h81c30 0 51 -26 51 -54v-71h74c21 0 40 -17 40 -38c0 -22 -19 -39 -40 -39h-74v-102c19 29 61 60 128 60c136 0 168 -87 168 -174v-204h24c25 0 45 -20 45 -45s-20 -45 -45 -45z" />
<glyph unicode="&#xec;" horiz-adv-x="297" d="M231 0h-156c-25 0 -45 19 -45 45c0 25 20 45 45 45h24v274h-24c-25 0 -45 19 -45 45c0 25 20 45 45 45h78c30 0 54 -24 54 -54v-310h24c25 0 45 -20 45 -45s-20 -45 -45 -45zM218 570c11 -12 11 -30 -5 -45c-13 -12 -29 -15 -46 0l-98 90c-16 15 -18 39 4 60 c20 20 46 21 60 3z" />
<glyph unicode="&#x131;" horiz-adv-x="297" d="M231 0h-156c-25 0 -45 19 -45 45c0 25 20 45 45 45h24v274h-24c-25 0 -45 19 -45 45c0 25 20 45 45 45h78c30 0 54 -24 54 -54v-310h24c25 0 45 -20 45 -45s-20 -45 -45 -45z" />
<glyph unicode="&#xed;" horiz-adv-x="297" d="M231 0h-156c-25 0 -45 19 -45 45c0 25 20 45 45 45h24v274h-24c-25 0 -45 19 -45 45c0 25 20 45 45 45h78c30 0 54 -24 54 -54v-310h24c25 0 45 -20 45 -45s-20 -45 -45 -45zM144 525c-17 -15 -33 -12 -46 0c-16 15 -16 34 -5 46l85 108c14 18 40 17 60 -3 c22 -21 20 -45 4 -60z" />
<glyph unicode="&#xee;" horiz-adv-x="297" d="M231 0h-156c-25 0 -45 19 -45 45c0 25 20 45 45 45h24v274h-24c-25 0 -45 19 -45 45c0 25 20 45 45 45h78c30 0 54 -24 54 -54v-310h24c25 0 45 -20 45 -45s-20 -45 -45 -45zM130 657c7 5 15 7 23 7s16 -2 23 -7l93 -62c10 -7 18 -17 18 -33c0 -22 -17 -39 -39 -39 c-9 0 -18 3 -23 7l-72 50l-72 -50c-5 -4 -14 -7 -23 -7c-22 0 -39 17 -39 39c0 16 8 26 18 33z" />
<glyph unicode="&#xef;" horiz-adv-x="297" d="M231 0h-156c-25 0 -45 19 -45 45c0 25 20 45 45 45h24v274h-24c-25 0 -45 19 -45 45c0 25 20 45 45 45h78c30 0 54 -24 54 -54v-310h24c25 0 45 -20 45 -45s-20 -45 -45 -45zM113 595c0 -34 -18 -51 -50 -51s-50 17 -50 51c0 37 18 53 50 53s50 -16 50 -53zM294 595 c0 -34 -18 -51 -50 -51s-50 17 -50 51c0 37 18 53 50 53s50 -16 50 -53z" />
<glyph unicode="&#x129;" horiz-adv-x="297" d="M231 0h-156c-25 0 -45 19 -45 45c0 25 20 45 45 45h24v274h-24c-25 0 -45 19 -45 45c0 25 20 45 45 45h78c30 0 54 -24 54 -54v-310h24c25 0 45 -20 45 -45s-20 -45 -45 -45zM84 632c56 0 92 -33 129 -33c11 0 18 5 26 16c7 10 19 17 33 17c22 0 39 -16 39 -37 c0 -4 -1 -12 -3 -16c-13 -31 -48 -49 -86 -49c-56 0 -96 33 -129 33c-11 0 -18 -5 -26 -16c-7 -10 -19 -17 -33 -17c-22 0 -39 16 -39 37c0 4 1 12 3 16c13 31 48 49 86 49z" />
<glyph unicode="&#x12b;" horiz-adv-x="297" d="M231 0h-156c-25 0 -45 19 -45 45c0 25 20 45 45 45h24v274h-24c-25 0 -45 19 -45 45c0 25 20 45 45 45h78c30 0 54 -24 54 -54v-310h24c25 0 45 -20 45 -45s-20 -45 -45 -45zM243 614c19 0 34 -14 34 -34c0 -18 -15 -34 -34 -34h-181c-19 0 -34 16 -34 34 c0 20 15 34 34 34h181z" />
<glyph unicode="&#x12d;" horiz-adv-x="297" d="M231 0h-156c-25 0 -45 19 -45 45c0 25 20 45 45 45h24v274h-24c-25 0 -45 19 -45 45c0 25 20 45 45 45h78c30 0 54 -24 54 -54v-310h24c25 0 45 -20 45 -45s-20 -45 -45 -45zM293 630c0 -76 -61 -107 -138 -107s-138 31 -138 107c0 20 16 36 36 36s36 -16 36 -36 c0 -30 34 -39 66 -39s66 9 66 39c0 20 16 36 36 36s36 -16 36 -36z" />
<glyph unicode="&#x12f;" horiz-adv-x="297" d="M246 -119c17 0 30 -13 30 -30c0 -11 -5 -18 -10 -22c-18 -15 -54 -17 -73 -17c-57 0 -117 22 -117 88c0 39 25 77 65 100h-66c-25 0 -45 19 -45 45c0 25 20 45 45 45h24v274h-24c-25 0 -45 19 -45 45c0 25 20 45 45 45h81c32 0 51 -23 51 -54v-310h24c25 0 45 -20 45 -45 s-20 -45 -45 -45h-37c-32 -23 -54 -50 -54 -80c0 -35 30 -46 62 -46c19 0 31 7 44 7zM215 579c0 -39 -23 -63 -65 -63c-41 0 -64 24 -64 63c0 46 23 66 64 66c42 0 65 -20 65 -66z" />
<glyph unicode="&#x135;" horiz-adv-x="265" d="M90 -43v407h-24c-25 0 -45 19 -45 45c0 25 20 45 45 45h78c30 0 54 -24 54 -54v-443c0 -89 -68 -158 -162 -158c-27 0 -50 23 -50 50s23 50 50 50c32 0 54 26 54 58zM119 657c7 5 15 7 23 7s16 -2 23 -7l93 -62c10 -7 18 -17 18 -33c0 -22 -17 -39 -39 -39 c-9 0 -18 3 -23 7l-72 50l-72 -50c-5 -4 -14 -7 -23 -7c-22 0 -39 17 -39 39c0 16 8 26 18 33z" />
<glyph unicode="&#x237;" horiz-adv-x="265" d="M90 -43v407h-24c-25 0 -45 19 -45 45c0 25 20 45 45 45h78c30 0 54 -24 54 -54v-443c0 -89 -68 -158 -162 -158c-27 0 -50 23 -50 50s23 50 50 50c32 0 54 26 54 58z" />
<glyph unicode="&#x137;" horiz-adv-x="535" d="M222 0h-156c-25 0 -45 19 -45 45c0 25 20 45 45 45h24v532h-24c-25 0 -45 19 -45 45c0 25 20 45 45 45h81c29 0 51 -23 51 -52v-360l152 141c10 9 18 13 31 13h70c25 0 45 -20 45 -45s-20 -45 -45 -45h-52l-88 -78l137 -196h38c25 0 45 -20 45 -45s-20 -45 -45 -45h-74 c-19 0 -31 9 -39 21l-133 200l-42 -38v-93h24c25 0 45 -20 45 -45s-20 -45 -45 -45zM222 -94c0 36 20 55 55 55c34 0 53 -21 53 -57c0 -73 -41 -133 -77 -159c-4 -3 -8 -6 -17 -6c-10 0 -17 9 -17 18c0 6 2 10 6 15c24 30 35 48 38 84c-29 5 -41 26 -41 50z" />
<glyph unicode="&#x138;" horiz-adv-x="544" d="M231 0h-156c-25 0 -45 19 -45 45c0 25 20 45 45 45h24v274h-24c-25 0 -45 19 -45 45c0 25 20 45 45 45h81c29 0 51 -23 51 -52v-102l152 141c11 11 21 12 31 13h70c25 0 45 -20 45 -45s-20 -45 -45 -45h-52l-87 -79l136 -195h38c25 0 45 -20 45 -45s-20 -45 -45 -45h-72 c-19 0 -33 9 -41 21l-133 200l-42 -38v-93h24c25 0 45 -20 45 -45s-20 -45 -45 -45z" />
<glyph unicode="&#x13a;" horiz-adv-x="273" d="M223 92c26 0 47 -22 47 -50s-21 -50 -47 -50h-31c-78 0 -127 44 -127 128v502h-24c-25 0 -45 19 -45 45c0 25 20 45 45 45h81c29 0 51 -25 51 -54v-548c0 -11 8 -18 17 -18h33zM105 746c-17 -15 -33 -12 -46 0c-16 15 -16 34 -5 46l85 108c14 18 40 17 60 -3 c22 -21 20 -45 4 -60z" />
<glyph unicode="&#x13c;" horiz-adv-x="273" d="M223 92c26 0 47 -22 47 -50s-21 -50 -47 -50h-31c-78 0 -127 44 -127 128v502h-24c-25 0 -45 19 -45 45c0 25 20 45 45 45h81c29 0 51 -25 51 -54v-548c0 -11 8 -18 17 -18h33zM95 -98c0 36 20 55 55 55c34 0 53 -21 53 -57c0 -73 -41 -133 -77 -159c-4 -3 -8 -6 -17 -6 c-10 0 -17 9 -17 18c0 6 2 10 6 15c24 30 35 48 38 84c-29 5 -41 26 -41 50z" />
<glyph unicode="&#x13e;" horiz-adv-x="286" d="M223 92c26 0 47 -22 47 -50s-21 -50 -47 -50h-31c-78 0 -127 44 -127 128v502h-24c-25 0 -45 19 -45 45c0 25 20 45 45 45h81c29 0 51 -25 51 -54v-548c0 -11 8 -18 17 -18h33zM270 712h18c29 0 42 -15 42 -41l-26 -160c-4 -23 -11 -36 -34 -36c-24 0 -35 13 -35 36 l-9 160c-1 26 13 41 44 41z" />
<glyph unicode="&#x140;" horiz-adv-x="391" d="M223 92c26 0 47 -22 47 -50s-21 -50 -47 -50h-31c-78 0 -127 44 -127 128v502h-24c-25 0 -45 19 -45 45c0 25 20 45 45 45h81c29 0 51 -25 51 -54v-548c0 -11 8 -18 17 -18h33zM376 371c0 -44 -23 -65 -65 -65s-66 21 -66 65c0 45 24 67 66 67s65 -22 65 -67z" />
<glyph unicode="&#x142;" horiz-adv-x="316" d="M65 279c-7 -4 -12 -6 -21 -6c-23 0 -43 18 -43 43c0 16 8 30 21 37l74 42v227h-24c-25 0 -45 19 -45 45c0 25 20 45 45 45h81c29 0 51 -25 51 -54v-202l27 15c7 4 15 6 22 6c24 0 43 -19 43 -43c0 -16 -9 -31 -22 -38l-70 -39v-247c0 -11 8 -18 17 -18h33 c26 0 47 -22 47 -50s-21 -50 -47 -50h-31c-78 0 -127 44 -127 128v176z" />
<glyph unicode="&#xf1;" horiz-adv-x="586" d="M231 0h-156c-25 0 -45 19 -45 45c0 25 20 45 45 45h24v274h-24c-25 0 -45 19 -45 45c0 25 20 45 45 45h81c29 0 51 -17 51 -46c19 29 61 60 128 60c136 0 168 -87 168 -174v-204h24c25 0 45 -20 45 -45s-20 -45 -45 -45h-156c-25 0 -45 19 -45 45c0 25 20 45 45 45h24 v184c0 57 -23 96 -88 96c-75 0 -100 -46 -100 -108v-172h24c25 0 45 -20 45 -45s-20 -45 -45 -45zM251 632c56 0 92 -33 129 -33c11 0 18 5 26 16c7 10 19 17 33 17c22 0 39 -16 39 -37c0 -4 -1 -12 -3 -16c-13 -31 -48 -49 -86 -49c-56 0 -96 33 -129 33 c-11 0 -18 -5 -26 -16c-7 -10 -19 -17 -33 -17c-22 0 -39 16 -39 37c0 4 1 12 3 16c13 31 48 49 86 49z" />
<glyph unicode="&#x144;" horiz-adv-x="586" d="M231 0h-156c-25 0 -45 19 -45 45c0 25 20 45 45 45h24v274h-24c-25 0 -45 19 -45 45c0 25 20 45 45 45h81c29 0 51 -17 51 -46c19 29 61 60 128 60c136 0 168 -87 168 -174v-204h24c25 0 45 -20 45 -45s-20 -45 -45 -45h-156c-25 0 -45 19 -45 45c0 25 20 45 45 45h24 v184c0 57 -23 96 -88 96c-75 0 -100 -46 -100 -108v-172h24c25 0 45 -20 45 -45s-20 -45 -45 -45zM315 525c-17 -15 -33 -12 -46 0c-16 15 -16 34 -5 46l85 108c14 18 40 17 60 -3c22 -21 20 -45 4 -60z" />
<glyph unicode="&#x146;" horiz-adv-x="586" d="M231 0h-156c-25 0 -45 19 -45 45c0 25 20 45 45 45h24v274h-24c-25 0 -45 19 -45 45c0 25 20 45 45 45h81c29 0 51 -17 51 -46c19 29 61 60 128 60c136 0 168 -87 168 -174v-204h24c25 0 45 -20 45 -45s-20 -45 -45 -45h-156c-25 0 -45 19 -45 45c0 25 20 45 45 45h24 v184c0 57 -23 96 -88 96c-75 0 -100 -46 -100 -108v-172h24c25 0 45 -20 45 -45s-20 -45 -45 -45zM250 -98c0 36 20 55 55 55c34 0 53 -21 53 -57c0 -73 -41 -133 -77 -159c-4 -3 -8 -6 -17 -6c-10 0 -17 9 -17 18c0 6 2 10 6 15c24 30 35 48 38 84c-29 5 -41 26 -41 50z " />
<glyph unicode="&#x148;" horiz-adv-x="586" d="M231 0h-156c-25 0 -45 19 -45 45c0 25 20 45 45 45h24v274h-24c-25 0 -45 19 -45 45c0 25 20 45 45 45h81c29 0 51 -17 51 -46c19 29 61 60 128 60c136 0 168 -87 168 -174v-204h24c25 0 45 -20 45 -45s-20 -45 -45 -45h-156c-25 0 -45 19 -45 45c0 25 20 45 45 45h24 v184c0 57 -23 96 -88 96c-75 0 -100 -46 -100 -108v-172h24c25 0 45 -20 45 -45s-20 -45 -45 -45zM333 530c-7 -5 -15 -7 -23 -7s-16 2 -23 7l-93 62c-10 7 -18 17 -18 33c0 22 17 39 39 39c9 0 18 -3 23 -7l72 -50l72 50c5 4 14 7 23 7c22 0 39 -17 39 -39 c0 -16 -8 -26 -18 -33z" />
<glyph unicode="&#x149;" horiz-adv-x="586" d="M231 0h-156c-25 0 -45 19 -45 45c0 25 20 45 45 45h24v274h-24c-25 0 -45 19 -45 45c0 25 20 45 45 45h81c29 0 51 -17 51 -46c19 29 61 60 128 60c136 0 168 -87 168 -174v-204h24c25 0 45 -20 45 -45s-20 -45 -45 -45h-156c-25 0 -45 19 -45 45c0 25 20 45 45 45h24 v184c0 57 -23 96 -88 96c-75 0 -100 -46 -100 -108v-172h24c25 0 45 -20 45 -45s-20 -45 -45 -45zM72 660c0 36 20 55 55 55c34 0 53 -21 53 -57c0 -73 -41 -133 -77 -159c-4 -3 -8 -6 -17 -6c-10 0 -17 9 -17 18c0 6 2 10 6 15c24 30 35 48 38 84c-29 5 -41 26 -41 50z" />
<glyph unicode="&#x14b;" horiz-adv-x="561" d="M325 -101h20c28 0 50 28 50 58v317c0 57 -23 96 -88 96c-75 0 -100 -44 -100 -103v-177h24c25 0 45 -20 45 -45s-20 -45 -45 -45h-156c-25 0 -45 19 -45 45c0 25 20 45 45 45h24v275h-24c-25 0 -45 19 -45 45c0 25 20 44 45 44h78c30 0 54 -16 54 -46c19 29 61 60 128 60 c136 0 168 -87 168 -174v-337c0 -86 -64 -158 -154 -158h-24c-26 0 -47 22 -47 50c0 29 21 50 47 50z" />
<glyph unicode="&#xf2;" horiz-adv-x="508" d="M473 227c0 -163 -84 -240 -219 -240s-219 77 -219 240c0 164 84 241 219 241s219 -77 219 -241zM254 79c72 0 110 50 110 148c0 99 -38 149 -110 149s-110 -50 -110 -149c0 -98 38 -148 110 -148zM322 570c11 -12 11 -30 -5 -45c-13 -12 -29 -15 -46 0l-98 90 c-16 15 -18 39 4 60c20 20 46 21 60 3z" />
<glyph unicode="&#xf3;" horiz-adv-x="508" d="M473 227c0 -163 -84 -240 -219 -240s-219 77 -219 240c0 164 84 241 219 241s219 -77 219 -241zM254 79c72 0 110 50 110 148c0 99 -38 149 -110 149s-110 -50 -110 -149c0 -98 38 -148 110 -148zM244 525c-17 -15 -33 -12 -46 0c-16 15 -16 34 -5 46l85 108 c14 18 40 17 60 -3c22 -21 20 -45 4 -60z" />
<glyph unicode="&#xf4;" horiz-adv-x="508" d="M473 227c0 -163 -84 -240 -219 -240s-219 77 -219 240c0 164 84 241 219 241s219 -77 219 -241zM254 79c72 0 110 50 110 148c0 99 -38 149 -110 149s-110 -50 -110 -149c0 -98 38 -148 110 -148zM233 657c7 5 15 7 23 7s16 -2 23 -7l93 -62c10 -7 18 -17 18 -33 c0 -22 -17 -39 -39 -39c-9 0 -18 3 -23 7l-72 50l-72 -50c-5 -4 -14 -7 -23 -7c-22 0 -39 17 -39 39c0 16 8 26 18 33z" />
<glyph unicode="&#xf5;" horiz-adv-x="508" d="M473 227c0 -163 -84 -240 -219 -240s-219 77 -219 240c0 164 84 241 219 241s219 -77 219 -241zM254 79c72 0 110 50 110 148c0 99 -38 149 -110 149s-110 -50 -110 -149c0 -98 38 -148 110 -148zM188 632c56 0 92 -33 129 -33c11 0 18 5 26 16c7 10 19 17 33 17 c22 0 39 -16 39 -37c0 -4 -1 -12 -3 -16c-13 -31 -48 -49 -86 -49c-56 0 -96 33 -129 33c-11 0 -18 -5 -26 -16c-7 -10 -19 -17 -33 -17c-22 0 -39 16 -39 37c0 4 1 12 3 16c13 31 48 49 86 49z" />
<glyph unicode="&#xf6;" horiz-adv-x="508" d="M473 227c0 -163 -84 -240 -219 -240s-219 77 -219 240c0 164 84 241 219 241s219 -77 219 -241zM254 79c72 0 110 50 110 148c0 99 -38 149 -110 149s-110 -50 -110 -149c0 -98 38 -148 110 -148zM215 595c0 -34 -18 -51 -50 -51s-50 17 -50 51c0 37 18 53 50 53 s50 -16 50 -53zM396 595c0 -34 -18 -51 -50 -51s-50 17 -50 51c0 37 18 53 50 53s50 -16 50 -53z" />
<glyph unicode="&#x14d;" horiz-adv-x="508" d="M473 227c0 -163 -84 -240 -219 -240s-219 77 -219 240c0 164 84 241 219 241s219 -77 219 -241zM254 79c72 0 110 50 110 148c0 99 -38 149 -110 149s-110 -50 -110 -149c0 -98 38 -148 110 -148zM346 614c19 0 34 -14 34 -34c0 -18 -15 -34 -34 -34h-181 c-19 0 -34 16 -34 34c0 20 15 34 34 34h181z" />
<glyph unicode="&#x14f;" horiz-adv-x="508" d="M473 227c0 -163 -84 -240 -219 -240s-219 77 -219 240c0 164 84 241 219 241s219 -77 219 -241zM254 79c72 0 110 50 110 148c0 99 -38 149 -110 149s-110 -50 -110 -149c0 -98 38 -148 110 -148zM394 630c0 -76 -61 -107 -138 -107s-138 31 -138 107c0 20 16 36 36 36 s36 -16 36 -36c0 -30 34 -39 66 -39s66 9 66 39c0 20 16 36 36 36s36 -16 36 -36z" />
<glyph unicode="&#x151;" horiz-adv-x="508" d="M473 227c0 -163 -84 -240 -219 -240s-219 77 -219 240c0 164 84 241 219 241s219 -77 219 -241zM254 79c72 0 110 50 110 148c0 99 -38 149 -110 149s-110 -50 -110 -149c0 -98 38 -148 110 -148zM205 525c-17 -15 -33 -12 -46 0c-16 15 -16 33 -5 45l85 108 c14 18 40 17 60 -3c22 -21 20 -45 4 -60zM348 525c-17 -15 -33 -12 -46 0c-16 15 -16 33 -5 45l85 108c14 18 40 17 60 -3c22 -21 20 -45 4 -60z" />
<glyph unicode="&#xf8;" horiz-adv-x="524" d="M104 4c-7 -7 -17 -12 -29 -12c-21 0 -40 19 -40 40c0 12 5 20 12 28l25 26c-20 36 -30 83 -30 141c0 164 84 241 219 241c54 0 101 -13 137 -39l26 28c7 7 17 12 29 12c21 0 40 -19 40 -40c0 -12 -5 -21 -12 -28l-31 -33c19 -36 30 -83 30 -141 c0 -163 -84 -240 -219 -240c-55 0 -101 13 -137 38zM151 227c0 -20 1 -38 4 -53l172 181c-17 14 -39 21 -66 21c-72 0 -110 -50 -110 -149zM261 79c72 0 110 50 110 148c0 20 -2 37 -5 53l-171 -181c17 -13 39 -20 66 -20z" />
<glyph unicode="&#x1ff;" horiz-adv-x="524" d="M251 525c-17 -15 -33 -12 -46 0c-16 15 -16 34 -5 46l85 108c14 18 40 17 60 -3c22 -21 20 -45 4 -60zM104 4c-7 -7 -17 -12 -29 -12c-21 0 -40 19 -40 40c0 12 5 20 12 28l25 26c-20 36 -30 83 -30 141c0 164 84 241 219 241c54 0 101 -13 137 -39l26 28 c7 7 17 12 29 12c21 0 40 -19 40 -40c0 -12 -5 -21 -12 -28l-31 -33c19 -36 30 -83 30 -141c0 -163 -84 -240 -219 -240c-55 0 -101 13 -137 38zM151 227c0 -20 1 -38 4 -53l172 181c-17 14 -39 21 -66 21c-72 0 -110 -50 -110 -149zM261 79c72 0 110 50 110 148 c0 20 -2 37 -5 53l-171 -181c17 -13 39 -20 66 -20z" />
<glyph unicode="&#x153;" horiz-adv-x="812" d="M35 227c0 164 84 241 219 241c71 0 130 -27 165 -71c34 42 92 71 161 71c169 0 200 -130 200 -199c0 -37 0 -80 -61 -80h-247c0 -72 51 -105 117 -105c44 0 75 15 99 31c11 7 19 11 32 11c26 0 47 -21 47 -47c0 -16 -8 -29 -17 -37c-17 -16 -70 -55 -161 -55 c-73 0 -135 26 -171 69c-35 -43 -94 -69 -164 -69c-135 0 -219 77 -219 240zM254 79c72 0 110 50 110 148c0 99 -38 149 -110 149s-110 -50 -110 -149c0 -98 38 -148 110 -148zM673 279c0 49 -28 97 -93 97c-58 0 -100 -33 -105 -97h198z" />
<glyph unicode="&#x155;" horiz-adv-x="373" d="M231 0h-156c-25 0 -45 19 -45 45c0 25 20 45 45 45h24v274h-24c-25 0 -45 19 -45 45c0 25 20 45 45 45h82c27 0 50 -18 50 -46v-5c19 39 66 64 108 64c28 0 51 -23 51 -51s-23 -51 -51 -51c-69 0 -108 -44 -108 -111v-164h24c25 0 45 -20 45 -45s-20 -45 -45 -45z M235 525c-17 -15 -33 -12 -46 0c-16 15 -16 34 -5 46l85 108c14 18 40 17 60 -3c22 -21 20 -45 4 -60z" />
<glyph unicode="&#x157;" horiz-adv-x="373" d="M231 0h-156c-25 0 -45 19 -45 45c0 25 20 45 45 45h24v274h-24c-25 0 -45 19 -45 45c0 25 20 45 45 45h82c27 0 50 -18 50 -46v-5c19 39 66 64 108 64c28 0 51 -23 51 -51s-23 -51 -51 -51c-69 0 -108 -44 -108 -111v-164h24c25 0 45 -20 45 -45s-20 -45 -45 -45zM97 -98 c0 36 20 55 55 55c34 0 53 -21 53 -57c0 -73 -41 -133 -77 -159c-4 -3 -8 -6 -17 -6c-10 0 -17 9 -17 18c0 6 2 10 6 15c24 30 35 48 38 84c-29 5 -41 26 -41 50z" />
<glyph unicode="&#x159;" horiz-adv-x="373" d="M231 0h-156c-25 0 -45 19 -45 45c0 25 20 45 45 45h24v274h-24c-25 0 -45 19 -45 45c0 25 20 45 45 45h82c27 0 50 -18 50 -46v-5c19 39 66 64 108 64c28 0 51 -23 51 -51s-23 -51 -51 -51c-69 0 -108 -44 -108 -111v-164h24c25 0 45 -20 45 -45s-20 -45 -45 -45z M249 530c-7 -5 -15 -7 -23 -7s-16 2 -23 7l-93 62c-10 7 -18 17 -18 33c0 22 17 39 39 39c9 0 18 -3 23 -7l72 -50l72 50c5 4 14 7 23 7c22 0 39 -17 39 -39c0 -16 -8 -26 -18 -33z" />
<glyph unicode="&#x15b;" horiz-adv-x="431" d="M302 342c-22 16 -49 32 -90 32c-37 0 -59 -13 -59 -38c0 -74 246 -40 246 -205c0 -94 -80 -142 -183 -142c-86 0 -152 39 -177 70c-8 10 -12 19 -12 31c0 26 22 48 48 48c10 0 20 -3 31 -12c27 -22 60 -41 110 -41c45 0 74 12 74 40c0 81 -245 39 -245 209 c0 90 75 134 167 134c71 0 134 -27 162 -62c6 -8 10 -15 10 -30c0 -26 -22 -48 -48 -48c-14 0 -23 6 -34 14zM201 525c-17 -15 -33 -12 -46 0c-16 15 -16 34 -5 46l85 108c14 18 40 17 60 -3c22 -21 20 -45 4 -60z" />
<glyph unicode="&#x15d;" horiz-adv-x="431" d="M302 342c-22 16 -49 32 -90 32c-37 0 -59 -13 -59 -38c0 -74 246 -40 246 -205c0 -94 -80 -142 -183 -142c-86 0 -152 39 -177 70c-8 10 -12 19 -12 31c0 26 22 48 48 48c10 0 20 -3 31 -12c27 -22 60 -41 110 -41c45 0 74 12 74 40c0 81 -245 39 -245 209 c0 90 75 134 167 134c71 0 134 -27 162 -62c6 -8 10 -15 10 -30c0 -26 -22 -48 -48 -48c-14 0 -23 6 -34 14zM199 657c7 5 15 7 23 7s16 -2 23 -7l93 -62c10 -7 18 -17 18 -33c0 -22 -17 -39 -39 -39c-9 0 -18 3 -23 7l-72 50l-72 -50c-5 -4 -14 -7 -23 -7 c-22 0 -39 17 -39 39c0 16 8 26 18 33z" />
<glyph unicode="&#x15f;" horiz-adv-x="431" d="M246 -34c49 0 85 -26 85 -74c0 -50 -31 -80 -99 -80c-25 0 -59 8 -80 22c-6 4 -11 11 -11 21c0 14 12 26 26 26c5 0 8 -1 12 -3c17 -9 31 -14 55 -14s38 7 38 28c0 17 -17 24 -41 24c-17 0 -30 -4 -44 -4s-21 9 -21 22v60c-62 10 -107 40 -127 65c-8 10 -12 19 -12 31 c0 26 22 48 48 48c10 0 20 -3 31 -12c27 -22 60 -41 110 -41c45 0 74 12 74 40c0 81 -245 39 -245 209c0 90 75 134 167 134c71 0 134 -27 162 -62c6 -8 10 -15 10 -30c0 -26 -22 -48 -48 -48c-14 0 -23 6 -34 14c-22 16 -49 32 -90 32c-37 0 -59 -13 -59 -38 c0 -74 246 -40 246 -205c0 -94 -80 -142 -183 -142h-1l-2 -26s12 3 33 3z" />
<glyph unicode="&#x161;" horiz-adv-x="431" d="M302 342c-22 16 -49 32 -90 32c-37 0 -59 -13 -59 -38c0 -74 246 -40 246 -205c0 -94 -80 -142 -183 -142c-86 0 -152 39 -177 70c-8 10 -12 19 -12 31c0 26 22 48 48 48c10 0 20 -3 31 -12c27 -22 60 -41 110 -41c45 0 74 12 74 40c0 81 -245 39 -245 209 c0 90 75 134 167 134c71 0 134 -27 162 -62c6 -8 10 -15 10 -30c0 -26 -22 -48 -48 -48c-14 0 -23 6 -34 14zM241 530c-7 -5 -15 -7 -23 -7s-16 2 -23 7l-93 62c-10 7 -18 17 -18 33c0 22 17 39 39 39c9 0 18 -3 23 -7l72 -50l72 50c5 4 14 7 23 7c22 0 39 -17 39 -39 c0 -16 -8 -26 -18 -33z" />
<glyph unicode="&#x219;" horiz-adv-x="431" d="M302 342c-22 16 -49 32 -90 32c-37 0 -59 -13 -59 -38c0 -74 246 -40 246 -205c0 -94 -80 -142 -183 -142c-86 0 -152 39 -177 70c-8 10 -12 19 -12 31c0 26 22 48 48 48c10 0 20 -3 31 -12c27 -22 60 -41 110 -41c45 0 74 12 74 40c0 81 -245 39 -245 209 c0 90 75 134 167 134c71 0 134 -27 162 -62c6 -8 10 -15 10 -30c0 -26 -22 -48 -48 -48c-14 0 -23 6 -34 14zM164 -94c0 36 20 55 55 55c34 0 53 -21 53 -57c0 -73 -41 -133 -77 -159c-4 -3 -8 -6 -17 -6c-10 0 -17 9 -17 18c0 6 2 10 6 15c24 30 35 48 38 84 c-29 5 -41 26 -41 50z" />
<glyph unicode="&#xdf;" horiz-adv-x="619" d="M153 0h-87c-25 0 -45 19 -45 45c0 25 20 45 45 45h24v426c0 108 78 196 207 196c119 0 196 -75 196 -157c0 -124 -128 -129 -128 -201c0 -81 236 -44 236 -223c0 -94 -80 -142 -183 -142c-81 0 -143 40 -167 70c-8 10 -12 19 -12 31c0 26 22 48 48 48c10 0 20 -3 31 -12 c26 -21 55 -41 100 -41s74 12 74 40c0 91 -235 52 -235 227c0 106 128 132 128 203c0 22 -17 63 -88 63c-55 0 -99 -37 -99 -94v-479c0 -25 -20 -45 -45 -45z" />
<glyph unicode="&#x163;" horiz-adv-x="309" d="M86 454v84c0 29 24 53 53 53s53 -24 53 -53v-84h45c25 0 45 -20 45 -45s-20 -45 -45 -45h-45v-242c0 -23 24 -36 46 -36c26 0 47 -21 47 -47s-21 -47 -47 -47c-8 0 -16 0 -24 1l-2 -30s12 3 33 3c49 0 85 -26 85 -74c0 -50 -31 -80 -99 -80c-25 0 -59 8 -80 22 c-6 4 -11 11 -11 21c0 14 12 26 26 26c5 0 8 -1 12 -3c17 -9 31 -14 55 -14s38 7 38 28c0 17 -17 24 -41 24c-17 0 -30 -4 -44 -4s-21 9 -21 22v72c-50 21 -79 66 -79 122v236h-23c-25 0 -45 20 -45 45s20 45 45 45h23z" />
<glyph unicode="&#x165;" horiz-adv-x="308" d="M85 454v84c0 29 24 53 53 53s53 -24 53 -53v-84h45c25 0 45 -20 45 -45s-20 -45 -45 -45h-45v-242c0 -23 24 -36 46 -36c26 0 47 -21 47 -47s-21 -47 -47 -47c-94 0 -152 57 -152 136v236h-23c-25 0 -45 20 -45 45s20 45 45 45h23zM280 717h18c29 0 42 -15 42 -41 l-26 -160c-4 -23 -11 -36 -34 -36c-24 0 -35 13 -35 36l-9 160c-1 26 13 41 44 41z" />
<glyph unicode="&#x167;" horiz-adv-x="310" d="M86 454v84c0 29 24 53 53 53s53 -24 53 -53v-84h45c25 0 45 -20 45 -45s-20 -45 -45 -45h-45v-66h49c23 0 41 -18 41 -41s-18 -41 -41 -41h-49v-94c0 -23 24 -36 46 -36c26 0 47 -21 47 -47s-21 -47 -47 -47c-94 0 -152 57 -152 136v88h-27c-23 0 -41 18 -41 41 s18 41 41 41h27v66h-23c-25 0 -45 20 -45 45s20 45 45 45h23z" />
<glyph unicode="&#xfe;" horiz-adv-x="533" d="M45 712h78c30 0 54 -24 54 -54v-250c15 25 57 60 120 60c127 0 201 -77 201 -240s-73 -241 -203 -241c-50 0 -96 20 -118 50v-148h40c25 0 45 -20 45 -45s-20 -45 -45 -45h-172c-25 0 -45 20 -45 45s20 45 45 45h24v733h-24c-25 0 -45 20 -45 45s20 45 45 45zM281 79 c70 0 107 50 107 148c0 99 -37 149 -107 149s-107 -50 -107 -149c0 -98 37 -148 107 -148z" />
<glyph unicode="&#xf9;" d="M476 90h25c25 0 45 -20 45 -45s-20 -45 -45 -45h-79c-30 0 -52 20 -54 48c-15 -29 -52 -60 -108 -60c-145 0 -179 89 -179 187v189h-23c-25 0 -45 19 -45 45c0 25 20 45 45 45h80c29 0 51 -25 51 -54v-225c0 -46 16 -90 90 -90c73 0 89 44 89 90v189h-23 c-25 0 -45 19 -45 45c0 25 20 45 45 45h80c29 0 51 -25 51 -54v-310zM348 570c11 -12 11 -30 -5 -45c-13 -12 -29 -15 -46 0l-98 90c-16 15 -18 39 4 60c20 20 46 21 60 3z" />
<glyph unicode="&#xfa;" d="M476 90h25c25 0 45 -20 45 -45s-20 -45 -45 -45h-79c-30 0 -52 20 -54 48c-15 -29 -52 -60 -108 -60c-145 0 -179 89 -179 187v189h-23c-25 0 -45 19 -45 45c0 25 20 45 45 45h80c29 0 51 -25 51 -54v-225c0 -46 16 -90 90 -90c73 0 89 44 89 90v189h-23 c-25 0 -45 19 -45 45c0 25 20 45 45 45h80c29 0 51 -25 51 -54v-310zM260 525c-17 -15 -33 -12 -46 0c-16 15 -16 34 -5 46l85 108c14 18 40 17 60 -3c22 -21 20 -45 4 -60z" />
<glyph unicode="&#xfb;" d="M476 90h25c25 0 45 -20 45 -45s-20 -45 -45 -45h-79c-30 0 -52 20 -54 48c-15 -29 -52 -60 -108 -60c-145 0 -179 89 -179 187v189h-23c-25 0 -45 19 -45 45c0 25 20 45 45 45h80c29 0 51 -25 51 -54v-225c0 -46 16 -90 90 -90c73 0 89 44 89 90v189h-23 c-25 0 -45 19 -45 45c0 25 20 45 45 45h80c29 0 51 -25 51 -54v-310zM258 657c7 5 15 7 23 7s16 -2 23 -7l93 -62c10 -7 18 -17 18 -33c0 -22 -17 -39 -39 -39c-9 0 -18 3 -23 7l-72 50l-72 -50c-5 -4 -14 -7 -23 -7c-22 0 -39 17 -39 39c0 16 8 26 18 33z" />
<glyph unicode="&#xfc;" d="M476 90h25c25 0 45 -20 45 -45s-20 -45 -45 -45h-79c-30 0 -52 20 -54 48c-15 -29 -52 -60 -108 -60c-145 0 -179 89 -179 187v189h-23c-25 0 -45 19 -45 45c0 25 20 45 45 45h80c29 0 51 -25 51 -54v-225c0 -46 16 -90 90 -90c73 0 89 44 89 90v189h-23 c-25 0 -45 19 -45 45c0 25 20 45 45 45h80c29 0 51 -25 51 -54v-310zM242 595c0 -34 -18 -51 -50 -51s-50 17 -50 51c0 37 18 53 50 53s50 -16 50 -53zM423 595c0 -34 -18 -51 -50 -51s-50 17 -50 51c0 37 18 53 50 53s50 -16 50 -53z" />
<glyph unicode="&#x169;" d="M476 90h25c25 0 45 -20 45 -45s-20 -45 -45 -45h-79c-30 0 -52 20 -54 48c-15 -29 -52 -60 -108 -60c-145 0 -179 89 -179 187v189h-23c-25 0 -45 19 -45 45c0 25 20 45 45 45h80c29 0 51 -25 51 -54v-225c0 -46 16 -90 90 -90c73 0 89 44 89 90v189h-23 c-25 0 -45 19 -45 45c0 25 20 45 45 45h80c29 0 51 -25 51 -54v-310zM213 632c56 0 92 -33 129 -33c11 0 18 5 26 16c7 10 19 17 33 17c22 0 39 -16 39 -37c0 -4 -1 -12 -3 -16c-13 -31 -48 -49 -86 -49c-56 0 -96 33 -129 33c-11 0 -18 -5 -26 -16c-7 -10 -19 -17 -33 -17 c-22 0 -39 16 -39 37c0 4 1 12 3 16c13 31 48 49 86 49z" />
<glyph unicode="&#x16b;" d="M476 90h25c25 0 45 -20 45 -45s-20 -45 -45 -45h-79c-30 0 -52 20 -54 48c-15 -29 -52 -60 -108 -60c-145 0 -179 89 -179 187v189h-23c-25 0 -45 19 -45 45c0 25 20 45 45 45h80c29 0 51 -25 51 -54v-225c0 -46 16 -90 90 -90c73 0 89 44 89 90v189h-23 c-25 0 -45 19 -45 45c0 25 20 45 45 45h80c29 0 51 -25 51 -54v-310zM372 614c19 0 34 -14 34 -34c0 -18 -15 -34 -34 -34h-181c-19 0 -34 16 -34 34c0 20 15 34 34 34h181z" />
<glyph unicode="&#x16d;" d="M476 90h25c25 0 45 -20 45 -45s-20 -45 -45 -45h-79c-30 0 -52 20 -54 48c-15 -29 -52 -60 -108 -60c-145 0 -179 89 -179 187v189h-23c-25 0 -45 19 -45 45c0 25 20 45 45 45h80c29 0 51 -25 51 -54v-225c0 -46 16 -90 90 -90c73 0 89 44 89 90v189h-23 c-25 0 -45 19 -45 45c0 25 20 45 45 45h80c29 0 51 -25 51 -54v-310zM419 630c0 -76 -61 -107 -138 -107s-138 31 -138 107c0 20 16 36 36 36s36 -16 36 -36c0 -30 34 -39 66 -39s66 9 66 39c0 20 16 36 36 36s36 -16 36 -36z" />
<glyph unicode="&#x16f;" d="M476 90h25c25 0 45 -20 45 -45s-20 -45 -45 -45h-79c-30 0 -52 20 -54 48c-15 -29 -52 -60 -108 -60c-145 0 -179 89 -179 187v189h-23c-25 0 -45 19 -45 45c0 25 20 45 45 45h80c29 0 51 -25 51 -54v-225c0 -46 16 -90 90 -90c73 0 89 44 89 90v189h-23 c-25 0 -45 19 -45 45c0 25 20 45 45 45h80c29 0 51 -25 51 -54v-310zM230 604c0 -32 13 -50 51 -50s51 18 51 50s-13 50 -51 50s-51 -18 -51 -50zM173 604c0 62 36 101 108 101s108 -39 108 -101s-36 -101 -108 -101s-108 39 -108 101z" />
<glyph unicode="&#x171;" d="M476 90h25c25 0 45 -20 45 -45s-20 -45 -45 -45h-79c-30 0 -52 20 -54 48c-15 -29 -52 -60 -108 -60c-145 0 -179 89 -179 187v189h-23c-25 0 -45 19 -45 45c0 25 20 45 45 45h80c29 0 51 -25 51 -54v-225c0 -46 16 -90 90 -90c73 0 89 44 89 90v189h-23 c-25 0 -45 19 -45 45c0 25 20 45 45 45h80c29 0 51 -25 51 -54v-310zM222 525c-17 -15 -33 -12 -46 0c-16 15 -16 33 -5 45l85 108c14 18 40 17 60 -3c22 -21 20 -45 4 -60zM365 525c-17 -15 -33 -12 -46 0c-16 15 -16 33 -5 45l85 108c14 18 40 17 60 -3 c22 -21 20 -45 4 -60z" />
<glyph unicode="&#x173;" d="M516 -119c17 0 30 -13 30 -30c0 -11 -5 -18 -10 -22c-18 -15 -54 -17 -73 -17c-57 0 -117 22 -117 88c0 40 25 78 66 101c-25 4 -42 22 -44 47c-15 -29 -52 -60 -108 -60c-145 0 -179 89 -179 187v189h-23c-25 0 -45 19 -45 45c0 25 20 45 45 45h80c29 0 51 -25 51 -54 v-225c0 -46 16 -90 90 -90c73 0 89 44 89 90v189h-23c-25 0 -45 19 -45 45c0 25 20 45 45 45h80c29 0 51 -25 51 -54v-310h25c25 0 45 -20 45 -45s-20 -45 -45 -45h-37c-32 -23 -54 -50 -54 -80c0 -35 30 -46 62 -46c19 0 31 7 44 7z" />
<glyph unicode="&#x175;" horiz-adv-x="712" d="M659 364h-11l-128 -338c-8 -22 -26 -34 -50 -34c-25 0 -46 16 -52 38l-62 219l-62 -218c-7 -23 -27 -39 -52 -39c-26 0 -43 15 -51 35l-127 337h-10c-25 0 -45 19 -45 45c0 25 20 45 45 45h133c25 0 45 -20 45 -45s-20 -45 -45 -45h-12l64 -189l69 240c5 18 21 39 51 39 c25 0 43 -19 48 -36l70 -248l64 194h-9c-25 0 -45 19 -45 45c0 25 20 45 45 45h127c25 0 45 -20 45 -45s-20 -45 -45 -45zM332 657c7 5 15 7 23 7s16 -2 23 -7l93 -62c10 -7 18 -17 18 -33c0 -22 -17 -39 -39 -39c-9 0 -18 3 -23 7l-72 50l-72 -50c-5 -4 -14 -7 -23 -7 c-22 0 -39 17 -39 39c0 16 8 26 18 33z" />
<glyph unicode="&#x1e81;" horiz-adv-x="712" d="M659 364h-11l-128 -338c-8 -22 -26 -34 -50 -34c-25 0 -46 16 -52 38l-62 219l-62 -218c-7 -23 -27 -39 -52 -39c-26 0 -43 15 -51 35l-127 337h-10c-25 0 -45 19 -45 45c0 25 20 45 45 45h133c25 0 45 -20 45 -45s-20 -45 -45 -45h-12l64 -189l69 240c5 18 21 39 51 39 c25 0 43 -19 48 -36l70 -248l64 194h-9c-25 0 -45 19 -45 45c0 25 20 45 45 45h127c25 0 45 -20 45 -45s-20 -45 -45 -45zM424 570c11 -12 11 -30 -5 -45c-13 -12 -29 -15 -46 0l-98 90c-16 15 -18 39 4 60c20 20 46 21 60 3z" />
<glyph unicode="&#x1e83;" horiz-adv-x="712" d="M659 364h-11l-128 -338c-8 -22 -26 -34 -50 -34c-25 0 -46 16 -52 38l-62 219l-62 -218c-7 -23 -27 -39 -52 -39c-26 0 -43 15 -51 35l-127 337h-10c-25 0 -45 19 -45 45c0 25 20 45 45 45h133c25 0 45 -20 45 -45s-20 -45 -45 -45h-12l64 -189l69 240c5 18 21 39 51 39 c25 0 43 -19 48 -36l70 -248l64 194h-9c-25 0 -45 19 -45 45c0 25 20 45 45 45h127c25 0 45 -20 45 -45s-20 -45 -45 -45zM340 525c-17 -15 -33 -12 -46 0c-16 15 -16 34 -5 46l85 108c14 18 40 17 60 -3c22 -21 20 -45 4 -60z" />
<glyph unicode="&#x1e85;" horiz-adv-x="712" d="M659 364h-11l-128 -338c-8 -22 -26 -34 -50 -34c-25 0 -46 16 -52 38l-62 219l-62 -218c-7 -23 -27 -39 -52 -39c-26 0 -43 15 -51 35l-127 337h-10c-25 0 -45 19 -45 45c0 25 20 45 45 45h133c25 0 45 -20 45 -45s-20 -45 -45 -45h-12l64 -189l69 240c5 18 21 39 51 39 c25 0 43 -19 48 -36l70 -248l64 194h-9c-25 0 -45 19 -45 45c0 25 20 45 45 45h127c25 0 45 -20 45 -45s-20 -45 -45 -45zM318 595c0 -34 -18 -51 -50 -51s-50 17 -50 51c0 37 18 53 50 53s50 -16 50 -53zM499 595c0 -34 -18 -51 -50 -51s-50 17 -50 51c0 37 18 53 50 53 s50 -16 50 -53z" />
<glyph unicode="&#xfd;" horiz-adv-x="529" d="M477 364h-11l-176 -397c-43 -98 -107 -168 -207 -168c-29 0 -52 21 -52 50s23 50 52 50c64 0 94 51 127 133l-144 332h-11c-25 0 -45 19 -45 45c0 25 20 45 45 45h136c25 0 45 -20 45 -45s-20 -45 -45 -45h-10l85 -214l84 214h-9c-25 0 -45 19 -45 45c0 25 20 45 45 45 h136c25 0 45 -20 45 -45s-20 -45 -45 -45zM273 525c-17 -15 -33 -12 -46 0c-16 15 -16 34 -5 46l85 108c14 18 40 17 60 -3c22 -21 20 -45 4 -60z" />
<glyph unicode="&#xff;" horiz-adv-x="529" d="M477 364h-11l-176 -397c-43 -98 -107 -168 -207 -168c-29 0 -52 21 -52 50s23 50 52 50c64 0 94 51 127 133l-144 332h-11c-25 0 -45 19 -45 45c0 25 20 45 45 45h136c25 0 45 -20 45 -45s-20 -45 -45 -45h-10l85 -214l84 214h-9c-25 0 -45 19 -45 45c0 25 20 45 45 45 h136c25 0 45 -20 45 -45s-20 -45 -45 -45zM226 595c0 -34 -18 -51 -50 -51s-50 17 -50 51c0 37 18 53 50 53s50 -16 50 -53zM407 595c0 -34 -18 -51 -50 -51s-50 17 -50 51c0 37 18 53 50 53s50 -16 50 -53z" />
<glyph unicode="&#x177;" horiz-adv-x="529" d="M477 364h-11l-176 -397c-43 -98 -107 -168 -207 -168c-29 0 -52 21 -52 50s23 50 52 50c64 0 94 51 127 133l-144 332h-11c-25 0 -45 19 -45 45c0 25 20 45 45 45h136c25 0 45 -20 45 -45s-20 -45 -45 -45h-10l85 -214l84 214h-9c-25 0 -45 19 -45 45c0 25 20 45 45 45 h136c25 0 45 -20 45 -45s-20 -45 -45 -45zM243 657c7 5 15 7 23 7s16 -2 23 -7l93 -62c10 -7 18 -17 18 -33c0 -22 -17 -39 -39 -39c-9 0 -18 3 -23 7l-72 50l-72 -50c-5 -4 -14 -7 -23 -7c-22 0 -39 17 -39 39c0 16 8 26 18 33z" />
<glyph unicode="&#x1ef3;" horiz-adv-x="529" d="M477 364h-11l-176 -397c-43 -98 -107 -168 -207 -168c-29 0 -52 21 -52 50s23 50 52 50c64 0 94 51 127 133l-144 332h-11c-25 0 -45 19 -45 45c0 25 20 45 45 45h136c25 0 45 -20 45 -45s-20 -45 -45 -45h-10l85 -214l84 214h-9c-25 0 -45 19 -45 45c0 25 20 45 45 45 h136c25 0 45 -20 45 -45s-20 -45 -45 -45zM330 570c11 -12 11 -30 -5 -45c-13 -12 -29 -15 -46 0l-98 90c-16 15 -18 39 4 60c20 20 46 21 60 3z" />
<glyph unicode="&#x17a;" horiz-adv-x="433" d="M398 118v-72c0 -25 -21 -46 -46 -46h-276c-25 0 -46 21 -46 46c0 14 5 22 11 30l215 288h-124v-18c0 -25 -19 -45 -45 -45c-25 0 -45 20 -45 45v66c0 24 21 42 45 42h257c26 0 48 -22 48 -48c0 -14 -5 -23 -11 -31l-211 -283h138v26c0 25 20 45 45 45s45 -20 45 -45z M216 525c-17 -15 -33 -12 -46 0c-16 15 -16 34 -5 46l85 108c14 18 40 17 60 -3c22 -21 20 -45 4 -60z" />
<glyph unicode="&#x17c;" horiz-adv-x="433" d="M398 118v-72c0 -25 -21 -46 -46 -46h-276c-25 0 -46 21 -46 46c0 14 5 22 11 30l215 288h-124v-18c0 -25 -19 -45 -45 -45c-25 0 -45 20 -45 45v66c0 24 21 42 45 42h257c26 0 48 -22 48 -48c0 -14 -5 -23 -11 -31l-211 -283h138v26c0 25 20 45 45 45s45 -20 45 -45z M274 597c0 -35 -19 -51 -52 -51s-52 16 -52 51c0 38 19 54 52 54s52 -16 52 -54z" />
<glyph unicode="&#x17e;" horiz-adv-x="433" d="M398 118v-72c0 -25 -21 -46 -46 -46h-276c-25 0 -46 21 -46 46c0 14 5 22 11 30l215 288h-124v-18c0 -25 -19 -45 -45 -45c-25 0 -45 20 -45 45v66c0 24 21 42 45 42h257c26 0 48 -22 48 -48c0 -14 -5 -23 -11 -31l-211 -283h138v26c0 25 20 45 45 45s45 -20 45 -45z M240 530c-7 -5 -15 -7 -23 -7s-16 2 -23 7l-93 62c-10 7 -18 17 -18 33c0 22 17 39 39 39c9 0 18 -3 23 -7l72 -50l72 50c5 4 14 7 23 7c22 0 39 -17 39 -39c0 -16 -8 -26 -18 -33z" />
<glyph unicode="&#x133;" horiz-adv-x="562" d="M231 0h-156c-25 0 -45 19 -45 45c0 25 20 45 45 45h24v274h-24c-25 0 -45 19 -45 45c0 25 20 45 45 45h81c32 0 51 -23 51 -54v-310h24c25 0 45 -20 45 -45s-20 -45 -45 -45zM215 579c0 -39 -23 -63 -65 -63c-41 0 -64 24 -64 63c0 46 23 66 64 66c42 0 65 -20 65 -66z M317 -101h16c32 0 54 26 54 58v407h-24c-25 0 -45 19 -45 45c0 25 20 45 45 45h81c31 0 51 -24 51 -51v-446c0 -86 -64 -158 -153 -158h-25c-26 0 -47 22 -47 50c0 29 21 50 47 50zM503 579c0 -39 -23 -63 -65 -63c-41 0 -64 24 -64 63c0 46 23 66 64 66c42 0 65 -20 65 -66 z" />
<glyph unicode="&#xaa;" horiz-adv-x="415" d="M345 434c18 0 32 -15 32 -33s-14 -32 -32 -32h-57c-17 0 -33 13 -33 33c-19 -29 -47 -41 -87 -41c-67 0 -113 41 -113 102c0 63 49 96 108 96h92v12c0 30 -21 49 -61 49c-30 0 -49 -12 -68 -27c-6 -4 -11 -6 -19 -6c-18 0 -33 15 -33 33c0 8 2 15 9 23 c18 21 53 44 111 44c84 0 135 -41 135 -113v-140h16zM331 312c20 0 36 -16 36 -36s-16 -36 -36 -36h-249c-20 0 -36 16 -36 36s16 36 36 36h249zM131 463c0 -26 19 -40 56 -40c36 0 68 22 68 60v18h-77c-30 0 -47 -14 -47 -38z" />
<glyph unicode="&#xba;" horiz-adv-x="402" d="M202 687c92 0 149 -53 149 -163s-57 -163 -149 -163c-91 0 -148 53 -148 163s57 163 148 163zM202 429c47 0 71 31 71 95s-24 95 -71 95s-70 -31 -70 -95s23 -95 70 -95zM310 312c20 0 36 -16 36 -36s-16 -36 -36 -36h-221c-20 0 -36 16 -36 36s16 36 36 36h221z" />
<glyph unicode="&#x17f;" horiz-adv-x="323" d="M254 0h-179c-25 0 -45 19 -45 45c0 25 20 45 45 45h24v274h-21c-25 0 -45 20 -45 45s20 45 45 45h21v81c0 93 62 177 191 177h55c26 0 47 -21 47 -47s-21 -47 -47 -47h-55c-55 0 -83 -31 -83 -75v-453h47c25 0 45 -20 45 -45s-20 -45 -45 -45z" />
<glyph unicode="0" horiz-adv-x="607" d="M304 587c-103 0 -148 -76 -148 -250c0 -176 45 -250 148 -250s147 74 147 250c0 174 -44 250 -147 250zM304 687c178 0 261 -111 261 -350c0 -240 -83 -351 -261 -351c-180 0 -262 111 -262 351c0 239 82 350 262 350z" />
<glyph unicode="1" horiz-adv-x="397" d="M338 0h-239c-28 0 -51 23 -51 51s23 51 51 51h70v423l-58 -35c-11 -6 -22 -11 -37 -11c-28 0 -51 25 -51 55c0 20 10 37 24 46l144 89c11 7 20 12 35 12c31 0 57 -26 57 -57v-522h55c28 0 51 -23 51 -51s-23 -51 -51 -51z" />
<glyph unicode="2" horiz-adv-x="554" d="M510 157v-108c0 -27 -24 -49 -51 -49h-382c-28 0 -51 23 -51 51c0 227 359 251 359 443c0 49 -41 93 -117 93c-62 0 -96 -34 -114 -72c-11 -21 -29 -32 -50 -32c-30 0 -54 24 -54 54c0 8 1 14 5 23c32 73 103 127 213 127c145 0 231 -78 231 -193 c0 -218 -347 -301 -347 -392h256v55c0 28 23 51 51 51s51 -23 51 -51z" />
<glyph unicode="3" horiz-adv-x="547" d="M61 539v85c0 27 23 49 51 49h320c28 0 51 -23 51 -51c0 -11 -4 -23 -13 -34l-134 -166c137 -26 172 -119 172 -219c0 -137 -83 -216 -246 -216c-104 0 -186 50 -229 111c-6 9 -9 19 -9 30c0 29 24 53 53 53c18 0 31 -7 48 -26c34 -39 72 -68 137 -68c90 0 132 45 132 116 c0 70 -31 120 -126 120h-36c-28 0 -49 23 -49 52c0 16 5 25 13 35l128 161h-161v-32c0 -28 -23 -51 -51 -51s-51 23 -51 51z" />
<glyph unicode="4" horiz-adv-x="559" d="M486 165h-50v-63h29c28 0 51 -23 51 -51s-23 -51 -51 -51h-204c-28 0 -51 23 -51 51s23 51 51 51h61v63h-258c-37 0 -58 23 -58 50c0 12 3 26 17 44l308 395c11 14 27 26 48 26c31 0 57 -26 57 -57v-357h50c28 0 51 -23 51 -51c0 -27 -23 -50 -51 -50zM154 266h168v223z " />
<glyph unicode="5" d="M400 539v32h-216l-20 -131c23 11 63 23 114 23c147 0 248 -73 248 -238c0 -166 -101 -239 -248 -239c-125 0 -208 71 -243 135c-5 9 -7 17 -7 26c0 29 24 53 53 53c17 0 33 -7 47 -28c38 -58 78 -86 150 -86c78 0 134 45 134 139c0 93 -56 138 -134 138 c-58 0 -89 -12 -123 -38c-13 -10 -28 -17 -52 -17c-28 0 -52 23 -52 52c0 6 1 13 2 18l42 254c3 19 22 41 50 41h306c27 0 51 -21 51 -49v-85c0 -28 -23 -51 -51 -51s-51 23 -51 51z" />
<glyph unicode="6" horiz-adv-x="576" d="M547 220c0 -164 -106 -234 -253 -234c-178 0 -253 140 -253 336c0 258 100 365 268 365c85 0 146 -29 174 -57c14 -14 17 -26 17 -38c0 -28 -24 -52 -52 -52c-8 0 -17 1 -32 11c-28 19 -58 36 -107 36c-100 0 -153 -72 -153 -199v0c32 33 88 60 153 60 c140 0 238 -80 238 -228zM301 347c-68 0 -115 -35 -143 -84c0 -110 49 -176 136 -176c81 0 139 36 139 133c0 86 -59 127 -132 127z" />
<glyph unicode="7" horiz-adv-x="504" d="M20 526v96c0 28 23 51 51 51h366c28 0 51 -23 51 -51c0 -209 -250 -310 -250 -576c0 -31 -25 -54 -56 -54s-56 23 -56 54c0 272 248 426 248 525h-252v-45c0 -28 -23 -51 -51 -51s-51 23 -51 51z" />
<glyph unicode="8" horiz-adv-x="578" d="M289 -14c-161 0 -252 73 -252 215c0 70 33 129 113 167c-43 23 -81 71 -81 134c0 120 81 185 220 185s220 -65 220 -185c0 -63 -38 -111 -81 -134c80 -38 113 -97 113 -167c0 -142 -91 -215 -252 -215zM397 502c0 55 -40 85 -108 85s-108 -30 -108 -85 c0 -58 42 -87 108 -87s108 29 108 87zM427 201c0 75 -52 114 -138 114s-138 -39 -138 -114c0 -76 56 -114 138 -114s138 38 138 114z" />
<glyph unicode="9" horiz-adv-x="576" d="M267 225c-140 0 -238 80 -238 228c0 164 106 234 253 234c178 0 253 -140 253 -336c0 -258 -100 -365 -268 -365c-85 0 -146 29 -174 57c-14 14 -17 26 -17 38c0 28 24 52 52 52c8 0 17 -1 32 -11c28 -19 58 -36 107 -36c100 0 153 72 153 199v0 c-32 -33 -88 -60 -153 -60zM275 326c68 0 115 35 143 84c0 110 -49 176 -136 176c-81 0 -139 -36 -139 -133c0 -86 59 -127 132 -127z" />
<glyph horiz-adv-x="600" d="M301 587c-103 0 -148 -76 -148 -250c0 -176 45 -250 148 -250s147 74 147 250c0 174 -44 250 -147 250zM301 687c178 0 261 -111 261 -350c0 -240 -83 -351 -261 -351c-180 0 -262 111 -262 351c0 239 82 350 262 350z" />
<glyph horiz-adv-x="600" d="M495 0h-344c-28 0 -51 23 -51 51s23 51 51 51h120v423l-107 -73c-9 -7 -20 -11 -33 -11c-30 0 -55 25 -55 55c0 20 10 37 24 46l193 127c11 7 20 12 35 12c31 0 57 -26 57 -57v-522h110c28 0 51 -23 51 -51s-23 -51 -51 -51z" />
<glyph horiz-adv-x="600" d="M533 157v-108c0 -27 -24 -49 -51 -49h-382c-28 0 -51 23 -51 51c0 227 359 251 359 443c0 49 -41 93 -117 93c-62 0 -96 -34 -114 -72c-11 -21 -29 -32 -50 -32c-30 0 -54 24 -54 54c0 8 1 14 5 23c32 73 103 127 213 127c145 0 231 -78 231 -193 c0 -218 -347 -301 -347 -392h256v55c0 28 23 51 51 51s51 -23 51 -51z" />
<glyph horiz-adv-x="600" d="M88 539v85c0 27 23 49 51 49h320c28 0 51 -23 51 -51c0 -11 -4 -23 -13 -34l-134 -166c137 -26 172 -119 172 -219c0 -137 -83 -216 -246 -216c-104 0 -186 50 -229 111c-6 9 -9 19 -9 30c0 29 24 53 53 53c18 0 31 -7 48 -26c34 -39 72 -68 137 -68c90 0 132 45 132 116 c0 70 -31 120 -126 120h-36c-28 0 -49 23 -49 52c0 16 5 25 13 35l128 161h-161v-32c0 -28 -23 -51 -51 -51s-51 23 -51 51z" />
<glyph horiz-adv-x="600" d="M507 165h-50v-63h29c28 0 51 -23 51 -51s-23 -51 -51 -51h-204c-28 0 -51 23 -51 51s23 51 51 51h61v63h-258c-37 0 -58 23 -58 50c0 12 3 26 17 44l308 395c11 14 27 26 48 26c31 0 57 -26 57 -57v-357h50c28 0 51 -23 51 -51c0 -27 -23 -50 -51 -50zM175 266h168v223z " />
<glyph horiz-adv-x="600" d="M416 539v32h-216l-20 -131c23 11 63 23 114 23c147 0 248 -73 248 -238c0 -166 -101 -239 -248 -239c-125 0 -208 71 -243 135c-5 9 -7 17 -7 26c0 29 24 53 53 53c17 0 33 -7 47 -28c38 -58 78 -86 150 -86c78 0 134 45 134 139c0 93 -56 138 -134 138 c-58 0 -89 -12 -123 -38c-13 -10 -28 -17 -52 -17c-28 0 -52 23 -52 52c0 6 1 13 2 18l42 254c3 19 22 41 50 41h306c27 0 51 -21 51 -49v-85c0 -28 -23 -51 -51 -51s-51 23 -51 51z" />
<glyph horiz-adv-x="600" d="M559 220c0 -164 -106 -234 -253 -234c-178 0 -253 140 -253 336c0 258 100 365 268 365c85 0 146 -29 174 -57c14 -14 17 -26 17 -38c0 -28 -24 -52 -52 -52c-8 0 -17 1 -32 11c-28 19 -58 36 -107 36c-100 0 -153 -72 -153 -199v0c32 33 88 60 153 60 c140 0 238 -80 238 -228zM313 347c-68 0 -115 -35 -143 -84c0 -110 49 -176 136 -176c81 0 139 36 139 133c0 86 -59 127 -132 127z" />
<glyph horiz-adv-x="600" d="M68 526v96c0 28 23 51 51 51h366c28 0 51 -23 51 -51c0 -209 -250 -310 -250 -576c0 -31 -25 -54 -56 -54s-56 23 -56 54c0 272 248 426 248 525h-252v-45c0 -28 -23 -51 -51 -51s-51 23 -51 51z" />
<glyph horiz-adv-x="600" d="M300 -14c-161 0 -252 73 -252 215c0 70 33 129 113 167c-43 23 -81 71 -81 134c0 120 81 185 220 185s220 -65 220 -185c0 -63 -38 -111 -81 -134c80 -38 113 -97 113 -167c0 -142 -91 -215 -252 -215zM408 502c0 55 -40 85 -108 85s-108 -30 -108 -85 c0 -58 42 -87 108 -87s108 29 108 87zM438 201c0 75 -52 114 -138 114s-138 -39 -138 -114c0 -76 56 -114 138 -114s138 38 138 114z" />
<glyph horiz-adv-x="600" d="M279 225c-140 0 -238 80 -238 228c0 164 106 234 253 234c178 0 253 -140 253 -336c0 -258 -100 -365 -268 -365c-85 0 -146 29 -174 57c-14 14 -17 26 -17 38c0 28 24 52 52 52c8 0 17 -1 32 -11c28 -19 58 -36 107 -36c100 0 153 72 153 199v0 c-32 -33 -88 -60 -153 -60zM287 326c68 0 115 35 143 84c0 110 -49 176 -136 176c-81 0 -139 -36 -139 -133c0 -86 59 -127 132 -127z" />
<glyph horiz-adv-x="600" d="M150 270c0 -123 55 -189 150 -189s150 66 150 189s-55 188 -150 188s-150 -65 -150 -188zM560 270c0 -173 -102 -283 -260 -283s-260 110 -260 283s102 282 260 282s260 -109 260 -282z" />
<glyph horiz-adv-x="416" d="M353 0h-248c-28 0 -51 23 -51 51s23 51 51 51h76v300l-68 -42c-10 -6 -21 -10 -32 -10c-28 0 -51 21 -51 50c0 12 5 31 22 42l151 94c8 5 17 10 32 10c30 0 54 -24 54 -52v-392h64c28 0 51 -23 51 -51s-23 -51 -51 -51z" />
<glyph horiz-adv-x="527" d="M52 417c0 4 0 10 4 19c27 62 94 116 201 116c134 0 212 -74 212 -164c0 -171 -326 -223 -326 -294h235v50c0 28 23 51 51 51s51 -23 51 -51v-94c0 -28 -23 -50 -52 -50h-342c-29 0 -52 22 -52 50c0 218 328 216 328 339c0 40 -37 69 -105 69c-61 0 -87 -33 -109 -66 c-11 -17 -27 -26 -45 -26c-27 0 -51 24 -51 51z" />
<glyph horiz-adv-x="548" d="M62 404v83c0 28 23 51 51 51h320c28 0 51 -23 51 -51c0 -11 -4 -23 -13 -34l-135 -166c138 -26 173 -119 173 -219c0 -137 -83 -216 -246 -216c-104 0 -186 50 -229 111c-6 9 -9 19 -9 30c0 29 24 53 53 53c18 0 31 -7 48 -26c34 -39 72 -68 137 -68c90 0 132 45 132 116 c0 70 -31 120 -126 120h-36c-28 0 -49 23 -49 52c0 16 5 25 13 35l128 161h-161v-32c0 -28 -23 -51 -51 -51s-51 23 -51 51z" />
<glyph horiz-adv-x="565" d="M478 -134h-197c-28 0 -51 23 -51 51s23 51 51 51h54v42h-269c-28 0 -51 23 -51 51c0 11 3 19 9 28l320 431c10 14 27 26 48 26c31 0 57 -26 57 -57v-378h50c28 0 51 -23 51 -50c0 -28 -23 -51 -51 -51h-50v-42h29c28 0 51 -23 51 -51s-23 -51 -51 -51zM159 111h176v233z " />
<glyph horiz-adv-x="566" d="M399 404v32h-216l-20 -131c23 11 63 23 114 23c147 0 248 -73 248 -238c0 -166 -101 -239 -248 -239c-125 0 -208 71 -243 135c-5 9 -7 17 -7 26c0 29 24 53 53 53c17 0 33 -7 47 -28c38 -58 78 -86 150 -86c78 0 134 45 134 139c0 93 -56 138 -134 138 c-58 0 -89 -12 -123 -38c-13 -10 -28 -17 -52 -17c-28 0 -52 23 -52 52c0 6 1 13 2 18l41 254c3 19 22 41 50 41h307c27 0 51 -23 51 -49v-85c0 -28 -23 -51 -51 -51s-51 23 -51 51z" />
<glyph horiz-adv-x="576" d="M156 386c32 33 88 60 153 60c140 0 238 -79 238 -227c0 -164 -106 -233 -253 -233c-178 0 -253 138 -253 334c0 258 100 361 268 361c85 0 146 -29 174 -57c14 -14 17 -26 17 -38c0 -28 -24 -52 -52 -52c-8 0 -17 1 -32 11c-28 19 -58 36 -107 36 c-100 0 -153 -68 -153 -195zM158 261c0 -110 49 -174 136 -174c81 0 139 35 139 132c0 86 -59 126 -132 126c-68 0 -115 -35 -143 -84z" />
<glyph horiz-adv-x="511" d="M24 391v96c0 28 23 51 51 51h366c28 0 51 -23 51 -51c0 -209 -250 -310 -250 -576c0 -31 -25 -54 -56 -54s-56 23 -56 54c0 272 248 426 248 525h-252v-45c0 -28 -23 -51 -51 -51s-51 23 -51 51z" />
<glyph horiz-adv-x="578" d="M541 199c0 -142 -91 -213 -252 -213s-252 71 -252 213c0 70 33 128 113 166c-43 23 -81 68 -81 131c0 120 81 184 220 184s220 -64 220 -184c0 -63 -38 -108 -81 -131c80 -38 113 -96 113 -166zM397 496c0 55 -40 84 -108 84s-108 -29 -108 -84c0 -58 42 -84 108 -84 s108 26 108 84zM427 199c0 75 -52 113 -138 113s-138 -38 -138 -113c0 -76 56 -112 138 -112s138 36 138 112z" />
<glyph horiz-adv-x="575" d="M419 152c-32 -33 -88 -60 -153 -60c-140 0 -238 79 -238 227c0 164 106 233 253 233c178 0 253 -138 253 -334c0 -258 -100 -361 -268 -361c-85 0 -146 29 -174 57c-14 14 -17 26 -17 38c0 28 24 52 52 52c8 0 17 -1 32 -11c28 -19 58 -36 107 -36c100 0 153 68 153 195z M417 277c0 110 -49 174 -136 174c-81 0 -139 -35 -139 -132c0 -86 59 -126 132 -126c68 0 115 35 143 84z" />
<glyph horiz-adv-x="501" d="M406 414c-17 0 -29 6 -40 19c-21 26 -54 56 -113 56c-63 0 -89 -25 -89 -59c0 -111 302 -61 302 -271c0 -93 -58 -155 -163 -169v-57c0 -26 -22 -47 -50 -47c-27 0 -49 21 -49 47v57c-75 9 -138 54 -166 99c-5 7 -9 16 -9 29c0 29 23 52 51 52c20 0 32 -8 43 -22 c24 -31 69 -58 128 -58c72 0 105 26 105 69c0 117 -302 64 -302 271c0 94 70 140 150 152v39c0 28 22 50 49 50c28 0 50 -22 50 -50v-39c50 -6 113 -40 146 -88c6 -8 9 -18 9 -29c0 -28 -23 -51 -52 -51z" />
<glyph horiz-adv-x="509" d="M327 588v-57c65 -9 113 -45 138 -73c6 -8 11 -17 11 -32c0 -28 -23 -51 -51 -51c-15 0 -27 5 -38 17c-23 24 -52 42 -106 42c-89 0 -136 -54 -136 -170c0 -118 47 -178 136 -178c56 0 87 22 108 40c13 12 23 16 37 16c28 0 51 -23 51 -51c0 -11 -4 -23 -12 -33 c-12 -15 -60 -61 -138 -70v-52c0 -28 -22 -50 -50 -50c-27 0 -49 22 -49 50v54c-112 16 -193 109 -193 274c0 164 76 247 193 265v59c0 28 22 50 49 50c28 0 50 -22 50 -50z" />
<glyph horiz-adv-x="543" d="M132 229h-54c-23 0 -42 19 -42 42s19 42 42 42h14c-14 29 -24 61 -24 99c0 86 68 174 205 174c109 0 179 -55 203 -118c3 -7 5 -13 5 -22c0 -29 -22 -51 -51 -51c-19 0 -35 6 -46 29c-17 36 -47 68 -111 68c-63 0 -96 -33 -96 -80c0 -37 10 -69 24 -99h119 c23 0 42 -19 42 -42s-19 -42 -42 -42h-85c3 -13 5 -25 5 -38c0 -41 -17 -76 -45 -98c19 10 43 15 62 15c48 0 73 -20 112 -20c24 0 36 12 51 28c14 15 25 19 41 19c29 0 52 -23 52 -52c0 -10 -3 -19 -6 -25c-26 -51 -68 -72 -132 -72c-54 0 -107 35 -161 35 c-28 0 -45 -8 -70 -22c-9 -5 -16 -9 -30 -9c-34 0 -52 25 -52 49c0 16 6 29 25 43c30 22 53 51 53 92c0 20 -3 38 -8 55z" />
<glyph horiz-adv-x="656" d="M417 0h-178c-28 0 -51 23 -51 51s23 51 51 51h31v33h-71c-20 0 -37 16 -37 38c0 21 17 38 37 38h71v31h-71c-20 0 -37 16 -37 38c0 21 17 38 37 38h13l-123 158h-11c-28 0 -51 23 -51 51s23 51 51 51h167c28 0 51 -23 51 -51s-23 -51 -51 -51h-14l100 -131l100 131h-20 c-28 0 -51 23 -51 51s23 51 51 51h167c28 0 51 -23 51 -51s-23 -51 -51 -51h-11l-124 -158h13c21 0 37 -17 37 -38c0 -22 -16 -38 -37 -38h-70v-31h70c21 0 37 -17 37 -38c0 -22 -16 -38 -37 -38h-70v-33h31c28 0 51 -23 51 -51s-23 -51 -51 -51z" />
<glyph horiz-adv-x="606" d="M92 186h-25c-20 0 -37 16 -37 38c0 21 17 38 37 38h13c-1 6 -1 13 -1 20s0 15 1 22h-13c-20 0 -37 16 -37 38c0 21 17 38 37 38h24c27 111 105 205 266 205c99 0 169 -52 194 -83c9 -12 11 -21 11 -31c0 -26 -22 -48 -49 -48c-16 0 -27 7 -37 17c-24 24 -57 51 -119 51 c-90 0 -136 -47 -155 -111h142c21 0 37 -17 37 -38c0 -22 -16 -38 -37 -38h-155c-1 -7 -1 -15 -1 -22s0 -14 1 -20h155c21 0 37 -17 37 -38c0 -22 -16 -38 -37 -38h-140c20 -62 66 -105 153 -105c61 0 97 26 121 50c11 11 20 19 38 19c27 0 49 -22 49 -49 c0 -8 -2 -19 -11 -30c-54 -57 -122 -84 -197 -84c-158 0 -237 88 -265 199z" />
<glyph horiz-adv-x="348" d="M70 398h53l19 108c19 102 77 174 177 174c44 0 82 -15 97 -26c17 -12 20 -26 20 -38c0 -25 -21 -46 -46 -46c-11 0 -14 2 -23 6c-14 6 -29 10 -48 10c-38 0 -60 -28 -70 -81l-19 -107h66c25 0 45 -20 45 -45s-20 -45 -45 -45h-81l-58 -310c-24 -129 -91 -199 -213 -199 c-33 0 -61 7 -77 13c-22 8 -32 27 -32 44c0 27 21 48 46 48c8 0 14 -2 18 -3c15 -4 30 -7 45 -7c61 0 94 33 107 105l55 309h-36c-25 0 -45 20 -45 45s20 45 45 45z" />
<glyph unicode="&#x2070;" horiz-adv-x="303" d="M96 572c0 -60 16 -90 55 -90s56 30 56 90c0 61 -17 91 -56 91s-55 -30 -55 -91zM282 572c0 -111 -46 -155 -131 -155c-83 0 -130 44 -130 155s47 156 130 156c85 0 131 -45 131 -156z" />
<glyph unicode="&#xb9;" horiz-adv-x="202" d="M162 418h-103c-18 0 -33 15 -33 32c0 18 15 32 33 32h17v144l-4 -3c-7 -5 -16 -8 -26 -8c-18 0 -32 16 -32 36c0 13 6 23 16 29l60 39c7 4 12 8 23 8c19 0 36 -17 36 -37v-208h13c17 0 32 -14 32 -32c0 -17 -15 -32 -32 -32z" />
<glyph unicode="&#xb2;" horiz-adv-x="273" d="M25 663c0 9 3 16 10 25c16 20 54 42 96 42c72 0 117 -40 117 -95c0 -97 -151 -109 -151 -153h87v13c0 17 15 32 33 32c17 0 32 -15 32 -32v-44c0 -18 -15 -33 -32 -33h-164c-20 0 -36 16 -36 36c0 124 157 127 157 181c0 17 -14 30 -43 30c-23 0 -39 -15 -51 -26 c-7 -6 -12 -9 -22 -9c-18 0 -33 15 -33 33z" />
<glyph unicode="&#xb3;" horiz-adv-x="267" d="M27 661v34c0 17 15 32 33 32h141c18 0 32 -14 32 -32c0 -9 -3 -16 -10 -24l-56 -66c66 -10 83 -58 83 -86c0 -60 -38 -102 -119 -102c-58 0 -96 33 -106 46c-6 8 -8 15 -8 22c0 18 14 32 31 32c10 0 17 -4 23 -10c18 -18 34 -27 60 -27c34 0 47 17 47 37 c0 22 -13 34 -38 34h-22c-16 0 -29 13 -29 29c0 11 4 17 12 26l49 57h-59v-3c0 -17 -15 -32 -31 -32c-18 0 -33 15 -33 33z" />
<glyph unicode="&#x2074;" horiz-adv-x="273" d="M231 499h-17v-20h4c17 0 32 -13 32 -29c0 -17 -15 -32 -32 -32h-86c-21 0 -32 15 -32 32c0 16 13 29 32 29h14v20h-101c-26 0 -38 14 -38 32c0 11 3 20 12 31l127 151c8 9 18 17 32 17c20 0 36 -16 36 -36v-136h17c17 0 32 -13 32 -28c0 -17 -15 -31 -32 -31zM90 558h56 v67z" />
<glyph unicode="&#x2075;" horiz-adv-x="266" d="M173 664h-75l-8 -42c9 3 27 6 43 6c50 0 111 -24 111 -102c0 -70 -48 -108 -118 -108c-54 0 -89 25 -103 49c-3 5 -6 11 -6 19c0 18 14 32 32 32c15 0 20 -7 29 -16c13 -13 23 -19 48 -19c36 0 47 19 47 43c0 25 -14 43 -47 43c-39 0 -52 -15 -70 -15 c-21 0 -32 16 -32 32c0 6 1 12 2 17l16 96c2 15 15 28 34 28h128c17 0 34 -13 34 -33v-30c0 -18 -15 -33 -32 -33c-18 0 -33 15 -33 33z" />
<glyph unicode="&#x2076;" horiz-adv-x="275" d="M95 598c12 14 36 23 59 23c63 0 105 -40 105 -100c0 -69 -51 -104 -118 -104c-84 0 -120 63 -120 150c0 114 51 161 126 161c35 0 62 -7 81 -22c8 -7 13 -13 13 -26c0 -18 -14 -32 -32 -32c-8 0 -12 2 -20 6c-11 6 -21 11 -40 11c-30 0 -54 -21 -54 -67zM93 535 c0 -31 13 -55 45 -55c33 0 46 16 46 43c0 20 -13 40 -44 40c-21 0 -41 -15 -47 -28z" />
<glyph unicode="&#x2077;" horiz-adv-x="238" d="M81 417c-20 0 -36 16 -36 36c0 116 104 140 104 210h-75c-1 -18 -16 -32 -33 -32s-32 15 -32 33v31c0 18 14 32 32 32h154c18 0 32 -14 32 -32c0 -142 -110 -140 -110 -242c0 -20 -16 -36 -36 -36z" />
<glyph unicode="&#x2078;" horiz-adv-x="278" d="M258 512c0 -62 -46 -95 -119 -95s-119 33 -119 95c0 33 17 59 49 73c-20 9 -39 28 -39 59c0 56 49 84 109 84s109 -28 109 -84c0 -31 -19 -50 -39 -59c32 -14 49 -40 49 -73zM175 640c0 14 -8 29 -36 29s-36 -15 -36 -29c0 -16 8 -28 36 -28s36 12 36 28zM183 516 c0 22 -15 35 -44 35s-44 -13 -44 -35s14 -34 44 -34s44 12 44 34z" />
<glyph unicode="&#x2079;" horiz-adv-x="275" d="M180 547c-12 -14 -36 -23 -59 -23c-63 0 -105 40 -105 100c0 69 51 104 118 104c84 0 120 -63 120 -150c0 -114 -51 -161 -126 -161c-35 0 -62 7 -81 22c-8 7 -13 13 -13 26c0 18 14 32 32 32c8 0 12 -2 20 -6c11 -6 21 -11 40 -11c30 0 54 21 54 67zM182 610 c0 31 -13 55 -45 55c-33 0 -46 -16 -46 -43c0 -20 13 -40 44 -40c21 0 41 15 47 28z" />
<glyph unicode="&#xbc;" horiz-adv-x="550" d="M180 375h-103c-18 0 -33 15 -33 32c0 18 15 32 33 32h17v144l-4 -3c-7 -5 -16 -8 -26 -8c-18 0 -32 16 -32 36c0 13 6 23 16 29l60 39c7 4 12 8 23 8c19 0 36 -17 36 -37v-208h13c17 0 32 -14 32 -32c0 -17 -15 -32 -32 -32zM491 69h-17v-20h4c17 0 32 -13 32 -29 c0 -17 -15 -32 -32 -32h-86c-21 0 -32 15 -32 32c0 16 13 29 32 29h14v20h-101c-26 0 -38 14 -38 32c0 11 3 20 12 31l127 151c8 9 18 17 32 17c20 0 36 -16 36 -36v-136h17c17 0 32 -13 32 -28c0 -17 -15 -31 -32 -31zM350 128h56v67zM112 49l235 605c4 10 16 27 39 27 c24 0 42 -20 42 -42c0 -6 -1 -10 -3 -15l-235 -605c-4 -11 -16 -27 -39 -27s-42 19 -42 42c0 6 1 10 3 15z" />
<glyph unicode="&#x2044;" horiz-adv-x="160" d="M-77 49l235 605c4 10 16 27 39 27c24 0 42 -20 42 -42c0 -6 -1 -10 -3 -15l-235 -605c-4 -11 -16 -27 -39 -27s-42 19 -42 42c0 6 1 10 3 15z" />
<glyph unicode="&#xbd;" horiz-adv-x="575" d="M177 375h-103c-18 0 -33 15 -33 32c0 18 15 32 33 32h17v144l-4 -3c-7 -5 -16 -8 -26 -8c-18 0 -32 16 -32 36c0 13 6 23 16 29l60 39c7 4 12 8 23 8c19 0 36 -17 36 -37v-208h13c17 0 32 -14 32 -32c0 -17 -15 -32 -32 -32zM110 49l235 605c4 10 16 27 39 27 c24 0 42 -20 42 -42c0 -6 -1 -10 -3 -15l-235 -605c-4 -11 -16 -27 -39 -27s-42 19 -42 42c0 6 1 10 3 15zM320 238c0 9 3 16 10 25c16 20 54 42 96 42c72 0 117 -40 117 -95c0 -97 -151 -109 -151 -153h87v13c0 17 15 32 33 32c17 0 32 -15 32 -32v-44 c0 -18 -15 -33 -32 -33h-164c-20 0 -36 16 -36 36c0 124 157 127 157 181c0 17 -14 30 -43 30c-23 0 -39 -15 -51 -26c-7 -6 -12 -9 -22 -9c-18 0 -33 15 -33 33z" />
<glyph unicode="&#xbe;" horiz-adv-x="591" d="M532 69h-17v-20h4c17 0 32 -13 32 -29c0 -17 -15 -32 -32 -32h-86c-21 0 -32 15 -32 32c0 16 13 29 32 29h14v20h-101c-26 0 -38 14 -38 32c0 11 3 20 12 31l127 151c8 9 18 17 32 17c20 0 36 -16 36 -36v-136h17c17 0 32 -13 32 -28c0 -17 -15 -31 -32 -31zM391 128h56 v67zM153 49l235 605c4 10 16 27 39 27c24 0 42 -20 42 -42c0 -6 -1 -10 -3 -15l-235 -605c-4 -11 -16 -27 -39 -27s-42 19 -42 42c0 6 1 10 3 15zM41 618v34c0 17 15 32 33 32h141c18 0 32 -14 32 -32c0 -9 -3 -16 -10 -24l-56 -66c66 -10 83 -58 83 -86 c0 -60 -38 -102 -119 -102c-58 0 -96 33 -106 46c-6 8 -8 15 -8 22c0 18 14 32 31 32c10 0 17 -4 23 -10c18 -18 34 -27 60 -27c34 0 47 17 47 37c0 22 -13 34 -38 34h-22c-16 0 -29 13 -29 29c0 11 4 17 12 26l49 57h-59v-3c0 -17 -15 -32 -31 -32c-18 0 -33 15 -33 33z " />
<glyph unicode="&#x2080;" horiz-adv-x="303" d="M96 108c0 -60 16 -90 55 -90s56 30 56 90c0 61 -17 91 -56 91s-55 -30 -55 -91zM282 108c0 -111 -46 -155 -131 -155c-83 0 -130 44 -130 155s47 156 130 156c85 0 131 -45 131 -156z" />
<glyph unicode="&#x2081;" horiz-adv-x="202" d="M163 -56h-103c-18 0 -33 15 -33 32c0 18 15 32 33 32h17v144l-4 -3c-7 -5 -16 -8 -26 -8c-18 0 -32 16 -32 36c0 13 6 23 16 29l60 39c7 4 12 8 23 8c19 0 36 -17 36 -37v-208h13c17 0 32 -14 32 -32c0 -17 -15 -32 -32 -32z" />
<glyph unicode="&#x2082;" horiz-adv-x="273" d="M26 187c0 9 3 16 10 25c16 20 54 42 96 42c72 0 117 -40 117 -95c0 -97 -151 -109 -151 -153h87v13c0 17 15 32 33 32c17 0 32 -15 32 -32v-44c0 -18 -15 -33 -32 -33h-164c-20 0 -36 16 -36 36c0 124 157 127 157 181c0 17 -14 30 -43 30c-23 0 -39 -15 -51 -26 c-7 -6 -12 -9 -22 -9c-18 0 -33 15 -33 33z" />
<glyph unicode="&#x2083;" horiz-adv-x="267" d="M28 185v34c0 17 15 32 33 32h141c18 0 32 -14 32 -32c0 -9 -3 -16 -10 -24l-56 -66c66 -10 83 -58 83 -86c0 -60 -38 -102 -119 -102c-58 0 -96 33 -106 46c-6 8 -8 15 -8 22c0 18 14 32 31 32c10 0 17 -4 23 -10c18 -18 34 -27 60 -27c34 0 47 17 47 37 c0 22 -13 34 -38 34h-22c-16 0 -29 13 -29 29c0 11 4 17 12 26l49 57h-59v-3c0 -17 -15 -32 -31 -32c-18 0 -33 15 -33 33z" />
<glyph unicode="&#x2084;" horiz-adv-x="273" d="M230 25h-17v-20h4c17 0 32 -13 32 -29c0 -17 -15 -32 -32 -32h-86c-21 0 -32 15 -32 32c0 16 13 29 32 29h14v20h-101c-26 0 -38 14 -38 32c0 11 3 20 12 31l127 151c8 9 18 17 32 17c20 0 36 -16 36 -36v-136h17c17 0 32 -13 32 -28c0 -17 -15 -31 -32 -31zM89 84h56v67 z" />
<glyph unicode="&#x2085;" horiz-adv-x="266" d="M172 188h-75l-8 -42c9 3 27 6 43 6c50 0 111 -24 111 -102c0 -70 -48 -108 -118 -108c-54 0 -89 25 -103 49c-3 5 -6 11 -6 19c0 18 14 32 32 32c15 0 20 -7 29 -16c13 -13 23 -19 48 -19c36 0 47 19 47 43c0 25 -14 43 -47 43c-39 0 -52 -15 -70 -15 c-21 0 -32 16 -32 32c0 6 1 12 2 17l16 96c2 15 15 28 34 28h128c17 0 34 -13 34 -33v-30c0 -18 -15 -33 -32 -33c-18 0 -33 15 -33 33z" />
<glyph unicode="&#x2086;" horiz-adv-x="275" d="M92 122c12 14 36 23 59 23c63 0 105 -40 105 -100c0 -69 -51 -104 -118 -104c-84 0 -120 63 -120 150c0 114 51 161 126 161c35 0 62 -7 81 -22c8 -7 13 -13 13 -26c0 -18 -14 -32 -32 -32c-8 0 -12 2 -20 6c-11 6 -21 11 -40 11c-30 0 -54 -21 -54 -67zM90 59 c0 -31 13 -55 45 -55c33 0 46 16 46 43c0 20 -13 40 -44 40c-21 0 -41 -15 -47 -28z" />
<glyph unicode="&#x2087;" horiz-adv-x="238" d="M84 -57c-20 0 -36 16 -36 36c0 116 104 140 104 210h-75c-1 -18 -16 -32 -33 -32s-32 15 -32 33v31c0 18 14 32 32 32h154c18 0 32 -14 32 -32c0 -142 -110 -140 -110 -242c0 -20 -16 -36 -36 -36z" />
<glyph unicode="&#x2088;" horiz-adv-x="278" d="M258 36c0 -62 -46 -95 -119 -95s-119 33 -119 95c0 33 17 59 49 73c-20 9 -39 28 -39 59c0 56 49 84 109 84s109 -28 109 -84c0 -31 -19 -50 -39 -59c32 -14 49 -40 49 -73zM175 164c0 14 -8 29 -36 29s-36 -15 -36 -29c0 -16 8 -28 36 -28s36 12 36 28zM183 40 c0 22 -15 35 -44 35s-44 -13 -44 -35s14 -34 44 -34s44 12 44 34z" />
<glyph unicode="&#x2089;" horiz-adv-x="275" d="M182 71c-12 -14 -36 -23 -59 -23c-63 0 -105 40 -105 100c0 69 51 104 118 104c84 0 120 -63 120 -150c0 -114 -51 -161 -126 -161c-35 0 -62 7 -81 22c-8 7 -13 13 -13 26c0 18 14 32 32 32c8 0 12 -2 20 -6c11 -6 21 -11 40 -11c30 0 54 21 54 67zM184 134 c0 31 -13 55 -45 55c-33 0 -46 -16 -46 -43c0 -20 13 -40 44 -40c21 0 41 15 47 28z" />
<glyph horiz-adv-x="303" d="M96 529c0 -60 16 -90 55 -90s56 30 56 90c0 61 -17 91 -56 91s-55 -30 -55 -91zM282 529c0 -111 -46 -155 -131 -155c-83 0 -130 44 -130 155s47 156 130 156c85 0 131 -45 131 -156z" />
<glyph horiz-adv-x="202" d="M162 375h-103c-18 0 -33 15 -33 32c0 18 15 32 33 32h17v144l-4 -3c-7 -5 -16 -8 -26 -8c-18 0 -32 16 -32 36c0 13 6 23 16 29l60 39c7 4 12 8 23 8c19 0 36 -17 36 -37v-208h13c17 0 32 -14 32 -32c0 -17 -15 -32 -32 -32z" />
<glyph horiz-adv-x="273" d="M25 620c0 9 3 16 10 25c16 20 54 42 96 42c72 0 117 -40 117 -95c0 -97 -151 -109 -151 -153h87v13c0 17 15 32 33 32c17 0 32 -15 32 -32v-44c0 -18 -15 -33 -32 -33h-164c-20 0 -36 16 -36 36c0 124 157 127 157 181c0 17 -14 30 -43 30c-23 0 -39 -15 -51 -26 c-7 -6 -12 -9 -22 -9c-18 0 -33 15 -33 33z" />
<glyph horiz-adv-x="267" d="M27 618v34c0 17 15 32 33 32h141c18 0 32 -14 32 -32c0 -9 -3 -16 -10 -24l-56 -66c66 -10 83 -58 83 -86c0 -60 -38 -102 -119 -102c-58 0 -96 33 -106 46c-6 8 -8 15 -8 22c0 18 14 32 31 32c10 0 17 -4 23 -10c18 -18 34 -27 60 -27c34 0 47 17 47 37 c0 22 -13 34 -38 34h-22c-16 0 -29 13 -29 29c0 11 4 17 12 26l49 57h-59v-3c0 -17 -15 -32 -31 -32c-18 0 -33 15 -33 33z" />
<glyph horiz-adv-x="273" d="M231 456h-17v-20h4c17 0 32 -13 32 -29c0 -17 -15 -32 -32 -32h-86c-21 0 -32 15 -32 32c0 16 13 29 32 29h14v20h-101c-26 0 -38 14 -38 32c0 11 3 20 12 31l127 151c8 9 18 17 32 17c20 0 36 -16 36 -36v-136h17c17 0 32 -13 32 -28c0 -17 -15 -31 -32 -31zM90 515h56 v67z" />
<glyph horiz-adv-x="266" d="M173 622h-75l-8 -42c9 3 27 6 43 6c50 0 111 -24 111 -102c0 -70 -48 -108 -118 -108c-54 0 -89 25 -103 49c-3 5 -6 11 -6 19c0 18 14 32 32 32c15 0 20 -7 29 -16c13 -13 23 -19 48 -19c36 0 47 19 47 43c0 25 -14 43 -47 43c-39 0 -52 -15 -70 -15 c-21 0 -32 16 -32 32c0 6 1 12 2 17l16 96c2 15 15 28 34 28h128c17 0 34 -13 34 -33v-30c0 -18 -15 -33 -32 -33c-18 0 -33 15 -33 33z" />
<glyph horiz-adv-x="275" d="M95 555c12 14 36 23 59 23c63 0 105 -40 105 -100c0 -69 -51 -104 -118 -104c-84 0 -120 63 -120 150c0 114 51 161 126 161c35 0 62 -7 81 -22c8 -7 13 -13 13 -26c0 -18 -14 -32 -32 -32c-8 0 -12 2 -20 6c-11 6 -21 11 -40 11c-30 0 -54 -21 -54 -67zM93 492 c0 -31 13 -55 45 -55c33 0 46 16 46 43c0 20 -13 40 -44 40c-21 0 -41 -15 -47 -28z" />
<glyph horiz-adv-x="238" d="M81 376c-20 0 -36 16 -36 36c0 116 104 140 104 210h-75c-1 -18 -16 -32 -33 -32s-32 15 -32 33v31c0 18 14 32 32 32h154c18 0 32 -14 32 -32c0 -142 -110 -140 -110 -242c0 -20 -16 -36 -36 -36z" />
<glyph horiz-adv-x="278" d="M258 469c0 -62 -46 -95 -119 -95s-119 33 -119 95c0 33 17 59 49 73c-20 9 -39 28 -39 59c0 56 49 84 109 84s109 -28 109 -84c0 -31 -19 -50 -39 -59c32 -14 49 -40 49 -73zM175 597c0 14 -8 29 -36 29s-36 -15 -36 -29c0 -16 8 -28 36 -28s36 12 36 28zM183 473 c0 22 -15 35 -44 35s-44 -13 -44 -35s14 -34 44 -34s44 12 44 34z" />
<glyph horiz-adv-x="275" d="M180 504c-12 -14 -36 -23 -59 -23c-63 0 -105 40 -105 100c0 69 51 104 118 104c84 0 120 -63 120 -150c0 -114 -51 -161 -126 -161c-35 0 -62 7 -81 22c-8 7 -13 13 -13 26c0 18 14 32 32 32c8 0 12 -2 20 -6c11 -6 21 -11 40 -11c30 0 54 21 54 67zM182 567 c0 31 -13 55 -45 55c-33 0 -46 -16 -46 -43c0 -20 13 -40 44 -40c21 0 41 15 47 28z" />
<glyph horiz-adv-x="303" d="M96 142c0 -60 16 -90 55 -90s56 30 56 90c0 61 -17 91 -56 91s-55 -30 -55 -91zM282 142c0 -111 -46 -155 -131 -155c-83 0 -130 44 -130 155s47 156 130 156c85 0 131 -45 131 -156z" />
<glyph horiz-adv-x="202" d="M162 -12h-103c-18 0 -33 15 -33 32c0 18 15 32 33 32h17v144l-4 -3c-7 -5 -16 -8 -26 -8c-18 0 -32 16 -32 36c0 13 6 23 16 29l60 39c7 4 12 8 23 8c19 0 36 -17 36 -37v-208h13c17 0 32 -14 32 -32c0 -17 -15 -32 -32 -32z" />
<glyph horiz-adv-x="273" d="M25 238c0 9 3 16 10 25c16 20 54 42 96 42c72 0 117 -40 117 -95c0 -97 -151 -109 -151 -153h87v13c0 17 15 32 33 32c17 0 32 -15 32 -32v-44c0 -18 -15 -33 -32 -33h-164c-20 0 -36 16 -36 36c0 124 157 127 157 181c0 17 -14 30 -43 30c-23 0 -39 -15 -51 -26 c-7 -6 -12 -9 -22 -9c-18 0 -33 15 -33 33z" />
<glyph horiz-adv-x="267" d="M27 229v34c0 17 15 32 33 32h141c18 0 32 -14 32 -32c0 -9 -3 -16 -10 -24l-56 -66c66 -10 83 -58 83 -86c0 -60 -38 -102 -119 -102c-58 0 -96 33 -106 46c-6 8 -8 15 -8 22c0 18 14 32 31 32c10 0 17 -4 23 -10c18 -18 34 -27 60 -27c34 0 47 17 47 37 c0 22 -13 34 -38 34h-22c-16 0 -29 13 -29 29c0 11 4 17 12 26l49 57h-59v-3c0 -17 -15 -32 -31 -32c-18 0 -33 15 -33 33z" />
<glyph horiz-adv-x="273" d="M231 69h-17v-20h4c17 0 32 -13 32 -29c0 -17 -15 -32 -32 -32h-86c-21 0 -32 15 -32 32c0 16 13 29 32 29h14v20h-101c-26 0 -38 14 -38 32c0 11 3 20 12 31l127 151c8 9 18 17 32 17c20 0 36 -16 36 -36v-136h17c17 0 32 -13 32 -28c0 -17 -15 -31 -32 -31zM90 128h56 v67z" />
<glyph horiz-adv-x="266" d="M173 232h-75l-8 -42c9 3 27 6 43 6c50 0 111 -24 111 -102c0 -70 -48 -108 -118 -108c-54 0 -89 25 -103 49c-3 5 -6 11 -6 19c0 18 14 32 32 32c15 0 20 -7 29 -16c13 -13 23 -19 48 -19c36 0 47 19 47 43c0 25 -14 43 -47 43c-39 0 -52 -15 -70 -15 c-21 0 -32 16 -32 32c0 6 1 12 2 17l16 96c2 15 15 28 34 28h128c17 0 34 -13 34 -33v-30c0 -18 -15 -33 -32 -33c-18 0 -33 15 -33 33z" />
<glyph horiz-adv-x="275" d="M95 165c12 14 36 23 59 23c63 0 105 -40 105 -100c0 -69 -51 -104 -118 -104c-84 0 -120 63 -120 150c0 114 51 161 126 161c35 0 62 -7 81 -22c8 -7 13 -13 13 -26c0 -18 -14 -32 -32 -32c-8 0 -12 2 -20 6c-11 6 -21 11 -40 11c-30 0 -54 -21 -54 -67zM93 102 c0 -31 13 -55 45 -55c33 0 46 16 46 43c0 20 -13 40 -44 40c-21 0 -41 -15 -47 -28z" />
<glyph horiz-adv-x="238" d="M81 -13c-20 0 -36 16 -36 36c0 116 104 140 104 210h-75c-1 -18 -16 -32 -33 -32s-32 15 -32 33v31c0 18 14 32 32 32h154c18 0 32 -14 32 -32c0 -142 -110 -140 -110 -242c0 -20 -16 -36 -36 -36z" />
<glyph horiz-adv-x="278" d="M258 79c0 -62 -46 -95 -119 -95s-119 33 -119 95c0 33 17 59 49 73c-20 9 -39 28 -39 59c0 56 49 84 109 84s109 -28 109 -84c0 -31 -19 -50 -39 -59c32 -14 49 -40 49 -73zM175 207c0 14 -8 29 -36 29s-36 -15 -36 -29c0 -16 8 -28 36 -28s36 12 36 28zM183 83 c0 22 -15 35 -44 35s-44 -13 -44 -35s14 -34 44 -34s44 12 44 34z" />
<glyph horiz-adv-x="275" d="M180 114c-12 -14 -36 -23 -59 -23c-63 0 -105 40 -105 100c0 69 51 104 118 104c84 0 120 -63 120 -150c0 -114 -51 -161 -126 -161c-35 0 -62 7 -81 22c-8 7 -13 13 -13 26c0 18 14 32 32 32c8 0 12 -2 20 -6c11 -6 21 -11 40 -11c30 0 54 21 54 67zM182 177 c0 31 -13 55 -45 55c-33 0 -46 -16 -46 -43c0 -20 13 -40 44 -40c21 0 41 15 47 28z" />
<glyph unicode="_" horiz-adv-x="448" d="M402 -31c25 0 46 -21 46 -46s-21 -46 -46 -46h-356c-25 0 -46 21 -46 46s21 46 46 46h356z" />
<glyph unicode="-" horiz-adv-x="398" d="M299 298c25 0 46 -21 46 -46s-21 -46 -46 -46h-200c-25 0 -46 21 -46 46s21 46 46 46h200z" />
<glyph unicode="&#x2013;" horiz-adv-x="510" d="M406 328c25 0 46 -21 46 -46s-21 -46 -46 -46h-309c-25 0 -46 21 -46 46s21 46 46 46h309z" />
<glyph unicode="&#x2014;" horiz-adv-x="820" d="M716 328c25 0 46 -21 46 -46s-21 -46 -46 -46h-619c-25 0 -46 21 -46 46s21 46 46 46h619z" />
<glyph unicode="(" horiz-adv-x="302" d="M216 -141c-130 54 -174 176 -174 437s44 383 174 437c7 3 12 5 22 5c27 0 49 -22 49 -49c0 -16 -9 -36 -29 -45c-102 -46 -106 -167 -106 -348s4 -302 106 -348c20 -9 29 -29 29 -45c0 -27 -22 -49 -49 -49c-10 0 -15 2 -22 5z" />
<glyph unicode=")" horiz-adv-x="302" d="M86 733c130 -54 174 -176 174 -437s-44 -383 -174 -437c-7 -3 -12 -5 -22 -5c-27 0 -49 22 -49 49c0 16 9 36 29 45c102 46 106 167 106 348s-4 302 -106 348c-20 9 -29 29 -29 45c0 27 22 49 49 49c10 0 15 -2 22 -5z" />
<glyph unicode="[" horiz-adv-x="298" d="M227 -52c26 0 47 -21 47 -47s-21 -47 -47 -47h-94c-32 0 -55 22 -55 52v780c0 29 23 52 55 52h94c26 0 47 -21 47 -47s-21 -47 -47 -47h-41v-696h41z" />
<glyph unicode="]" horiz-adv-x="298" d="M71 -146c-26 0 -47 21 -47 47s21 47 47 47h41v696h-41c-26 0 -47 21 -47 47s21 47 47 47h94c32 0 55 -23 55 -52v-780c0 -30 -23 -52 -55 -52h-94z" />
<glyph unicode="{" horiz-adv-x="315" d="M42 254c-23 0 -42 19 -42 42s19 42 42 42c41 0 65 10 65 62c0 66 -16 127 -16 202c0 66 45 136 156 136c27 0 49 -22 49 -49s-22 -49 -49 -49c-31 0 -47 -18 -47 -47c0 -62 9 -111 9 -164c0 -73 -19 -112 -71 -133c52 -21 71 -60 71 -133c0 -53 -9 -102 -9 -164 c0 -29 16 -47 47 -47c27 0 49 -22 49 -49s-22 -49 -49 -49c-111 0 -156 70 -156 136c0 75 16 136 16 202c0 52 -24 62 -65 62z" />
<glyph unicode="}" horiz-adv-x="315" d="M273 338c23 0 42 -19 42 -42s-19 -42 -42 -42c-41 0 -65 -10 -65 -62c0 -66 16 -127 16 -202c0 -66 -45 -136 -156 -136c-27 0 -49 22 -49 49s22 49 49 49c31 0 47 18 47 47c0 62 -9 111 -9 164c0 73 19 112 71 133c-52 21 -71 60 -71 133c0 53 9 102 9 164 c0 29 -16 47 -47 47c-27 0 -49 22 -49 49s22 49 49 49c111 0 156 -70 156 -136c0 -75 -16 -136 -16 -202c0 -52 24 -62 65 -62z" />
<glyph unicode="#" horiz-adv-x="539" d="M264 53l22 137h-81l-26 -162c-4 -22 -20 -39 -47 -39c-29 0 -48 21 -48 48c0 4 1 10 2 16l22 137h-32c-25 0 -45 20 -45 45s20 45 45 45h46l15 95h-37c-25 0 -45 20 -45 45s20 45 45 45h51l24 148c4 23 24 39 48 39c27 0 48 -20 48 -46c0 0 0 -4 -1 -12l-21 -129h80 l24 148c4 23 24 39 48 39c27 0 48 -20 48 -46c0 0 0 -4 -1 -12l-21 -129h38c25 0 45 -20 45 -45s-20 -45 -45 -45h-52l-16 -95h44c25 0 45 -20 45 -45s-20 -45 -45 -45h-58l-26 -162c-4 -22 -20 -39 -47 -39c-29 0 -48 21 -48 48c0 4 1 10 2 16zM235 375l-16 -95h81l15 95 h-80z" />
<glyph unicode="%" horiz-adv-x="748" d="M118 524c0 -41 13 -79 63 -79c49 0 64 38 64 79c0 42 -15 79 -64 79c-50 0 -63 -37 -63 -79zM28 524c0 92 39 163 153 163c115 0 155 -71 155 -163c0 -90 -40 -163 -155 -163c-114 0 -153 73 -153 163zM502 150c0 -41 13 -79 63 -79c49 0 64 38 64 79c0 42 -15 79 -64 79 c-50 0 -63 -37 -63 -79zM412 150c0 92 39 163 153 163c115 0 155 -71 155 -163c0 -90 -40 -163 -155 -163c-114 0 -153 73 -153 163zM486 656c5 12 19 25 41 25c27 0 48 -20 48 -46c0 -7 -2 -14 -5 -20l-314 -599c-8 -14 -21 -24 -42 -24c-27 0 -47 20 -47 46c0 7 1 13 5 21 z" />
<glyph unicode="&#x2030;" horiz-adv-x="1103" d="M118 524c0 -41 13 -79 63 -79c49 0 64 38 64 79c0 42 -15 79 -64 79c-50 0 -63 -37 -63 -79zM28 524c0 92 39 163 153 163c115 0 155 -71 155 -163c0 -90 -40 -163 -155 -163c-114 0 -153 73 -153 163zM502 150c0 -41 13 -79 63 -79c49 0 64 38 64 79c0 42 -15 79 -64 79 c-50 0 -63 -37 -63 -79zM412 150c0 92 39 163 153 163c115 0 155 -71 155 -163c0 -90 -40 -163 -155 -163c-114 0 -153 73 -153 163zM486 656c5 12 19 25 41 25c27 0 48 -20 48 -46c0 -7 -2 -14 -5 -20l-314 -599c-8 -14 -21 -24 -42 -24c-27 0 -47 20 -47 46c0 7 1 13 5 21 zM858 150c0 -41 13 -79 63 -79c49 0 64 38 64 79c0 42 -15 79 -64 79c-50 0 -63 -37 -63 -79zM768 150c0 92 39 163 153 163c115 0 155 -71 155 -163c0 -90 -40 -163 -155 -163c-114 0 -153 73 -153 163z" />
<glyph unicode="'" horiz-adv-x="187" d="M46 640c-1 26 15 41 48 41s48 -15 47 -41l-9 -181c-1 -23 -11 -36 -38 -36c-26 0 -38 13 -39 36z" />
<glyph unicode="&#x22;" horiz-adv-x="312" d="M46 640c-1 26 15 41 48 41s48 -15 47 -41l-9 -181c-1 -23 -11 -36 -38 -36c-26 0 -38 13 -39 36zM171 640c-1 26 15 41 48 41s48 -15 47 -41l-9 -181c-1 -23 -11 -36 -38 -36c-26 0 -38 13 -39 36z" />
<glyph unicode="&#x2018;" horiz-adv-x="212" d="M169 488c0 -43 -26 -65 -70 -65c-40 0 -63 25 -63 67c0 85 52 153 95 185c4 3 8 6 16 6c13 0 22 -11 22 -23c0 -6 -2 -11 -6 -16c-27 -33 -40 -53 -44 -94c34 -7 50 -31 50 -60z" />
<glyph unicode="&#x201c;" horiz-adv-x="375" d="M169 488c0 -43 -26 -65 -70 -65c-40 0 -63 25 -63 67c0 85 52 153 95 185c4 3 8 6 16 6c13 0 22 -11 22 -23c0 -6 -2 -11 -6 -16c-27 -33 -40 -53 -44 -94c34 -7 50 -31 50 -60zM332 488c0 -43 -26 -65 -70 -65c-40 0 -63 25 -63 67c0 85 52 153 95 185c4 3 8 6 16 6 c13 0 22 -11 22 -23c0 -6 -2 -11 -6 -16c-27 -33 -40 -53 -44 -94c34 -7 50 -31 50 -60z" />
<glyph unicode="&#x201d;" horiz-adv-x="374" d="M47 616c0 43 26 65 70 65c40 0 63 -25 63 -67c0 -85 -52 -153 -95 -185c-4 -3 -8 -6 -16 -6c-13 0 -22 11 -22 23c0 6 2 11 6 16c27 33 40 53 44 94c-34 7 -50 31 -50 60zM210 616c0 43 26 65 70 65c40 0 63 -25 63 -67c0 -85 -52 -153 -95 -185c-4 -3 -8 -6 -16 -6 c-13 0 -22 11 -22 23c0 6 2 11 6 16c27 33 40 53 44 94c-34 7 -50 31 -50 60z" />
<glyph unicode="&#x201a;" horiz-adv-x="218" d="M41 59c0 43 26 65 70 65c40 0 63 -25 63 -67c0 -85 -52 -153 -95 -185c-4 -3 -8 -6 -16 -6c-13 0 -22 11 -22 23c0 6 2 11 6 16c27 33 40 53 44 94c-34 7 -50 31 -50 60z" />
<glyph unicode="&#x201e;" horiz-adv-x="380" d="M41 59c0 43 26 65 70 65c40 0 63 -25 63 -67c0 -85 -52 -153 -95 -185c-4 -3 -8 -6 -16 -6c-13 0 -22 11 -22 23c0 6 2 11 6 16c27 33 40 53 44 94c-34 7 -50 31 -50 60zM204 59c0 43 26 65 70 65c40 0 63 -25 63 -67c0 -85 -52 -153 -95 -185c-4 -3 -8 -6 -16 -6 c-13 0 -22 11 -22 23c0 6 2 11 6 16c27 33 40 53 44 94c-34 7 -50 31 -50 60z" />
<glyph unicode="&#x2039;" horiz-adv-x="299" d="M40 185c-7 8 -11 17 -11 27s4 19 11 27l154 177c9 10 19 15 30 15c21 0 39 -18 39 -39c0 -9 -2 -17 -10 -25l-141 -155l141 -155c8 -8 10 -16 10 -25c0 -21 -18 -39 -39 -39c-11 0 -21 5 -30 15z" />
<glyph unicode="&#x203a;" horiz-adv-x="299" d="M259 239c7 -8 11 -17 11 -27s-4 -19 -11 -27l-154 -177c-9 -10 -19 -15 -30 -15c-21 0 -39 18 -39 39c0 9 2 17 10 25l141 155l-141 155c-8 8 -10 16 -10 25c0 21 18 39 39 39c11 0 21 -5 30 -15z" />
<glyph unicode="&#xab;" horiz-adv-x="494" d="M40 185c-7 8 -11 17 -11 27s4 19 11 27l154 177c9 10 19 15 30 15c21 0 39 -18 39 -39c0 -9 -2 -17 -10 -25l-141 -155l141 -155c8 -8 10 -16 10 -25c0 -21 -18 -39 -39 -39c-11 0 -21 5 -30 15zM235 185c-7 8 -11 17 -11 27s4 19 11 27l154 177c9 10 19 15 30 15 c21 0 39 -18 39 -39c0 -9 -2 -17 -10 -25l-141 -155l141 -155c8 -8 10 -16 10 -25c0 -21 -18 -39 -39 -39c-11 0 -21 5 -30 15z" />
<glyph unicode="&#xbb;" horiz-adv-x="494" d="M259 239c7 -8 11 -17 11 -27s-4 -19 -11 -27l-154 -177c-9 -10 -19 -15 -30 -15c-21 0 -39 18 -39 39c0 9 2 17 10 25l141 155l-141 155c-8 8 -10 16 -10 25c0 21 18 39 39 39c11 0 21 -5 30 -15zM454 239c7 -8 11 -17 11 -27s-4 -19 -11 -27l-154 -177 c-9 -10 -19 -15 -30 -15c-21 0 -39 18 -39 39c0 9 2 17 10 25l141 155l-141 155c-8 8 -10 16 -10 25c0 21 18 39 39 39c11 0 21 -5 30 -15z" />
<glyph unicode="*" horiz-adv-x="388" d="M246 435l-52 82l-52 -82c-12 -19 -26 -18 -42 -7s-19 25 -8 40l57 78l-88 15c-22 5 -25 19 -20 39c5 19 17 27 36 21l89 -26l-3 89c-1 22 12 28 31 28s32 -6 31 -28l-3 -89l89 26c19 6 31 -2 36 -21c5 -20 2 -34 -20 -39l-88 -15l57 -78c11 -15 8 -29 -8 -40 s-30 -12 -42 7z" />
<glyph unicode="&#x2020;" horiz-adv-x="406" d="M241 -112c0 -25 -12 -38 -38 -38s-39 13 -39 38l-6 537h-84c-28 0 -42 18 -42 46s14 45 42 45h83l-3 151c0 28 14 45 49 45c34 0 49 -17 49 -45l-2 -151h82c28 0 42 -17 42 -45s-14 -46 -42 -46h-82z" />
<glyph unicode="&#x2021;" horiz-adv-x="406" d="M250 425l-5 -169l5 -169h82c28 0 42 -18 42 -46s-14 -45 -42 -45h-82l2 -151c0 -28 -15 -45 -49 -45c-35 0 -49 17 -49 45l3 151h-83c-28 0 -42 17 -42 45s14 46 42 46h84l6 169l-6 169h-84c-28 0 -42 18 -42 46s14 45 42 45h83l-3 151c0 28 14 45 49 45 c34 0 49 -17 49 -45l-2 -151h82c28 0 42 -17 42 -45s-14 -46 -42 -46h-82z" />
<glyph unicode="." horiz-adv-x="215" d="M173 57c0 -44 -23 -65 -65 -65s-66 21 -66 65c0 45 24 67 66 67s65 -22 65 -67z" />
<glyph unicode="," horiz-adv-x="218" d="M41 59c0 43 26 65 70 65c40 0 63 -25 63 -67c0 -85 -52 -153 -95 -185c-4 -3 -10 -6 -17 -6c-12 0 -22 10 -22 22c0 6 2 11 7 17c26 33 40 53 44 94c-35 6 -50 31 -50 60z" />
<glyph unicode=":" horiz-adv-x="237" d="M184 57c0 -44 -23 -65 -65 -65s-66 21 -66 65c0 45 24 67 66 67s65 -22 65 -67zM184 389c0 -44 -23 -65 -65 -65s-66 21 -66 65c0 45 24 67 66 67s65 -22 65 -67z" />
<glyph unicode=";" horiz-adv-x="240" d="M53 59c0 43 26 65 70 65c40 0 63 -25 63 -67c0 -85 -52 -153 -95 -185c-4 -3 -10 -6 -17 -6c-12 0 -22 10 -22 22c0 6 2 11 7 17c26 33 40 53 44 94c-35 6 -50 31 -50 60zM185 389c0 -44 -23 -65 -65 -65s-66 21 -66 65c0 45 24 67 66 67s65 -22 65 -67z" />
<glyph unicode="!" horiz-adv-x="265" d="M65 625c-2 39 24 56 68 56c43 0 69 -17 67 -56l-25 -398c-1 -22 -14 -38 -42 -38c-30 0 -43 16 -44 38zM198 57c0 -44 -23 -65 -65 -65s-66 21 -66 65c0 45 24 67 66 67s65 -22 65 -67z" />
<glyph unicode="&#xa1;" horiz-adv-x="250" d="M191 -165c2 -39 -23 -56 -65 -56c-43 0 -68 17 -66 56l22 398c1 22 14 38 44 38c28 0 41 -16 42 -38zM60 403c0 44 24 65 66 65s65 -21 65 -65c0 -45 -23 -67 -65 -67s-66 22 -66 67z" />
<glyph unicode="?" horiz-adv-x="469" d="M215 171c-16 0 -29 6 -39 16c-27 26 -37 57 -37 85c0 126 194 134 194 240c0 49 -37 77 -101 77c-56 0 -94 -28 -94 -84c0 -30 -25 -55 -55 -55s-55 25 -55 55c0 114 76 182 204 182c132 0 209 -63 209 -175c0 -161 -191 -173 -191 -233c0 -8 3 -14 10 -24 c6 -9 9 -19 9 -30c0 -34 -29 -54 -54 -54zM277 57c0 -44 -23 -65 -65 -65s-66 21 -66 65c0 45 24 67 66 67s65 -22 65 -67z" />
<glyph unicode="&#xbf;" horiz-adv-x="461" d="M250 289c16 0 29 -6 39 -16c27 -26 37 -57 37 -85c0 -126 -194 -134 -194 -240c0 -49 37 -77 101 -77c56 0 94 28 94 84c0 30 25 55 55 55s55 -25 55 -55c0 -114 -76 -182 -204 -182c-132 0 -209 63 -209 175c0 161 191 173 191 233c0 8 -3 14 -10 24c-6 9 -9 19 -9 30 c0 34 29 54 54 54zM188 403c0 44 23 65 65 65s66 -21 66 -65c0 -45 -24 -67 -66 -67s-65 22 -65 67z" />
<glyph unicode="/" horiz-adv-x="422" d="M30 -23l261 739c9 24 31 35 51 35c30 0 54 -24 54 -54c0 -6 -1 -13 -4 -21l-261 -739c-9 -24 -31 -35 -51 -35c-30 0 -54 24 -54 54c0 6 1 13 4 21z" />
<glyph unicode="\" horiz-adv-x="422" d="M131 716l261 -739c3 -8 4 -15 4 -21c0 -30 -24 -54 -54 -54c-20 0 -42 11 -51 35l-261 739c-3 8 -4 15 -4 21c0 30 24 54 54 54c20 0 42 -11 51 -35z" />
<glyph unicode="|" horiz-adv-x="264" d="M187 753v-858c0 -30 -25 -55 -55 -55s-55 25 -55 55v858c0 30 25 55 55 55s55 -25 55 -55z" />
<glyph unicode="&#xa6;" horiz-adv-x="262" d="M186 753v-342c0 -30 -25 -55 -55 -55s-55 25 -55 55v342c0 30 25 55 55 55s55 -25 55 -55zM186 238v-343c0 -30 -25 -55 -55 -55s-55 25 -55 55v343c0 30 25 55 55 55s55 -25 55 -55z" />
<glyph unicode="@" horiz-adv-x="803" d="M468 234c0 36 -25 59 -70 59c-34 0 -61 -15 -80 -29c-8 -6 -14 -8 -24 -8c-20 0 -36 16 -36 36c0 9 2 19 9 26c23 25 64 51 131 51c96 0 154 -49 154 -131v-122c0 -26 20 -39 42 -39c49 0 77 35 77 121c0 169 -108 253 -269 253c-164 0 -272 -81 -272 -273 c0 -193 108 -284 272 -284c72 0 147 13 204 47c7 4 13 6 22 6c24 0 43 -19 43 -43c0 -14 -6 -29 -22 -38c-69 -39 -148 -56 -247 -56c-225 0 -364 130 -364 368s139 357 364 357c209 0 361 -115 361 -337c0 -87 -40 -205 -176 -205c-65 0 -93 38 -102 56 c-25 -32 -62 -56 -120 -56c-76 0 -127 48 -127 118c0 72 59 109 127 109h103v14zM323 111c0 -30 21 -47 64 -47c41 0 81 25 81 70v21h-92c-34 0 -53 -16 -53 -44z" />
<glyph unicode="&#x26;" horiz-adv-x="645" d="M590 238h-31c-8 -37 -25 -75 -45 -109c16 -11 39 -22 73 -39c21 -10 31 -28 31 -47c0 -28 -23 -51 -51 -51c-26 0 -84 31 -123 57c-42 -36 -97 -63 -185 -63c-124 0 -217 69 -217 194c0 66 38 127 100 175c-18 37 -42 92 -42 159c0 91 57 173 162 173 c107 0 153 -77 153 -156c0 -80 -59 -146 -135 -204c38 -49 94 -102 147 -138c6 8 16 30 23 49h-21c-25 0 -46 21 -46 46s21 46 46 46h161c25 0 46 -21 46 -46s-21 -46 -46 -46zM152 180c0 -58 46 -96 107 -96c45 0 67 10 97 30c-64 45 -118 98 -159 155 c-29 -25 -45 -54 -45 -89zM261 589c-38 0 -53 -33 -53 -75c0 -37 10 -74 21 -100c51 36 78 77 78 117c0 30 -13 58 -46 58z" />
<glyph unicode="&#xa7;" horiz-adv-x="526" d="M359 143c12 14 22 33 22 58c0 87 -157 111 -215 142c-12 -14 -22 -33 -22 -58c0 -87 157 -111 215 -142zM364 -29c0 140 -326 84 -326 314c0 53 28 92 58 117c-26 28 -45 65 -45 113c0 92 71 172 213 172c98 0 164 -40 207 -89c7 -8 11 -20 11 -32c0 -28 -23 -51 -51 -51 c-16 0 -27 6 -38 17c-25 24 -70 54 -129 54c-74 0 -103 -36 -103 -71c0 -140 326 -84 326 -314c0 -53 -28 -92 -58 -117c26 -28 45 -65 45 -113c0 -92 -71 -172 -213 -172c-98 0 -165 37 -206 88c-7 8 -12 21 -12 33c0 28 23 51 51 51c15 0 28 -6 39 -17 c28 -28 69 -54 128 -54c74 0 103 36 103 71z" />
<glyph unicode="&#xb6;" horiz-adv-x="571" d="M415 -193c-31 0 -52 23 -52 53v492h-37v-495c0 -29 -22 -50 -52 -50c-31 0 -52 21 -52 50v218h-9c-105 0 -189 84 -189 189s84 190 189 190h275c28 0 51 -23 51 -51s-24 -51 -51 -51h-21v-492c0 -30 -22 -53 -52 -53z" />
<glyph unicode="&#x2116;" horiz-adv-x="1127" d="M241 0h-148c-28 0 -51 23 -51 51s23 51 51 51h16v469h-16c-28 0 -51 23 -51 51s23 51 51 51h80c22 0 37 -10 45 -22l326 -453v373h-16c-28 0 -51 23 -51 51s23 51 51 51h148c28 0 51 -23 51 -51s-23 -51 -51 -51h-16v-521c0 -32 -26 -58 -58 -58c-21 0 -34 8 -45 21 l-332 462v-373h16c28 0 51 -23 51 -51s-23 -51 -51 -51zM1079 429c0 -115 -59 -172 -158 -172s-160 57 -160 172s61 172 160 172s158 -57 158 -172zM795 92c-23 0 -42 19 -42 42s19 42 42 42h253c23 0 42 -19 42 -42s-19 -42 -42 -42h-253zM863 429c0 -52 17 -82 58 -82 c39 0 57 30 57 82s-18 82 -57 82c-41 0 -58 -30 -58 -82z" />
<glyph unicode="&#x2022;" horiz-adv-x="386" d="M323 279c0 -88 -47 -130 -130 -130s-130 42 -130 130c0 94 47 136 130 136s130 -42 130 -136z" />
<glyph unicode="+" horiz-adv-x="506" d="M434 264c25 0 46 -21 46 -46s-21 -46 -46 -46h-133v-132c0 -26 -22 -48 -48 -48s-48 22 -48 48v132h-133c-25 0 -46 21 -46 46s21 46 46 46h133v133c0 26 22 48 48 48s48 -22 48 -48v-133h133z" />
<glyph unicode="&#x2212;" horiz-adv-x="562" d="M462 264c25 0 46 -21 46 -46s-21 -46 -46 -46h-362c-25 0 -46 21 -46 46s21 46 46 46h362z" />
<glyph unicode="&#xb1;" horiz-adv-x="530" d="M446 370c25 0 46 -21 46 -46s-21 -46 -46 -46h-133v-120c0 -26 -22 -48 -48 -48s-48 22 -48 48v120h-133c-25 0 -46 21 -46 46s21 46 46 46h133v121c0 26 22 48 48 48s48 -22 48 -48v-121h133zM446 92c25 0 46 -21 46 -46s-21 -46 -46 -46h-362c-25 0 -46 21 -46 46 s21 46 46 46h362z" />
<glyph unicode="&#xf7;" horiz-adv-x="512" d="M437 265c25 0 46 -21 46 -46s-21 -46 -46 -46h-362c-25 0 -46 21 -46 46s21 46 46 46h362zM255 307c-33 0 -58 26 -58 61s24 62 58 62c36 0 60 -27 60 -62s-25 -61 -60 -61zM255 8c-33 0 -58 26 -58 61s24 62 58 62c36 0 60 -27 60 -62s-25 -61 -60 -61z" />
<glyph unicode="&#xd7;" horiz-adv-x="466" d="M233 286l103 98c12 12 26 14 34 14c27 0 49 -22 49 -49c0 -13 -6 -27 -16 -36l-101 -94l101 -94c10 -9 16 -23 16 -36c0 -27 -22 -49 -49 -49c-8 0 -22 2 -34 14l-103 98l-103 -98c-12 -12 -26 -14 -34 -14c-27 0 -49 22 -49 49c0 14 4 25 16 36l101 94l-101 94 c-10 9 -16 23 -16 36c0 27 22 49 49 49c8 0 22 -2 34 -14z" />
<glyph unicode="=" horiz-adv-x="562" d="M462 350c25 0 46 -21 46 -46s-21 -46 -46 -46h-362c-25 0 -46 21 -46 46s21 46 46 46h362zM462 177c25 0 46 -21 46 -46s-21 -46 -46 -46h-362c-25 0 -46 21 -46 46s21 46 46 46h362z" />
<glyph unicode="&#x3c;" horiz-adv-x="427" d="M367 398l-214 -163l214 -163c14 -10 20 -27 20 -39c0 -26 -22 -48 -48 -48c-11 0 -20 3 -28 9l-265 201c-11 9 -22 21 -22 40s11 31 22 40l265 201c8 6 17 9 28 9c26 0 48 -22 48 -48c0 -12 -6 -29 -20 -39z" />
<glyph unicode="&#x3e;" horiz-adv-x="427" d="M40 33c0 12 6 29 20 39l213 163l-213 163c-14 10 -20 27 -20 39c0 26 22 48 48 48c11 0 20 -3 28 -9l265 -201c11 -9 22 -21 22 -40s-11 -31 -22 -40l-265 -201c-8 -6 -17 -9 -28 -9c-26 0 -48 22 -48 48z" />
<glyph unicode="&#x2264;" horiz-adv-x="445" d="M354 92c25 0 46 -21 46 -46s-21 -46 -46 -46h-271c-25 0 -46 21 -46 46s21 46 46 46h271zM61 268c-14 8 -24 21 -24 40s10 32 24 40l270 142c6 3 12 6 23 6c25 0 46 -21 46 -46c0 -19 -10 -33 -24 -40l-196 -102l196 -102c14 -7 24 -21 24 -40c0 -25 -21 -46 -46 -46 c-11 0 -17 3 -23 6z" />
<glyph unicode="&#x2265;" horiz-adv-x="445" d="M91 0c-25 0 -46 21 -46 46s21 46 46 46h271c25 0 46 -21 46 -46s-21 -46 -46 -46h-271zM384 348c14 -8 24 -21 24 -40s-10 -32 -24 -40l-270 -142c-6 -3 -12 -6 -23 -6c-25 0 -46 21 -46 46c0 19 10 33 24 40l196 102l-196 102c-14 7 -24 21 -24 40c0 25 21 46 46 46 c11 0 17 -3 23 -6z" />
<glyph unicode="&#x2260;" horiz-adv-x="562" d="M462 177c25 0 46 -21 46 -46s-21 -46 -46 -46h-226l-35 -52c-4 -7 -13 -12 -23 -12c-16 0 -30 12 -30 26c0 6 2 11 6 17l14 21h-68c-25 0 -46 21 -46 46s21 46 46 46h131l55 81h-186c-25 0 -46 21 -46 46s21 46 46 46h249l39 57c3 4 9 9 17 9c19 0 34 -12 34 -28 c0 -5 -2 -9 -4 -12l-18 -26h45c25 0 46 -21 46 -46s-21 -46 -46 -46h-108l-55 -81h163z" />
<glyph unicode="&#xac;" horiz-adv-x="592" d="M532 280v-238c0 -27 -23 -50 -50 -50s-50 23 -50 50v192h-354c-26 0 -48 22 -48 48s22 48 48 48h404c27 0 50 -23 50 -50z" />
<glyph unicode="&#x221a;" horiz-adv-x="580" d="M302 -171c-18 0 -36 9 -45 28l-139 297l-51 -39c-8 -6 -18 -9 -27 -9c-24 0 -45 20 -45 45c0 15 6 30 17 38l99 74c9 7 19 11 31 11c18 0 37 -11 46 -30l104 -239l178 671c4 16 20 36 48 36s50 -22 50 -50c0 -6 -1 -12 -2 -15l-216 -782c-6 -21 -25 -36 -48 -36z" />
<glyph unicode="&#xb5;" horiz-adv-x="590" d="M436 0c-30 0 -52 20 -54 48c-15 -29 -58 -60 -108 -60c-28 0 -51 4 -71 11v-150c0 -30 -24 -54 -54 -54s-54 24 -54 54v515h-23c-25 0 -45 19 -45 45c0 25 20 45 45 45h80c30 0 51 -25 51 -54v-225c0 -46 16 -90 90 -90c73 0 89 44 89 90v189h-23c-25 0 -45 19 -45 45 c0 25 20 45 45 45h77c30 0 54 -24 54 -54v-310h25c25 0 45 -20 45 -45s-20 -45 -45 -45h-79z" />
<glyph unicode="$" horiz-adv-x="572" d="M338 738v-56c78 -10 143 -42 177 -89c6 -9 10 -20 10 -32c0 -29 -24 -53 -54 -53c-14 0 -28 8 -43 22c-31 30 -83 53 -140 53c-83 0 -114 -39 -114 -79c0 -131 365 -70 365 -320c0 -109 -69 -181 -201 -194v-54c0 -28 -22 -50 -50 -50c-27 0 -49 22 -49 50v54 c-96 12 -171 63 -204 118c-5 8 -8 18 -8 28c0 30 24 54 53 54c22 0 34 -12 44 -22c42 -42 95 -76 164 -76c91 0 135 30 135 92c0 146 -365 79 -365 320c0 88 55 164 181 179v55c0 28 22 50 49 50c28 0 50 -22 50 -50z" />
<glyph unicode="&#xa2;" horiz-adv-x="465" d="M302 -9v-40c0 -26 -21 -47 -47 -47c-25 0 -46 21 -46 47v39c-108 16 -171 94 -171 238c0 143 63 221 171 237v37c0 26 21 47 46 47c26 0 47 -21 47 -47v-39c63 -12 101 -46 116 -64c8 -11 11 -19 11 -31c0 -27 -21 -48 -48 -48c-16 0 -28 7 -37 17c-13 14 -39 39 -89 39 c-70 0 -108 -54 -108 -148c0 -96 38 -149 108 -149c46 0 75 22 99 40c11 8 20 10 30 10c27 0 48 -21 48 -48c0 -14 -5 -26 -17 -37c-19 -17 -57 -43 -113 -53z" />
<glyph unicode="&#xa3;" horiz-adv-x="597" d="M144 269h-65c-24 0 -43 19 -43 43s19 43 43 43h26c-19 40 -38 81 -38 131c0 112 90 201 225 201c113 0 195 -51 230 -133c3 -8 4 -15 4 -21c0 -29 -24 -53 -53 -53c-30 0 -42 20 -49 33c-24 44 -63 74 -132 74c-73 0 -115 -43 -115 -101c0 -49 20 -89 42 -131h146 c24 0 43 -19 43 -43s-19 -43 -43 -43h-112c4 -15 7 -32 7 -48c0 -45 -27 -91 -64 -120c21 10 43 16 68 16c55 0 89 -31 136 -31c28 0 52 9 65 37c11 22 30 30 49 30c30 0 54 -24 54 -54c0 -8 -2 -17 -6 -25c-32 -67 -87 -89 -157 -89c-59 0 -112 44 -174 44 c-34 0 -51 -8 -78 -27c-7 -5 -17 -12 -34 -12c-29 0 -53 24 -53 53c0 14 4 28 19 41c30 27 69 71 69 129c0 19 -4 38 -10 56z" />
<glyph unicode="&#xa4;" horiz-adv-x="556" d="M376 144c-28 -16 -62 -24 -98 -24s-70 8 -98 24l-28 -28c-11 -10 -23 -15 -37 -15c-29 0 -52 23 -52 52c0 13 4 26 16 38l28 27c-16 27 -23 59 -23 92s9 67 26 94l-30 26c-9 8 -17 22 -17 39c0 29 23 52 52 52c14 0 26 -5 37 -15l30 -30c27 16 63 24 96 24s69 -8 96 -24 l30 30c11 10 23 15 37 15c29 0 52 -23 52 -52c0 -17 -8 -31 -17 -39l-30 -26c17 -27 26 -61 26 -94s-7 -65 -23 -92l28 -27c12 -12 16 -25 16 -38c0 -29 -23 -52 -52 -52c-14 0 -26 5 -37 15zM369 310c0 52 -37 93 -91 93s-91 -41 -91 -93c0 -51 37 -93 91 -93s91 42 91 93z " />
<glyph unicode="&#xa5;" horiz-adv-x="650" d="M155 288c-24 0 -43 19 -43 43s19 43 43 43h67l-133 197h-12c-28 0 -51 23 -51 51s23 51 51 51h157c28 0 51 -23 51 -51s-23 -51 -51 -51h-7l98 -154l98 154h-7c-28 0 -51 23 -51 51s23 51 51 51h157c28 0 51 -23 51 -51s-23 -51 -51 -51h-13l-132 -197h67 c24 0 43 -19 43 -43s-19 -43 -43 -43h-112v-48h111c24 0 43 -19 43 -43s-19 -43 -43 -43h-111v-52h31c28 0 51 -23 51 -51s-23 -51 -51 -51h-178c-28 0 -51 23 -51 51s23 51 51 51h31v52h-111c-24 0 -43 19 -43 43s19 43 43 43h111v48h-112z" />
<glyph unicode="&#x20ac;" horiz-adv-x="687" d="M73 354c-24 0 -43 19 -43 43s19 43 43 43h15c30 166 137 247 305 247c121 0 200 -48 241 -108c8 -12 11 -22 11 -33c0 -29 -24 -53 -54 -53c-14 0 -28 6 -41 20c-41 45 -84 70 -157 70c-101 0 -160 -48 -183 -143h124c24 0 43 -19 43 -43s-19 -43 -43 -43h-134v-46h133 c24 0 43 -19 43 -43s-19 -43 -43 -43h-121c23 -93 82 -132 181 -132c74 0 114 17 162 66c16 16 29 22 43 22c30 0 54 -24 54 -54c0 -12 -4 -22 -10 -30c-48 -64 -142 -108 -249 -108c-165 0 -272 72 -303 236h-16c-24 0 -43 19 -43 43s19 43 43 43h6v46h-7z" />
<glyph unicode="&#x192;" horiz-adv-x="538" d="M153 398h53l26 139c19 102 77 174 177 174c44 0 82 -15 97 -26c17 -12 20 -26 20 -38c0 -25 -21 -46 -46 -46c-11 0 -14 2 -23 6c-14 6 -29 10 -48 10c-38 0 -60 -28 -70 -81l-26 -138h66c25 0 45 -20 45 -45s-20 -45 -45 -45h-81l-58 -310c-24 -129 -91 -199 -213 -199 c-33 0 -61 7 -77 13c-22 8 -32 27 -32 44c0 27 21 48 46 48c8 0 14 -2 18 -3c15 -4 30 -7 45 -7c61 0 94 33 107 105l55 309h-36c-25 0 -45 20 -45 45s20 45 45 45z" />
<glyph unicode="^" horiz-adv-x="468" d="M351 352l-117 211l-117 -211c-7 -13 -22 -23 -40 -23c-25 0 -46 21 -46 46c0 8 2 16 6 23l158 271c8 13 20 22 39 22s31 -9 39 -22l158 -271c4 -7 6 -15 6 -23c0 -25 -21 -46 -46 -46c-18 0 -33 10 -40 23z" />
<glyph unicode="~" horiz-adv-x="522" d="M179 374c69 0 123 -58 168 -58c22 0 30 11 37 24c6 12 20 26 42 26c26 0 47 -21 47 -47c0 -7 -1 -12 -3 -18c-13 -40 -52 -80 -123 -80c-69 0 -119 59 -168 59c-22 0 -30 -12 -37 -25c-6 -12 -20 -26 -42 -26c-26 0 -47 21 -47 47c0 7 1 12 3 18c13 40 52 80 123 80z" />
<glyph unicode="&#xa9;" horiz-adv-x="773" d="M387 687c223 0 347 -114 347 -351c0 -236 -124 -350 -347 -350c-219 0 -348 114 -348 350c0 237 129 351 348 351zM387 617c-177 0 -272 -88 -272 -281s95 -280 272 -280c179 0 271 87 271 280s-92 281 -271 281zM471 251c5 4 12 6 20 7c19 -1 34 -15 34 -33 c0 -9 -4 -17 -13 -26c-24 -24 -70 -44 -123 -44c-98 0 -163 54 -163 182s65 183 163 183c70 0 112 -34 127 -60c3 -5 4 -11 4 -16c0 -18 -15 -33 -34 -33c-9 0 -15 2 -22 10c-19 21 -38 33 -76 33c-53 0 -92 -23 -92 -117c0 -91 39 -116 92 -116c38 0 59 11 83 30z" />
<glyph unicode="&#xae;" horiz-adv-x="378" d="M337 535c0 -104 -55 -153 -149 -153c-91 0 -147 49 -147 153s56 152 147 152c94 0 149 -48 149 -152zM81 535c0 -81 37 -119 108 -119c66 0 108 38 108 119c0 85 -42 118 -108 118c-71 0 -108 -33 -108 -118zM184 512h-19v-39c0 -9 -8 -17 -17 -17s-17 8 -17 17v127 c0 7 6 13 13 13h61c30 0 49 -26 49 -51c0 -27 -16 -46 -38 -50l31 -31c3 -4 3 -8 3 -10c0 -9 -7 -15 -16 -15c-6 0 -10 2 -13 6zM165 542h32c16 0 24 5 24 20c0 13 -8 21 -24 21h-32v-41z" />
<glyph unicode="&#x2122;" horiz-adv-x="443" d="M51 652h123c11 0 19 -8 19 -19c0 -10 -8 -19 -19 -19h-40v-126c0 -11 -10 -21 -21 -21c-12 0 -21 10 -21 21v126h-41c-11 0 -19 9 -19 19c0 11 8 19 19 19zM258 487c0 -11 -9 -20 -20 -20s-20 9 -20 20v148c0 11 9 20 20 20s16 -8 18 -11l46 -82l46 82c2 3 7 11 18 11 s20 -9 20 -20v-148c0 -11 -9 -20 -20 -20s-20 9 -20 20v80l-28 -52c-3 -5 -7 -10 -16 -10s-13 5 -16 10l-28 52v-80z" />
<glyph unicode="&#xb0;" horiz-adv-x="337" d="M168 687c80 0 137 -62 137 -137s-57 -136 -137 -136c-78 0 -136 61 -136 136s58 137 136 137zM168 479c44 0 72 33 72 71s-28 72 -72 72c-43 0 -71 -34 -71 -72s28 -71 71 -71z" />
<glyph unicode="&#xfb06;" horiz-adv-x="721" d="M302 342c-22 16 -49 32 -90 32c-37 0 -59 -13 -59 -38c0 -74 246 -40 246 -205c0 -94 -80 -142 -183 -142c-86 0 -152 39 -177 70c-8 10 -12 19 -12 31c0 26 22 48 48 48c10 0 20 -3 31 -12c27 -22 60 -41 110 -41c45 0 74 12 74 40c0 81 -245 39 -245 209 c0 90 75 134 167 134c28 0 52 -5 75 -14c-22 31 -34 68 -34 108c0 74 63 125 151 125c135 0 203 -67 203 -177v-56h45c25 0 45 -20 45 -45s-20 -45 -45 -45h-45v-242c0 -23 20 -36 38 -36c26 0 47 -21 47 -47s-21 -47 -47 -47c-89 0 -144 57 -144 136v236h-23 c-25 0 -45 20 -45 45s20 45 45 45h23v55c0 53 -30 88 -98 88c-46 0 -73 -29 -73 -69c0 -44 12 -73 44 -122c6 -9 10 -16 10 -30c0 -26 -22 -48 -48 -48c-14 0 -23 6 -34 14z" />
<glyph horiz-adv-x="757" d="M537 454v55c0 53 -30 88 -98 88c-47 0 -74 -28 -74 -68c0 -48 17 -81 50 -130c8 -12 11 -19 11 -31c0 -27 -21 -48 -48 -48c-16 0 -28 7 -37 17c-13 14 -39 39 -89 39c-70 0 -108 -54 -108 -148c0 -96 38 -149 108 -149c46 0 76 23 99 40c11 8 20 10 30 10 c27 0 48 -21 48 -48c0 -14 -5 -26 -17 -37c-23 -21 -78 -57 -160 -57c-136 0 -217 78 -217 241s81 240 217 240c20 0 44 -4 67 -12c-22 35 -32 73 -32 110c0 71 64 121 153 121c135 0 203 -67 203 -177v-56h45c25 0 45 -20 45 -45s-20 -45 -45 -45h-45v-242 c0 -23 20 -36 38 -36c26 0 47 -21 47 -47s-21 -47 -47 -47c-89 0 -144 57 -144 136v236h-23c-25 0 -45 20 -45 45s20 45 45 45h23z" />
<glyph horiz-adv-x="400" d="M300 378c25 0 46 -21 46 -46s-21 -46 -46 -46h-200c-25 0 -46 21 -46 46s21 46 46 46h200z" />
<glyph horiz-adv-x="509" d="M409 378c25 0 46 -21 46 -46s-21 -46 -46 -46h-309c-25 0 -46 21 -46 46s21 46 46 46h309z" />
<glyph horiz-adv-x="819" d="M719 378c25 0 46 -21 46 -46s-21 -46 -46 -46h-619c-25 0 -46 21 -46 46s21 46 46 46h619z" />
<glyph horiz-adv-x="308" d="M217 -100c-130 54 -174 176 -174 437s44 383 174 437c7 3 12 5 22 5c27 0 49 -22 49 -49c0 -16 -9 -36 -29 -45c-102 -46 -106 -167 -106 -348s4 -302 106 -348c20 -9 29 -29 29 -45c0 -27 -22 -49 -49 -49c-10 0 -15 2 -22 5z" />
<glyph horiz-adv-x="308" d="M91 774c130 -54 174 -176 174 -437s-44 -383 -174 -437c-7 -3 -12 -5 -22 -5c-27 0 -49 22 -49 49c0 16 9 36 29 45c102 46 106 167 106 348s-4 302 -106 348c-20 9 -29 29 -29 45c0 27 22 49 49 49c10 0 15 -2 22 -5z" />
<glyph horiz-adv-x="305" d="M230 -11c26 0 47 -21 47 -47s-21 -47 -47 -47h-94c-32 0 -55 22 -55 52v780c0 29 23 52 55 52h94c26 0 47 -21 47 -47s-21 -47 -47 -47h-41v-696h41z" />
<glyph horiz-adv-x="305" d="M75 -105c-26 0 -47 21 -47 47s21 47 47 47h41v696h-41c-26 0 -47 21 -47 47s21 47 47 47h94c32 0 55 -23 55 -52v-780c0 -30 -23 -52 -55 -52h-94z" />
<glyph horiz-adv-x="327" d="M48 295c-23 0 -42 19 -42 42s19 42 42 42c41 0 65 10 65 62c0 66 -16 127 -16 202c0 66 45 136 156 136c27 0 49 -22 49 -49s-22 -49 -49 -49c-31 0 -47 -18 -47 -47c0 -62 9 -111 9 -164c0 -73 -19 -112 -71 -133c52 -21 71 -60 71 -133c0 -53 -9 -102 -9 -164 c0 -29 16 -47 47 -47c27 0 49 -22 49 -49s-22 -49 -49 -49c-111 0 -156 70 -156 136c0 75 16 136 16 202c0 52 -24 62 -65 62z" />
<glyph horiz-adv-x="327" d="M279 379c23 0 42 -19 42 -42s-19 -42 -42 -42c-41 0 -65 -10 -65 -62c0 -66 16 -127 16 -202c0 -66 -45 -136 -156 -136c-27 0 -49 22 -49 49s22 49 49 49c31 0 47 18 47 47c0 62 -9 111 -9 164c0 73 19 112 71 133c-52 21 -71 60 -71 133c0 53 9 102 9 164 c0 29 -16 47 -47 47c-27 0 -49 22 -49 49s22 49 49 49c111 0 156 -70 156 -136c0 -75 -16 -136 -16 -202c0 -52 24 -62 65 -62z" />
<glyph horiz-adv-x="319" d="M46 310c-7 8 -11 17 -11 27s4 19 11 27l154 177c9 10 19 15 30 15c21 0 39 -18 39 -39c0 -9 -2 -17 -10 -25l-141 -155l141 -155c8 -8 10 -16 10 -25c0 -21 -18 -39 -39 -39c-11 0 -21 5 -30 15z" />
<glyph horiz-adv-x="319" d="M273 364c7 -8 11 -17 11 -27s-4 -19 -11 -27l-154 -177c-9 -10 -19 -15 -30 -15c-21 0 -39 18 -39 39c0 9 2 17 10 25l141 155l-141 155c-8 8 -10 16 -10 25c0 21 18 39 39 39c11 0 21 -5 30 -15z" />
<glyph horiz-adv-x="514" d="M46 310c-7 8 -11 17 -11 27s4 19 11 27l154 177c9 10 19 15 30 15c21 0 39 -18 39 -39c0 -9 -2 -17 -10 -25l-141 -155l141 -155c8 -8 10 -16 10 -25c0 -21 -18 -39 -39 -39c-11 0 -21 5 -30 15zM241 310c-7 8 -11 17 -11 27s4 19 11 27l154 177c9 10 19 15 30 15 c21 0 39 -18 39 -39c0 -9 -2 -17 -10 -25l-141 -155l141 -155c8 -8 10 -16 10 -25c0 -21 -18 -39 -39 -39c-11 0 -21 5 -30 15z" />
<glyph horiz-adv-x="514" d="M468 364c7 -8 11 -17 11 -27s-4 -19 -11 -27l-154 -177c-9 -10 -19 -15 -30 -15c-21 0 -39 18 -39 39c0 9 2 17 10 25l141 155l-141 155c-8 8 -10 16 -10 25c0 21 18 39 39 39c11 0 21 -5 30 -15zM273 364c7 -8 11 -17 11 -27s-4 -19 -11 -27l-154 -177 c-9 -10 -19 -15 -30 -15c-21 0 -39 18 -39 39c0 9 2 17 10 25l141 155l-141 155c-8 8 -10 16 -10 25c0 21 18 39 39 39c11 0 21 -5 30 -15z" />
<glyph horiz-adv-x="422" d="M30 -13l261 739c9 24 31 35 51 35c30 0 54 -24 54 -54c0 -6 -1 -13 -4 -21l-261 -739c-9 -24 -31 -35 -51 -35c-30 0 -54 24 -54 54c0 6 1 13 4 21z" />
<glyph horiz-adv-x="422" d="M131 726l261 -739c3 -8 4 -15 4 -21c0 -30 -24 -54 -54 -54c-20 0 -42 11 -51 35l-261 739c-3 8 -4 15 -4 21c0 30 24 54 54 54c20 0 42 -11 51 -35z" />
<glyph horiz-adv-x="272" d="M191 766v-858c0 -30 -25 -55 -55 -55s-55 25 -55 55v858c0 30 25 55 55 55s55 -25 55 -55z" />
<glyph horiz-adv-x="796" d="M471 398c0 36 -25 59 -70 59c-34 0 -61 -15 -80 -29c-8 -6 -14 -8 -24 -8c-20 0 -36 16 -36 36c0 9 2 19 9 26c23 25 64 51 131 51c96 0 154 -49 154 -131v-122c0 -26 20 -39 42 -39c49 0 77 35 77 121c0 169 -108 253 -269 253c-164 0 -272 -81 -272 -273 c0 -193 108 -284 272 -284c72 0 147 13 204 47c7 4 13 6 22 6c24 0 43 -19 43 -43c0 -14 -6 -29 -22 -38c-69 -39 -148 -56 -247 -56c-225 0 -364 130 -364 368s139 357 364 357c209 0 361 -115 361 -337c0 -87 -40 -205 -176 -205c-65 0 -93 38 -102 56 c-25 -32 -62 -56 -120 -56c-76 0 -127 48 -127 118c0 72 59 109 127 109h103v14zM326 275c0 -30 21 -47 64 -47c41 0 81 25 81 70v21h-92c-34 0 -53 -16 -53 -44z" />
<glyph horiz-adv-x="267" d="M195 48c2 -39 -22 -56 -61 -56c-40 0 -64 17 -62 56l18 398c1 22 14 38 44 38c28 0 41 -16 42 -38zM68 616c0 44 24 65 66 65s65 -21 65 -65c0 -45 -23 -67 -65 -67s-66 22 -66 67z" />
<glyph horiz-adv-x="468" d="M254 502c16 0 29 -6 39 -16c27 -26 37 -57 37 -85c0 -126 -194 -134 -194 -240c0 -49 37 -77 101 -77c56 0 94 28 94 84c0 30 25 55 55 55s55 -25 55 -55c0 -114 -76 -182 -204 -182c-132 0 -209 63 -209 175c0 161 191 173 191 233c0 8 -3 14 -10 24c-6 9 -9 19 -9 30 c0 34 29 54 54 54zM192 616c0 44 23 65 65 65s66 -21 66 -65c0 -45 -24 -67 -66 -67s-65 22 -65 67z" />
<glyph horiz-adv-x="239" d="M185 327c0 -44 -23 -65 -65 -65s-66 21 -66 65c0 45 24 67 66 67s65 -22 65 -67z" />
<glyph horiz-adv-x="384" d="M322 337c0 -88 -47 -130 -130 -130s-130 42 -130 130c0 94 47 136 130 136s130 -42 130 -136z" />
<glyph horiz-adv-x="597" d="M412 531c0 -80 -59 -144 -135 -202c32 -47 104 -89 142 -151c9 14 12 32 12 45c0 29 -9 52 -40 76c-16 12 -23 25 -23 43c0 27 20 48 48 48h133c25 0 46 -21 46 -46s-21 -46 -46 -46h-41c15 -27 24 -55 24 -81c0 -45 -17 -103 -65 -150c4 -17 6 -34 6 -55 c0 -83 -37 -192 -162 -192c-28 0 -58 6 -82 20c-15 9 -26 25 -26 45c0 28 23 51 53 51c20 0 34 -14 54 -14c30 0 58 24 58 63c0 6 -1 13 -2 19c-30 -10 -65 -18 -103 -18c-126 0 -230 67 -230 196c0 72 41 130 107 174c-24 41 -43 98 -43 158c0 91 57 173 162 173 c107 0 153 -77 153 -156zM141 182c0 -67 55 -98 122 -98c37 0 70 9 87 18c-19 62 -110 112 -161 176c-32 -24 -48 -60 -48 -96zM258 589c-38 0 -53 -33 -53 -75c0 -48 10 -74 21 -100c51 36 78 77 78 117c0 30 -13 58 -46 58z" />
<glyph d="M491 0h-89c-24 0 -43 21 -43 45c-19 -31 -61 -58 -126 -58c-108 0 -198 77 -198 240c0 164 92 241 198 241c64 0 103 -26 126 -61c0 26 22 47 50 47h82c25 0 45 -20 45 -45s-20 -45 -45 -45h-24v-274h24c25 0 45 -20 45 -45s-20 -45 -45 -45zM254 79c72 0 110 50 110 148 c0 99 -38 149 -110 149s-110 -50 -110 -149c0 -98 38 -148 110 -148z" />
<glyph d="M331 570c11 -12 11 -30 -5 -45c-13 -12 -29 -15 -46 0l-98 90c-16 15 -18 39 4 60c20 20 46 21 60 3zM491 0h-89c-24 0 -43 21 -43 45c-19 -31 -61 -58 -126 -58c-108 0 -198 77 -198 240c0 164 92 241 198 241c64 0 103 -26 126 -61c0 26 22 47 50 47h82 c25 0 45 -20 45 -45s-20 -45 -45 -45h-24v-274h24c25 0 45 -20 45 -45s-20 -45 -45 -45zM254 79c72 0 110 50 110 148c0 99 -38 149 -110 149s-110 -50 -110 -149c0 -98 38 -148 110 -148z" />
<glyph d="M252 525c-17 -15 -33 -12 -46 0c-16 15 -16 34 -5 46l85 108c14 18 40 17 60 -3c22 -21 20 -45 4 -60zM491 0h-89c-24 0 -43 21 -43 45c-19 -31 -61 -58 -126 -58c-108 0 -198 77 -198 240c0 164 92 241 198 241c64 0 103 -26 126 -61c0 26 22 47 50 47h82 c25 0 45 -20 45 -45s-20 -45 -45 -45h-24v-274h24c25 0 45 -20 45 -45s-20 -45 -45 -45zM254 79c72 0 110 50 110 148c0 99 -38 149 -110 149s-110 -50 -110 -149c0 -98 38 -148 110 -148z" />
<glyph d="M233 657c7 5 15 7 23 7s16 -2 23 -7l93 -62c10 -7 18 -17 18 -33c0 -22 -17 -39 -39 -39c-9 0 -18 3 -23 7l-72 50l-72 -50c-5 -4 -14 -7 -23 -7c-22 0 -39 17 -39 39c0 16 8 26 18 33zM491 0h-89c-24 0 -43 21 -43 45c-19 -31 -61 -58 -126 -58c-108 0 -198 77 -198 240 c0 164 92 241 198 241c64 0 103 -26 126 -61c0 26 22 47 50 47h82c25 0 45 -20 45 -45s-20 -45 -45 -45h-24v-274h24c25 0 45 -20 45 -45s-20 -45 -45 -45zM254 79c72 0 110 50 110 148c0 99 -38 149 -110 149s-110 -50 -110 -149c0 -98 38 -148 110 -148z" />
<glyph d="M193 632c56 0 92 -33 129 -33c11 0 18 5 26 16c7 10 19 17 33 17c22 0 39 -16 39 -37c0 -4 -1 -12 -3 -16c-13 -31 -48 -49 -86 -49c-56 0 -96 33 -129 33c-11 0 -18 -5 -26 -16c-7 -10 -19 -17 -33 -17c-22 0 -39 16 -39 37c0 4 1 12 3 16c13 31 48 49 86 49zM491 0h-89 c-24 0 -43 21 -43 45c-19 -31 -61 -58 -126 -58c-108 0 -198 77 -198 240c0 164 92 241 198 241c64 0 103 -26 126 -61c0 26 22 47 50 47h82c25 0 45 -20 45 -45s-20 -45 -45 -45h-24v-274h24c25 0 45 -20 45 -45s-20 -45 -45 -45zM254 79c72 0 110 50 110 148 c0 99 -38 149 -110 149s-110 -50 -110 -149c0 -98 38 -148 110 -148z" />
<glyph d="M214 595c0 -34 -18 -51 -50 -51s-50 17 -50 51c0 37 18 53 50 53s50 -16 50 -53zM395 595c0 -34 -18 -51 -50 -51s-50 17 -50 51c0 37 18 53 50 53s50 -16 50 -53zM491 0h-89c-24 0 -43 21 -43 45c-19 -31 -61 -58 -126 -58c-108 0 -198 77 -198 240 c0 164 92 241 198 241c64 0 103 -26 126 -61c0 26 22 47 50 47h82c25 0 45 -20 45 -45s-20 -45 -45 -45h-24v-274h24c25 0 45 -20 45 -45s-20 -45 -45 -45zM254 79c72 0 110 50 110 148c0 99 -38 149 -110 149s-110 -50 -110 -149c0 -98 38 -148 110 -148z" />
<glyph d="M208 604c0 -32 13 -50 51 -50s51 18 51 50s-13 50 -51 50s-51 -18 -51 -50zM151 604c0 62 36 101 108 101s108 -39 108 -101s-36 -101 -108 -101s-108 39 -108 101zM491 0h-89c-24 0 -43 21 -43 45c-19 -31 -61 -58 -126 -58c-108 0 -198 77 -198 240 c0 164 92 241 198 241c64 0 103 -26 126 -61c0 26 22 47 50 47h82c25 0 45 -20 45 -45s-20 -45 -45 -45h-24v-274h24c25 0 45 -20 45 -45s-20 -45 -45 -45zM254 79c72 0 110 50 110 148c0 99 -38 149 -110 149s-110 -50 -110 -149c0 -98 38 -148 110 -148z" />
<glyph d="M345 614c19 0 34 -14 34 -34c0 -18 -15 -34 -34 -34h-181c-19 0 -34 16 -34 34c0 20 15 34 34 34h181zM491 0h-89c-24 0 -43 21 -43 45c-19 -31 -61 -58 -126 -58c-108 0 -198 77 -198 240c0 164 92 241 198 241c64 0 103 -26 126 -61c0 26 22 47 50 47h82 c25 0 45 -20 45 -45s-20 -45 -45 -45h-24v-274h24c25 0 45 -20 45 -45s-20 -45 -45 -45zM254 79c72 0 110 50 110 148c0 99 -38 149 -110 149s-110 -50 -110 -149c0 -98 38 -148 110 -148z" />
<glyph d="M397 630c0 -76 -61 -107 -138 -107s-138 31 -138 107c0 20 16 36 36 36s36 -16 36 -36c0 -30 34 -39 66 -39s66 9 66 39c0 20 16 36 36 36s36 -16 36 -36zM491 0h-89c-24 0 -43 21 -43 45c-19 -31 -61 -58 -126 -58c-108 0 -198 77 -198 240c0 164 92 241 198 241 c64 0 103 -26 126 -61c0 26 22 47 50 47h82c25 0 45 -20 45 -45s-20 -45 -45 -45h-24v-274h24c25 0 45 -20 45 -45s-20 -45 -45 -45zM254 79c72 0 110 50 110 148c0 99 -38 149 -110 149s-110 -50 -110 -149c0 -98 38 -148 110 -148z" />
<glyph d="M496 -119c17 0 30 -13 30 -30c0 -11 -5 -18 -10 -22c-18 -15 -54 -17 -73 -17c-57 0 -117 22 -117 88c0 40 26 78 66 101c-19 4 -33 23 -33 44c-19 -31 -61 -58 -126 -58c-108 0 -198 77 -198 240c0 164 92 241 198 241c64 0 103 -26 126 -61c0 26 22 47 50 47h82 c25 0 45 -20 45 -45s-20 -45 -45 -45h-24v-274h24c25 0 45 -20 45 -45s-20 -45 -45 -45h-47c-32 -23 -54 -50 -54 -80c0 -35 30 -46 62 -46c19 0 31 7 44 7zM254 79c72 0 110 50 110 148c0 99 -38 149 -110 149s-110 -50 -110 -149c0 -98 38 -148 110 -148z" />
<glyph d="M150 604c0 62 36 101 108 101h8l87 110c14 18 40 17 60 -3c22 -21 20 -45 4 -60l-79 -73c18 -18 28 -44 28 -75c0 -62 -36 -101 -108 -101s-108 39 -108 101zM207 604c0 -32 13 -50 51 -50s51 18 51 50s-13 50 -51 50s-51 -18 -51 -50zM491 0h-89c-24 0 -43 21 -43 45 c-19 -31 -61 -58 -126 -58c-108 0 -198 77 -198 240c0 164 92 241 198 241c64 0 103 -26 126 -61c0 26 22 47 50 47h82c25 0 45 -20 45 -45s-20 -45 -45 -45h-24v-274h24c25 0 45 -20 45 -45s-20 -45 -45 -45zM254 79c72 0 110 50 110 148c0 99 -38 149 -110 149 s-110 -50 -110 -149c0 -98 38 -148 110 -148z" />
<glyph horiz-adv-x="542" d="M474 364h-18v-349c0 -138 -68 -216 -216 -216c-81 0 -141 25 -175 66c-5 6 -10 16 -10 29c0 26 22 48 48 48c12 0 20 -4 32 -12c25 -18 58 -39 105 -39c71 0 107 37 107 98v38c-20 -20 -61 -40 -109 -40c-126 0 -203 78 -203 241s82 240 210 240c42 0 90 -21 112 -54 c3 32 28 40 45 40h72c25 0 45 -20 45 -45s-20 -45 -45 -45zM348 130v157c0 55 -40 89 -101 89c-68 0 -105 -50 -105 -148c0 -99 39 -149 107 -149c60 0 99 51 99 51z" />
<glyph horiz-adv-x="542" d="M230 657c7 5 15 7 23 7s16 -2 23 -7l93 -62c10 -7 18 -17 18 -33c0 -22 -17 -39 -39 -39c-9 0 -18 3 -23 7l-72 50l-72 -50c-5 -4 -14 -7 -23 -7c-22 0 -39 17 -39 39c0 16 8 26 18 33zM474 364h-18v-349c0 -138 -68 -216 -216 -216c-81 0 -141 25 -175 66 c-5 6 -10 16 -10 29c0 26 22 48 48 48c12 0 20 -4 32 -12c25 -18 58 -39 105 -39c71 0 107 37 107 98v38c-20 -20 -61 -40 -109 -40c-126 0 -203 78 -203 241s82 240 210 240c42 0 90 -21 112 -54c3 32 28 40 45 40h72c25 0 45 -20 45 -45s-20 -45 -45 -45zM348 130v157 c0 55 -40 89 -101 89c-68 0 -105 -50 -105 -148c0 -99 39 -149 107 -149c60 0 99 51 99 51z" />
<glyph horiz-adv-x="542" d="M393 630c0 -76 -61 -107 -138 -107s-138 31 -138 107c0 20 16 36 36 36s36 -16 36 -36c0 -30 34 -39 66 -39s66 9 66 39c0 20 16 36 36 36s36 -16 36 -36zM474 364h-18v-349c0 -138 -68 -216 -216 -216c-81 0 -141 25 -175 66c-5 6 -10 16 -10 29c0 26 22 48 48 48 c12 0 20 -4 32 -12c25 -18 58 -39 105 -39c71 0 107 37 107 98v38c-20 -20 -61 -40 -109 -40c-126 0 -203 78 -203 241s82 240 210 240c42 0 90 -21 112 -54c3 32 28 40 45 40h72c25 0 45 -20 45 -45s-20 -45 -45 -45zM348 130v157c0 55 -40 89 -101 89 c-68 0 -105 -50 -105 -148c0 -99 39 -149 107 -149c60 0 99 51 99 51z" />
<glyph horiz-adv-x="542" d="M302 597c0 -35 -19 -51 -52 -51s-52 16 -52 51c0 38 19 54 52 54s52 -16 52 -54zM474 364h-18v-349c0 -138 -68 -216 -216 -216c-81 0 -141 25 -175 66c-5 6 -10 16 -10 29c0 26 22 48 48 48c12 0 20 -4 32 -12c25 -18 58 -39 105 -39c71 0 107 37 107 98v38 c-20 -20 -61 -40 -109 -40c-126 0 -203 78 -203 241s82 240 210 240c42 0 90 -21 112 -54c3 32 28 40 45 40h72c25 0 45 -20 45 -45s-20 -45 -45 -45zM348 130v157c0 55 -40 89 -101 89c-68 0 -105 -50 -105 -148c0 -99 39 -149 107 -149c60 0 99 51 99 51z" />
<glyph horiz-adv-x="542" d="M300 574c0 -36 -20 -55 -55 -55c-34 0 -53 21 -53 57c0 73 41 133 77 159c4 3 8 6 17 6c10 0 17 -9 17 -18c0 -6 -2 -10 -6 -15c-24 -30 -35 -48 -38 -84c29 -5 41 -26 41 -50zM474 364h-18v-349c0 -138 -68 -216 -216 -216c-81 0 -141 25 -175 66c-5 6 -10 16 -10 29 c0 26 22 48 48 48c12 0 20 -4 32 -12c25 -18 58 -39 105 -39c71 0 107 37 107 98v38c-20 -20 -61 -40 -109 -40c-126 0 -203 78 -203 241s82 240 210 240c42 0 90 -21 112 -54c3 32 28 40 45 40h72c25 0 45 -20 45 -45s-20 -45 -45 -45zM348 130v157c0 55 -40 89 -101 89 c-68 0 -105 -50 -105 -148c0 -99 39 -149 107 -149c60 0 99 51 99 51z" />
<glyph horiz-adv-x="731" d="M525 671c16 12 34 16 59 16c67 0 121 -49 121 -116c0 -82 -69 -125 -154 -125c-19 0 -42 1 -68 6c-13 -20 -37 -39 -56 -47c78 0 137 -45 137 -115c0 -189 -282 -74 -282 -200c0 -29 20 -46 49 -46c55 0 25 66 80 66c34 0 44 -20 44 -45c0 -59 -71 -73 -119 -73 c-179 0 -253 183 -253 301c0 96 52 195 166 195c43 0 81 -19 104 -44c-97 -63 -156 -119 -156 -240c0 -13 0 -27 2 -40c1 -9 5 -16 12 -16c8 0 9 6 9 17s-1 26 -1 39c0 99 55 156 138 207c29 18 51 35 67 55c-59 15 -114 54 -152 81c-43 30 -90 88 -137 88 c-24 0 -40 -17 -40 -41s18 -39 40 -39c17 0 25 12 33 20c5 4 10 6 17 6c14 0 26 -12 26 -26c0 -32 -49 -52 -80 -52c-50 0 -92 41 -92 91c0 51 42 93 92 93c51 0 89 -30 122 -58c22 31 60 58 113 58c77 0 142 -64 142 -142c0 -19 -4 -34 -7 -43c22 -4 35 -4 50 -4 c43 0 98 17 98 73c0 33 -26 64 -65 64c-23 0 -28 -12 -44 -12c-15 0 -26 12 -26 26c0 8 4 17 11 22zM295 593c39 -31 96 -65 151 -83c3 8 6 21 6 35c0 42 -31 90 -86 90c-31 0 -56 -14 -71 -42z" />
<glyph horiz-adv-x="703" d="M493 589c0 50 37 92 90 92c52 0 93 -41 93 -92c0 -90 -109 -123 -185 -123c-8 0 -19 1 -19 1s2 -19 2 -45c0 -157 -125 -283 -214 -321c-4 -2 -6 -6 -6 -11s5 -10 11 -10c3 0 6 1 9 2c100 42 182 132 219 248c54 0 102 -38 102 -115c0 -119 -110 -223 -294 -223 c-141 0 -261 72 -261 211c0 45 20 71 59 71c31 0 43 -18 43 -45c0 -36 -36 -39 -36 -67c0 -24 24 -47 49 -47c28 0 52 25 52 54c0 42 -36 100 -36 163c0 68 51 110 111 110c51 0 98 -23 129 -78c4 11 8 33 8 68c0 24 -2 41 -2 41c-81 15 -194 74 -229 158 c-41 -3 -72 -28 -72 -65c0 -31 21 -48 53 -48c16 0 28 -12 28 -28c0 -15 -12 -28 -28 -28c-55 0 -109 36 -109 104c0 80 74 121 153 121c102 0 208 -68 249 -167c7 -1 17 -2 29 -2c79 0 129 35 129 71c0 20 -16 36 -37 36c-20 0 -36 -16 -36 -36c0 -15 -13 -27 -27 -27 c-15 0 -27 12 -27 27zM397 531c-28 45 -85 95 -153 103c41 -60 88 -82 153 -103z" />
<glyph horiz-adv-x="515" d="M305 -111h43v138c-20 -20 -62 -40 -110 -40c-126 0 -203 78 -203 241s79 240 214 240c121 0 207 -67 207 -200v-379h24c25 0 45 -20 45 -45s-20 -45 -45 -45h-175c-25 0 -45 20 -45 45s20 45 45 45zM249 79c60 0 99 51 99 51v138c0 68 -41 108 -99 108 c-68 0 -107 -50 -107 -148c0 -99 39 -149 107 -149z" />
<glyph horiz-adv-x="350" d="M231 578c0 -36 -20 -55 -55 -55c-34 0 -53 21 -53 57c0 73 41 134 77 160c4 3 9 6 15 6c10 0 19 -8 19 -17c0 -6 -2 -11 -6 -16c-25 -31 -36 -51 -38 -85c28 -5 41 -26 41 -50z" />
<glyph horiz-adv-x="500" />
<glyph horiz-adv-x="187" d="M80 712h18c29 0 42 -15 42 -41l-26 -160c-4 -23 -11 -36 -34 -36c-24 0 -35 13 -35 36l-9 160c-1 26 13 41 44 41z" />
<glyph unicode="&#x21a;" horiz-adv-x="574" d="M367 0h-160c-28 0 -51 23 -51 51s23 51 51 51h22v469h-102v-47c0 -28 -23 -51 -51 -51s-51 23 -51 51v100c0 27 23 49 51 49h422c27 0 51 -22 51 -49v-100c0 -28 -23 -51 -51 -51s-51 23 -51 51v47h-102v-469h22c28 0 51 -23 51 -51s-23 -51 -51 -51zM235 -98 c0 36 20 55 55 55c34 0 53 -21 53 -57c0 -73 -41 -133 -77 -159c-4 -3 -8 -6 -17 -6c-10 0 -17 9 -17 18c0 6 2 10 6 15c24 30 35 48 38 84c-29 5 -41 26 -41 50z" />
<glyph unicode="&#x21b;" horiz-adv-x="308" d="M85 454v84c0 29 24 53 53 53s53 -24 53 -53v-84h45c25 0 45 -20 45 -45s-20 -45 -45 -45h-45v-242c0 -23 24 -36 46 -36c26 0 47 -21 47 -47s-21 -47 -47 -47c-94 0 -152 57 -152 136v236h-23c-25 0 -45 20 -45 45s20 45 45 45h23zM117 -98c0 36 20 55 55 55 c34 0 53 -21 53 -57c0 -73 -41 -133 -77 -159c-4 -3 -8 -6 -17 -6c-10 0 -17 9 -17 18c0 6 2 10 6 15c24 30 35 48 38 84c-29 5 -41 26 -41 50z" />
</font>
</defs>
</svg>
