<?xml version="1.0" standalone="no"?>
<!DOCTYPE svg PUBLIC "-//W3C//DTD SVG 1.1//EN" "http://www.w3.org/Graphics/SVG/1.1/DTD/svg11.dtd" >
<svg xmlns="http://www.w3.org/2000/svg">
<metadata></metadata>
<defs>
<font id="bariol_serif_lightlight" horiz-adv-x="558" >
<font-face units-per-em="1000" ascent="787" descent="-213" />
<missing-glyph horiz-adv-x="254" />
<glyph unicode="&#x2e;&#x2e;&#x2e;" horiz-adv-x="764" d="M109 15c0 -16 -9 -23 -23 -23s-23 7 -23 23s9 24 23 24s23 -8 23 -24zM405 15c0 -16 -9 -23 -23 -23s-23 7 -23 23s9 24 23 24s23 -8 23 -24zM701 15c0 -16 -9 -23 -23 -23s-23 7 -23 23s9 24 23 24s23 -8 23 -24z" />
<glyph unicode="ff" horiz-adv-x="556" d="M310 26h60v402h-230v-402h83c7 0 13 -6 13 -13s-6 -13 -13 -13h-173c-7 0 -13 6 -13 13s6 13 13 13h60v402h-57c-7 0 -13 6 -13 13s6 13 13 13h57v90c0 87 49 168 166 168h27c7 0 13 -6 13 -13s-6 -13 -13 -13h-27c-98 0 -136 -60 -136 -142v-90h230v90 c0 87 49 168 166 168h27c7 0 13 -6 13 -13s-6 -13 -13 -13h-27c-98 0 -136 -60 -136 -142v-90h118c7 0 13 -6 13 -13s-6 -13 -13 -13h-118v-402h83c7 0 13 -6 13 -13s-6 -13 -13 -13h-173c-7 0 -13 6 -13 13s6 13 13 13z" />
<glyph unicode="fi" horiz-adv-x="498" d="M50 26h60v402h-57c-7 0 -13 6 -13 13s6 13 13 13h57v90c0 86 49 168 160 168c43 0 80 -10 103 -21c6 -3 10 -6 10 -13s-5 -13 -12 -13c-4 0 -7 1 -13 4c-28 12 -52 17 -90 17c-90 0 -128 -62 -128 -142v-90h234c8 0 15 -7 15 -15v-413h60c7 0 13 -6 13 -13 s-6 -13 -13 -13h-150c-7 0 -13 6 -13 13s6 13 13 13h60v402h-219v-402h83c7 0 13 -6 13 -13s-6 -13 -13 -13h-173c-7 0 -13 6 -13 13s6 13 13 13z" />
<glyph unicode="fl" horiz-adv-x="498" d="M50 26h60v402h-57c-7 0 -13 6 -13 13s6 13 13 13h57v90c0 86 47 168 158 168c46 0 86 -14 113 -29c7 -4 8 -8 8 -12v-571c0 -58 20 -82 63 -82c7 0 13 -6 13 -13s-6 -13 -13 -13c-60 0 -93 37 -93 108v328h-219v-402h83c7 0 13 -6 13 -13s-6 -13 -13 -13h-173 c-7 0 -13 6 -13 13s6 13 13 13zM140 454h219v211c-23 11 -51 21 -93 21c-90 0 -126 -62 -126 -142v-90z" />
<glyph unicode="ffi" horiz-adv-x="758" d="M276 712h27c7 0 13 -6 13 -13s-6 -13 -13 -13h-25c-99 0 -138 -59 -138 -142v-90h230v90c0 86 49 168 160 168c43 0 80 -10 103 -21c6 -3 10 -6 10 -13s-5 -13 -12 -13c-4 0 -7 1 -13 4c-28 12 -52 17 -90 17c-90 0 -128 -62 -128 -142v-90h234c8 0 15 -7 15 -15v-413h60 c7 0 13 -6 13 -13s-6 -13 -13 -13h-150c-7 0 -13 6 -13 13s6 13 13 13h60v402h-219v-402h83c7 0 13 -6 13 -13s-6 -13 -13 -13h-173c-7 0 -13 6 -13 13s6 13 13 13h60v402h-230v-402h83c7 0 13 -6 13 -13s-6 -13 -13 -13h-173c-7 0 -13 6 -13 13s6 13 13 13h60v402h-57 c-7 0 -13 6 -13 13s6 13 13 13h57v90c0 87 49 168 166 168z" />
<glyph unicode="ffl" horiz-adv-x="758" d="M50 26h60v402h-57c-7 0 -13 6 -13 13s6 13 13 13h57v90c0 88 50 168 168 168h25c7 0 13 -6 13 -13s-6 -13 -13 -13h-27c-96 0 -136 -60 -136 -142v-90h230v90c0 86 47 168 158 168c46 0 86 -14 113 -29c7 -4 8 -8 8 -12v-571c0 -58 20 -82 63 -82c7 0 13 -6 13 -13 s-6 -13 -13 -13c-60 0 -93 37 -93 108v328h-219v-402h83c7 0 13 -6 13 -13s-6 -13 -13 -13h-173c-7 0 -13 6 -13 13s6 13 13 13h60v402h-230v-402h83c7 0 13 -6 13 -13s-6 -13 -13 -13h-173c-7 0 -13 6 -13 13s6 13 13 13zM400 454h219v211c-23 11 -51 21 -93 21 c-90 0 -126 -62 -126 -142v-90z" />
<glyph unicode="fb" horiz-adv-x="811" d="M552 -13c-71 0 -130 29 -163 89v-69c0 -8 -7 -15 -15 -15s-15 7 -15 15v658c-23 11 -51 21 -93 21c-90 0 -126 -62 -126 -142v-90h118c7 0 13 -6 13 -13s-6 -13 -13 -13h-118v-402h83c7 0 13 -6 13 -13s-6 -13 -13 -13h-173c-7 0 -13 6 -13 13s6 13 13 13h60v402h-57 c-7 0 -13 6 -13 13s6 13 13 13h57v90c0 86 47 168 158 168c46 0 86 -14 113 -29c7 -4 8 -8 8 -12v-298s44 95 163 95c128 0 205 -76 205 -240s-77 -241 -205 -241zM389 325v-153c0 -107 71 -159 163 -159c113 0 173 65 173 215c0 148 -60 214 -173 214 c-120 0 -163 -117 -163 -117z" />
<glyph unicode="ffb" horiz-adv-x="1071" d="M310 26h60v402h-230v-402h83c7 0 13 -6 13 -13s-6 -13 -13 -13h-173c-7 0 -13 6 -13 13s6 13 13 13h60v402h-57c-7 0 -13 6 -13 13s6 13 13 13h57v90c0 87 49 168 166 168h27c7 0 13 -6 13 -13s-6 -13 -13 -13h-25c-99 0 -138 -59 -138 -142v-90h230v90 c0 86 47 168 158 168c46 0 86 -14 113 -29c7 -4 8 -8 8 -12v-298s44 95 163 95c128 0 205 -76 205 -240s-77 -241 -205 -241c-71 0 -130 29 -163 89v-69c0 -8 -7 -15 -15 -15s-15 7 -15 15v658c-23 11 -51 21 -93 21c-90 0 -126 -62 -126 -142v-90h118c7 0 13 -6 13 -13 s-6 -13 -13 -13h-118v-402h83c7 0 13 -6 13 -13s-6 -13 -13 -13h-173c-7 0 -13 6 -13 13s6 13 13 13zM649 325v-153c0 -106 71 -159 163 -159c113 0 173 65 173 215c0 148 -60 214 -173 214c-120 0 -163 -117 -163 -117z" />
<glyph unicode="ffh" horiz-adv-x="1080" d="M310 26h60v402h-230v-402h83c7 0 13 -6 13 -13s-6 -13 -13 -13h-173c-7 0 -13 6 -13 13s6 13 13 13h60v402h-57c-7 0 -13 6 -13 13s6 13 13 13h57v90c0 87 49 168 166 168h27c7 0 13 -6 13 -13s-6 -13 -13 -13h-27c-98 -1 -136 -60 -136 -142v-90h230v90 c0 86 47 168 158 168c46 0 86 -14 113 -29c7 -4 8 -8 8 -12v-299c15 40 61 96 157 96c144 0 179 -85 179 -177v-265h60c7 0 13 -6 13 -13s-6 -13 -13 -13h-150c-7 0 -13 6 -13 13s6 13 13 13h60v265c0 81 -28 151 -150 151c-109 0 -156 -88 -156 -161v-255h60 c7 0 13 -6 13 -13s-6 -13 -13 -13h-150c-7 0 -13 6 -13 13s6 13 13 13h60v639c-23 11 -51 21 -93 21c-90 0 -126 -62 -126 -142v-90h118c7 0 13 -6 13 -13s-6 -13 -13 -13h-118v-402h83c7 0 13 -6 13 -13s-6 -13 -13 -13h-173c-7 0 -13 6 -13 13s6 13 13 13z" />
<glyph unicode="ffj" horiz-adv-x="741" d="M50 26h60v402h-57c-7 0 -13 6 -13 13s6 13 13 13h57v90c0 88 50 168 168 168h25c7 0 13 -6 13 -13s-6 -13 -13 -13h-27c-94 0 -136 -60 -136 -142v-90h230v90c0 86 47 168 158 168c41 0 77 -8 105 -21c6 -3 10 -6 10 -13s-6 -13 -13 -13c-4 0 -6 1 -12 4 c-20 10 -48 17 -92 17c-90 0 -126 -62 -126 -142v-90h237c9 0 16 -6 16 -15v-497c0 -79 -58 -143 -138 -143h-4c-7 0 -13 6 -13 13s6 13 13 13h4c64 0 108 53 108 117v486h-223v-402h83c7 0 13 -6 13 -13s-6 -13 -13 -13h-173c-7 0 -13 6 -13 13s6 13 13 13h60v402h-230 v-402h83c7 0 13 -6 13 -13s-6 -13 -13 -13h-173c-7 0 -13 6 -13 13s6 13 13 13z" />
<glyph unicode="ffk" horiz-adv-x="1020" d="M310 26h60v402h-230v-402h83c7 0 13 -6 13 -13s-6 -13 -13 -13h-173c-7 0 -13 6 -13 13s6 13 13 13h60v402h-57c-7 0 -13 6 -13 13s6 13 13 13h57v90c0 87 49 168 166 168h27c7 0 13 -6 13 -13s-6 -13 -13 -13h-27c-98 0 -136 -60 -136 -142v-90h230v90 c0 86 47 168 158 168c46 0 86 -14 113 -29c7 -4 8 -8 8 -12v-454l251 232c3 3 7 5 13 5h67c7 0 13 -6 13 -13s-6 -13 -13 -13h-65l-155 -144l197 -258h58c7 0 13 -6 13 -13s-6 -13 -13 -13h-67c-6 0 -9 1 -12 5l-198 259l-89 -83v-155h60c7 0 13 -6 13 -13s-6 -13 -13 -13 h-150c-7 0 -13 6 -13 13s6 13 13 13h60v639c-23 11 -51 21 -93 21c-90 0 -126 -62 -126 -142v-90h118c7 0 13 -6 13 -13s-6 -13 -13 -13h-118v-402h83c7 0 13 -6 13 -13s-6 -13 -13 -13h-173c-7 0 -13 6 -13 13s6 13 13 13z" />
<glyph unicode="fh" horiz-adv-x="820" d="M299 26h60v639c-23 11 -51 21 -93 21c-90 0 -126 -62 -126 -142v-90h118c7 0 13 -6 13 -13s-6 -13 -13 -13h-118v-402h83c7 0 13 -6 13 -13s-6 -13 -13 -13h-173c-7 0 -13 6 -13 13s6 13 13 13h60v402h-57c-7 0 -13 6 -13 13s6 13 13 13h57v90c0 86 47 168 158 168 c46 0 86 -14 113 -29c7 -4 8 -8 8 -12v-299c15 40 61 96 157 96c144 0 179 -85 179 -177v-265h60c7 0 13 -6 13 -13s-6 -13 -13 -13h-150c-7 0 -13 6 -13 13s6 13 13 13h60v265c0 81 -28 151 -150 151c-109 0 -156 -88 -156 -161v-255h60c7 0 13 -6 13 -13s-6 -13 -13 -13 h-150c-7 0 -13 6 -13 13s6 13 13 13z" />
<glyph unicode="fj" horiz-adv-x="481" d="M50 26h60v402h-57c-7 0 -13 6 -13 13s6 13 13 13h57v90c0 86 47 168 158 168c41 0 77 -8 105 -21c6 -3 10 -6 10 -13s-6 -13 -13 -13c-4 0 -6 1 -12 4c-20 10 -48 17 -92 17c-90 0 -126 -62 -126 -142v-90h237c9 0 16 -6 16 -15v-497c0 -79 -58 -143 -138 -143h-4 c-7 0 -13 6 -13 13s6 13 13 13h4c64 0 108 53 108 117v486h-223v-402h83c7 0 13 -6 13 -13s-6 -13 -13 -13h-173c-7 0 -13 6 -13 13s6 13 13 13z" />
<glyph unicode="fk" horiz-adv-x="760" d="M359 665c-23 11 -51 21 -93 21c-90 0 -126 -62 -126 -142v-90h118c7 0 13 -6 13 -13s-6 -13 -13 -13h-118v-402h83c7 0 13 -6 13 -13s-6 -13 -13 -13h-173c-7 0 -13 6 -13 13s6 13 13 13h60v402h-57c-7 0 -13 6 -13 13s6 13 13 13h57v90c0 86 47 168 158 168 c46 0 86 -14 113 -29c7 -4 8 -8 8 -12v-454l251 232c2 2 6 5 11 5h69c7 0 13 -6 13 -13s-6 -13 -13 -13h-65l-155 -144l197 -258h58c7 0 13 -6 13 -13s-6 -13 -13 -13h-67c-5 0 -9 1 -12 5l-198 259l-89 -83v-155h60c7 0 13 -6 13 -13s-6 -13 -13 -13h-150 c-7 0 -13 6 -13 13s6 13 13 13h60v639z" />
<glyph unicode=" "  horiz-adv-x="254" />
<glyph unicode="&#x09;" horiz-adv-x="254" />
<glyph unicode="&#xa0;" horiz-adv-x="254" />
<glyph unicode="&#x2009;" horiz-adv-x="14" />
<glyph unicode="A" horiz-adv-x="655" d="M497 28h62l-71 186h-321l-71 -186h63c8 0 14 -6 14 -14s-6 -14 -14 -14h-143c-8 0 -14 6 -14 14s6 14 14 14h45l242 617h-71c-8 0 -14 6 -14 14s6 14 14 14h98c9 0 15 -5 18 -13l247 -632h45c8 0 14 -6 14 -14s-6 -14 -14 -14h-143c-8 0 -14 6 -14 14s6 14 14 14z M328 632l-150 -389h299z" />
<glyph unicode="B" horiz-adv-x="606" d="M73 673h247c136 0 197 -64 197 -166c0 -92 -64 -136 -109 -147c73 -10 141 -62 141 -176c0 -113 -68 -184 -195 -184h-281c-8 0 -14 6 -14 14s6 14 14 14h55v617h-55c-8 0 -14 6 -14 14s6 14 14 14zM160 341v-313h194c110 0 163 59 163 156c0 106 -58 157 -165 157h-192z M160 645v-276h160c108 0 165 50 165 138c0 89 -52 138 -165 138h-160z" />
<glyph unicode="C" horiz-adv-x="632" d="M591 90c-43 -65 -130 -104 -223 -104c-193 0 -308 103 -308 350c0 237 115 351 308 351c95 0 177 -41 222 -104c2 -3 4 -7 4 -11c0 -8 -6 -14 -14 -14c-4 0 -8 1 -12 6c-40 54 -113 95 -200 95c-176 0 -276 -101 -276 -323c0 -235 100 -322 276 -322c76 0 153 30 200 93 c4 5 8 6 12 6c8 0 14 -6 14 -14c0 -2 -1 -6 -3 -9z" />
<glyph unicode="D" horiz-adv-x="662" d="M73 673h220c191 0 308 -90 308 -337s-117 -336 -308 -336h-220c-8 0 -14 6 -14 14s6 14 14 14h55v617h-55c-8 0 -14 6 -14 14s6 14 14 14zM160 645v-617h133c170 0 276 73 276 308c0 233 -106 309 -276 309h-133z" />
<glyph unicode="E" d="M469 574v71h-309v-292h252c8 0 14 -6 14 -14s-6 -14 -14 -14h-252v-297h321v81c0 8 6 14 14 14s14 -6 14 -14v-95c0 -8 -6 -14 -14 -14h-422c-8 0 -14 6 -14 14s6 14 14 14h55v617h-55c-8 0 -14 6 -14 14s6 14 14 14h410c7 0 14 -6 14 -14v-85c0 -8 -6 -14 -14 -14 s-14 6 -14 14z" />
<glyph unicode="F" horiz-adv-x="535" d="M469 574v71h-309v-302h252c8 0 14 -6 14 -14s-6 -14 -14 -14h-252v-287h83c8 0 14 -6 14 -14s-6 -14 -14 -14h-170c-8 0 -14 6 -14 14s6 14 14 14h55v617h-55c-8 0 -14 6 -14 14s6 14 14 14h410c7 0 14 -6 14 -14v-85c0 -8 -6 -14 -14 -14s-14 6 -14 14z" />
<glyph unicode="G" horiz-adv-x="678" d="M93 336c0 -235 100 -322 276 -322c108 0 183 49 220 98v175h-196c-8 0 -14 6 -14 14s6 14 14 14h212c7 0 14 -6 14 -13v-185c0 -8 -3 -15 -9 -22c-48 -56 -118 -109 -241 -109c-193 0 -308 103 -308 350s115 351 308 351c95 0 177 -41 222 -104c2 -3 4 -7 4 -11 c0 -8 -6 -14 -14 -14c-4 0 -8 1 -12 6c-40 54 -113 95 -200 95c-173 0 -276 -90 -276 -323z" />
<glyph unicode="H" horiz-adv-x="720" d="M505 28h55v303h-400v-303h55c8 0 14 -6 14 -14s-6 -14 -14 -14h-142c-8 0 -14 6 -14 14s6 14 14 14h55v617h-55c-8 0 -14 6 -14 14s6 14 14 14h142c8 0 14 -6 14 -14s-6 -14 -14 -14h-55v-285h400v285h-55c-8 0 -14 6 -14 14s6 14 14 14h142c8 0 14 -6 14 -14 s-6 -14 -14 -14h-55v-617h55c8 0 14 -6 14 -14s-6 -14 -14 -14h-142c-8 0 -14 6 -14 14s6 14 14 14z" />
<glyph unicode="I" horiz-adv-x="288" d="M73 673h142c8 0 14 -6 14 -14s-6 -14 -14 -14h-55v-617h55c8 0 14 -6 14 -14s-6 -14 -14 -14h-142c-8 0 -14 6 -14 14s6 14 14 14h55v617h-55c-8 0 -14 6 -14 14s6 14 14 14z" />
<glyph unicode="J" horiz-adv-x="431" d="M212 673h160c8 0 14 -6 14 -14s-6 -14 -14 -14h-55v-450c0 -118 -49 -209 -181 -209c-37 0 -81 9 -107 23c-5 3 -8 7 -8 13c0 8 7 15 15 15c4 0 6 -1 12 -4c27 -14 57 -19 88 -19c107 0 149 77 149 181v450h-73c-8 0 -14 6 -14 14s6 14 14 14z" />
<glyph unicode="K" horiz-adv-x="623" d="M423 673h175c8 0 14 -6 14 -14s-6 -14 -14 -14h-77l-224 -253l259 -364h62c8 0 14 -6 14 -14s-6 -14 -14 -14h-72c-10 0 -15 6 -18 10l-251 357l-117 -130v-209h55c8 0 14 -6 14 -14s-6 -14 -14 -14h-142c-8 0 -14 6 -14 14s6 14 14 14h55v617h-55c-8 0 -14 6 -14 14 s6 14 14 14h142c8 0 14 -6 14 -14s-6 -14 -14 -14h-55v-363l317 363h-54c-8 0 -14 6 -14 14s6 14 14 14z" />
<glyph unicode="L" horiz-adv-x="520" d="M160 28h297v81c0 8 6 14 14 14s14 -6 14 -14v-95c0 -9 -7 -14 -14 -14h-398c-8 0 -14 6 -14 14s6 14 14 14h55v617h-55c-8 0 -14 6 -14 14s6 14 14 14h142c8 0 14 -6 14 -14s-6 -14 -14 -14h-55v-617z" />
<glyph unicode="M" horiz-adv-x="852" d="M73 673h75c6 0 11 -4 13 -8l265 -473l265 473c3 5 7 8 14 8h74c8 0 14 -6 14 -14s-6 -14 -14 -14h-55v-617h55c8 0 14 -6 14 -14s-6 -14 -14 -14h-140c-8 0 -14 6 -14 14s6 14 14 14h55v581l-254 -450c-3 -7 -8 -10 -14 -10s-11 3 -14 10l-254 450v-581h55 c8 0 14 -6 14 -14s-6 -14 -14 -14h-140c-8 0 -14 6 -14 14s6 14 14 14h55v617h-55c-8 0 -14 6 -14 14s6 14 14 14z" />
<glyph unicode="N" horiz-adv-x="711" d="M73 673h75c7 0 10 -3 12 -6l399 -612v590h-55c-8 0 -14 6 -14 14s6 14 14 14h140c8 0 14 -6 14 -14s-6 -14 -14 -14h-55v-637c0 -9 -7 -16 -16 -16c-7 0 -11 3 -15 9l-400 616v-589h55c8 0 14 -6 14 -14s-6 -14 -14 -14h-140c-8 0 -14 6 -14 14s6 14 14 14h55v617h-55 c-8 0 -14 6 -14 14s6 14 14 14z" />
<glyph unicode="O" horiz-adv-x="736" d="M676 336c0 -236 -115 -350 -308 -350s-308 114 -308 350c0 237 115 351 308 351s308 -114 308 -351zM644 336c0 222 -100 323 -276 323s-276 -101 -276 -323c0 -221 100 -322 276 -322s276 101 276 322z" />
<glyph unicode="P" horiz-adv-x="578" d="M73 673h282c102 0 182 -61 182 -188c0 -125 -78 -188 -182 -188h-195v-269h55c8 0 14 -6 14 -14s-6 -14 -14 -14h-142c-8 0 -14 6 -14 14s6 14 14 14h55v617h-55c-8 0 -14 6 -14 14s6 14 14 14zM160 645v-320h184c99 0 161 55 161 160c0 107 -63 160 -161 160h-184z" />
<glyph unicode="Q" horiz-adv-x="736" d="M398 -14h-30c-193 0 -308 114 -308 350c0 237 115 351 308 351s308 -114 308 -351c0 -189 -79 -301 -206 -336c48 -9 80 -37 117 -75c3 -3 5 -7 5 -12c0 -8 -7 -15 -16 -15c-4 0 -7 1 -11 5c-42 46 -91 83 -167 83zM644 336c0 222 -100 323 -276 323s-276 -101 -276 -323 c0 -221 100 -322 276 -322s276 101 276 322z" />
<glyph unicode="R" horiz-adv-x="608" d="M73 673h281c106 0 183 -81 183 -183s-72 -184 -180 -184h-24s166 -254 181 -278h61c8 0 14 -6 14 -14s-6 -14 -14 -14h-66c-8 0 -13 2 -17 8l-195 298h-137v-278h55c8 0 14 -6 14 -14s-6 -14 -14 -14h-142c-8 0 -14 6 -14 14s6 14 14 14h55v617h-55c-8 0 -14 6 -14 14 s6 14 14 14zM160 645v-310h197c87 0 148 67 148 155c0 89 -62 155 -151 155h-194z" />
<glyph unicode="S" horiz-adv-x="557" d="M476 564c-6 0 -9 2 -12 6c-34 45 -83 90 -185 90c-126 0 -173 -63 -173 -134c0 -198 398 -115 398 -354c0 -120 -83 -186 -233 -186c-115 0 -185 54 -228 121c-2 3 -3 6 -3 9c0 8 7 15 15 15c6 0 10 -3 13 -8c38 -60 102 -109 203 -109c130 0 201 51 201 158 c0 217 -398 123 -398 354c0 86 62 161 205 161c94 0 162 -36 209 -99c2 -3 3 -6 3 -9c0 -8 -7 -15 -15 -15z" />
<glyph unicode="T" horiz-adv-x="554" d="M203 28h58v617h-193v-107c0 -8 -6 -14 -14 -14s-14 6 -14 14v121c0 8 6 14 14 14h446c8 0 14 -6 14 -14v-121c0 -8 -6 -14 -14 -14s-14 6 -14 14v107h-193v-617h58c8 0 14 -6 14 -14s-6 -14 -14 -14h-148c-8 0 -14 6 -14 14s6 14 14 14z" />
<glyph unicode="U" horiz-adv-x="685" d="M59 673h147c8 0 14 -6 14 -14s-6 -14 -14 -14h-60v-447c0 -93 35 -184 197 -184s196 91 196 184v447h-60c-8 0 -14 6 -14 14s6 14 14 14h147c8 0 14 -6 14 -14s-6 -14 -14 -14h-55v-447c0 -106 -44 -212 -228 -212s-229 106 -229 212v447h-55c-8 0 -14 6 -14 14 s6 14 14 14z" />
<glyph unicode="V" horiz-adv-x="654" d="M486 673h148c8 0 14 -6 14 -14s-6 -14 -14 -14h-48l-243 -643c-2 -6 -9 -10 -16 -10s-13 4 -15 10l-244 643h-48c-8 0 -14 6 -14 14s6 14 14 14h148c8 0 14 -6 14 -14s-6 -14 -14 -14h-65l225 -594l222 594h-64c-8 0 -14 6 -14 14s6 14 14 14z" />
<glyph unicode="W" horiz-adv-x="918" d="M22 673h150c8 0 14 -6 14 -14s-6 -14 -14 -14h-67l167 -591l172 608c2 7 8 11 15 11s14 -4 16 -11l171 -605l167 588h-67c-8 0 -14 6 -14 14s6 14 14 14h148c8 0 14 -6 14 -14s-6 -14 -14 -14h-47l-185 -641c-2 -7 -8 -12 -16 -12s-13 4 -15 11l-172 601l-172 -601 c-2 -7 -8 -11 -16 -11c-6 0 -13 4 -15 11l-185 642h-49c-8 0 -14 6 -14 14s6 14 14 14z" />
<glyph unicode="X" horiz-adv-x="592" d="M21 28h46l212 318l-199 299h-53c-8 0 -14 6 -14 14s6 14 14 14h152c8 0 14 -6 14 -14s-6 -14 -14 -14h-59l177 -270l176 270h-60c-8 0 -14 6 -14 14s6 14 14 14h152c8 0 14 -6 14 -14s-6 -14 -14 -14h-53l-197 -299l210 -318h47c8 0 14 -6 14 -14s-6 -14 -14 -14h-159 c-8 0 -14 6 -14 14s6 14 14 14h72l-188 290l-190 -290h72c8 0 14 -6 14 -14s-6 -14 -14 -14h-158c-8 0 -14 6 -14 14s6 14 14 14z" />
<glyph unicode="Y" horiz-adv-x="593" d="M422 673h148c8 0 14 -6 14 -14s-6 -14 -14 -14h-49l-208 -327v-290h71c8 0 14 -6 14 -14s-6 -14 -14 -14h-174c-8 0 -14 6 -14 14s6 14 14 14h71v290l-210 327h-48c-8 0 -14 6 -14 14s6 14 14 14h148c8 0 14 -6 14 -14s-6 -14 -14 -14h-60l186 -297l184 297h-59 c-8 0 -14 6 -14 14s6 14 14 14z" />
<glyph unicode="Z" horiz-adv-x="554" d="M60 550v110c0 7 6 13 14 13h406c8 0 14 -6 14 -14c0 -3 -1 -6 -3 -9l-413 -622h404v104c0 8 6 14 14 14s14 -6 14 -14v-118c0 -9 -7 -14 -14 -14h-445c-7 0 -13 6 -13 14c0 4 1 6 3 9l415 622h-368v-95c0 -8 -6 -14 -14 -14s-14 6 -14 14z" />
<glyph unicode="&#xc6;" horiz-adv-x="900" d="M811 574v71h-309v-292h252c8 0 14 -6 14 -14s-6 -14 -14 -14h-252v-297h321v81c0 8 6 14 14 14s14 -6 14 -14v-96c0 -8 -7 -13 -14 -13h-351c-9 0 -16 7 -16 16v198h-252l-118 -186h56c8 0 14 -6 14 -14s-6 -14 -14 -14h-143c-8 0 -14 6 -14 14s6 14 14 14h49l397 617 h-72c-8 0 -14 6 -14 14s6 14 14 14h438c8 0 14 -6 14 -14v-85c0 -8 -6 -14 -14 -14s-14 6 -14 14zM235 243h235v368z" />
<glyph unicode="&#x152;" horiz-adv-x="966" d="M877 574v71h-309v-292h252c8 0 14 -6 14 -14s-6 -14 -14 -14h-252v-297h321v81c0 8 6 14 14 14s14 -6 14 -14v-95c0 -9 -7 -14 -14 -14h-351c-9 0 -16 7 -16 16v10c-47 -26 -103 -40 -168 -40c-193 0 -308 114 -308 350c0 237 115 351 308 351c65 0 121 -14 168 -40v10 c0 9 7 16 16 16h339c8 0 14 -6 14 -14v-85c0 -8 -6 -14 -14 -14s-14 6 -14 14zM92 336c0 -221 100 -322 276 -322c67 0 124 15 168 46v553c-44 31 -101 46 -168 46c-176 0 -276 -101 -276 -323z" />
<glyph unicode="&#xc0;" horiz-adv-x="655" d="M497 28h62l-71 186h-321l-71 -186h63c8 0 14 -6 14 -14s-6 -14 -14 -14h-143c-8 0 -14 6 -14 14s6 14 14 14h45l242 617h-71c-8 0 -14 6 -14 14s6 14 14 14h98c9 0 15 -5 18 -13l247 -632h45c8 0 14 -6 14 -14s-6 -14 -14 -14h-143c-8 0 -14 6 -14 14s6 14 14 14z M328 632l-150 -389h299zM250 839c-7 7 -6 16 1 22c8 7 16 6 22 -1l99 -118c5 -6 3 -11 -2 -16c-4 -4 -10 -6 -16 1z" />
<glyph unicode="`" horiz-adv-x="336" d="M106 635c-7 7 -6 16 1 22c8 7 16 6 22 -1l99 -118c5 -6 3 -11 -2 -16c-4 -4 -10 -6 -16 1z" />
<glyph unicode="&#xc1;" horiz-adv-x="655" d="M497 28h62l-71 186h-321l-71 -186h63c8 0 14 -6 14 -14s-6 -14 -14 -14h-143c-8 0 -14 6 -14 14s6 14 14 14h45l242 617h-71c-8 0 -14 6 -14 14s6 14 14 14h98c9 0 15 -5 18 -13l247 -632h45c8 0 14 -6 14 -14s-6 -14 -14 -14h-143c-8 0 -14 6 -14 14s6 14 14 14z M328 632l-150 -389h299zM376 860c6 7 14 8 22 1c7 -6 8 -15 1 -22l-104 -112c-6 -7 -12 -5 -16 -1c-5 5 -7 10 -2 16z" />
<glyph unicode="&#xb4;" horiz-adv-x="336" d="M205 656c6 7 14 8 22 1c7 -6 8 -15 1 -22l-104 -112c-6 -7 -12 -5 -16 -1c-5 5 -7 10 -2 16z" />
<glyph unicode="&#xc2;" horiz-adv-x="655" d="M497 28h62l-71 186h-321l-71 -186h63c8 0 14 -6 14 -14s-6 -14 -14 -14h-143c-8 0 -14 6 -14 14s6 14 14 14h45l242 617h-71c-8 0 -14 6 -14 14s6 14 14 14h98c9 0 15 -5 18 -13l247 -632h45c8 0 14 -6 14 -14s-6 -14 -14 -14h-143c-8 0 -14 6 -14 14s6 14 14 14z M328 632l-150 -389h299zM421 728l-93 84l-93 -84c-2 -2 -5 -4 -9 -4c-7 0 -13 6 -13 13c0 5 3 8 5 10l99 89c3 3 7 5 11 5s8 -2 11 -5l99 -89c2 -2 5 -5 5 -10c0 -7 -6 -13 -13 -13c-4 0 -7 2 -9 4z" />
<glyph unicode="&#x2c6;" horiz-adv-x="338" d="M262 531l-93 84l-93 -84c-2 -2 -5 -4 -9 -4c-7 0 -13 6 -13 13c0 5 3 8 5 10l99 89c3 3 7 5 11 5s8 -2 11 -5l99 -89c2 -2 5 -5 5 -10c0 -7 -6 -13 -13 -13c-4 0 -7 2 -9 4z" />
<glyph unicode="&#xc3;" horiz-adv-x="655" d="M497 28h62l-71 186h-321l-71 -186h63c8 0 14 -6 14 -14s-6 -14 -14 -14h-143c-8 0 -14 6 -14 14s6 14 14 14h45l242 617h-71c-8 0 -14 6 -14 14s6 14 14 14h98c9 0 15 -5 18 -13l247 -632h45c8 0 14 -6 14 -14s-6 -14 -14 -14h-143c-8 0 -14 6 -14 14s6 14 14 14z M328 632l-150 -389h299zM466 782c-8 -18 -31 -46 -73 -46c-57 0 -83 42 -132 42c-31 0 -45 -15 -53 -34c-2 -5 -7 -8 -12 -8c-7 0 -13 6 -13 13c0 3 1 6 2 8c9 20 32 46 76 46c57 0 83 -42 132 -42c26 0 44 13 51 34c2 5 7 8 12 8c6 0 12 -6 12 -13c0 -3 -1 -6 -2 -8z" />
<glyph unicode="&#x2dc;" horiz-adv-x="350" d="M318 580c-8 -18 -31 -46 -73 -46c-57 0 -83 42 -132 42c-31 0 -45 -15 -53 -34c-2 -5 -7 -8 -12 -8c-7 0 -13 6 -13 13c0 3 1 6 2 8c9 20 32 46 76 46c57 0 83 -42 132 -42c26 0 44 13 51 34c2 5 7 8 12 8c6 0 12 -6 12 -13c0 -3 -1 -6 -2 -8z" />
<glyph unicode="&#xc4;" horiz-adv-x="655" d="M497 28h62l-71 186h-321l-71 -186h63c8 0 14 -6 14 -14s-6 -14 -14 -14h-143c-8 0 -14 6 -14 14s6 14 14 14h45l242 617h-71c-8 0 -14 6 -14 14s6 14 14 14h98c9 0 15 -5 18 -13l247 -632h45c8 0 14 -6 14 -14s-6 -14 -14 -14h-143c-8 0 -14 6 -14 14s6 14 14 14z M328 632l-150 -389h299zM270 779c0 -16 -7 -23 -22 -23s-22 7 -22 23s7 23 22 23s22 -7 22 -23zM430 779c0 -16 -7 -23 -22 -23s-22 7 -22 23s7 23 22 23s22 -7 22 -23z" />
<glyph unicode="&#xa8;" horiz-adv-x="321" d="M102 573c0 -16 -7 -23 -22 -23s-22 7 -22 23s7 23 22 23s22 -7 22 -23zM262 573c0 -16 -7 -23 -22 -23s-22 7 -22 23s7 23 22 23s22 -7 22 -23z" />
<glyph unicode="&#xc5;" horiz-adv-x="655" d="M497 28h62l-71 186h-321l-71 -186h63c8 0 14 -6 14 -14s-6 -14 -14 -14h-143c-8 0 -14 6 -14 14s6 14 14 14h45l242 617h-71c-8 0 -14 6 -14 14s6 14 14 14h98c9 0 15 -5 18 -13l247 -632h45c8 0 14 -6 14 -14s-6 -14 -14 -14h-143c-8 0 -14 6 -14 14s6 14 14 14z M328 632l-150 -389h299zM224 806c0 61 33 98 104 98s104 -37 104 -98s-33 -98 -104 -98s-104 37 -104 98zM250 806c0 -52 23 -76 78 -76s78 24 78 76s-23 76 -78 76s-78 -24 -78 -76z" />
<glyph unicode="&#x2da;" horiz-adv-x="350" d="M71 605c0 61 33 98 104 98s104 -37 104 -98s-33 -98 -104 -98s-104 37 -104 98zM97 605c0 -52 23 -76 78 -76s78 24 78 76s-23 76 -78 76s-78 -24 -78 -76z" />
<glyph unicode="&#x100;" horiz-adv-x="655" d="M497 28h62l-71 186h-321l-71 -186h63c8 0 14 -6 14 -14s-6 -14 -14 -14h-143c-8 0 -14 6 -14 14s6 14 14 14h45l242 617h-71c-8 0 -14 6 -14 14s6 14 14 14h98c9 0 15 -5 18 -13l247 -632h45c8 0 14 -6 14 -14s-6 -14 -14 -14h-143c-8 0 -14 6 -14 14s6 14 14 14z M328 632l-150 -389h299zM434 772c6 0 12 -5 12 -12c0 -6 -6 -12 -12 -12h-212c-6 0 -12 6 -12 12c0 7 6 12 12 12h212z" />
<glyph unicode="&#xaf;" horiz-adv-x="336" d="M274 576c6 0 12 -5 12 -12c0 -6 -6 -12 -12 -12h-212c-6 0 -12 6 -12 12c0 7 6 12 12 12h212z" />
<glyph unicode="&#x102;" horiz-adv-x="655" d="M497 28h62l-71 186h-321l-71 -186h63c8 0 14 -6 14 -14s-6 -14 -14 -14h-143c-8 0 -14 6 -14 14s6 14 14 14h45l242 617h-71c-8 0 -14 6 -14 14s6 14 14 14h98c9 0 15 -5 18 -13l247 -632h45c8 0 14 -6 14 -14s-6 -14 -14 -14h-143c-8 0 -14 6 -14 14s6 14 14 14z M328 632l-150 -389h299zM433 826c0 -70 -50 -96 -105 -96s-105 26 -105 96c0 7 6 13 13 13s13 -6 13 -13c0 -49 27 -72 79 -72s79 23 79 72c0 7 6 13 13 13s13 -6 13 -13z" />
<glyph unicode="&#x2d8;" horiz-adv-x="334" d="M272 625c0 -70 -50 -96 -105 -96s-105 26 -105 96c0 7 6 13 13 13s13 -6 13 -13c0 -49 27 -72 79 -72s79 23 79 72c0 7 6 13 13 13s13 -6 13 -13z" />
<glyph unicode="&#x104;" horiz-adv-x="655" d="M636 -146c2 1 4 2 7 2c6 0 11 -5 11 -11c0 -5 -3 -8 -6 -10c-16 -9 -36 -14 -59 -14c-66 0 -88 35 -88 73c0 48 29 87 78 106h-82c-8 0 -14 6 -14 14s6 14 14 14h62l-71 186h-321l-71 -186h63c8 0 14 -6 14 -14s-6 -14 -14 -14h-143c-8 0 -14 6 -14 14s6 14 14 14h45 l242 617h-71c-8 0 -14 6 -14 14s6 14 14 14h98c9 0 15 -5 18 -13l247 -632h45c8 0 14 -6 14 -14s-6 -14 -14 -14h-29c-58 -29 -84 -62 -84 -102c0 -29 15 -53 64 -53c22 0 32 3 45 9zM328 632l-150 -389h299z" />
<glyph unicode="&#x2db;" horiz-adv-x="317" d="M204 -146c2 1 4 2 7 2c6 0 11 -5 11 -11c0 -5 -3 -8 -6 -10c-16 -9 -36 -14 -59 -14c-66 0 -88 35 -88 73c0 52 36 94 93 111l21 -3c-61 -30 -88 -63 -88 -104c0 -29 15 -53 64 -53c22 0 32 3 45 9z" />
<glyph unicode="&#x1fa;" horiz-adv-x="655" d="M470 1010c6 7 14 8 22 1c7 -6 8 -15 1 -22l-96 -104c23 -16 34 -44 34 -79c0 -61 -33 -98 -104 -98s-104 37 -104 98s33 98 104 98c18 0 34 -2 48 -7zM249 806c0 -52 23 -76 78 -76s78 24 78 76s-23 76 -78 76s-78 -24 -78 -76zM497 28h62l-71 186h-321l-71 -186h63 c8 0 14 -6 14 -14s-6 -14 -14 -14h-143c-8 0 -14 6 -14 14s6 14 14 14h45l242 617h-71c-8 0 -14 6 -14 14s6 14 14 14h98c9 0 15 -5 18 -13l247 -632h45c8 0 14 -6 14 -14s-6 -14 -14 -14h-143c-8 0 -14 6 -14 14s6 14 14 14zM328 632l-150 -389h299z" />
<glyph unicode="&#x1e2;" horiz-adv-x="900" d="M687 779c6 0 12 -5 12 -12c0 -6 -6 -12 -12 -12h-212c-6 0 -12 6 -12 12c0 7 6 12 12 12h212zM811 574v71h-309v-292h252c8 0 14 -6 14 -14s-6 -14 -14 -14h-252v-297h321v81c0 8 6 14 14 14s14 -6 14 -14v-96c0 -8 -7 -13 -14 -13h-351c-9 0 -16 7 -16 16v198h-252 l-118 -186h56c8 0 14 -6 14 -14s-6 -14 -14 -14h-143c-8 0 -14 6 -14 14s6 14 14 14h49l397 617h-72c-8 0 -14 6 -14 14s6 14 14 14h438c8 0 14 -6 14 -14v-85c0 -8 -6 -14 -14 -14s-14 6 -14 14zM235 243h235v368z" />
<glyph unicode="&#x1fc;" horiz-adv-x="900" d="M665 860c6 7 14 8 22 1c7 -6 8 -15 1 -22l-104 -112c-6 -7 -12 -5 -16 -1c-5 5 -7 10 -2 16zM811 574v71h-309v-292h252c8 0 14 -6 14 -14s-6 -14 -14 -14h-252v-297h321v81c0 8 6 14 14 14s14 -6 14 -14v-96c0 -8 -7 -13 -14 -13h-351c-9 0 -16 7 -16 16v198h-252 l-118 -186h56c8 0 14 -6 14 -14s-6 -14 -14 -14h-143c-8 0 -14 6 -14 14s6 14 14 14h49l397 617h-72c-8 0 -14 6 -14 14s6 14 14 14h438c8 0 14 -6 14 -14v-85c0 -8 -6 -14 -14 -14s-14 6 -14 14zM235 243h235v368z" />
<glyph unicode="&#xc7;" horiz-adv-x="632" d="M380 -41c49 0 80 -23 80 -67c0 -41 -31 -71 -88 -71c-28 0 -51 9 -61 18c-3 3 -4 7 -4 10c0 7 4 12 10 12c3 0 5 -1 8 -3c11 -7 25 -14 47 -14c41 0 62 16 62 48c0 35 -26 45 -54 45c-20 0 -31 -6 -37 -6s-11 5 -11 11l2 46c-172 11 -274 115 -274 348 c0 237 115 351 308 351c95 0 177 -41 222 -104c2 -3 4 -7 4 -11c0 -8 -6 -14 -14 -14c-4 0 -8 1 -12 6c-40 54 -113 95 -200 95c-176 0 -276 -101 -276 -323c0 -235 100 -322 276 -322c76 0 153 30 200 93c4 5 8 6 12 6c8 0 14 -6 14 -14c0 -2 -1 -6 -3 -9 c-43 -65 -130 -104 -223 -104h-14l-3 -31s13 4 29 4z" />
<glyph unicode="&#xb8;" horiz-adv-x="333" d="M148 -41c49 0 80 -23 80 -67c0 -41 -31 -71 -88 -71c-28 0 -51 9 -61 18c-3 3 -4 7 -4 10c0 7 4 12 10 12c3 0 5 -1 8 -3c11 -7 25 -14 47 -14c41 0 62 16 62 48c0 35 -26 45 -54 45c-20 0 -31 -6 -37 -6s-11 5 -11 11l3 58h20l-4 -45s13 4 29 4z" />
<glyph unicode="&#x106;" horiz-adv-x="632" d="M591 90c-43 -65 -130 -104 -223 -104c-193 0 -308 103 -308 350c0 237 115 351 308 351c95 0 177 -41 222 -104c2 -3 4 -7 4 -11c0 -8 -6 -14 -14 -14c-4 0 -8 1 -12 6c-40 54 -113 95 -200 95c-176 0 -276 -101 -276 -323c0 -235 100 -322 276 -322c76 0 153 30 200 93 c4 5 8 6 12 6c8 0 14 -6 14 -14c0 -2 -1 -6 -3 -9zM428 860c6 7 14 8 22 1c7 -6 8 -15 1 -22l-104 -112c-6 -7 -12 -5 -16 -1c-5 5 -7 10 -2 16z" />
<glyph unicode="&#x108;" horiz-adv-x="632" d="M591 90c-43 -65 -130 -104 -223 -104c-193 0 -308 103 -308 350c0 237 115 351 308 351c95 0 177 -41 222 -104c2 -3 4 -7 4 -11c0 -8 -6 -14 -14 -14c-4 0 -8 1 -12 6c-40 54 -113 95 -200 95c-176 0 -276 -101 -276 -323c0 -235 100 -322 276 -322c76 0 153 30 200 93 c4 5 8 6 12 6c8 0 14 -6 14 -14c0 -2 -1 -6 -3 -9zM460 728l-93 84l-93 -84c-2 -2 -5 -4 -9 -4c-7 0 -13 6 -13 13c0 5 3 8 5 10l99 89c3 3 7 5 11 5s8 -2 11 -5l99 -89c2 -2 5 -5 5 -10c0 -7 -6 -13 -13 -13c-4 0 -7 2 -9 4z" />
<glyph unicode="&#x10a;" horiz-adv-x="632" d="M591 90c-43 -65 -130 -104 -223 -104c-193 0 -308 103 -308 350c0 237 115 351 308 351c95 0 177 -41 222 -104c2 -3 4 -7 4 -11c0 -8 -6 -14 -14 -14c-4 0 -8 1 -12 6c-40 54 -113 95 -200 95c-176 0 -276 -101 -276 -323c0 -235 100 -322 276 -322c76 0 153 30 200 93 c4 5 8 6 12 6c8 0 14 -6 14 -14c0 -2 -1 -6 -3 -9zM380 765c0 -15 -8 -22 -22 -22s-22 7 -22 22c0 16 8 23 22 23s22 -7 22 -23z" />
<glyph unicode="&#x2d9;" horiz-adv-x="314" d="M179 574c0 -15 -8 -22 -22 -22s-22 7 -22 22c0 16 8 23 22 23s22 -7 22 -23z" />
<glyph unicode="&#x10c;" horiz-adv-x="632" d="M591 90c-43 -65 -130 -104 -223 -104c-193 0 -308 103 -308 350c0 237 115 351 308 351c95 0 177 -41 222 -104c2 -3 4 -7 4 -11c0 -8 -6 -14 -14 -14c-4 0 -8 1 -12 6c-40 54 -113 95 -200 95c-176 0 -276 -101 -276 -323c0 -235 100 -322 276 -322c76 0 153 30 200 93 c4 5 8 6 12 6c8 0 14 -6 14 -14c0 -2 -1 -6 -3 -9zM274 860l93 -84l93 84c2 2 5 4 9 4c7 0 13 -6 13 -13c0 -5 -3 -8 -5 -10l-99 -89c-3 -3 -7 -5 -11 -5s-8 2 -11 5l-99 89c-2 2 -5 5 -5 10c0 7 6 13 13 13c4 0 7 -2 9 -4z" />
<glyph unicode="&#x2c7;" horiz-adv-x="338" d="M68 640l93 -84l93 84c2 2 5 4 9 4c7 0 13 -6 13 -13c0 -5 -3 -8 -5 -10l-99 -89c-3 -3 -7 -5 -11 -5s-8 2 -11 5l-99 89c-2 2 -5 5 -5 10c0 7 6 13 13 13c4 0 7 -2 9 -4z" />
<glyph unicode="&#x10e;" horiz-adv-x="662" d="M73 673h220c191 0 308 -90 308 -337s-117 -336 -308 -336h-220c-8 0 -14 6 -14 14s6 14 14 14h55v617h-55c-8 0 -14 6 -14 14s6 14 14 14zM160 645v-617h133c170 0 276 73 276 308c0 233 -106 309 -276 309h-133zM166 860l93 -84l93 84c2 2 5 4 9 4c7 0 13 -6 13 -13 c0 -5 -3 -8 -5 -10l-99 -89c-3 -3 -7 -5 -11 -5s-8 2 -11 5l-99 89c-2 2 -5 5 -5 10c0 7 6 13 13 13c4 0 7 -2 9 -4z" />
<glyph unicode="&#x110;" horiz-adv-x="662" d="M74 673h220c191 0 308 -90 308 -337s-117 -336 -308 -336h-220c-8 0 -14 6 -14 14s6 14 14 14h55v308h-79c-7 0 -13 6 -13 13s6 13 13 13h79v283h-55c-8 0 -14 6 -14 14s6 14 14 14zM161 645v-283h177c7 0 13 -6 13 -13s-6 -13 -13 -13h-177v-308h133 c170 0 276 73 276 308c0 233 -106 309 -276 309h-133z" />
<glyph unicode="&#xd0;" horiz-adv-x="662" d="M74 673h220c191 0 308 -90 308 -337s-117 -336 -308 -336h-220c-8 0 -14 6 -14 14s6 14 14 14h55v308h-79c-7 0 -13 6 -13 13s6 13 13 13h79v283h-55c-8 0 -14 6 -14 14s6 14 14 14zM161 645v-283h177c7 0 13 -6 13 -13s-6 -13 -13 -13h-177v-308h133 c170 0 276 73 276 308c0 233 -106 309 -276 309h-133z" />
<glyph unicode="&#xc8;" d="M469 574v71h-309v-292h252c8 0 14 -6 14 -14s-6 -14 -14 -14h-252v-297h321v81c0 8 6 14 14 14s14 -6 14 -14v-95c0 -8 -6 -14 -14 -14h-422c-8 0 -14 6 -14 14s6 14 14 14h55v617h-55c-8 0 -14 6 -14 14s6 14 14 14h410c7 0 14 -6 14 -14v-85c0 -8 -6 -14 -14 -14 s-14 6 -14 14zM253 839c-7 7 -6 16 1 22c8 7 16 6 22 -1l99 -118c5 -6 3 -11 -2 -16c-4 -4 -10 -6 -16 1z" />
<glyph unicode="&#xc9;" d="M469 574v71h-309v-292h252c8 0 14 -6 14 -14s-6 -14 -14 -14h-252v-297h321v81c0 8 6 14 14 14s14 -6 14 -14v-95c0 -8 -6 -14 -14 -14h-422c-8 0 -14 6 -14 14s6 14 14 14h55v617h-55c-8 0 -14 6 -14 14s6 14 14 14h410c7 0 14 -6 14 -14v-85c0 -8 -6 -14 -14 -14 s-14 6 -14 14zM369 860c6 7 14 8 22 1c7 -6 8 -15 1 -22l-104 -112c-6 -7 -12 -5 -16 -1c-5 5 -7 10 -2 16z" />
<glyph unicode="&#xca;" d="M469 574v71h-309v-292h252c8 0 14 -6 14 -14s-6 -14 -14 -14h-252v-297h321v81c0 8 6 14 14 14s14 -6 14 -14v-95c0 -8 -6 -14 -14 -14h-422c-8 0 -14 6 -14 14s6 14 14 14h55v617h-55c-8 0 -14 6 -14 14s6 14 14 14h410c7 0 14 -6 14 -14v-85c0 -8 -6 -14 -14 -14 s-14 6 -14 14zM412 728l-93 84l-93 -84c-2 -2 -5 -4 -9 -4c-7 0 -13 6 -13 13c0 5 3 8 5 10l99 89c3 3 7 5 11 5s8 -2 11 -5l99 -89c2 -2 5 -5 5 -10c0 -7 -6 -13 -13 -13c-4 0 -7 2 -9 4z" />
<glyph unicode="&#xcb;" d="M469 574v71h-309v-292h252c8 0 14 -6 14 -14s-6 -14 -14 -14h-252v-297h321v81c0 8 6 14 14 14s14 -6 14 -14v-95c0 -8 -6 -14 -14 -14h-422c-8 0 -14 6 -14 14s6 14 14 14h55v617h-55c-8 0 -14 6 -14 14s6 14 14 14h410c7 0 14 -6 14 -14v-85c0 -8 -6 -14 -14 -14 s-14 6 -14 14zM262 772c0 -16 -7 -23 -22 -23s-22 7 -22 23s7 23 22 23s22 -7 22 -23zM422 772c0 -16 -7 -23 -22 -23s-22 7 -22 23s7 23 22 23s22 -7 22 -23z" />
<glyph unicode="&#x112;" d="M469 574v71h-309v-292h252c8 0 14 -6 14 -14s-6 -14 -14 -14h-252v-297h321v81c0 8 6 14 14 14s14 -6 14 -14v-95c0 -8 -6 -14 -14 -14h-422c-8 0 -14 6 -14 14s6 14 14 14h55v617h-55c-8 0 -14 6 -14 14s6 14 14 14h410c7 0 14 -6 14 -14v-85c0 -8 -6 -14 -14 -14 s-14 6 -14 14zM433 772c6 0 12 -5 12 -12c0 -6 -6 -12 -12 -12h-212c-6 0 -12 6 -12 12c0 7 6 12 12 12h212z" />
<glyph unicode="&#x114;" d="M469 574v71h-309v-292h252c8 0 14 -6 14 -14s-6 -14 -14 -14h-252v-297h321v81c0 8 6 14 14 14s14 -6 14 -14v-95c0 -8 -6 -14 -14 -14h-422c-8 0 -14 6 -14 14s6 14 14 14h55v617h-55c-8 0 -14 6 -14 14s6 14 14 14h410c7 0 14 -6 14 -14v-85c0 -8 -6 -14 -14 -14 s-14 6 -14 14zM432 826c0 -70 -50 -96 -105 -96s-105 26 -105 96c0 7 6 13 13 13s13 -6 13 -13c0 -49 27 -72 79 -72s79 23 79 72c0 7 6 13 13 13s13 -6 13 -13z" />
<glyph unicode="&#x116;" d="M469 574v71h-309v-292h252c8 0 14 -6 14 -14s-6 -14 -14 -14h-252v-297h321v81c0 8 6 14 14 14s14 -6 14 -14v-95c0 -8 -6 -14 -14 -14h-422c-8 0 -14 6 -14 14s6 14 14 14h55v617h-55c-8 0 -14 6 -14 14s6 14 14 14h410c7 0 14 -6 14 -14v-85c0 -8 -6 -14 -14 -14 s-14 6 -14 14zM341 766c0 -15 -8 -22 -22 -22s-22 7 -22 22c0 16 8 23 22 23s22 -7 22 -23z" />
<glyph unicode="&#x118;" d="M491 -146c2 1 4 2 7 2c6 0 11 -5 11 -11c0 -5 -3 -8 -6 -10c-16 -9 -36 -14 -59 -14c-66 0 -88 35 -88 73c0 48 29 87 78 106h-361c-8 0 -14 6 -14 14s6 14 14 14h55v617h-55c-8 0 -14 6 -14 14s6 14 14 14h410c7 0 14 -6 14 -14v-85c0 -8 -6 -14 -14 -14s-14 6 -14 14 v71h-309v-292h252c8 0 14 -6 14 -14s-6 -14 -14 -14h-252v-297h321v81c0 8 6 14 14 14s14 -6 14 -14v-95c0 -8 -6 -14 -14 -14h-29c-58 -29 -84 -62 -84 -102c0 -29 15 -53 64 -53c22 0 32 3 45 9z" />
<glyph unicode="&#x11a;" d="M469 574v71h-309v-292h252c8 0 14 -6 14 -14s-6 -14 -14 -14h-252v-297h321v81c0 8 6 14 14 14s14 -6 14 -14v-95c0 -8 -6 -14 -14 -14h-422c-8 0 -14 6 -14 14s6 14 14 14h55v617h-55c-8 0 -14 6 -14 14s6 14 14 14h410c7 0 14 -6 14 -14v-85c0 -8 -6 -14 -14 -14 s-14 6 -14 14zM231 837l93 -84l93 84c2 2 5 4 9 4c7 0 13 -6 13 -13c0 -5 -3 -8 -5 -10l-99 -89c-3 -3 -7 -5 -11 -5s-8 2 -11 5l-99 89c-2 2 -5 5 -5 10c0 7 6 13 13 13c4 0 7 -2 9 -4z" />
<glyph unicode="&#x11c;" horiz-adv-x="678" d="M93 336c0 -235 100 -322 276 -322c108 0 183 49 220 98v175h-196c-8 0 -14 6 -14 14s6 14 14 14h212c7 0 14 -6 14 -13v-185c0 -8 -3 -15 -9 -22c-48 -56 -118 -109 -241 -109c-193 0 -308 103 -308 350s115 351 308 351c95 0 177 -41 222 -104c2 -3 4 -7 4 -11 c0 -8 -6 -14 -14 -14c-4 0 -8 1 -12 6c-40 54 -113 95 -200 95c-173 0 -276 -90 -276 -323zM461 728l-93 84l-93 -84c-2 -2 -5 -4 -9 -4c-7 0 -13 6 -13 13c0 5 3 8 5 10l99 89c3 3 7 5 11 5s8 -2 11 -5l99 -89c2 -2 5 -5 5 -10c0 -7 -6 -13 -13 -13c-4 0 -7 2 -9 4z" />
<glyph unicode="&#x11e;" horiz-adv-x="678" d="M93 336c0 -235 100 -322 276 -322c108 0 183 49 220 98v175h-196c-8 0 -14 6 -14 14s6 14 14 14h212c7 0 14 -6 14 -13v-185c0 -8 -3 -15 -9 -22c-48 -56 -118 -109 -241 -109c-193 0 -308 103 -308 350s115 351 308 351c95 0 177 -41 222 -104c2 -3 4 -7 4 -11 c0 -8 -6 -14 -14 -14c-4 0 -8 1 -12 6c-40 54 -113 95 -200 95c-173 0 -276 -90 -276 -323zM470 826c0 -70 -50 -96 -105 -96s-105 26 -105 96c0 7 6 13 13 13s13 -6 13 -13c0 -49 27 -72 79 -72s79 23 79 72c0 7 6 13 13 13s13 -6 13 -13z" />
<glyph unicode="&#x120;" horiz-adv-x="678" d="M93 336c0 -235 100 -322 276 -322c108 0 183 49 220 98v175h-196c-8 0 -14 6 -14 14s6 14 14 14h212c7 0 14 -6 14 -13v-185c0 -8 -3 -15 -9 -22c-48 -56 -118 -109 -241 -109c-193 0 -308 103 -308 350s115 351 308 351c95 0 177 -41 222 -104c2 -3 4 -7 4 -11 c0 -8 -6 -14 -14 -14c-4 0 -8 1 -12 6c-40 54 -113 95 -200 95c-173 0 -276 -90 -276 -323zM381 766c0 -15 -8 -22 -22 -22s-22 7 -22 22c0 16 8 23 22 23s22 -7 22 -23z" />
<glyph unicode="&#x122;" horiz-adv-x="678" d="M93 336c0 -235 100 -322 276 -322c108 0 183 49 220 98v175h-196c-8 0 -14 6 -14 14s6 14 14 14h212c7 0 14 -6 14 -13v-185c0 -8 -3 -15 -9 -22c-48 -56 -118 -109 -241 -109c-193 0 -308 103 -308 350s115 351 308 351c95 0 177 -41 222 -104c2 -3 4 -7 4 -11 c0 -8 -6 -14 -14 -14c-4 0 -8 1 -12 6c-40 54 -113 95 -200 95c-173 0 -276 -90 -276 -323zM337 -70c0 14 8 26 28 26c17 0 27 -12 27 -30c0 -41 -18 -80 -34 -100c-3 -4 -7 -6 -12 -6c-6 0 -11 5 -11 11c0 4 1 6 3 9c16 24 20 38 20 62c-14 3 -21 13 -21 28z" />
<glyph unicode="&#xf6c3;" horiz-adv-x="141" d="M43 -70c0 14 8 26 28 26c17 0 27 -12 27 -30c0 -41 -18 -80 -34 -100c-3 -4 -7 -6 -12 -6c-6 0 -11 5 -11 11c0 4 1 6 3 9c16 24 20 38 20 62c-14 3 -21 13 -21 28z" />
<glyph unicode="&#x124;" horiz-adv-x="720" d="M505 28h55v303h-400v-303h55c8 0 14 -6 14 -14s-6 -14 -14 -14h-142c-8 0 -14 6 -14 14s6 14 14 14h55v617h-55c-8 0 -14 6 -14 14s6 14 14 14h142c8 0 14 -6 14 -14s-6 -14 -14 -14h-55v-285h400v285h-55c-8 0 -14 6 -14 14s6 14 14 14h142c8 0 14 -6 14 -14 s-6 -14 -14 -14h-55v-617h55c8 0 14 -6 14 -14s-6 -14 -14 -14h-142c-8 0 -14 6 -14 14s6 14 14 14zM454 728l-93 84l-93 -84c-2 -2 -5 -4 -9 -4c-7 0 -13 6 -13 13c0 5 3 8 5 10l99 89c3 3 7 5 11 5s8 -2 11 -5l99 -89c2 -2 5 -5 5 -10c0 -7 -6 -13 -13 -13c-4 0 -7 2 -9 4 z" />
<glyph unicode="&#x126;" horiz-adv-x="720" d="M505 28h55v303h-400v-303h55c8 0 14 -6 14 -14s-6 -14 -14 -14h-142c-8 0 -14 6 -14 14s6 14 14 14h55v447h-56c-7 0 -13 6 -13 13s6 13 13 13h56v144h-55c-8 0 -14 6 -14 14s6 14 14 14h142c8 0 14 -6 14 -14s-6 -14 -14 -14h-55v-144h400v144h-55c-8 0 -14 6 -14 14 s6 14 14 14h142c8 0 14 -6 14 -14s-6 -14 -14 -14h-55v-144h51c7 0 13 -6 13 -13s-6 -13 -13 -13h-51v-447h55c8 0 14 -6 14 -14s-6 -14 -14 -14h-142c-8 0 -14 6 -14 14s6 14 14 14zM160 360h400v115h-400v-115z" />
<glyph unicode="&#xcc;" horiz-adv-x="288" d="M73 673h142c8 0 14 -6 14 -14s-6 -14 -14 -14h-55v-617h55c8 0 14 -6 14 -14s-6 -14 -14 -14h-142c-8 0 -14 6 -14 14s6 14 14 14h55v617h-55c-8 0 -14 6 -14 14s6 14 14 14zM69 839c-7 7 -6 16 1 22c8 7 16 6 22 -1l99 -118c5 -6 3 -11 -2 -16c-4 -4 -10 -6 -16 1z" />
<glyph unicode="&#xcd;" horiz-adv-x="288" d="M73 673h142c8 0 14 -6 14 -14s-6 -14 -14 -14h-55v-617h55c8 0 14 -6 14 -14s-6 -14 -14 -14h-142c-8 0 -14 6 -14 14s6 14 14 14h55v617h-55c-8 0 -14 6 -14 14s6 14 14 14zM202 860c6 7 14 8 22 1c7 -6 8 -15 1 -22l-104 -112c-6 -7 -12 -5 -16 -1c-5 5 -7 10 -2 16z " />
<glyph unicode="&#xce;" horiz-adv-x="288" d="M73 673h142c8 0 14 -6 14 -14s-6 -14 -14 -14h-55v-617h55c8 0 14 -6 14 -14s-6 -14 -14 -14h-142c-8 0 -14 6 -14 14s6 14 14 14h55v617h-55c-8 0 -14 6 -14 14s6 14 14 14zM236 727l-93 84l-93 -84c-2 -2 -5 -4 -9 -4c-7 0 -13 6 -13 13c0 5 3 8 5 10l99 89 c3 3 7 5 11 5s8 -2 11 -5l99 -89c2 -2 5 -5 5 -10c0 -7 -6 -13 -13 -13c-4 0 -7 2 -9 4z" />
<glyph unicode="&#xcf;" horiz-adv-x="288" d="M73 673h142c8 0 14 -6 14 -14s-6 -14 -14 -14h-55v-617h55c8 0 14 -6 14 -14s-6 -14 -14 -14h-142c-8 0 -14 6 -14 14s6 14 14 14h55v617h-55c-8 0 -14 6 -14 14s6 14 14 14zM85 772c0 -16 -7 -23 -22 -23s-22 7 -22 23s7 23 22 23s22 -7 22 -23zM245 772 c0 -16 -7 -23 -22 -23s-22 7 -22 23s7 23 22 23s22 -7 22 -23z" />
<glyph unicode="&#x128;" horiz-adv-x="288" d="M73 673h142c8 0 14 -6 14 -14s-6 -14 -14 -14h-55v-617h55c8 0 14 -6 14 -14s-6 -14 -14 -14h-142c-8 0 -14 6 -14 14s6 14 14 14h55v617h-55c-8 0 -14 6 -14 14s6 14 14 14zM283 782c-8 -18 -31 -46 -73 -46c-57 0 -83 42 -132 42c-31 0 -45 -15 -53 -34 c-2 -5 -7 -8 -12 -8c-7 0 -13 6 -13 13c0 3 1 6 2 8c9 20 32 46 76 46c57 0 83 -42 132 -42c26 0 44 13 51 34c2 5 7 8 12 8c6 0 12 -6 12 -13c0 -3 -1 -6 -2 -8z" />
<glyph unicode="&#x12a;" horiz-adv-x="288" d="M73 673h142c8 0 14 -6 14 -14s-6 -14 -14 -14h-55v-617h55c8 0 14 -6 14 -14s-6 -14 -14 -14h-142c-8 0 -14 6 -14 14s6 14 14 14h55v617h-55c-8 0 -14 6 -14 14s6 14 14 14zM248 772c6 0 12 -5 12 -12c0 -6 -6 -12 -12 -12h-212c-6 0 -12 6 -12 12c0 7 6 12 12 12h212z " />
<glyph unicode="&#x12c;" horiz-adv-x="288" d="M73 673h142c8 0 14 -6 14 -14s-6 -14 -14 -14h-55v-617h55c8 0 14 -6 14 -14s-6 -14 -14 -14h-142c-8 0 -14 6 -14 14s6 14 14 14h55v617h-55c-8 0 -14 6 -14 14s6 14 14 14zM248 826c0 -70 -50 -96 -105 -96s-105 26 -105 96c0 7 6 13 13 13s13 -6 13 -13 c0 -49 27 -72 79 -72s79 23 79 72c0 7 6 13 13 13s13 -6 13 -13z" />
<glyph unicode="&#x12e;" horiz-adv-x="288" d="M211 -146c2 1 4 2 7 2c6 0 11 -5 11 -11c0 -5 -3 -8 -6 -10c-16 -9 -36 -14 -59 -14c-66 0 -88 35 -88 73c0 48 29 87 78 106h-81c-8 0 -14 6 -14 14s6 14 14 14h55v617h-55c-8 0 -14 6 -14 14s6 14 14 14h142c8 0 14 -6 14 -14s-6 -14 -14 -14h-55v-617h55 c8 0 14 -6 14 -14s-6 -14 -14 -14h-29c-58 -29 -84 -62 -84 -102c0 -29 15 -53 64 -53c22 0 32 3 45 9z" />
<glyph unicode="&#x130;" horiz-adv-x="288" d="M73 673h142c8 0 14 -6 14 -14s-6 -14 -14 -14h-55v-617h55c8 0 14 -6 14 -14s-6 -14 -14 -14h-142c-8 0 -14 6 -14 14s6 14 14 14h55v617h-55c-8 0 -14 6 -14 14s6 14 14 14zM166 766c0 -15 -8 -22 -22 -22s-22 7 -22 22c0 16 8 23 22 23s22 -7 22 -23z" />
<glyph unicode="&#x134;" horiz-adv-x="431" d="M212 673h160c8 0 14 -6 14 -14s-6 -14 -14 -14h-55v-450c0 -118 -49 -209 -181 -209c-37 0 -81 9 -107 23c-5 3 -8 7 -8 13c0 8 7 15 15 15c4 0 6 -1 12 -4c27 -14 57 -19 88 -19c107 0 149 77 149 181v450h-73c-8 0 -14 6 -14 14s6 14 14 14zM387 727l-93 84l-93 -84 c-2 -2 -5 -4 -9 -4c-7 0 -13 6 -13 13c0 5 3 8 5 10l99 89c3 3 7 5 11 5s8 -2 11 -5l99 -89c2 -2 5 -5 5 -10c0 -7 -6 -13 -13 -13c-4 0 -7 2 -9 4z" />
<glyph unicode="&#x136;" horiz-adv-x="623" d="M423 673h175c8 0 14 -6 14 -14s-6 -14 -14 -14h-77l-224 -253l259 -364h62c8 0 14 -6 14 -14s-6 -14 -14 -14h-72c-10 0 -15 6 -18 10l-251 357l-117 -130v-209h55c8 0 14 -6 14 -14s-6 -14 -14 -14h-142c-8 0 -14 6 -14 14s6 14 14 14h55v617h-55c-8 0 -14 6 -14 14 s6 14 14 14h142c8 0 14 -6 14 -14s-6 -14 -14 -14h-55v-363l317 363h-54c-8 0 -14 6 -14 14s6 14 14 14zM308 -70c0 14 8 26 28 26c17 0 27 -12 27 -30c0 -41 -18 -80 -34 -100c-3 -4 -7 -6 -12 -6c-6 0 -11 5 -11 11c0 4 1 6 3 9c16 24 20 38 20 62c-14 3 -21 13 -21 28z " />
<glyph unicode="&#x139;" horiz-adv-x="520" d="M160 28h297v81c0 8 6 14 14 14s14 -6 14 -14v-95c0 -9 -7 -14 -14 -14h-398c-8 0 -14 6 -14 14s6 14 14 14h55v617h-55c-8 0 -14 6 -14 14s6 14 14 14h142c8 0 14 -6 14 -14s-6 -14 -14 -14h-55v-617zM220 860c6 7 14 8 22 1c7 -6 8 -15 1 -22l-104 -112 c-6 -7 -12 -5 -16 -1c-5 5 -7 10 -2 16z" />
<glyph unicode="&#x13b;" horiz-adv-x="520" d="M160 28h297v81c0 8 6 14 14 14s14 -6 14 -14v-95c0 -9 -7 -14 -14 -14h-398c-8 0 -14 6 -14 14s6 14 14 14h55v617h-55c-8 0 -14 6 -14 14s6 14 14 14h142c8 0 14 -6 14 -14s-6 -14 -14 -14h-55v-617zM284 -70c0 14 8 26 28 26c17 0 27 -12 27 -30 c0 -41 -18 -80 -34 -100c-3 -4 -7 -6 -12 -6c-6 0 -11 5 -11 11c0 4 1 6 3 9c16 24 20 38 20 62c-14 3 -21 13 -21 28z" />
<glyph unicode="&#x13d;" horiz-adv-x="520" d="M160 28h297v81c0 8 6 14 14 14s14 -6 14 -14v-95c0 -9 -7 -14 -14 -14h-398c-8 0 -14 6 -14 14s6 14 14 14h55v617h-55c-8 0 -14 6 -14 14s6 14 14 14h142c8 0 14 -6 14 -14s-6 -14 -14 -14h-55v-617zM351 681h5c10 0 18 -5 17 -17l-13 -123c0 -5 -4 -8 -9 -8 c-6 0 -10 3 -10 8l-7 123c-1 12 6 17 17 17z" />
<glyph unicode="&#x2019;" horiz-adv-x="174" d="M92 681c18 0 26 -12 26 -30c0 -46 -14 -91 -31 -112c-4 -5 -7 -6 -11 -6c-5 0 -10 4 -10 9c0 3 1 6 4 11c13 22 20 45 20 70c-16 4 -24 15 -24 32c0 14 7 26 26 26z" />
<glyph unicode="&#x13f;" horiz-adv-x="522" d="M160 28h297v81c0 8 6 14 14 14s14 -6 14 -14v-95c0 -9 -7 -14 -14 -14h-398c-8 0 -14 6 -14 14s6 14 14 14h55v617h-55c-8 0 -14 6 -14 14s6 14 14 14h142c8 0 14 -6 14 -14s-6 -14 -14 -14h-55v-617zM450 344c0 -20 -11 -29 -30 -29c-18 0 -29 9 -29 29 c0 21 11 31 29 31c19 0 30 -10 30 -31z" />
<glyph unicode="&#xb7;" horiz-adv-x="207" d="M133 300c0 -20 -11 -29 -30 -29c-18 0 -29 9 -29 29c0 21 11 31 29 31c19 0 30 -10 30 -31z" />
<glyph unicode="&#x141;" horiz-adv-x="520" d="M160 28h297v81c0 8 6 14 14 14s14 -6 14 -14v-95c0 -9 -7 -14 -14 -14h-398c-8 0 -14 6 -14 14s6 14 14 14h55v256l-66 -23c-2 -1 -5 -1 -5 -1c-7 0 -12 5 -12 12c0 6 3 10 7 11l76 27v335h-55c-8 0 -14 6 -14 14s6 14 14 14h142c8 0 14 -6 14 -14s-6 -14 -14 -14h-55 v-324l210 74c2 1 4 2 7 2c7 0 12 -5 12 -12c0 -6 -3 -10 -7 -11l-222 -78v-268z" />
<glyph unicode="&#xd1;" horiz-adv-x="711" d="M73 673h75c7 0 10 -3 12 -6l399 -612v590h-55c-8 0 -14 6 -14 14s6 14 14 14h140c8 0 14 -6 14 -14s-6 -14 -14 -14h-55v-637c0 -9 -7 -16 -16 -16c-7 0 -11 3 -15 9l-400 616v-589h55c8 0 14 -6 14 -14s-6 -14 -14 -14h-140c-8 0 -14 6 -14 14s6 14 14 14h55v617h-55 c-8 0 -14 6 -14 14s6 14 14 14zM510 782c-8 -18 -31 -46 -73 -46c-57 0 -83 42 -132 42c-31 0 -45 -15 -53 -34c-2 -5 -7 -8 -12 -8c-7 0 -13 6 -13 13c0 3 1 6 2 8c9 20 32 46 76 46c57 0 83 -42 132 -42c26 0 44 13 51 34c2 5 7 8 12 8c6 0 12 -6 12 -13c0 -3 -1 -6 -2 -8 z" />
<glyph unicode="&#x143;" horiz-adv-x="711" d="M73 673h75c7 0 10 -3 12 -6l399 -612v590h-55c-8 0 -14 6 -14 14s6 14 14 14h140c8 0 14 -6 14 -14s-6 -14 -14 -14h-55v-637c0 -9 -7 -16 -16 -16c-7 0 -11 3 -15 9l-400 616v-589h55c8 0 14 -6 14 -14s-6 -14 -14 -14h-140c-8 0 -14 6 -14 14s6 14 14 14h55v617h-55 c-8 0 -14 6 -14 14s6 14 14 14zM425 860c6 7 14 8 22 1c7 -6 8 -15 1 -22l-104 -112c-6 -7 -12 -5 -16 -1c-5 5 -7 10 -2 16z" />
<glyph unicode="&#x145;" horiz-adv-x="711" d="M73 673h75c7 0 10 -3 12 -6l399 -612v590h-55c-8 0 -14 6 -14 14s6 14 14 14h140c8 0 14 -6 14 -14s-6 -14 -14 -14h-55v-637c0 -9 -7 -16 -16 -16c-7 0 -11 3 -15 9l-400 616v-589h55c8 0 14 -6 14 -14s-6 -14 -14 -14h-140c-8 0 -14 6 -14 14s6 14 14 14h55v617h-55 c-8 0 -14 6 -14 14s6 14 14 14zM328 -70c0 14 8 26 28 26c17 0 27 -12 27 -30c0 -41 -18 -80 -34 -100c-3 -4 -7 -6 -12 -6c-6 0 -11 5 -11 11c0 4 1 6 3 9c16 24 20 38 20 62c-14 3 -21 13 -21 28z" />
<glyph unicode="&#x147;" horiz-adv-x="711" d="M73 673h75c7 0 10 -3 12 -6l399 -612v590h-55c-8 0 -14 6 -14 14s6 14 14 14h140c8 0 14 -6 14 -14s-6 -14 -14 -14h-55v-637c0 -9 -7 -16 -16 -16c-7 0 -11 3 -15 9l-400 616v-589h55c8 0 14 -6 14 -14s-6 -14 -14 -14h-140c-8 0 -14 6 -14 14s6 14 14 14h55v617h-55 c-8 0 -14 6 -14 14s6 14 14 14zM274 837l93 -84l93 84c2 2 5 4 9 4c7 0 13 -6 13 -13c0 -5 -3 -8 -5 -10l-99 -89c-3 -3 -7 -5 -11 -5s-8 2 -11 5l-99 89c-2 2 -5 5 -5 10c0 7 6 13 13 13c4 0 7 -2 9 -4z" />
<glyph unicode="&#x14a;" horiz-adv-x="711" d="M73 673h75c7 0 10 -3 12 -6l399 -612v590h-55c-8 0 -14 6 -14 14s6 14 14 14h140c8 0 14 -6 14 -14s-6 -14 -14 -14h-55v-639c0 -118 -80 -207 -214 -207c-8 0 -14 6 -14 14s6 14 14 14c116 0 184 81 185 171l-402 619v-589h55c8 0 14 -6 14 -14s-6 -14 -14 -14h-140 c-8 0 -14 6 -14 14s6 14 14 14h55v617h-55c-8 0 -14 6 -14 14s6 14 14 14z" />
<glyph unicode="&#xd2;" horiz-adv-x="736" d="M676 336c0 -236 -115 -350 -308 -350s-308 114 -308 350c0 237 115 351 308 351s308 -114 308 -351zM644 336c0 222 -100 323 -276 323s-276 -101 -276 -323c0 -221 100 -322 276 -322s276 101 276 322zM278 843c-7 7 -6 16 1 22c8 7 16 6 22 -1l99 -118 c5 -6 3 -11 -2 -16c-4 -4 -10 -6 -16 1z" />
<glyph unicode="&#xd3;" horiz-adv-x="736" d="M676 336c0 -236 -115 -350 -308 -350s-308 114 -308 350c0 237 115 351 308 351s308 -114 308 -351zM644 336c0 222 -100 323 -276 323s-276 -101 -276 -323c0 -221 100 -322 276 -322s276 101 276 322zM428 860c6 7 14 8 22 1c7 -6 8 -15 1 -22l-104 -112 c-6 -7 -12 -5 -16 -1c-5 5 -7 10 -2 16z" />
<glyph unicode="&#xd4;" horiz-adv-x="736" d="M676 336c0 -236 -115 -350 -308 -350s-308 114 -308 350c0 237 115 351 308 351s308 -114 308 -351zM644 336c0 222 -100 323 -276 323s-276 -101 -276 -323c0 -221 100 -322 276 -322s276 101 276 322zM461 728l-93 84l-93 -84c-2 -2 -5 -4 -9 -4c-7 0 -13 6 -13 13 c0 5 3 8 5 10l99 89c3 3 7 5 11 5s8 -2 11 -5l99 -89c2 -2 5 -5 5 -10c0 -7 -6 -13 -13 -13c-4 0 -7 2 -9 4z" />
<glyph unicode="&#xd5;" horiz-adv-x="736" d="M676 336c0 -236 -115 -350 -308 -350s-308 114 -308 350c0 237 115 351 308 351s308 -114 308 -351zM644 336c0 222 -100 323 -276 323s-276 -101 -276 -323c0 -221 100 -322 276 -322s276 101 276 322zM509 782c-8 -18 -31 -46 -73 -46c-57 0 -83 42 -132 42 c-31 0 -45 -15 -53 -34c-2 -5 -7 -8 -12 -8c-7 0 -13 6 -13 13c0 3 1 6 2 8c9 20 32 46 76 46c57 0 83 -42 132 -42c26 0 44 13 51 34c2 5 7 8 12 8c6 0 12 -6 12 -13c0 -3 -1 -6 -2 -8z" />
<glyph unicode="&#xd6;" horiz-adv-x="736" d="M676 336c0 -236 -115 -350 -308 -350s-308 114 -308 350c0 237 115 351 308 351s308 -114 308 -351zM644 336c0 222 -100 323 -276 323s-276 -101 -276 -323c0 -221 100 -322 276 -322s276 101 276 322zM310 779c0 -16 -7 -23 -22 -23s-22 7 -22 23s7 23 22 23 s22 -7 22 -23zM470 779c0 -16 -7 -23 -22 -23s-22 7 -22 23s7 23 22 23s22 -7 22 -23z" />
<glyph unicode="&#x14c;" horiz-adv-x="736" d="M676 336c0 -236 -115 -350 -308 -350s-308 114 -308 350c0 237 115 351 308 351s308 -114 308 -351zM644 336c0 222 -100 323 -276 323s-276 -101 -276 -323c0 -221 100 -322 276 -322s276 101 276 322zM479 772c6 0 12 -5 12 -12c0 -6 -6 -12 -12 -12h-212 c-6 0 -12 6 -12 12c0 7 6 12 12 12h212z" />
<glyph unicode="&#x14e;" horiz-adv-x="736" d="M676 336c0 -236 -115 -350 -308 -350s-308 114 -308 350c0 237 115 351 308 351s308 -114 308 -351zM644 336c0 222 -100 323 -276 323s-276 -101 -276 -323c0 -221 100 -322 276 -322s276 101 276 322zM478 826c0 -70 -50 -96 -105 -96s-105 26 -105 96c0 7 6 13 13 13 s13 -6 13 -13c0 -49 27 -72 79 -72s79 23 79 72c0 7 6 13 13 13s13 -6 13 -13z" />
<glyph unicode="&#x150;" horiz-adv-x="736" d="M676 336c0 -236 -115 -350 -308 -350s-308 114 -308 350c0 237 115 351 308 351s308 -114 308 -351zM644 336c0 222 -100 323 -276 323s-276 -101 -276 -323c0 -221 100 -322 276 -322s276 101 276 322zM404 860c6 7 14 8 22 1c7 -6 8 -15 1 -22l-104 -112 c-6 -7 -12 -5 -16 -1c-5 5 -7 10 -2 16zM508 860c6 7 14 8 22 1c7 -6 8 -15 1 -22l-104 -112c-6 -7 -12 -5 -16 -1c-5 5 -7 10 -2 16z" />
<glyph unicode="&#x2dd;" horiz-adv-x="332" d="M151 656c6 7 14 8 22 1c7 -6 8 -15 1 -22l-104 -112c-6 -7 -12 -5 -16 -1c-5 5 -7 10 -2 16zM255 656c6 7 14 8 22 1c7 -6 8 -15 1 -22l-104 -112c-6 -7 -12 -5 -16 -1c-5 5 -7 10 -2 16z" />
<glyph unicode="&#xd8;" horiz-adv-x="741" d="M681 336c0 -236 -115 -350 -308 -350c-91 0 -164 25 -217 76l-64 -81c-3 -3 -6 -5 -13 -5s-13 6 -13 14c0 6 4 12 5 13l65 82c-46 58 -71 141 -71 251c0 237 115 351 308 351c79 0 145 -20 196 -59l50 64c3 4 8 5 12 5c8 0 14 -6 14 -13c0 -3 -1 -8 -3 -11l-51 -64 c58 -58 90 -149 90 -273zM649 336c0 114 -27 196 -77 249l-397 -500c47 -48 114 -71 198 -71c176 0 276 101 276 322zM97 336c0 -99 20 -174 58 -227l395 496c-45 36 -105 54 -177 54c-176 0 -276 -101 -276 -323z" />
<glyph unicode="&#x1fe;" horiz-adv-x="741" d="M433 860c6 7 14 8 22 1c7 -6 8 -15 1 -22l-104 -112c-6 -7 -12 -5 -16 -1c-5 5 -7 10 -2 16zM681 336c0 -236 -115 -350 -308 -350c-91 0 -164 25 -217 76l-64 -81c-3 -3 -6 -5 -13 -5s-13 6 -13 14c0 6 4 12 5 13l65 82c-46 58 -71 141 -71 251c0 237 115 351 308 351 c79 0 145 -20 196 -59l50 64c3 4 8 5 12 5c8 0 14 -6 14 -13c0 -3 -1 -8 -3 -11l-51 -64c58 -58 90 -149 90 -273zM649 336c0 114 -27 196 -77 249l-397 -500c47 -48 114 -71 198 -71c176 0 276 101 276 322zM97 336c0 -99 20 -174 58 -227l395 496c-45 36 -105 54 -177 54 c-176 0 -276 -101 -276 -323z" />
<glyph unicode="&#x154;" horiz-adv-x="608" d="M73 673h281c106 0 183 -81 183 -183s-72 -184 -180 -184h-24s166 -254 181 -278h61c8 0 14 -6 14 -14s-6 -14 -14 -14h-66c-8 0 -13 2 -17 8l-195 298h-137v-278h55c8 0 14 -6 14 -14s-6 -14 -14 -14h-142c-8 0 -14 6 -14 14s6 14 14 14h55v617h-55c-8 0 -14 6 -14 14 s6 14 14 14zM160 645v-310h197c87 0 148 67 148 155c0 89 -62 155 -151 155h-194zM361 860c6 7 14 8 22 1c7 -6 8 -15 1 -22l-104 -112c-6 -7 -12 -5 -16 -1c-5 5 -7 10 -2 16z" />
<glyph unicode="&#x156;" horiz-adv-x="608" d="M73 673h281c106 0 183 -81 183 -183s-72 -184 -180 -184h-24s166 -254 181 -278h61c8 0 14 -6 14 -14s-6 -14 -14 -14h-66c-8 0 -13 2 -17 8l-195 298h-137v-278h55c8 0 14 -6 14 -14s-6 -14 -14 -14h-142c-8 0 -14 6 -14 14s6 14 14 14h55v617h-55c-8 0 -14 6 -14 14 s6 14 14 14zM160 645v-310h197c87 0 148 67 148 155c0 89 -62 155 -151 155h-194zM298 -70c0 14 8 26 28 26c17 0 27 -12 27 -30c0 -41 -18 -80 -34 -100c-3 -4 -7 -6 -12 -6c-6 0 -11 5 -11 11c0 4 1 6 3 9c16 24 20 38 20 62c-14 3 -21 13 -21 28z" />
<glyph unicode="&#x158;" horiz-adv-x="608" d="M73 673h281c106 0 183 -81 183 -183s-72 -184 -180 -184h-24s166 -254 181 -278h61c8 0 14 -6 14 -14s-6 -14 -14 -14h-66c-8 0 -13 2 -17 8l-195 298h-137v-278h55c8 0 14 -6 14 -14s-6 -14 -14 -14h-142c-8 0 -14 6 -14 14s6 14 14 14h55v617h-55c-8 0 -14 6 -14 14 s6 14 14 14zM160 645v-310h197c87 0 148 67 148 155c0 89 -62 155 -151 155h-194zM210 860l93 -84l93 84c2 2 5 4 9 4c7 0 13 -6 13 -13c0 -5 -3 -8 -5 -10l-99 -89c-3 -3 -7 -5 -11 -5s-8 2 -11 5l-99 89c-2 2 -5 5 -5 10c0 7 6 13 13 13c4 0 7 -2 9 -4z" />
<glyph unicode="&#x15a;" horiz-adv-x="557" d="M476 564c-6 0 -9 2 -12 6c-34 45 -83 90 -185 90c-126 0 -173 -63 -173 -134c0 -198 398 -115 398 -354c0 -120 -83 -186 -233 -186c-115 0 -185 54 -228 121c-2 3 -3 6 -3 9c0 8 7 15 15 15c6 0 10 -3 13 -8c38 -60 102 -109 203 -109c130 0 201 51 201 158 c0 217 -398 123 -398 354c0 86 62 161 205 161c94 0 162 -36 209 -99c2 -3 3 -6 3 -9c0 -8 -7 -15 -15 -15zM359 860c6 7 14 8 22 1c7 -6 8 -15 1 -22l-104 -112c-6 -7 -12 -5 -16 -1c-5 5 -7 10 -2 16z" />
<glyph unicode="&#x15c;" horiz-adv-x="557" d="M476 564c-6 0 -9 2 -12 6c-34 45 -83 90 -185 90c-126 0 -173 -63 -173 -134c0 -198 398 -115 398 -354c0 -120 -83 -186 -233 -186c-115 0 -185 54 -228 121c-2 3 -3 6 -3 9c0 8 7 15 15 15c6 0 10 -3 13 -8c38 -60 102 -109 203 -109c130 0 201 51 201 158 c0 217 -398 123 -398 354c0 86 62 161 205 161c94 0 162 -36 209 -99c2 -3 3 -6 3 -9c0 -8 -7 -15 -15 -15zM384 723l-93 84l-93 -84c-2 -2 -5 -4 -9 -4c-7 0 -13 6 -13 13c0 5 3 8 5 10l99 89c3 3 7 5 11 5s8 -2 11 -5l99 -89c2 -2 5 -5 5 -10c0 -7 -6 -13 -13 -13 c-4 0 -7 2 -9 4z" />
<glyph unicode="&#x15e;" horiz-adv-x="557" d="M273 -41c49 0 80 -23 80 -67c0 -41 -31 -71 -88 -71c-28 0 -51 9 -61 18c-3 3 -4 7 -4 10c0 7 4 12 10 12c3 0 5 -1 8 -3c11 -7 25 -14 47 -14c41 0 62 16 62 48c0 35 -26 45 -54 45c-20 0 -31 -6 -37 -6s-11 5 -11 11l2 47c-89 12 -147 60 -184 118c-2 3 -3 6 -3 9 c0 8 7 15 15 15c6 0 10 -3 13 -8c38 -60 102 -109 203 -109c130 0 201 51 201 158c0 217 -398 123 -398 354c0 86 62 161 205 161c94 0 162 -36 209 -99c2 -3 3 -6 3 -9c0 -8 -7 -15 -15 -15c-6 0 -9 2 -12 6c-34 45 -83 90 -185 90c-126 0 -173 -63 -173 -134 c0 -198 398 -115 398 -354c0 -120 -83 -186 -233 -186c-9 0 -16 1 -24 1l-3 -32s13 4 29 4z" />
<glyph unicode="&#x160;" horiz-adv-x="557" d="M476 564c-6 0 -9 2 -12 6c-34 45 -83 90 -185 90c-126 0 -173 -63 -173 -134c0 -198 398 -115 398 -354c0 -120 -83 -186 -233 -186c-115 0 -185 54 -228 121c-2 3 -3 6 -3 9c0 8 7 15 15 15c6 0 10 -3 13 -8c38 -60 102 -109 203 -109c130 0 201 51 201 158 c0 217 -398 123 -398 354c0 86 62 161 205 161c94 0 162 -36 209 -99c2 -3 3 -6 3 -9c0 -8 -7 -15 -15 -15zM192 860l93 -84l93 84c2 2 5 4 9 4c7 0 13 -6 13 -13c0 -5 -3 -8 -5 -10l-99 -89c-3 -3 -7 -5 -11 -5s-8 2 -11 5l-99 89c-2 2 -5 5 -5 10c0 7 6 13 13 13 c4 0 7 -2 9 -4z" />
<glyph unicode="&#x218;" horiz-adv-x="557" d="M476 564c-6 0 -9 2 -12 6c-34 45 -83 90 -185 90c-126 0 -173 -63 -173 -134c0 -198 398 -115 398 -354c0 -120 -83 -186 -233 -186c-115 0 -185 54 -228 121c-2 3 -3 6 -3 9c0 8 7 15 15 15c6 0 10 -3 13 -8c38 -60 102 -109 203 -109c130 0 201 51 201 158 c0 217 -398 123 -398 354c0 86 62 161 205 161c94 0 162 -36 209 -99c2 -3 3 -6 3 -9c0 -8 -7 -15 -15 -15zM246 -70c0 14 8 26 28 26c17 0 27 -12 27 -30c0 -41 -18 -80 -34 -100c-3 -4 -7 -6 -12 -6c-6 0 -11 5 -11 11c0 4 1 6 3 9c16 24 20 38 20 62c-14 3 -21 13 -21 28 z" />
<glyph unicode="&#x162;" horiz-adv-x="554" d="M308 -41c49 0 80 -23 80 -67c0 -41 -31 -71 -88 -71c-28 0 -51 9 -61 18c-3 3 -4 7 -4 10c0 7 4 12 10 12c3 0 5 -1 8 -3c11 -7 25 -14 47 -14c41 0 62 16 62 48c0 35 -26 45 -54 45c-20 0 -31 -6 -37 -6s-11 5 -11 11l3 58h-60c-8 0 -14 6 -14 14s6 14 14 14h58v617 h-193v-107c0 -8 -6 -14 -14 -14s-14 6 -14 14v121c0 8 6 14 14 14h446c8 0 14 -6 14 -14v-121c0 -8 -6 -14 -14 -14s-14 6 -14 14v107h-193v-617h58c8 0 14 -6 14 -14s-6 -14 -14 -14h-68l-4 -45s13 4 29 4z" />
<glyph unicode="&#x164;" horiz-adv-x="554" d="M203 28h58v617h-193v-107c0 -8 -6 -14 -14 -14s-14 6 -14 14v121c0 8 6 14 14 14h446c8 0 14 -6 14 -14v-121c0 -8 -6 -14 -14 -14s-14 6 -14 14v107h-193v-617h58c8 0 14 -6 14 -14s-6 -14 -14 -14h-148c-8 0 -14 6 -14 14s6 14 14 14zM184 860l93 -84l93 84 c2 2 5 4 9 4c7 0 13 -6 13 -13c0 -5 -3 -8 -5 -10l-99 -89c-3 -3 -7 -5 -11 -5s-8 2 -11 5l-99 89c-2 2 -5 5 -5 10c0 7 6 13 13 13c4 0 7 -2 9 -4z" />
<glyph unicode="&#x166;" d="M205 28h58v300h-114c-7 0 -13 6 -13 13s6 13 13 13h114v291h-193v-107c0 -8 -6 -14 -14 -14s-14 6 -14 14v121c0 8 6 14 14 14h446c8 0 14 -6 14 -14v-121c0 -8 -6 -14 -14 -14s-14 6 -14 14v107h-193v-291h114c7 0 13 -6 13 -13s-6 -13 -13 -13h-114v-300h58 c8 0 14 -6 14 -14s-6 -14 -14 -14h-148c-8 0 -14 6 -14 14s6 14 14 14z" />
<glyph unicode="&#xde;" horiz-adv-x="577" d="M73 673h142c8 0 14 -6 14 -14s-6 -14 -14 -14h-55v-117h195c102 0 182 -61 182 -188c0 -125 -81 -188 -182 -188h-195v-124h55c8 0 14 -6 14 -14s-6 -14 -14 -14h-142c-8 0 -14 6 -14 14s6 14 14 14h55v617h-55c-8 0 -14 6 -14 14s6 14 14 14zM160 500v-320h184 c99 0 161 55 161 160c0 107 -63 160 -161 160h-184z" />
<glyph unicode="&#xd9;" horiz-adv-x="685" d="M59 673h147c8 0 14 -6 14 -14s-6 -14 -14 -14h-60v-447c0 -93 35 -184 197 -184s196 91 196 184v447h-60c-8 0 -14 6 -14 14s6 14 14 14h147c8 0 14 -6 14 -14s-6 -14 -14 -14h-55v-447c0 -106 -44 -212 -228 -212s-229 106 -229 212v447h-55c-8 0 -14 6 -14 14 s6 14 14 14zM286 839c-7 7 -6 16 1 22c8 7 16 6 22 -1l99 -118c5 -6 3 -11 -2 -16c-4 -4 -10 -6 -16 1z" />
<glyph unicode="&#xda;" horiz-adv-x="685" d="M59 673h147c8 0 14 -6 14 -14s-6 -14 -14 -14h-60v-447c0 -93 35 -184 197 -184s196 91 196 184v447h-60c-8 0 -14 6 -14 14s6 14 14 14h147c8 0 14 -6 14 -14s-6 -14 -14 -14h-55v-447c0 -106 -44 -212 -228 -212s-229 106 -229 212v447h-55c-8 0 -14 6 -14 14 s6 14 14 14zM400 860c6 7 14 8 22 1c7 -6 8 -15 1 -22l-104 -112c-6 -7 -12 -5 -16 -1c-5 5 -7 10 -2 16z" />
<glyph unicode="&#xdb;" horiz-adv-x="685" d="M59 673h147c8 0 14 -6 14 -14s-6 -14 -14 -14h-60v-447c0 -93 35 -184 197 -184s196 91 196 184v447h-60c-8 0 -14 6 -14 14s6 14 14 14h147c8 0 14 -6 14 -14s-6 -14 -14 -14h-55v-447c0 -106 -44 -212 -228 -212s-229 106 -229 212v447h-55c-8 0 -14 6 -14 14 s6 14 14 14zM440 728l-93 84l-93 -84c-2 -2 -5 -4 -9 -4c-7 0 -13 6 -13 13c0 5 3 8 5 10l99 89c3 3 7 5 11 5s8 -2 11 -5l99 -89c2 -2 5 -5 5 -10c0 -7 -6 -13 -13 -13c-4 0 -7 2 -9 4z" />
<glyph unicode="&#xdc;" horiz-adv-x="685" d="M59 673h147c8 0 14 -6 14 -14s-6 -14 -14 -14h-60v-447c0 -93 35 -184 197 -184s196 91 196 184v447h-60c-8 0 -14 6 -14 14s6 14 14 14h147c8 0 14 -6 14 -14s-6 -14 -14 -14h-55v-447c0 -106 -44 -212 -228 -212s-229 106 -229 212v447h-55c-8 0 -14 6 -14 14 s6 14 14 14zM285 780c0 -16 -7 -23 -22 -23s-22 7 -22 23s7 23 22 23s22 -7 22 -23zM445 780c0 -16 -7 -23 -22 -23s-22 7 -22 23s7 23 22 23s22 -7 22 -23z" />
<glyph unicode="&#x168;" horiz-adv-x="685" d="M59 673h147c8 0 14 -6 14 -14s-6 -14 -14 -14h-60v-447c0 -93 35 -184 197 -184s196 91 196 184v447h-60c-8 0 -14 6 -14 14s6 14 14 14h147c8 0 14 -6 14 -14s-6 -14 -14 -14h-55v-447c0 -106 -44 -212 -228 -212s-229 106 -229 212v447h-55c-8 0 -14 6 -14 14 s6 14 14 14zM487 782c-8 -18 -31 -46 -73 -46c-57 0 -83 42 -132 42c-31 0 -45 -15 -53 -34c-2 -5 -7 -8 -12 -8c-7 0 -13 6 -13 13c0 3 1 6 2 8c9 20 32 46 76 46c57 0 83 -42 132 -42c26 0 44 13 51 34c2 5 7 8 12 8c6 0 12 -6 12 -13c0 -3 -1 -6 -2 -8z" />
<glyph unicode="&#x16a;" horiz-adv-x="685" d="M59 673h147c8 0 14 -6 14 -14s-6 -14 -14 -14h-60v-447c0 -93 35 -184 197 -184s196 91 196 184v447h-60c-8 0 -14 6 -14 14s6 14 14 14h147c8 0 14 -6 14 -14s-6 -14 -14 -14h-55v-447c0 -106 -44 -212 -228 -212s-229 106 -229 212v447h-55c-8 0 -14 6 -14 14 s6 14 14 14zM451 772c6 0 12 -5 12 -12c0 -6 -6 -12 -12 -12h-212c-6 0 -12 6 -12 12c0 7 6 12 12 12h212z" />
<glyph unicode="&#x16c;" horiz-adv-x="685" d="M59 673h147c8 0 14 -6 14 -14s-6 -14 -14 -14h-60v-447c0 -93 35 -184 197 -184s196 91 196 184v447h-60c-8 0 -14 6 -14 14s6 14 14 14h147c8 0 14 -6 14 -14s-6 -14 -14 -14h-55v-447c0 -106 -44 -212 -228 -212s-229 106 -229 212v447h-55c-8 0 -14 6 -14 14 s6 14 14 14zM448 826c0 -70 -50 -96 -105 -96s-105 26 -105 96c0 7 6 13 13 13s13 -6 13 -13c0 -49 27 -72 79 -72s79 23 79 72c0 7 6 13 13 13s13 -6 13 -13z" />
<glyph unicode="&#x16e;" horiz-adv-x="685" d="M59 673h147c8 0 14 -6 14 -14s-6 -14 -14 -14h-60v-447c0 -93 35 -184 197 -184s196 91 196 184v447h-60c-8 0 -14 6 -14 14s6 14 14 14h147c8 0 14 -6 14 -14s-6 -14 -14 -14h-55v-447c0 -106 -44 -212 -228 -212s-229 106 -229 212v447h-55c-8 0 -14 6 -14 14 s6 14 14 14zM243 806c0 61 33 98 104 98s104 -37 104 -98s-33 -98 -104 -98s-104 37 -104 98zM269 806c0 -52 23 -76 78 -76s78 24 78 76s-23 76 -78 76s-78 -24 -78 -76z" />
<glyph unicode="&#x170;" horiz-adv-x="685" d="M59 673h147c8 0 14 -6 14 -14s-6 -14 -14 -14h-60v-447c0 -93 35 -184 197 -184s196 91 196 184v447h-60c-8 0 -14 6 -14 14s6 14 14 14h147c8 0 14 -6 14 -14s-6 -14 -14 -14h-55v-447c0 -106 -44 -212 -228 -212s-229 106 -229 212v447h-55c-8 0 -14 6 -14 14 s6 14 14 14zM361 860c6 7 14 8 22 1c7 -6 8 -15 1 -22l-104 -112c-6 -7 -12 -5 -16 -1c-5 5 -7 10 -2 16zM465 860c6 7 14 8 22 1c7 -6 8 -15 1 -22l-104 -112c-6 -7 -12 -5 -16 -1c-5 5 -7 10 -2 16z" />
<glyph unicode="&#x172;" horiz-adv-x="685" d="M470 -146c2 1 4 2 7 2c6 0 11 -5 11 -11c0 -5 -3 -8 -6 -10c-16 -9 -36 -14 -59 -14c-66 0 -88 35 -88 73c0 40 21 73 55 95c-14 -2 -30 -3 -47 -3c-184 0 -229 106 -229 212v447h-55c-8 0 -14 6 -14 14s6 14 14 14h147c8 0 14 -6 14 -14s-6 -14 -14 -14h-60v-447 c0 -93 35 -184 197 -184s196 91 196 184v447h-60c-8 0 -14 6 -14 14s6 14 14 14h147c8 0 14 -6 14 -14s-6 -14 -14 -14h-55v-447c0 -82 -27 -164 -124 -197c-60 -29 -86 -62 -86 -103c0 -29 15 -53 64 -53c22 0 32 3 45 9z" />
<glyph unicode="&#x174;" horiz-adv-x="918" d="M22 673h150c8 0 14 -6 14 -14s-6 -14 -14 -14h-67l167 -591l172 608c2 7 8 11 15 11s14 -4 16 -11l171 -605l167 588h-67c-8 0 -14 6 -14 14s6 14 14 14h148c8 0 14 -6 14 -14s-6 -14 -14 -14h-47l-185 -641c-2 -7 -8 -12 -16 -12s-13 4 -15 11l-172 601l-172 -601 c-2 -7 -8 -11 -16 -11c-6 0 -13 4 -15 11l-185 642h-49c-8 0 -14 6 -14 14s6 14 14 14zM552 727l-93 84l-93 -84c-2 -2 -5 -4 -9 -4c-7 0 -13 6 -13 13c0 5 3 8 5 10l99 89c3 3 7 5 11 5s8 -2 11 -5l99 -89c2 -2 5 -5 5 -10c0 -7 -6 -13 -13 -13c-4 0 -7 2 -9 4z" />
<glyph unicode="&#x1e80;" horiz-adv-x="918" d="M22 673h150c8 0 14 -6 14 -14s-6 -14 -14 -14h-67l167 -591l172 608c2 7 8 11 15 11s14 -4 16 -11l171 -605l167 588h-67c-8 0 -14 6 -14 14s6 14 14 14h148c8 0 14 -6 14 -14s-6 -14 -14 -14h-47l-185 -641c-2 -7 -8 -12 -16 -12s-13 4 -15 11l-172 601l-172 -601 c-2 -7 -8 -11 -16 -11c-6 0 -13 4 -15 11l-185 642h-49c-8 0 -14 6 -14 14s6 14 14 14zM399 839c-7 7 -6 16 1 22c8 7 16 6 22 -1l99 -118c5 -6 3 -11 -2 -16c-4 -4 -10 -6 -16 1z" />
<glyph unicode="&#x1e82;" horiz-adv-x="918" d="M22 673h150c8 0 14 -6 14 -14s-6 -14 -14 -14h-67l167 -591l172 608c2 7 8 11 15 11s14 -4 16 -11l171 -605l167 588h-67c-8 0 -14 6 -14 14s6 14 14 14h148c8 0 14 -6 14 -14s-6 -14 -14 -14h-47l-185 -641c-2 -7 -8 -12 -16 -12s-13 4 -15 11l-172 601l-172 -601 c-2 -7 -8 -11 -16 -11c-6 0 -13 4 -15 11l-185 642h-49c-8 0 -14 6 -14 14s6 14 14 14zM496 860c6 7 14 8 22 1c7 -6 8 -15 1 -22l-104 -112c-6 -7 -12 -5 -16 -1c-5 5 -7 10 -2 16z" />
<glyph unicode="&#x1e84;" horiz-adv-x="918" d="M22 673h150c8 0 14 -6 14 -14s-6 -14 -14 -14h-67l167 -591l172 608c2 7 8 11 15 11s14 -4 16 -11l171 -605l167 588h-67c-8 0 -14 6 -14 14s6 14 14 14h148c8 0 14 -6 14 -14s-6 -14 -14 -14h-47l-185 -641c-2 -7 -8 -12 -16 -12s-13 4 -15 11l-172 601l-172 -601 c-2 -7 -8 -11 -16 -11c-6 0 -13 4 -15 11l-185 642h-49c-8 0 -14 6 -14 14s6 14 14 14zM401 780c0 -16 -7 -23 -22 -23s-22 7 -22 23s7 23 22 23s22 -7 22 -23zM561 780c0 -16 -7 -23 -22 -23s-22 7 -22 23s7 23 22 23s22 -7 22 -23z" />
<glyph unicode="&#xdd;" horiz-adv-x="593" d="M422 673h148c8 0 14 -6 14 -14s-6 -14 -14 -14h-49l-208 -327v-290h71c8 0 14 -6 14 -14s-6 -14 -14 -14h-174c-8 0 -14 6 -14 14s6 14 14 14h71v290l-210 327h-48c-8 0 -14 6 -14 14s6 14 14 14h148c8 0 14 -6 14 -14s-6 -14 -14 -14h-60l186 -297l184 297h-59 c-8 0 -14 6 -14 14s6 14 14 14zM359 860c6 7 14 8 22 1c7 -6 8 -15 1 -22l-104 -112c-6 -7 -12 -5 -16 -1c-5 5 -7 10 -2 16z" />
<glyph unicode="&#x176;" horiz-adv-x="593" d="M422 673h148c8 0 14 -6 14 -14s-6 -14 -14 -14h-49l-208 -327v-290h71c8 0 14 -6 14 -14s-6 -14 -14 -14h-174c-8 0 -14 6 -14 14s6 14 14 14h71v290l-210 327h-48c-8 0 -14 6 -14 14s6 14 14 14h148c8 0 14 -6 14 -14s-6 -14 -14 -14h-60l186 -297l184 297h-59 c-8 0 -14 6 -14 14s6 14 14 14zM390 727l-93 84l-93 -84c-2 -2 -5 -4 -9 -4c-7 0 -13 6 -13 13c0 5 3 8 5 10l99 89c3 3 7 5 11 5s8 -2 11 -5l99 -89c2 -2 5 -5 5 -10c0 -7 -6 -13 -13 -13c-4 0 -7 2 -9 4z" />
<glyph unicode="&#x178;" horiz-adv-x="593" d="M422 673h148c8 0 14 -6 14 -14s-6 -14 -14 -14h-49l-208 -327v-290h71c8 0 14 -6 14 -14s-6 -14 -14 -14h-174c-8 0 -14 6 -14 14s6 14 14 14h71v290l-210 327h-48c-8 0 -14 6 -14 14s6 14 14 14h148c8 0 14 -6 14 -14s-6 -14 -14 -14h-60l186 -297l184 297h-59 c-8 0 -14 6 -14 14s6 14 14 14zM238 780c0 -16 -7 -23 -22 -23s-22 7 -22 23s7 23 22 23s22 -7 22 -23zM398 780c0 -16 -7 -23 -22 -23s-22 7 -22 23s7 23 22 23s22 -7 22 -23z" />
<glyph unicode="&#x1ef2;" horiz-adv-x="593" d="M422 673h148c8 0 14 -6 14 -14s-6 -14 -14 -14h-49l-208 -327v-290h71c8 0 14 -6 14 -14s-6 -14 -14 -14h-174c-8 0 -14 6 -14 14s6 14 14 14h71v290l-210 327h-48c-8 0 -14 6 -14 14s6 14 14 14h148c8 0 14 -6 14 -14s-6 -14 -14 -14h-60l186 -297l184 297h-59 c-8 0 -14 6 -14 14s6 14 14 14zM226 839c-7 7 -6 16 1 22c8 7 16 6 22 -1l99 -118c5 -6 3 -11 -2 -16c-4 -4 -10 -6 -16 1z" />
<glyph unicode="&#x179;" horiz-adv-x="554" d="M60 550v110c0 7 6 13 14 13h406c8 0 14 -6 14 -14c0 -3 -1 -6 -3 -9l-413 -622h404v104c0 8 6 14 14 14s14 -6 14 -14v-118c0 -9 -7 -14 -14 -14h-445c-7 0 -13 6 -13 14c0 4 1 6 3 9l415 622h-368v-95c0 -8 -6 -14 -14 -14s-14 6 -14 14zM330 860c6 7 14 8 22 1 c7 -6 8 -15 1 -22l-104 -112c-6 -7 -12 -5 -16 -1c-5 5 -7 10 -2 16z" />
<glyph unicode="&#x17b;" horiz-adv-x="554" d="M60 550v110c0 7 6 13 14 13h406c8 0 14 -6 14 -14c0 -3 -1 -6 -3 -9l-413 -622h404v104c0 8 6 14 14 14s14 -6 14 -14v-118c0 -9 -7 -14 -14 -14h-445c-7 0 -13 6 -13 14c0 4 1 6 3 9l415 622h-368v-95c0 -8 -6 -14 -14 -14s-14 6 -14 14zM297 766c0 -15 -8 -22 -22 -22 s-22 7 -22 22c0 16 8 23 22 23s22 -7 22 -23z" />
<glyph unicode="&#x17d;" horiz-adv-x="554" d="M60 550v110c0 7 6 13 14 13h406c8 0 14 -6 14 -14c0 -3 -1 -6 -3 -9l-413 -622h404v104c0 8 6 14 14 14s14 -6 14 -14v-118c0 -9 -7 -14 -14 -14h-445c-7 0 -13 6 -13 14c0 4 1 6 3 9l415 622h-368v-95c0 -8 -6 -14 -14 -14s-14 6 -14 14zM182 837l93 -84l93 84 c2 2 5 4 9 4c7 0 13 -6 13 -13c0 -5 -3 -8 -5 -10l-99 -89c-3 -3 -7 -5 -11 -5s-8 2 -11 5l-99 89c-2 2 -5 5 -5 10c0 7 6 13 13 13c4 0 7 -2 9 -4z" />
<glyph unicode="&#x132;" horiz-adv-x="719" d="M73 673h142c8 0 14 -6 14 -14s-6 -14 -14 -14h-55v-617h55c8 0 14 -6 14 -14s-6 -14 -14 -14h-142c-8 0 -14 6 -14 14s6 14 14 14h55v617h-55c-8 0 -14 6 -14 14s6 14 14 14zM500 673h160c8 0 14 -6 14 -14s-6 -14 -14 -14h-55v-450c0 -118 -49 -209 -181 -209 c-37 0 -81 9 -107 23c-5 3 -8 7 -8 13c0 8 7 15 15 15c4 0 6 -1 12 -4c27 -14 57 -19 88 -19c107 0 149 77 149 181v450h-73c-8 0 -14 6 -14 14s6 14 14 14z" />
<glyph unicode="a" horiz-adv-x="506" d="M471 0h-74c-8 0 -14 6 -14 14v52c-33 -53 -98 -78 -165 -78c-112 0 -174 50 -174 138s71 139 185 139h154v46c0 85 -55 131 -147 131c-81 0 -113 -36 -137 -73c-3 -5 -8 -7 -12 -7c-8 0 -14 6 -14 14c0 3 1 6 3 9c26 42 76 83 160 83c123 0 175 -66 175 -165v-277h60 c7 0 13 -6 13 -13s-6 -13 -13 -13zM75 126c0 -69 46 -112 143 -112c87 0 165 47 165 141v85h-154c-90 0 -154 -37 -154 -114z" />
<glyph unicode="b" horiz-adv-x="541" d="M28 712h75c8 0 15 -7 15 -15v-324s44 95 163 95c128 0 205 -76 205 -240s-77 -241 -205 -241c-71 0 -130 29 -163 89v-69c0 -8 -7 -15 -15 -15s-15 7 -15 15v679h-60c-7 0 -13 6 -13 13s6 13 13 13zM118 325v-144c0 -117 69 -168 163 -168c113 0 173 65 173 215 c0 148 -60 214 -173 214c-120 0 -163 -117 -163 -117z" />
<glyph unicode="c" horiz-adv-x="452" d="M260 -13c-128 0 -205 77 -205 241s77 240 205 240c99 0 138 -54 148 -67c2 -3 3 -6 3 -9c0 -7 -6 -13 -13 -13c-5 0 -8 2 -11 6c-17 20 -47 57 -127 57c-113 0 -173 -66 -173 -214c0 -150 60 -215 173 -215c69 0 107 29 133 49c3 2 5 3 8 3c7 0 13 -6 13 -13 c0 -3 -1 -7 -6 -11c-20 -16 -67 -54 -148 -54z" />
<glyph unicode="d" d="M363 712h75c7 0 15 -6 15 -15v-671h60c7 0 13 -6 13 -13s-6 -13 -13 -13h-77c-9 0 -13 6 -13 12v52c-34 -52 -92 -77 -163 -77c-128 0 -205 77 -205 241s77 240 205 240c123 0 163 -95 163 -95v313h-60c-7 0 -13 6 -13 13s6 13 13 13zM423 325c0 0 -39 117 -163 117 c-113 0 -173 -66 -173 -214c0 -150 60 -215 173 -215c91 0 163 48 163 159v153z" />
<glyph unicode="e" horiz-adv-x="497" d="M270 -13c-133 0 -215 72 -215 241c0 155 76 240 204 240c166 0 188 -124 188 -191c0 -11 0 -25 -2 -37c-2 -11 -9 -16 -22 -16h-337c0 -144 67 -211 184 -211c75 0 112 26 141 50c3 2 5 3 8 3c7 0 13 -6 13 -13c0 -5 -3 -8 -6 -11c-16 -15 -64 -55 -156 -55zM417 249 c0 0 1 20 1 28c0 80 -31 165 -159 165c-113 0 -169 -74 -173 -193h331z" />
<glyph unicode="f" horiz-adv-x="296" d="M50 26h60v402h-57c-7 0 -13 6 -13 13s6 13 13 13h57v90c0 88 48 168 166 168h15c7 0 13 -6 13 -13s-6 -13 -13 -13h-17c-97 0 -134 -60 -134 -142v-90h118c7 0 13 -6 13 -13s-6 -13 -13 -13h-118v-402h83c7 0 13 -6 13 -13s-6 -13 -13 -13h-173c-7 0 -13 6 -13 13 s6 13 13 13z" />
<glyph unicode="g" horiz-adv-x="484" d="M238 468c46 0 86 -11 115 -30c11 36 42 59 90 59c7 0 13 -6 13 -13s-6 -13 -13 -13c-44 0 -61 -17 -70 -50c27 -28 42 -68 42 -115c0 -99 -64 -162 -177 -162c-44 0 -82 9 -110 26c-31 -8 -43 -25 -43 -52c0 -36 25 -54 93 -54h125c87 0 158 -39 158 -128 c0 -99 -90 -137 -211 -137c-102 0 -209 29 -209 133c0 63 44 101 87 111c-32 9 -71 21 -71 75c0 33 18 57 51 68c-31 28 -47 69 -47 120c0 99 64 162 177 162zM238 442c-97 0 -146 -51 -146 -136s49 -136 146 -136s146 51 146 136s-49 136 -146 136zM303 37h-122 c-74 -10 -109 -49 -109 -105c0 -81 82 -107 179 -107s179 26 179 111c0 75 -57 101 -127 101z" />
<glyph unicode="h" horiz-adv-x="567" d="M382 26h60v265c0 81 -28 151 -150 151c-109 0 -156 -88 -156 -161v-255h60c7 0 13 -6 13 -13s-6 -13 -13 -13h-150c-7 0 -13 6 -13 13s6 13 13 13h60v660h-60c-7 0 -13 6 -13 13s6 13 13 13h75c9 0 15 -8 15 -15v-325c15 40 61 96 157 96c144 0 179 -85 179 -177v-265h60 c7 0 13 -6 13 -13s-6 -13 -13 -13h-150c-7 0 -13 6 -13 13s6 13 13 13z" />
<glyph unicode="i" horiz-adv-x="254" d="M55 454h75c8 0 15 -5 15 -15v-413h60c7 0 13 -6 13 -13s-6 -13 -13 -13h-150c-7 0 -13 6 -13 13s6 13 13 13h60v402h-60c-7 0 -13 6 -13 13s6 13 13 13zM148 613c0 -15 -6 -21 -18 -21s-18 6 -18 21s6 21 18 21s18 -6 18 -21z" />
<glyph unicode="j" horiz-adv-x="223" d="M45 454h74c9 0 16 -6 16 -15v-497c0 -79 -58 -143 -138 -143h-4c-7 0 -13 6 -13 13s6 13 13 13h4c64 0 108 53 108 117v486h-60c-7 0 -13 6 -13 13s6 13 13 13zM137 613c0 -15 -6 -21 -18 -21s-18 6 -18 21s6 21 18 21s18 -6 18 -21z" />
<glyph unicode="k" horiz-adv-x="507" d="M398 454h69c7 0 13 -6 13 -13s-6 -13 -13 -13h-65l-155 -144l197 -258h58c7 0 13 -6 13 -13s-6 -13 -13 -13h-68c-5 0 -8 2 -11 5l-198 259l-89 -83v-155h60c7 0 13 -6 13 -13s-6 -13 -13 -13h-150c-7 0 -13 6 -13 13s6 13 13 13h60v660h-60c-7 0 -13 6 -13 13 s6 13 13 13h76c9 0 14 -5 14 -15v-480l251 232c3 3 6 5 11 5z" />
<glyph unicode="l" horiz-adv-x="228" d="M28 712h77c6 0 13 -5 13 -14v-598c0 -58 20 -82 63 -82h15c7 0 13 -6 13 -13s-6 -13 -13 -13h-15c-60 0 -93 37 -93 108v586h-60c-7 0 -13 6 -13 13s6 13 13 13z" />
<glyph unicode="m" horiz-adv-x="884" d="M51 454h75c10 0 15 -8 15 -15v-68c14 44 61 97 152 97c94 0 143 -40 161 -93c14 42 63 93 157 93c144 0 178 -85 178 -177v-265h60c7 0 13 -6 13 -13s-6 -13 -13 -13h-150c-7 0 -13 6 -13 13s6 13 13 13h60v265c0 81 -32 152 -148 152c-105 0 -146 -74 -146 -153v-263 l60 1c7 0 13 -8 13 -15s-6 -11 -13 -11l-150 -2c-7 0 -13 6 -13 13s6 13 13 13l60 1v264c0 81 -27 152 -145 152c-105 0 -149 -91 -149 -174v-243h60c7 0 13 -6 13 -13s-6 -13 -13 -13h-150c-7 0 -13 6 -13 13s6 13 13 13h60v402h-60c-7 0 -13 6 -13 13s6 13 13 13z" />
<glyph unicode="n" horiz-adv-x="572" d="M387 26h60v265c0 81 -28 151 -150 151c-109 0 -156 -88 -156 -161v-255h60c7 0 13 -6 13 -13s-6 -13 -13 -13h-150c-7 0 -13 6 -13 13s6 13 13 13h60v402h-60c-7 0 -13 6 -13 13s6 13 13 13h75c9 0 15 -8 15 -15v-67c15 40 63 96 157 96c144 0 179 -85 179 -177v-265h60 c7 0 13 -6 13 -13s-6 -13 -13 -13h-150c-7 0 -13 6 -13 13s6 13 13 13z" />
<glyph unicode="o" horiz-adv-x="520" d="M465 228c0 -164 -77 -241 -205 -241s-205 77 -205 241s77 240 205 240s205 -76 205 -240zM260 13c112 0 173 66 173 215c0 147 -61 214 -173 214s-173 -67 -173 -214c0 -149 61 -215 173 -215z" />
<glyph unicode="p" horiz-adv-x="559" d="M45 454h75c8 0 15 -7 15 -15v-70c26 64 81 99 165 99c128 0 205 -76 205 -240s-77 -241 -205 -241c-131 0 -165 96 -165 96v-258h70c7 0 13 -6 13 -13s-6 -13 -13 -13h-160c-7 0 -13 6 -13 13s6 13 13 13h60v603h-60c-7 0 -13 6 -13 13s6 13 13 13zM297 442 c-101 0 -164 -65 -164 -214c0 -154 71 -215 167 -215c113 0 173 65 173 215c0 148 -63 214 -176 214z" />
<glyph unicode="q" horiz-adv-x="560" d="M355 -175h70v258s-42 -96 -165 -96c-128 0 -205 77 -205 241s77 240 205 240c72 0 131 -29 165 -85v56c0 8 7 15 15 15h75c7 0 13 -6 13 -13s-6 -13 -13 -13h-60v-603h60c7 0 13 -6 13 -13s-6 -13 -13 -13h-160c-7 0 -13 6 -13 13s6 13 13 13zM425 130v145 c0 117 -72 167 -165 167c-113 0 -173 -66 -173 -214c0 -150 60 -215 173 -215c122 0 165 117 165 117z" />
<glyph unicode="r" horiz-adv-x="346" d="M51 454h75c8 0 15 -7 15 -15v-90c21 67 77 118 171 118c7 0 13 -6 13 -13s-6 -13 -13 -13c-115 0 -171 -89 -171 -198v-217h106c7 0 13 -6 13 -13s-6 -13 -13 -13h-196c-7 0 -13 6 -13 13s6 13 13 13h60v402h-60c-7 0 -13 6 -13 13s6 13 13 13z" />
<glyph unicode="s" horiz-adv-x="427" d="M342 389c-35 35 -73 53 -131 53c-59 0 -117 -21 -117 -86c0 -133 286 -87 286 -245c0 -85 -72 -124 -165 -124c-84 0 -146 36 -170 69c-3 4 -4 6 -4 10c0 8 7 13 13 13c3 0 6 -1 9 -4c34 -38 77 -62 152 -62c73 0 135 26 135 98c0 129 -286 87 -286 245 c0 77 65 112 147 112c68 0 116 -23 149 -60c3 -4 4 -6 4 -10c0 -7 -6 -13 -13 -13c-2 0 -5 0 -9 4z" />
<glyph unicode="t" horiz-adv-x="270" d="M101 454v122c0 8 7 15 15 15s15 -7 15 -15v-122h90c7 0 13 -6 13 -13s-6 -13 -13 -13h-90v-318c0 -60 37 -92 91 -92c7 0 13 -6 13 -13s-6 -13 -13 -13c-78 0 -121 50 -121 118v318h-62c-7 0 -13 6 -13 13s6 13 13 13h62z" />
<glyph unicode="u" horiz-adv-x="568" d="M372 454h75c1 0 2 0 4 -1c6 -2 11 -8 11 -14v-413h60c7 0 13 -6 13 -13s-6 -13 -13 -13h-78c-8 0 -12 6 -12 12v46c-26 -43 -73 -71 -153 -71c-151 0 -183 85 -183 178v263h-60c-7 0 -13 6 -13 13s6 13 13 13h75c8 0 15 -7 15 -15v-274c0 -82 26 -152 153 -152 c120 0 153 70 153 140v275h-60c-7 0 -13 6 -13 13s6 13 13 13z" />
<glyph unicode="v" horiz-adv-x="509" d="M29 454h123c7 0 13 -6 13 -13s-6 -13 -13 -13h-55l158 -390l157 390h-54c-7 0 -13 6 -13 13s6 13 13 13h123c7 0 13 -6 13 -13s-6 -13 -13 -13h-37l-176 -428c-3 -6 -7 -8 -13 -8s-10 2 -13 8l-177 428h-36c-7 0 -13 6 -13 13s6 13 13 13z" />
<glyph unicode="w" horiz-adv-x="740" d="M588 454h123c7 0 13 -6 13 -13s-6 -13 -13 -13h-37l-156 -426c-2 -6 -7 -10 -14 -10c-8 0 -13 4 -15 10l-119 396l-120 -396c-2 -6 -6 -10 -15 -10c-7 0 -11 4 -13 10l-156 426h-37c-7 0 -13 6 -13 13s6 13 13 13h123c7 0 13 -6 13 -13s-6 -13 -13 -13h-55l139 -387 l122 404c1 4 5 9 12 9c8 0 12 -5 13 -9l122 -404l139 387h-56c-7 0 -13 6 -13 13s6 13 13 13z" />
<glyph unicode="x" horiz-adv-x="473" d="M312 454h127c7 0 13 -6 13 -13s-6 -13 -13 -13h-41l-144 -200l147 -202h41c7 0 13 -6 13 -13s-6 -13 -13 -13h-127c-7 0 -13 6 -13 13s6 13 13 13h50l-129 183l-130 -183h55c7 0 13 -6 13 -13s-6 -13 -13 -13h-127c-7 0 -13 6 -13 13s6 13 13 13h35l151 206l-147 196h-36 c-7 0 -13 6 -13 13s6 13 13 13h127c7 0 13 -6 13 -13s-6 -13 -13 -13h-53l127 -174l123 174h-49c-7 0 -13 6 -13 13s6 13 13 13z" />
<glyph unicode="y" horiz-adv-x="509" d="M29 454h123c7 0 13 -6 13 -13s-6 -13 -13 -13h-55l158 -390l157 390h-54c-7 0 -13 6 -13 13s6 13 13 13h123c7 0 13 -6 13 -13s-6 -13 -13 -13h-37l-206 -498c-41 -98 -89 -131 -182 -131c-7 0 -13 6 -13 13s6 13 13 13c109 0 134 55 184 179l-175 424h-36 c-7 0 -13 6 -13 13s6 13 13 13z" />
<glyph unicode="z" horiz-adv-x="431" d="M54 360v81c0 7 6 13 13 13h298c7 0 13 -6 13 -13c0 -5 -2 -8 -4 -11l-294 -404h279v73c0 7 6 13 13 13s13 -6 13 -13v-86c0 -8 -7 -13 -13 -13h-320c-7 0 -13 6 -13 13c0 3 1 5 3 8l297 407h-259v-68c0 -7 -6 -13 -13 -13s-13 6 -13 13z" />
<glyph unicode="&#xe0;" horiz-adv-x="506" d="M471 0h-74c-8 0 -14 6 -14 14v52c-33 -53 -98 -78 -165 -78c-112 0 -174 50 -174 138s71 139 185 139h154v46c0 85 -55 131 -147 131c-81 0 -113 -36 -137 -73c-3 -5 -8 -7 -12 -7c-8 0 -14 6 -14 14c0 3 1 6 3 9c26 42 76 83 160 83c123 0 175 -66 175 -165v-277h60 c7 0 13 -6 13 -13s-6 -13 -13 -13zM75 126c0 -69 46 -112 143 -112c87 0 165 47 165 141v85h-154c-90 0 -154 -37 -154 -114zM179 635c-7 7 -6 16 1 22c8 7 16 6 22 -1l99 -118c5 -6 3 -11 -2 -16c-4 -4 -10 -6 -16 1z" />
<glyph unicode="&#xe1;" horiz-adv-x="506" d="M471 0h-74c-8 0 -14 6 -14 14v52c-33 -53 -98 -78 -165 -78c-112 0 -174 50 -174 138s71 139 185 139h154v46c0 85 -55 131 -147 131c-81 0 -113 -36 -137 -73c-3 -5 -8 -7 -12 -7c-8 0 -14 6 -14 14c0 3 1 6 3 9c26 42 76 83 160 83c123 0 175 -66 175 -165v-277h60 c7 0 13 -6 13 -13s-6 -13 -13 -13zM75 126c0 -69 46 -112 143 -112c87 0 165 47 165 141v85h-154c-90 0 -154 -37 -154 -114zM289 656c6 7 14 8 22 1c7 -6 8 -15 1 -22l-104 -112c-6 -7 -12 -5 -16 -1c-5 5 -7 10 -2 16z" />
<glyph unicode="&#xe2;" horiz-adv-x="506" d="M471 0h-74c-8 0 -14 6 -14 14v52c-33 -53 -98 -78 -165 -78c-112 0 -174 50 -174 138s71 139 185 139h154v46c0 85 -55 131 -147 131c-81 0 -113 -36 -137 -73c-3 -5 -8 -7 -12 -7c-8 0 -14 6 -14 14c0 3 1 6 3 9c26 42 76 83 160 83c123 0 175 -66 175 -165v-277h60 c7 0 13 -6 13 -13s-6 -13 -13 -13zM75 126c0 -69 46 -112 143 -112c87 0 165 47 165 141v85h-154c-90 0 -154 -37 -154 -114zM339 531l-93 84l-93 -84c-2 -2 -5 -4 -9 -4c-7 0 -13 6 -13 13c0 5 3 8 5 10l99 89c3 3 7 5 11 5s8 -2 11 -5l99 -89c2 -2 5 -5 5 -10 c0 -7 -6 -13 -13 -13c-4 0 -7 2 -9 4z" />
<glyph unicode="&#xe3;" horiz-adv-x="506" d="M471 0h-74c-8 0 -14 6 -14 14v52c-33 -53 -98 -78 -165 -78c-112 0 -174 50 -174 138s71 139 185 139h154v46c0 85 -55 131 -147 131c-81 0 -113 -36 -137 -73c-3 -5 -8 -7 -12 -7c-8 0 -14 6 -14 14c0 3 1 6 3 9c26 42 76 83 160 83c123 0 175 -66 175 -165v-277h60 c7 0 13 -6 13 -13s-6 -13 -13 -13zM75 126c0 -69 46 -112 143 -112c87 0 165 47 165 141v85h-154c-90 0 -154 -37 -154 -114zM379 580c-8 -18 -31 -46 -73 -46c-57 0 -83 42 -132 42c-31 0 -45 -15 -53 -34c-2 -5 -7 -8 -12 -8c-7 0 -13 6 -13 13c0 3 1 6 2 8 c9 20 32 46 76 46c57 0 83 -42 132 -42c26 0 44 13 51 34c2 5 7 8 12 8c6 0 12 -6 12 -13c0 -3 -1 -6 -2 -8z" />
<glyph unicode="&#xe4;" horiz-adv-x="506" d="M471 0h-74c-8 0 -14 6 -14 14v52c-33 -53 -98 -78 -165 -78c-112 0 -174 50 -174 138s71 139 185 139h154v46c0 85 -55 131 -147 131c-81 0 -113 -36 -137 -73c-3 -5 -8 -7 -12 -7c-8 0 -14 6 -14 14c0 3 1 6 3 9c26 42 76 83 160 83c123 0 175 -66 175 -165v-277h60 c7 0 13 -6 13 -13s-6 -13 -13 -13zM75 126c0 -69 46 -112 143 -112c87 0 165 47 165 141v85h-154c-90 0 -154 -37 -154 -114zM186 573c0 -16 -7 -23 -22 -23s-22 7 -22 23s7 23 22 23s22 -7 22 -23zM346 573c0 -16 -7 -23 -22 -23s-22 7 -22 23s7 23 22 23s22 -7 22 -23z " />
<glyph unicode="&#xe5;" horiz-adv-x="506" d="M471 0h-74c-8 0 -14 6 -14 14v52c-33 -53 -98 -78 -165 -78c-112 0 -174 50 -174 138s71 139 185 139h154v46c0 85 -55 131 -147 131c-81 0 -113 -36 -137 -73c-3 -5 -8 -7 -12 -7c-8 0 -14 6 -14 14c0 3 1 6 3 9c26 42 76 83 160 83c123 0 175 -66 175 -165v-277h60 c7 0 13 -6 13 -13s-6 -13 -13 -13zM75 126c0 -69 46 -112 143 -112c87 0 165 47 165 141v85h-154c-90 0 -154 -37 -154 -114zM134 605c0 61 33 98 104 98s104 -37 104 -98s-33 -98 -104 -98s-104 37 -104 98zM160 605c0 -52 23 -76 78 -76s78 24 78 76s-23 76 -78 76 s-78 -24 -78 -76z" />
<glyph unicode="&#x101;" horiz-adv-x="506" d="M471 0h-74c-8 0 -14 6 -14 14v52c-33 -53 -98 -78 -165 -78c-112 0 -174 50 -174 138s71 139 185 139h154v46c0 85 -55 131 -147 131c-81 0 -113 -36 -137 -73c-3 -5 -8 -7 -12 -7c-8 0 -14 6 -14 14c0 3 1 6 3 9c26 42 76 83 160 83c123 0 175 -66 175 -165v-277h60 c7 0 13 -6 13 -13s-6 -13 -13 -13zM75 126c0 -69 46 -112 143 -112c87 0 165 47 165 141v85h-154c-90 0 -154 -37 -154 -114zM351 576c6 0 12 -5 12 -12c0 -6 -6 -12 -12 -12h-212c-6 0 -12 6 -12 12c0 7 6 12 12 12h212z" />
<glyph unicode="&#x103;" horiz-adv-x="506" d="M471 0h-74c-8 0 -14 6 -14 14v52c-33 -53 -98 -78 -165 -78c-112 0 -174 50 -174 138s71 139 185 139h154v46c0 85 -55 131 -147 131c-81 0 -113 -36 -137 -73c-3 -5 -8 -7 -12 -7c-8 0 -14 6 -14 14c0 3 1 6 3 9c26 42 76 83 160 83c123 0 175 -66 175 -165v-277h60 c7 0 13 -6 13 -13s-6 -13 -13 -13zM75 126c0 -69 46 -112 143 -112c87 0 165 47 165 141v85h-154c-90 0 -154 -37 -154 -114zM343 625c0 -70 -50 -96 -105 -96s-105 26 -105 96c0 7 6 13 13 13s13 -6 13 -13c0 -49 27 -72 79 -72s79 23 79 72c0 7 6 13 13 13s13 -6 13 -13z " />
<glyph unicode="&#x105;" horiz-adv-x="506" d="M466 -146c2 1 4 2 7 2c6 0 11 -5 11 -11c0 -5 -3 -8 -6 -10c-16 -9 -36 -14 -59 -14c-66 0 -88 35 -88 73c0 48 29 87 78 106h-12c-8 0 -14 6 -14 14v52c-33 -53 -98 -78 -165 -78c-112 0 -174 50 -174 138s71 139 185 139h154v46c0 85 -55 131 -147 131 c-81 0 -113 -36 -137 -73c-3 -5 -8 -7 -12 -7c-8 0 -14 6 -14 14c0 3 1 6 3 9c26 42 76 83 160 83c123 0 175 -66 175 -165v-277h60c7 0 13 -6 13 -13s-6 -13 -13 -13h-30c-58 -29 -84 -62 -84 -102c0 -29 15 -53 64 -53c22 0 32 3 45 9zM75 126c0 -69 46 -112 143 -112 c87 0 165 47 165 141v85h-154c-90 0 -154 -37 -154 -114z" />
<glyph unicode="&#x1fb;" horiz-adv-x="506" d="M366 821c6 7 14 8 22 1c7 -6 8 -15 1 -22l-96 -104c38 -13 56 -45 56 -90c0 -61 -33 -98 -104 -98s-104 37 -104 98s33 98 104 98c7 0 15 0 21 -1zM167 606c0 -52 23 -76 78 -76s78 24 78 76s-23 76 -78 76s-78 -24 -78 -76zM471 0h-74c-8 0 -14 6 -14 14v52 c-33 -53 -98 -78 -165 -78c-112 0 -174 50 -174 138s71 139 185 139h154v46c0 85 -55 131 -147 131c-81 0 -113 -36 -137 -73c-3 -5 -8 -7 -12 -7c-8 0 -14 6 -14 14c0 3 1 6 3 9c26 42 76 83 160 83c123 0 175 -66 175 -165v-277h60c7 0 13 -6 13 -13s-6 -13 -13 -13z M75 126c0 -69 46 -112 143 -112c87 0 165 47 165 141v85h-154c-90 0 -154 -37 -154 -114z" />
<glyph unicode="&#xe6;" horiz-adv-x="825" d="M385 312c0 85 -55 130 -147 130c-81 0 -113 -36 -137 -73c-3 -5 -8 -7 -12 -7c-8 0 -14 6 -14 14c0 3 1 6 3 9c26 42 76 83 160 83c101 0 153 -44 168 -114c25 73 92 114 181 114c166 0 188 -116 188 -183c0 -11 0 -25 -2 -37c-2 -11 -9 -16 -22 -16h-338 c0 -144 62 -219 185 -219c75 0 112 26 141 50c3 2 5 3 8 3c7 0 13 -6 13 -13c0 -5 -3 -8 -6 -11c-16 -15 -64 -55 -156 -55c-97 0 -167 41 -193 124c-27 -86 -100 -123 -185 -123c-112 0 -176 45 -176 133s72 136 196 136h145v55zM75 121c0 -69 48 -107 145 -107 c87 0 165 51 165 144v74h-154c-90 0 -156 -34 -156 -111zM745 257c0 0 1 18 1 28c0 80 -31 157 -159 157c-109 0 -174 -65 -174 -185h332z" />
<glyph unicode="&#x1e3;" horiz-adv-x="825" d="M505 575c6 0 12 -5 12 -12c0 -6 -6 -12 -12 -12h-212c-6 0 -12 6 -12 12c0 7 6 12 12 12h212zM385 312c0 85 -55 130 -147 130c-81 0 -113 -36 -137 -73c-3 -5 -8 -7 -12 -7c-8 0 -14 6 -14 14c0 3 1 6 3 9c26 42 76 83 160 83c101 0 153 -44 168 -114 c25 73 92 114 181 114c166 0 188 -116 188 -183c0 -11 0 -25 -2 -37c-2 -11 -9 -16 -22 -16h-338c0 -144 62 -219 185 -219c75 0 112 26 141 50c3 2 5 3 8 3c7 0 13 -6 13 -13c0 -5 -3 -8 -6 -11c-16 -15 -64 -55 -156 -55c-97 0 -167 41 -193 124 c-27 -86 -100 -123 -185 -123c-112 0 -176 45 -176 133s72 136 196 136h145v55zM75 121c0 -69 48 -107 145 -107c87 0 165 51 165 144v74h-154c-90 0 -156 -34 -156 -111zM745 257c0 0 1 18 1 28c0 80 -31 157 -159 157c-109 0 -174 -65 -174 -185h332z" />
<glyph unicode="&#x1fd;" horiz-adv-x="825" d="M467 656c6 7 14 8 22 1c7 -6 8 -15 1 -22l-104 -112c-6 -7 -12 -5 -16 -1c-5 5 -7 10 -2 16zM385 312c0 85 -55 130 -147 130c-81 0 -113 -36 -137 -73c-3 -5 -8 -7 -12 -7c-8 0 -14 6 -14 14c0 3 1 6 3 9c26 42 76 83 160 83c101 0 153 -44 168 -114 c25 73 92 114 181 114c166 0 188 -116 188 -183c0 -11 0 -25 -2 -37c-2 -11 -9 -16 -22 -16h-338c0 -144 62 -219 185 -219c75 0 112 26 141 50c3 2 5 3 8 3c7 0 13 -6 13 -13c0 -5 -3 -8 -6 -11c-16 -15 -64 -55 -156 -55c-97 0 -167 41 -193 124 c-27 -86 -100 -123 -185 -123c-112 0 -176 45 -176 133s72 136 196 136h145v55zM75 121c0 -69 48 -107 145 -107c87 0 165 51 165 144v74h-154c-90 0 -156 -34 -156 -111zM745 257c0 0 1 18 1 28c0 80 -31 157 -159 157c-109 0 -174 -65 -174 -185h332z" />
<glyph unicode="&#xe7;" horiz-adv-x="452" d="M269 -41c49 0 80 -23 80 -67c0 -41 -31 -71 -88 -71c-28 0 -51 9 -61 18c-3 3 -4 7 -4 10c0 7 4 12 10 12c3 0 5 -1 8 -3c11 -7 25 -14 47 -14c41 0 62 16 62 48c0 35 -26 45 -54 45c-20 0 -31 -6 -37 -6s-11 5 -11 11l2 48c-106 13 -168 90 -168 238 c0 164 77 240 205 240c99 0 138 -54 148 -67c2 -3 3 -6 3 -9c0 -7 -6 -13 -13 -13c-5 0 -8 2 -11 6c-17 20 -47 57 -127 57c-113 0 -173 -66 -173 -214c0 -150 60 -215 173 -215c69 0 107 29 133 49c3 2 5 3 8 3c7 0 13 -6 13 -13c0 -3 -1 -7 -6 -11 c-20 -16 -67 -54 -148 -54c-6 0 -12 0 -17 1l-3 -33s13 4 29 4z" />
<glyph unicode="&#x107;" horiz-adv-x="452" d="M260 -13c-128 0 -205 77 -205 241s77 240 205 240c99 0 138 -54 148 -67c2 -3 3 -6 3 -9c0 -7 -6 -13 -13 -13c-5 0 -8 2 -11 6c-17 20 -47 57 -127 57c-113 0 -173 -66 -173 -214c0 -150 60 -215 173 -215c69 0 107 29 133 49c3 2 5 3 8 3c7 0 13 -6 13 -13 c0 -3 -1 -7 -6 -11c-20 -16 -67 -54 -148 -54zM297 656c6 7 14 8 22 1c7 -6 8 -15 1 -22l-104 -112c-6 -7 -12 -5 -16 -1c-5 5 -7 10 -2 16z" />
<glyph unicode="&#x109;" horiz-adv-x="452" d="M260 -13c-128 0 -205 77 -205 241s77 240 205 240c99 0 138 -54 148 -67c2 -3 3 -6 3 -9c0 -7 -6 -13 -13 -13c-5 0 -8 2 -11 6c-17 20 -47 57 -127 57c-113 0 -173 -66 -173 -214c0 -150 60 -215 173 -215c69 0 107 29 133 49c3 2 5 3 8 3c7 0 13 -6 13 -13 c0 -3 -1 -7 -6 -11c-20 -16 -67 -54 -148 -54zM354 531l-93 84l-93 -84c-2 -2 -5 -4 -9 -4c-7 0 -13 6 -13 13c0 5 3 8 5 10l99 89c3 3 7 5 11 5s8 -2 11 -5l99 -89c2 -2 5 -5 5 -10c0 -7 -6 -13 -13 -13c-4 0 -7 2 -9 4z" />
<glyph unicode="&#x10b;" horiz-adv-x="452" d="M260 -13c-128 0 -205 77 -205 241s77 240 205 240c99 0 138 -54 148 -67c2 -3 3 -6 3 -9c0 -7 -6 -13 -13 -13c-5 0 -8 2 -11 6c-17 20 -47 57 -127 57c-113 0 -173 -66 -173 -214c0 -150 60 -215 173 -215c69 0 107 29 133 49c3 2 5 3 8 3c7 0 13 -6 13 -13 c0 -3 -1 -7 -6 -11c-20 -16 -67 -54 -148 -54zM283 574c0 -15 -8 -22 -22 -22s-22 7 -22 22c0 16 8 23 22 23s22 -7 22 -23z" />
<glyph unicode="&#x10d;" horiz-adv-x="452" d="M260 -13c-128 0 -205 77 -205 241s77 240 205 240c99 0 138 -54 148 -67c2 -3 3 -6 3 -9c0 -7 -6 -13 -13 -13c-5 0 -8 2 -11 6c-17 20 -47 57 -127 57c-113 0 -173 -66 -173 -214c0 -150 60 -215 173 -215c69 0 107 29 133 49c3 2 5 3 8 3c7 0 13 -6 13 -13 c0 -3 -1 -7 -6 -11c-20 -16 -67 -54 -148 -54zM169 640l93 -84l93 84c2 2 5 4 9 4c7 0 13 -6 13 -13c0 -5 -3 -8 -5 -10l-99 -89c-3 -3 -7 -5 -11 -5s-8 2 -11 5l-99 89c-2 2 -5 5 -5 10c0 7 6 13 13 13c4 0 7 -2 9 -4z" />
<glyph unicode="&#x10f;" horiz-adv-x="570" d="M541 712h5c10 0 18 -5 17 -17l-13 -123c0 -5 -4 -8 -9 -8c-6 0 -10 3 -10 8l-7 123c-1 12 6 17 17 17zM363 712h75c7 0 15 -6 15 -15v-671h60c7 0 13 -6 13 -13s-6 -13 -13 -13h-77c-9 0 -13 6 -13 12v52c-34 -52 -92 -77 -163 -77c-128 0 -205 77 -205 241 s77 240 205 240c123 0 163 -95 163 -95v313h-60c-7 0 -13 6 -13 13s6 13 13 13zM423 325c0 0 -39 117 -163 117c-113 0 -173 -66 -173 -214c0 -150 60 -215 173 -215c91 0 163 48 163 159v153z" />
<glyph unicode="&#x111;" d="M363 712h75c7 0 15 -6 15 -15v-97h57c7 0 13 -6 13 -13s-6 -13 -13 -13h-57v-548h60c7 0 13 -6 13 -13s-6 -13 -13 -13h-77c-9 0 -13 6 -13 12v52c-34 -52 -92 -77 -163 -77c-128 0 -205 77 -205 241s77 240 205 240c123 0 163 -95 163 -95v201h-96c-7 0 -13 6 -13 13 s6 13 13 13h96v86h-60c-7 0 -13 6 -13 13s6 13 13 13zM423 325c0 0 -39 117 -163 117c-113 0 -173 -66 -173 -214c0 -150 60 -215 173 -215c91 0 163 48 163 159v153z" />
<glyph unicode="&#xf0;" horiz-adv-x="533" d="M55 228c0 164 76 240 204 240c77 0 132 -30 166 -82c-20 81 -55 154 -103 205l-78 -50c-3 -2 -7 -2 -7 -2c-7 0 -12 5 -12 12c0 5 3 9 6 11l74 47c-30 32 -71 61 -109 81c-5 3 -7 7 -7 11c0 6 5 11 11 11c3 0 6 -1 8 -2c42 -22 85 -54 117 -87l62 40c3 2 6 2 7 2 c6 0 12 -6 12 -12c0 -4 -1 -7 -5 -10l-59 -38c78 -92 121 -195 121 -377c0 -164 -76 -241 -204 -241s-204 77 -204 241zM85 228c0 -150 61 -215 174 -215s174 65 174 215c0 148 -61 214 -174 214s-174 -66 -174 -214z" />
<glyph unicode="&#xe8;" horiz-adv-x="497" d="M270 -13c-133 0 -215 72 -215 241c0 155 76 240 204 240c166 0 188 -124 188 -191c0 -11 0 -25 -2 -37c-2 -11 -9 -16 -22 -16h-337c0 -144 67 -211 184 -211c75 0 112 26 141 50c3 2 5 3 8 3c7 0 13 -6 13 -13c0 -5 -3 -8 -6 -11c-16 -15 -64 -55 -156 -55zM417 249 c0 0 1 20 1 28c0 80 -31 165 -159 165c-113 0 -169 -74 -173 -193h331zM189 635c-7 7 -6 16 1 22c8 7 16 6 22 -1l99 -118c5 -6 3 -11 -2 -16c-4 -4 -10 -6 -16 1z" />
<glyph unicode="&#xe9;" horiz-adv-x="497" d="M270 -13c-133 0 -215 72 -215 241c0 155 76 240 204 240c166 0 188 -124 188 -191c0 -11 0 -25 -2 -37c-2 -11 -9 -16 -22 -16h-337c0 -144 67 -211 184 -211c75 0 112 26 141 50c3 2 5 3 8 3c7 0 13 -6 13 -13c0 -5 -3 -8 -6 -11c-16 -15 -64 -55 -156 -55zM417 249 c0 0 1 20 1 28c0 80 -31 165 -159 165c-113 0 -169 -74 -173 -193h331zM313 656c6 7 14 8 22 1c7 -6 8 -15 1 -22l-104 -112c-6 -7 -12 -5 -16 -1c-5 5 -7 10 -2 16z" />
<glyph unicode="&#xea;" horiz-adv-x="497" d="M270 -13c-133 0 -215 72 -215 241c0 155 76 240 204 240c166 0 188 -124 188 -191c0 -11 0 -25 -2 -37c-2 -11 -9 -16 -22 -16h-337c0 -144 67 -211 184 -211c75 0 112 26 141 50c3 2 5 3 8 3c7 0 13 -6 13 -13c0 -5 -3 -8 -6 -11c-16 -15 -64 -55 -156 -55zM417 249 c0 0 1 20 1 28c0 80 -31 165 -159 165c-113 0 -169 -74 -173 -193h331zM356 531l-93 84l-93 -84c-2 -2 -5 -4 -9 -4c-7 0 -13 6 -13 13c0 5 3 8 5 10l99 89c3 3 7 5 11 5s8 -2 11 -5l99 -89c2 -2 5 -5 5 -10c0 -7 -6 -13 -13 -13c-4 0 -7 2 -9 4z" />
<glyph unicode="&#xeb;" horiz-adv-x="497" d="M270 -13c-133 0 -215 72 -215 241c0 155 76 240 204 240c166 0 188 -124 188 -191c0 -11 0 -25 -2 -37c-2 -11 -9 -16 -22 -16h-337c0 -144 67 -211 184 -211c75 0 112 26 141 50c3 2 5 3 8 3c7 0 13 -6 13 -13c0 -5 -3 -8 -6 -11c-16 -15 -64 -55 -156 -55zM417 249 c0 0 1 20 1 28c0 80 -31 165 -159 165c-113 0 -169 -74 -173 -193h331zM208 573c0 -16 -7 -23 -22 -23s-22 7 -22 23s7 23 22 23s22 -7 22 -23zM368 573c0 -16 -7 -23 -22 -23s-22 7 -22 23s7 23 22 23s22 -7 22 -23z" />
<glyph unicode="&#x113;" horiz-adv-x="497" d="M270 -13c-133 0 -215 72 -215 241c0 155 76 240 204 240c166 0 188 -124 188 -191c0 -11 0 -25 -2 -37c-2 -11 -9 -16 -22 -16h-337c0 -144 67 -211 184 -211c75 0 112 26 141 50c3 2 5 3 8 3c7 0 13 -6 13 -13c0 -5 -3 -8 -6 -11c-16 -15 -64 -55 -156 -55zM417 249 c0 0 1 20 1 28c0 80 -31 165 -159 165c-113 0 -169 -74 -173 -193h331zM377 576c6 0 12 -5 12 -12c0 -6 -6 -12 -12 -12h-212c-6 0 -12 6 -12 12c0 7 6 12 12 12h212z" />
<glyph unicode="&#x115;" horiz-adv-x="497" d="M270 -13c-133 0 -215 72 -215 241c0 155 76 240 204 240c166 0 188 -124 188 -191c0 -11 0 -25 -2 -37c-2 -11 -9 -16 -22 -16h-337c0 -144 67 -211 184 -211c75 0 112 26 141 50c3 2 5 3 8 3c7 0 13 -6 13 -13c0 -5 -3 -8 -6 -11c-16 -15 -64 -55 -156 -55zM417 249 c0 0 1 20 1 28c0 80 -31 165 -159 165c-113 0 -169 -74 -173 -193h331zM364 625c0 -70 -50 -96 -105 -96s-105 26 -105 96c0 7 6 13 13 13s13 -6 13 -13c0 -49 27 -72 79 -72s79 23 79 72c0 7 6 13 13 13s13 -6 13 -13z" />
<glyph unicode="&#x117;" horiz-adv-x="497" d="M270 -13c-133 0 -215 72 -215 241c0 155 76 240 204 240c166 0 188 -124 188 -191c0 -11 0 -25 -2 -37c-2 -11 -9 -16 -22 -16h-337c0 -144 67 -211 184 -211c75 0 112 26 141 50c3 2 5 3 8 3c7 0 13 -6 13 -13c0 -5 -3 -8 -6 -11c-16 -15 -64 -55 -156 -55zM417 249 c0 0 1 20 1 28c0 80 -31 165 -159 165c-113 0 -169 -74 -173 -193h331zM285 574c0 -15 -8 -22 -22 -22s-22 7 -22 22c0 16 8 23 22 23s22 -7 22 -23z" />
<glyph unicode="&#x119;" horiz-adv-x="497" d="M380 -146c2 1 4 2 7 2c6 0 11 -5 11 -11c0 -5 -3 -8 -6 -10c-16 -9 -36 -14 -59 -14c-66 0 -88 35 -88 73c0 39 20 73 55 95c-10 -1 -20 -2 -30 -2c-133 0 -215 72 -215 241c0 155 76 240 204 240c166 0 188 -124 188 -191c0 -11 0 -25 -2 -37c-2 -11 -9 -16 -22 -16 h-337c0 -144 67 -211 184 -211c75 0 112 26 141 50c3 2 5 3 8 3c7 0 13 -6 13 -13c0 -5 -3 -8 -6 -11c-10 -10 -32 -28 -69 -41c-60 -29 -86 -62 -86 -103c0 -29 15 -53 64 -53c22 0 32 3 45 9zM417 249c0 0 1 20 1 28c0 80 -31 165 -159 165c-113 0 -169 -74 -173 -193h331 z" />
<glyph unicode="&#x11b;" horiz-adv-x="497" d="M270 -13c-133 0 -215 72 -215 241c0 155 76 240 204 240c166 0 188 -124 188 -191c0 -11 0 -25 -2 -37c-2 -11 -9 -16 -22 -16h-337c0 -144 67 -211 184 -211c75 0 112 26 141 50c3 2 5 3 8 3c7 0 13 -6 13 -13c0 -5 -3 -8 -6 -11c-16 -15 -64 -55 -156 -55zM417 249 c0 0 1 20 1 28c0 80 -31 165 -159 165c-113 0 -169 -74 -173 -193h331zM176 640l93 -84l93 84c2 2 5 4 9 4c7 0 13 -6 13 -13c0 -5 -3 -8 -5 -10l-99 -89c-3 -3 -7 -5 -11 -5s-8 2 -11 5l-99 89c-2 2 -5 5 -5 10c0 7 6 13 13 13c4 0 7 -2 9 -4z" />
<glyph unicode="&#x11d;" horiz-adv-x="484" d="M238 468c46 0 86 -11 115 -30c11 36 42 59 90 59c7 0 13 -6 13 -13s-6 -13 -13 -13c-44 0 -61 -17 -70 -50c27 -28 42 -68 42 -115c0 -99 -64 -162 -177 -162c-44 0 -82 9 -110 26c-31 -8 -43 -25 -43 -52c0 -36 25 -54 93 -54h125c87 0 158 -39 158 -128 c0 -99 -90 -137 -211 -137c-102 0 -209 29 -209 133c0 63 44 101 87 111c-32 9 -71 21 -71 75c0 33 18 57 51 68c-31 28 -47 69 -47 120c0 99 64 162 177 162zM238 442c-97 0 -146 -51 -146 -136s49 -136 146 -136s146 51 146 136s-49 136 -146 136zM303 37h-122 c-74 -10 -109 -49 -109 -105c0 -81 82 -107 179 -107s179 26 179 111c0 75 -57 101 -127 101zM338 531l-93 84l-93 -84c-2 -2 -5 -4 -9 -4c-7 0 -13 6 -13 13c0 5 3 8 5 10l99 89c3 3 7 5 11 5s8 -2 11 -5l99 -89c2 -2 5 -5 5 -10c0 -7 -6 -13 -13 -13c-4 0 -7 2 -9 4z" />
<glyph unicode="&#x11f;" horiz-adv-x="484" d="M238 468c46 0 86 -11 115 -30c11 36 42 59 90 59c7 0 13 -6 13 -13s-6 -13 -13 -13c-44 0 -61 -17 -70 -50c27 -28 42 -68 42 -115c0 -99 -64 -162 -177 -162c-44 0 -82 9 -110 26c-31 -8 -43 -25 -43 -52c0 -36 25 -54 93 -54h125c87 0 158 -39 158 -128 c0 -99 -90 -137 -211 -137c-102 0 -209 29 -209 133c0 63 44 101 87 111c-32 9 -71 21 -71 75c0 33 18 57 51 68c-31 28 -47 69 -47 120c0 99 64 162 177 162zM238 442c-97 0 -146 -51 -146 -136s49 -136 146 -136s146 51 146 136s-49 136 -146 136zM303 37h-122 c-74 -10 -109 -49 -109 -105c0 -81 82 -107 179 -107s179 26 179 111c0 75 -57 101 -127 101zM345 625c0 -70 -50 -96 -105 -96s-105 26 -105 96c0 7 6 13 13 13s13 -6 13 -13c0 -49 27 -72 79 -72s79 23 79 72c0 7 6 13 13 13s13 -6 13 -13z" />
<glyph unicode="&#x121;" horiz-adv-x="484" d="M238 468c46 0 86 -11 115 -30c11 36 42 59 90 59c7 0 13 -6 13 -13s-6 -13 -13 -13c-44 0 -61 -17 -70 -50c27 -28 42 -68 42 -115c0 -99 -64 -162 -177 -162c-44 0 -82 9 -110 26c-31 -8 -43 -25 -43 -52c0 -36 25 -54 93 -54h125c87 0 158 -39 158 -128 c0 -99 -90 -137 -211 -137c-102 0 -209 29 -209 133c0 63 44 101 87 111c-32 9 -71 21 -71 75c0 33 18 57 51 68c-31 28 -47 69 -47 120c0 99 64 162 177 162zM238 442c-97 0 -146 -51 -146 -136s49 -136 146 -136s146 51 146 136s-49 136 -146 136zM303 37h-122 c-74 -10 -109 -49 -109 -105c0 -81 82 -107 179 -107s179 26 179 111c0 75 -57 101 -127 101zM259 574c0 -15 -8 -22 -22 -22s-22 7 -22 22c0 16 8 23 22 23s22 -7 22 -23z" />
<glyph unicode="&#x123;" horiz-adv-x="484" d="M238 468c46 0 86 -11 115 -30c11 36 42 59 90 59c7 0 13 -6 13 -13s-6 -13 -13 -13c-44 0 -61 -17 -70 -50c27 -28 42 -68 42 -115c0 -99 -64 -162 -177 -162c-44 0 -82 9 -110 26c-31 -8 -43 -25 -43 -52c0 -36 25 -54 93 -54h125c87 0 158 -39 158 -128 c0 -99 -90 -137 -211 -137c-102 0 -209 29 -209 133c0 63 44 101 87 111c-32 9 -71 21 -71 75c0 33 18 57 51 68c-31 28 -47 69 -47 120c0 99 64 162 177 162zM238 442c-97 0 -146 -51 -146 -136s49 -136 146 -136s146 51 146 136s-49 136 -146 136zM303 37h-122 c-74 -10 -109 -49 -109 -105c0 -81 82 -107 179 -107s179 26 179 111c0 75 -57 101 -127 101zM219 493c-18 0 -26 12 -26 30c0 46 14 91 31 112c4 5 7 6 11 6c5 0 10 -4 10 -9c0 -3 -1 -6 -4 -11c-13 -22 -20 -45 -20 -70c16 -4 24 -15 24 -32c0 -14 -7 -26 -26 -26z" />
<glyph unicode="&#x2018;" horiz-adv-x="176" d="M87 533c-18 0 -26 12 -26 30c0 46 14 91 31 112c4 5 7 6 11 6c5 0 10 -4 10 -9c0 -3 -1 -6 -4 -11c-13 -22 -20 -45 -20 -70c16 -4 24 -15 24 -32c0 -14 -7 -26 -26 -26z" />
<glyph unicode="&#x125;" horiz-adv-x="567" d="M382 26h60v265c0 81 -28 151 -150 151c-109 0 -156 -88 -156 -161v-255h60c7 0 13 -6 13 -13s-6 -13 -13 -13h-150c-7 0 -13 6 -13 13s6 13 13 13h60v660h-60c-7 0 -13 6 -13 13s6 13 13 13h75c9 0 15 -8 15 -15v-325c15 40 61 96 157 96c144 0 179 -85 179 -177v-265h60 c7 0 13 -6 13 -13s-6 -13 -13 -13h-150c-7 0 -13 6 -13 13s6 13 13 13zM216 753l-93 84l-93 -84c-2 -2 -5 -4 -9 -4c-7 0 -13 6 -13 13c0 5 3 8 5 10l99 89c3 3 7 5 11 5s8 -2 11 -5l99 -89c2 -2 5 -5 5 -10c0 -7 -6 -13 -13 -13c-4 0 -7 2 -9 4z" />
<glyph unicode="&#x127;" horiz-adv-x="567" d="M382 26h60v265c0 81 -28 151 -150 151c-109 0 -156 -88 -156 -161v-255h60c7 0 13 -6 13 -13s-6 -13 -13 -13h-150c-7 0 -13 6 -13 13s6 13 13 13h60v528h-59c-7 0 -13 6 -13 13s6 13 13 13h59v106h-60c-7 0 -13 6 -13 13s6 13 13 13h75c9 0 15 -8 15 -15v-117h98 c7 0 13 -6 13 -13s-6 -13 -13 -13h-98v-182c15 40 61 96 157 96c144 0 179 -85 179 -177v-265h60c7 0 13 -6 13 -13s-6 -13 -13 -13h-150c-7 0 -13 6 -13 13s6 13 13 13z" />
<glyph unicode="&#xec;" horiz-adv-x="254" d="M54 454h75c9 0 15 -7 15 -15v-413h60c7 0 13 -6 13 -13s-6 -13 -13 -13h-150c-7 0 -13 6 -13 13s6 13 13 13h60v402h-60c-7 0 -13 6 -13 13s6 13 13 13zM45 635c-7 7 -6 16 1 22c8 7 16 6 22 -1l99 -118c5 -6 3 -11 -2 -16c-4 -4 -10 -6 -16 1z" />
<glyph unicode="&#x131;" horiz-adv-x="254" d="M55 454h75c9 0 15 -7 15 -15v-413h60c7 0 13 -6 13 -13s-6 -13 -13 -13h-150c-7 0 -13 6 -13 13s6 13 13 13h60v402h-60c-7 0 -13 6 -13 13s6 13 13 13z" />
<glyph unicode="&#xed;" horiz-adv-x="254" d="M55 454h75c9 0 15 -7 15 -15v-413h60c7 0 13 -6 13 -13s-6 -13 -13 -13h-150c-7 0 -13 6 -13 13s6 13 13 13h60v402h-60c-7 0 -13 6 -13 13s6 13 13 13zM195 656c6 7 14 8 22 1c7 -6 8 -15 1 -22l-104 -112c-6 -7 -12 -5 -16 -1c-5 5 -7 10 -2 16z" />
<glyph unicode="&#xee;" horiz-adv-x="254" d="M55 454h75c9 0 15 -7 15 -15v-413h60c7 0 13 -6 13 -13s-6 -13 -13 -13h-150c-7 0 -13 6 -13 13s6 13 13 13h60v402h-60c-7 0 -13 6 -13 13s6 13 13 13zM221 531l-93 84l-93 -84c-2 -2 -5 -4 -9 -4c-7 0 -13 6 -13 13c0 5 3 8 5 10l99 89c3 3 7 5 11 5s8 -2 11 -5l99 -89 c2 -2 5 -5 5 -10c0 -7 -6 -13 -13 -13c-4 0 -7 2 -9 4z" />
<glyph unicode="&#xef;" horiz-adv-x="254" d="M55 454h75c9 0 15 -7 15 -15v-413h60c7 0 13 -6 13 -13s-6 -13 -13 -13h-150c-7 0 -13 6 -13 13s6 13 13 13h60v402h-60c-7 0 -13 6 -13 13s6 13 13 13zM72 573c0 -16 -7 -23 -22 -23s-22 7 -22 23s7 23 22 23s22 -7 22 -23zM232 573c0 -16 -7 -23 -22 -23s-22 7 -22 23 s7 23 22 23s22 -7 22 -23z" />
<glyph unicode="&#x129;" horiz-adv-x="254" d="M55 454h75c9 0 15 -7 15 -15v-413h60c7 0 13 -6 13 -13s-6 -13 -13 -13h-150c-7 0 -13 6 -13 13s6 13 13 13h60v402h-60c-7 0 -13 6 -13 13s6 13 13 13zM269 580c-8 -18 -31 -46 -73 -46c-57 0 -83 42 -132 42c-31 0 -45 -15 -53 -34c-2 -5 -7 -8 -12 -8 c-7 0 -13 6 -13 13c0 3 1 6 2 8c9 20 32 46 76 46c57 0 83 -42 132 -42c26 0 44 13 51 34c2 5 7 8 12 8c6 0 12 -6 12 -13c0 -3 -1 -6 -2 -8z" />
<glyph unicode="&#x12b;" horiz-adv-x="254" d="M55 454h75c9 0 15 -7 15 -15v-413h60c7 0 13 -6 13 -13s-6 -13 -13 -13h-150c-7 0 -13 6 -13 13s6 13 13 13h60v402h-60c-7 0 -13 6 -13 13s6 13 13 13zM234 576c6 0 12 -5 12 -12c0 -6 -6 -12 -12 -12h-212c-6 0 -12 6 -12 12c0 7 6 12 12 12h212z" />
<glyph unicode="&#x12d;" horiz-adv-x="254" d="M55 454h75c9 0 15 -7 15 -15v-413h60c7 0 13 -6 13 -13s-6 -13 -13 -13h-150c-7 0 -13 6 -13 13s6 13 13 13h60v402h-60c-7 0 -13 6 -13 13s6 13 13 13zM233 625c0 -70 -50 -96 -105 -96s-105 26 -105 96c0 7 6 13 13 13s13 -6 13 -13c0 -49 27 -72 79 -72s79 23 79 72 c0 7 6 13 13 13s13 -6 13 -13z" />
<glyph unicode="&#x12f;" horiz-adv-x="254" d="M200 -146c2 1 4 2 7 2c6 0 11 -5 11 -11c0 -5 -3 -8 -6 -10c-16 -9 -36 -14 -59 -14c-66 0 -88 35 -88 73c0 48 29 87 78 106h-88c-7 0 -13 6 -13 13s6 13 13 13h60v402h-60c-7 0 -13 6 -13 13s6 13 13 13h75c8 0 15 -5 15 -15v-413h60c7 0 13 -6 13 -13s-6 -13 -13 -13 h-30c-58 -29 -84 -62 -84 -102c0 -29 15 -53 64 -53c22 0 32 3 45 9zM148 613c0 -15 -6 -21 -18 -21s-18 6 -18 21s6 21 18 21s18 -6 18 -21z" />
<glyph unicode="&#x135;" horiz-adv-x="223" d="M45 454h74c9 0 16 -6 16 -15v-497c0 -79 -58 -143 -138 -143h-4c-7 0 -13 6 -13 13s6 13 13 13h4c64 0 108 53 108 117v486h-60c-7 0 -13 6 -13 13s6 13 13 13zM212 531l-93 84l-93 -84c-2 -2 -5 -4 -9 -4c-7 0 -13 6 -13 13c0 5 3 8 5 10l99 89c3 3 7 5 11 5s8 -2 11 -5 l99 -89c2 -2 5 -5 5 -10c0 -7 -6 -13 -13 -13c-4 0 -7 2 -9 4z" />
<glyph unicode="&#x237;" horiz-adv-x="223" d="M45 454h74c9 0 16 -6 16 -15v-497c0 -79 -58 -143 -138 -143h-4c-7 0 -13 6 -13 13s6 13 13 13h4c64 0 108 53 108 117v486h-60c-7 0 -13 6 -13 13s6 13 13 13z" />
<glyph unicode="&#x137;" horiz-adv-x="507" d="M398 454h69c7 0 13 -6 13 -13s-6 -13 -13 -13h-65l-155 -144l197 -258h58c7 0 13 -6 13 -13s-6 -13 -13 -13h-68c-5 0 -8 2 -11 5l-198 259l-89 -83v-155h60c7 0 13 -6 13 -13s-6 -13 -13 -13h-150c-7 0 -13 6 -13 13s6 13 13 13h60v660h-60c-7 0 -13 6 -13 13 s6 13 13 13h76c9 0 14 -5 14 -15v-480l251 232c3 3 6 5 11 5zM245 -70c0 14 8 26 28 26c17 0 27 -12 27 -30c0 -41 -18 -80 -34 -100c-3 -4 -7 -6 -12 -6c-6 0 -11 5 -11 11c0 4 1 6 3 9c16 24 20 38 20 62c-14 3 -21 13 -21 28z" />
<glyph unicode="&#x138;" horiz-adv-x="512" d="M141 181v-155h60c7 0 13 -6 13 -13s-6 -13 -13 -13h-150c-7 0 -13 6 -13 13s6 13 13 13h60v402h-60c-7 0 -13 6 -13 13s6 13 13 13h75c10 0 15 -8 15 -15v-222l251 232c3 3 8 5 13 5h67c7 0 13 -6 13 -13s-6 -13 -13 -13h-65l-155 -144l197 -258h58c7 0 13 -6 13 -13 s-6 -13 -13 -13h-68c-5 0 -8 2 -11 5l-198 259z" />
<glyph unicode="&#x13a;" horiz-adv-x="228" d="M28 712h77c6 0 13 -5 13 -14v-598c0 -58 20 -82 63 -82h15c7 0 13 -6 13 -13s-6 -13 -13 -13h-15c-60 0 -93 37 -93 108v586h-60c-7 0 -13 6 -13 13s6 13 13 13zM167 878c6 7 14 8 22 1c7 -6 8 -15 1 -22l-104 -112c-6 -7 -12 -5 -16 -1c-5 5 -7 10 -2 16z" />
<glyph unicode="&#x13c;" horiz-adv-x="228" d="M28 712h77c6 0 13 -5 13 -14v-598c0 -58 20 -82 63 -82h15c7 0 13 -6 13 -13s-6 -13 -13 -13h-15c-60 0 -93 37 -93 108v586h-60c-7 0 -13 6 -13 13s6 13 13 13zM117 -70c0 14 8 26 28 26c17 0 27 -12 27 -30c0 -41 -18 -80 -34 -100c-3 -4 -7 -6 -12 -6 c-6 0 -11 5 -11 11c0 4 1 6 3 9c16 24 20 38 20 62c-14 3 -21 13 -21 28z" />
<glyph unicode="&#x13e;" horiz-adv-x="240" d="M28 712h77c6 0 13 -5 13 -14v-598c0 -58 20 -82 63 -82h15c7 0 13 -6 13 -13s-6 -13 -13 -13h-15c-60 0 -93 37 -93 108v586h-60c-7 0 -13 6 -13 13s6 13 13 13zM207 712h5c10 0 18 -5 17 -17l-13 -123c0 -5 -4 -8 -9 -8c-6 0 -10 3 -10 8l-7 123c-1 12 6 17 17 17z" />
<glyph unicode="&#x140;" horiz-adv-x="222" d="M28 712h77c6 0 13 -5 13 -14v-598c0 -58 20 -82 63 -82h15c7 0 13 -6 13 -13s-6 -13 -13 -13h-15c-60 0 -93 37 -93 108v586h-60c-7 0 -13 6 -13 13s6 13 13 13zM244 375c0 -20 -11 -29 -30 -29c-18 0 -29 9 -29 29c0 21 11 31 29 31c19 0 30 -10 30 -31z" />
<glyph unicode="&#x142;" horiz-adv-x="259" d="M53 712h77c6 0 13 -5 13 -14v-283l61 36c2 1 4 2 7 2c7 0 12 -5 12 -12c0 -5 -3 -8 -8 -11l-72 -42v-288c0 -58 20 -82 63 -82h15c7 0 13 -6 13 -13s-6 -13 -13 -13h-15c-60 0 -93 37 -93 108v271l-87 -50c-2 -1 -5 -2 -8 -2c-5 0 -11 4 -11 10c0 4 1 8 6 11l100 58v288 h-60c-7 0 -13 6 -13 13s6 13 13 13z" />
<glyph unicode="&#xf1;" horiz-adv-x="572" d="M387 26h60v265c0 81 -28 151 -150 151c-109 0 -156 -88 -156 -161v-255h60c7 0 13 -6 13 -13s-6 -13 -13 -13h-150c-7 0 -13 6 -13 13s6 13 13 13h60v402h-60c-7 0 -13 6 -13 13s6 13 13 13h75c9 0 15 -8 15 -15v-67c15 40 63 96 157 96c144 0 179 -85 179 -177v-265h60 c7 0 13 -6 13 -13s-6 -13 -13 -13h-150c-7 0 -13 6 -13 13s6 13 13 13zM436 580c-8 -18 -31 -46 -73 -46c-57 0 -83 42 -132 42c-31 0 -45 -15 -53 -34c-2 -5 -7 -8 -12 -8c-7 0 -13 6 -13 13c0 3 1 6 2 8c9 20 32 46 76 46c57 0 83 -42 132 -42c26 0 44 13 51 34 c2 5 7 8 12 8c6 0 12 -6 12 -13c0 -3 -1 -6 -2 -8z" />
<glyph unicode="&#x144;" horiz-adv-x="572" d="M387 26h60v265c0 81 -28 151 -150 151c-109 0 -156 -88 -156 -161v-255h60c7 0 13 -6 13 -13s-6 -13 -13 -13h-150c-7 0 -13 6 -13 13s6 13 13 13h60v402h-60c-7 0 -13 6 -13 13s6 13 13 13h75c9 0 15 -8 15 -15v-67c15 40 63 96 157 96c144 0 179 -85 179 -177v-265h60 c7 0 13 -6 13 -13s-6 -13 -13 -13h-150c-7 0 -13 6 -13 13s6 13 13 13zM352 656c6 7 14 8 22 1c7 -6 8 -15 1 -22l-104 -112c-6 -7 -12 -5 -16 -1c-5 5 -7 10 -2 16z" />
<glyph unicode="&#x146;" horiz-adv-x="572" d="M387 26h60v265c0 81 -28 151 -150 151c-109 0 -156 -88 -156 -161v-255h60c7 0 13 -6 13 -13s-6 -13 -13 -13h-150c-7 0 -13 6 -13 13s6 13 13 13h60v402h-60c-7 0 -13 6 -13 13s6 13 13 13h75c9 0 15 -8 15 -15v-67c15 40 63 96 157 96c144 0 179 -85 179 -177v-265h60 c7 0 13 -6 13 -13s-6 -13 -13 -13h-150c-7 0 -13 6 -13 13s6 13 13 13zM261 -70c0 14 8 26 28 26c17 0 27 -12 27 -30c0 -41 -18 -80 -34 -100c-3 -4 -7 -6 -12 -6c-6 0 -11 5 -11 11c0 4 1 6 3 9c16 24 20 38 20 62c-14 3 -21 13 -21 28z" />
<glyph unicode="&#x148;" horiz-adv-x="572" d="M387 26h60v265c0 81 -28 151 -150 151c-109 0 -156 -88 -156 -161v-255h60c7 0 13 -6 13 -13s-6 -13 -13 -13h-150c-7 0 -13 6 -13 13s6 13 13 13h60v402h-60c-7 0 -13 6 -13 13s6 13 13 13h75c9 0 15 -8 15 -15v-67c15 40 63 96 157 96c144 0 179 -85 179 -177v-265h60 c7 0 13 -6 13 -13s-6 -13 -13 -13h-150c-7 0 -13 6 -13 13s6 13 13 13zM200 640l93 -84l93 84c2 2 5 4 9 4c7 0 13 -6 13 -13c0 -5 -3 -8 -5 -10l-99 -89c-3 -3 -7 -5 -11 -5s-8 2 -11 5l-99 89c-2 2 -5 5 -5 10c0 7 6 13 13 13c4 0 7 -2 9 -4z" />
<glyph unicode="&#x149;" horiz-adv-x="578" d="M393 26h60v265c0 81 -28 151 -150 151c-109 0 -156 -88 -156 -161v-255h60c7 0 13 -6 13 -13s-6 -13 -13 -13h-150c-7 0 -13 6 -13 13s6 13 13 13h60v402h-60c-7 0 -13 6 -13 13s6 13 13 13h75c9 0 15 -8 15 -15v-67c15 40 63 96 157 96c144 0 179 -85 179 -177v-265h60 c7 0 13 -6 13 -13s-6 -13 -13 -13h-150c-7 0 -13 6 -13 13s6 13 13 13zM96 647c0 14 8 26 28 26c17 0 27 -12 27 -30c0 -41 -18 -80 -34 -100c-3 -4 -7 -6 -12 -6c-6 0 -11 5 -11 11c0 4 1 6 3 9c16 24 20 38 20 62c-14 3 -21 13 -21 28z" />
<glyph unicode="&#x14b;" horiz-adv-x="555" d="M338 -201h-4c-7 0 -13 6 -13 13s6 13 13 13h4c65 0 109 52 109 117v349c0 81 -28 151 -150 151c-109 0 -156 -88 -156 -161v-255h60c7 0 13 -6 13 -13s-6 -13 -13 -13h-150c-7 0 -13 6 -13 13s6 13 13 13h60v402h-60c-7 0 -13 6 -13 13s6 13 13 13h75c9 0 15 -7 15 -15 v-67c15 40 63 96 157 96c144 0 179 -85 179 -177v-349c0 -80 -58 -143 -139 -143z" />
<glyph unicode="&#xf2;" horiz-adv-x="520" d="M465 228c0 -164 -77 -241 -205 -241s-205 77 -205 241s77 240 205 240s205 -76 205 -240zM260 13c112 0 173 66 173 215c0 147 -61 214 -173 214s-173 -67 -173 -214c0 -149 61 -215 173 -215zM200 635c-7 7 -6 16 1 22c8 7 16 6 22 -1l99 -118c5 -6 3 -11 -2 -16 c-4 -4 -10 -6 -16 1z" />
<glyph unicode="&#xf3;" horiz-adv-x="520" d="M465 228c0 -164 -77 -241 -205 -241s-205 77 -205 241s77 240 205 240s205 -76 205 -240zM260 13c112 0 173 66 173 215c0 147 -61 214 -173 214s-173 -67 -173 -214c0 -149 61 -215 173 -215zM320 656c6 7 14 8 22 1c7 -6 8 -15 1 -22l-104 -112c-6 -7 -12 -5 -16 -1 c-5 5 -7 10 -2 16z" />
<glyph unicode="&#xf4;" horiz-adv-x="520" d="M465 228c0 -164 -77 -241 -205 -241s-205 77 -205 241s77 240 205 240s205 -76 205 -240zM260 13c112 0 173 66 173 215c0 147 -61 214 -173 214s-173 -67 -173 -214c0 -149 61 -215 173 -215zM355 531l-93 84l-93 -84c-2 -2 -5 -4 -9 -4c-7 0 -13 6 -13 13c0 5 3 8 5 10 l99 89c3 3 7 5 11 5s8 -2 11 -5l99 -89c2 -2 5 -5 5 -10c0 -7 -6 -13 -13 -13c-4 0 -7 2 -9 4z" />
<glyph unicode="&#xf5;" horiz-adv-x="520" d="M465 228c0 -164 -77 -241 -205 -241s-205 77 -205 241s77 240 205 240s205 -76 205 -240zM260 13c112 0 173 66 173 215c0 147 -61 214 -173 214s-173 -67 -173 -214c0 -149 61 -215 173 -215zM401 580c-8 -18 -31 -46 -73 -46c-57 0 -83 42 -132 42 c-31 0 -45 -15 -53 -34c-2 -5 -7 -8 -12 -8c-7 0 -13 6 -13 13c0 3 1 6 2 8c9 20 32 46 76 46c57 0 83 -42 132 -42c26 0 44 13 51 34c2 5 7 8 12 8c6 0 12 -6 12 -13c0 -3 -1 -6 -2 -8z" />
<glyph unicode="&#xf6;" horiz-adv-x="520" d="M465 228c0 -164 -77 -241 -205 -241s-205 77 -205 241s77 240 205 240s205 -76 205 -240zM260 13c112 0 173 66 173 215c0 147 -61 214 -173 214s-173 -67 -173 -214c0 -149 61 -215 173 -215zM202 573c0 -16 -7 -23 -22 -23s-22 7 -22 23s7 23 22 23s22 -7 22 -23z M362 573c0 -16 -7 -23 -22 -23s-22 7 -22 23s7 23 22 23s22 -7 22 -23z" />
<glyph unicode="&#x14d;" horiz-adv-x="520" d="M465 228c0 -164 -77 -241 -205 -241s-205 77 -205 241s77 240 205 240s205 -76 205 -240zM260 13c112 0 173 66 173 215c0 147 -61 214 -173 214s-173 -67 -173 -214c0 -149 61 -215 173 -215zM364 576c6 0 12 -5 12 -12c0 -6 -6 -12 -12 -12h-212c-6 0 -12 6 -12 12 c0 7 6 12 12 12h212z" />
<glyph unicode="&#x14f;" horiz-adv-x="520" d="M465 228c0 -164 -77 -241 -205 -241s-205 77 -205 241s77 240 205 240s205 -76 205 -240zM260 13c112 0 173 66 173 215c0 147 -61 214 -173 214s-173 -67 -173 -214c0 -149 61 -215 173 -215zM363 625c0 -70 -50 -96 -105 -96s-105 26 -105 96c0 7 6 13 13 13 s13 -6 13 -13c0 -49 27 -72 79 -72s79 23 79 72c0 7 6 13 13 13s13 -6 13 -13z" />
<glyph unicode="&#x151;" horiz-adv-x="520" d="M465 228c0 -164 -77 -241 -205 -241s-205 77 -205 241s77 240 205 240s205 -76 205 -240zM260 13c112 0 173 66 173 215c0 147 -61 214 -173 214s-173 -67 -173 -214c0 -149 61 -215 173 -215zM288 656c6 7 14 8 22 1c7 -6 8 -15 1 -22l-104 -112c-6 -7 -12 -5 -16 -1 c-5 5 -7 10 -2 16zM392 656c6 7 14 8 22 1c7 -6 8 -15 1 -22l-104 -112c-6 -7 -12 -5 -16 -1c-5 5 -7 10 -2 16z" />
<glyph unicode="&#xf8;" horiz-adv-x="536" d="M475 228c0 -164 -77 -241 -205 -241c-67 0 -120 21 -156 65l-49 -52c-3 -3 -6 -5 -11 -5c-8 0 -12 6 -12 12c0 4 1 7 4 10l53 56c-22 39 -34 90 -34 155c0 164 77 240 205 240c63 0 114 -19 149 -58l44 46c4 4 6 4 9 4c8 0 13 -5 13 -13c0 -3 -1 -6 -4 -9l-46 -48 c26 -39 40 -93 40 -162zM270 13c112 0 173 66 173 215c0 59 -10 105 -29 139l-280 -294c29 -41 75 -60 136 -60zM97 228c0 -55 8 -99 24 -132l278 293c-29 36 -73 53 -129 53c-112 0 -173 -67 -173 -214z" />
<glyph unicode="&#x1ff;" horiz-adv-x="536" d="M330 656c6 7 14 8 22 1c7 -6 8 -15 1 -22l-104 -112c-6 -7 -12 -5 -16 -1c-5 5 -7 10 -2 16zM475 228c0 -164 -77 -241 -205 -241c-67 0 -120 21 -156 65l-49 -52c-3 -3 -6 -5 -11 -5c-8 0 -12 6 -12 12c0 4 1 7 4 10l53 56c-22 39 -34 90 -34 155c0 164 77 240 205 240 c63 0 114 -19 149 -58l44 46c4 4 6 4 9 4c8 0 13 -5 13 -13c0 -3 -1 -6 -4 -9l-46 -48c26 -39 40 -93 40 -162zM270 13c112 0 173 66 173 215c0 59 -10 105 -29 139l-280 -294c29 -41 75 -60 136 -60zM97 228c0 -55 8 -99 24 -132l278 293c-29 36 -73 53 -129 53 c-112 0 -173 -67 -173 -214z" />
<glyph unicode="&#x153;" horiz-adv-x="874" d="M55 228c0 164 76 240 204 240c96 0 162 -43 190 -133c27 86 92 133 187 133c166 0 188 -124 188 -191c0 -11 0 -25 -2 -37c-2 -11 -9 -16 -22 -16h-337c0 -148 69 -211 184 -211c75 0 112 26 141 50c3 2 5 3 8 3c7 0 13 -6 13 -13c0 -5 -3 -8 -6 -11 c-16 -15 -64 -55 -156 -55c-100 0 -170 40 -199 132c-27 -90 -94 -132 -189 -132c-128 0 -204 77 -204 241zM85 228c0 -150 61 -215 174 -215s174 65 174 215c0 148 -61 214 -174 214s-174 -66 -174 -214zM795 249c0 0 1 18 1 28c0 80 -32 165 -160 165 c-113 0 -171 -73 -173 -193h332z" />
<glyph unicode="&#x155;" horiz-adv-x="346" d="M51 454h75c8 0 15 -7 15 -15v-90c21 67 77 118 171 118c7 0 13 -6 13 -13s-6 -13 -13 -13c-115 0 -171 -89 -171 -198v-217h106c7 0 13 -6 13 -13s-6 -13 -13 -13h-196c-7 0 -13 6 -13 13s6 13 13 13h60v402h-60c-7 0 -13 6 -13 13s6 13 13 13zM272 656c6 7 14 8 22 1 c7 -6 8 -15 1 -22l-104 -112c-6 -7 -12 -5 -16 -1c-5 5 -7 10 -2 16z" />
<glyph unicode="&#x157;" horiz-adv-x="346" d="M51 454h75c8 0 15 -7 15 -15v-90c21 67 77 118 171 118c7 0 13 -6 13 -13s-6 -13 -13 -13c-115 0 -171 -89 -171 -198v-217h106c7 0 13 -6 13 -13s-6 -13 -13 -13h-196c-7 0 -13 6 -13 13s6 13 13 13h60v402h-60c-7 0 -13 6 -13 13s6 13 13 13zM97 -70c0 14 8 26 28 26 c17 0 27 -12 27 -30c0 -41 -18 -80 -34 -100c-3 -4 -7 -6 -12 -6c-6 0 -11 5 -11 11c0 4 1 6 3 9c16 24 20 38 20 62c-14 3 -21 13 -21 28z" />
<glyph unicode="&#x159;" horiz-adv-x="346" d="M51 454h75c8 0 15 -7 15 -15v-90c21 67 77 118 171 118c7 0 13 -6 13 -13s-6 -13 -13 -13c-115 0 -171 -89 -171 -198v-217h106c7 0 13 -6 13 -13s-6 -13 -13 -13h-196c-7 0 -13 6 -13 13s6 13 13 13h60v402h-60c-7 0 -13 6 -13 13s6 13 13 13zM112 640l93 -84l93 84 c2 2 5 4 9 4c7 0 13 -6 13 -13c0 -5 -3 -8 -5 -10l-99 -89c-3 -3 -7 -5 -11 -5s-8 2 -11 5l-99 89c-2 2 -5 5 -5 10c0 7 6 13 13 13c4 0 7 -2 9 -4z" />
<glyph unicode="&#x15b;" horiz-adv-x="427" d="M342 389c-35 35 -73 53 -131 53c-59 0 -117 -21 -117 -86c0 -133 286 -87 286 -245c0 -85 -72 -124 -165 -124c-84 0 -146 36 -170 69c-3 4 -4 6 -4 10c0 8 7 13 13 13c3 0 6 -1 9 -4c34 -38 77 -62 152 -62c73 0 135 26 135 98c0 129 -286 87 -286 245 c0 77 65 112 147 112c68 0 116 -23 149 -60c3 -4 4 -6 4 -10c0 -7 -6 -13 -13 -13c-2 0 -5 0 -9 4zM276 656c6 7 14 8 22 1c7 -6 8 -15 1 -22l-104 -112c-6 -7 -12 -5 -16 -1c-5 5 -7 10 -2 16z" />
<glyph unicode="&#x15d;" horiz-adv-x="427" d="M342 389c-35 35 -73 53 -131 53c-59 0 -117 -21 -117 -86c0 -133 286 -87 286 -245c0 -85 -72 -124 -165 -124c-84 0 -146 36 -170 69c-3 4 -4 6 -4 10c0 8 7 13 13 13c3 0 6 -1 9 -4c34 -38 77 -62 152 -62c73 0 135 26 135 98c0 129 -286 87 -286 245 c0 77 65 112 147 112c68 0 116 -23 149 -60c3 -4 4 -6 4 -10c0 -7 -6 -13 -13 -13c-2 0 -5 0 -9 4zM312 531l-93 84l-93 -84c-2 -2 -5 -4 -9 -4c-7 0 -13 6 -13 13c0 5 3 8 5 10l99 89c3 3 7 5 11 5s8 -2 11 -5l99 -89c2 -2 5 -5 5 -10c0 -7 -6 -13 -13 -13c-4 0 -7 2 -9 4z " />
<glyph unicode="&#x15f;" horiz-adv-x="427" d="M215 -41c49 0 80 -23 80 -67c0 -41 -31 -71 -88 -71c-28 0 -51 9 -61 18c-3 3 -4 7 -4 10c0 7 4 12 10 12c3 0 5 -1 8 -3c11 -7 25 -14 47 -14c41 0 62 16 62 48c0 35 -26 45 -54 45c-20 0 -31 -6 -37 -6s-11 5 -11 11l2 49c-60 9 -105 38 -124 65c-3 4 -4 6 -4 10 c0 8 7 13 13 13c3 0 6 -1 9 -4c34 -38 77 -62 152 -62c73 0 135 26 135 98c0 129 -286 87 -286 245c0 77 65 112 147 112c68 0 116 -23 149 -60c3 -4 4 -6 4 -10c0 -7 -6 -13 -13 -13c-2 0 -5 0 -9 4c-35 35 -73 53 -131 53c-59 0 -117 -21 -117 -86 c0 -133 286 -87 286 -245c0 -85 -72 -124 -165 -124c-9 0 -18 0 -26 1l-3 -33s13 4 29 4z" />
<glyph unicode="&#x161;" horiz-adv-x="427" d="M342 389c-35 35 -73 53 -131 53c-59 0 -117 -21 -117 -86c0 -133 286 -87 286 -245c0 -85 -72 -124 -165 -124c-84 0 -146 36 -170 69c-3 4 -4 6 -4 10c0 8 7 13 13 13c3 0 6 -1 9 -4c34 -38 77 -62 152 -62c73 0 135 26 135 98c0 129 -286 87 -286 245 c0 77 65 112 147 112c68 0 116 -23 149 -60c3 -4 4 -6 4 -10c0 -7 -6 -13 -13 -13c-2 0 -5 0 -9 4zM120 640l93 -84l93 84c2 2 5 4 9 4c7 0 13 -6 13 -13c0 -5 -3 -8 -5 -10l-99 -89c-3 -3 -7 -5 -11 -5s-8 2 -11 5l-99 89c-2 2 -5 5 -5 10c0 7 6 13 13 13c4 0 7 -2 9 -4z " />
<glyph unicode="&#x219;" horiz-adv-x="427" d="M342 389c-35 35 -73 53 -131 53c-59 0 -117 -21 -117 -86c0 -133 286 -87 286 -245c0 -85 -72 -124 -165 -124c-84 0 -146 36 -170 69c-3 4 -4 6 -4 10c0 8 7 13 13 13c3 0 6 -1 9 -4c34 -38 77 -62 152 -62c73 0 135 26 135 98c0 129 -286 87 -286 245 c0 77 65 112 147 112c68 0 116 -23 149 -60c3 -4 4 -6 4 -10c0 -7 -6 -13 -13 -13c-2 0 -5 0 -9 4zM191 -70c0 14 8 26 28 26c17 0 27 -12 27 -30c0 -41 -18 -80 -34 -100c-3 -4 -7 -6 -12 -6c-6 0 -11 5 -11 11c0 4 1 6 3 9c16 24 20 38 20 62c-14 3 -21 13 -21 28z" />
<glyph unicode="&#xdf;" horiz-adv-x="543" d="M46 26h60v522c0 86 31 164 145 164c74 0 133 -47 133 -117c0 -139 -150 -127 -150 -226c0 -140 275 -92 275 -258c0 -85 -72 -124 -165 -124c-84 0 -146 36 -170 69c-3 4 -4 6 -4 10c0 8 7 13 13 13c3 0 6 -1 9 -4c34 -38 77 -62 152 -62c73 0 135 26 135 98 c0 136 -275 92 -275 258c0 118 150 101 150 226c0 53 -39 91 -103 91c-90 0 -115 -58 -115 -138v-533c0 -8 -7 -15 -15 -15h-75c-7 0 -13 6 -13 13s6 13 13 13z" />
<glyph unicode="&#x163;" horiz-adv-x="270" d="M101 454v122c0 8 7 15 15 15s15 -7 15 -15v-122h90c7 0 13 -6 13 -13s-6 -13 -13 -13h-90v-318c0 -60 37 -92 91 -92c7 0 13 -6 13 -13s-6 -13 -13 -13c-15 0 -28 2 -40 5l-3 -42s13 4 29 4c49 0 80 -23 80 -67c0 -41 -31 -71 -88 -71c-28 0 -51 9 -61 18 c-3 3 -4 7 -4 10c0 7 4 12 10 12c3 0 5 -1 8 -3c11 -7 25 -14 47 -14c41 0 62 16 62 48c0 35 -26 45 -54 45c-20 0 -31 -6 -37 -6s-11 5 -11 11l4 61c-41 19 -63 58 -63 107v318h-62c-7 0 -13 6 -13 13s6 13 13 13h62z" />
<glyph unicode="&#x165;" horiz-adv-x="270" d="M101 454v122c0 8 7 15 15 15s15 -7 15 -15v-122h90c7 0 13 -6 13 -13s-6 -13 -13 -13h-90v-318c0 -60 37 -92 91 -92c7 0 13 -6 13 -13s-6 -13 -13 -13c-78 0 -121 50 -121 118v318h-62c-7 0 -13 6 -13 13s6 13 13 13h62zM233 681h5c10 0 18 -5 17 -17l-13 -123 c0 -5 -4 -8 -9 -8c-6 0 -10 3 -10 8l-7 123c-1 12 6 17 17 17z" />
<glyph unicode="&#x167;" horiz-adv-x="273" d="M101 454v122c0 8 7 15 15 15s15 -7 15 -15v-122h90c7 0 13 -6 13 -13s-6 -13 -13 -13h-90v-115h89c7 0 13 -6 13 -13s-6 -13 -13 -13h-89v-177c0 -60 37 -92 91 -92c7 0 13 -6 13 -13s-6 -13 -13 -13c-78 0 -121 50 -121 118v177h-63c-7 0 -13 6 -13 13s6 13 13 13h63 v115h-62c-7 0 -13 6 -13 13s6 13 13 13h62z" />
<glyph unicode="&#xfe;" horiz-adv-x="542" d="M28 712h75c8 0 15 -7 15 -15v-328c26 64 81 99 165 99c128 0 204 -76 204 -240s-76 -241 -204 -241c-131 0 -165 96 -165 96v-258h70c7 0 13 -6 13 -13s-6 -13 -13 -13h-160c-7 0 -13 6 -13 13s6 13 13 13h60v861h-60c-7 0 -13 6 -13 13s6 13 13 13zM280 442 c-101 0 -164 -65 -164 -214c0 -154 71 -215 167 -215c113 0 174 65 174 215c0 148 -64 214 -177 214z" />
<glyph unicode="&#xf9;" horiz-adv-x="568" d="M372 454h75c1 0 2 0 4 -1c6 -2 11 -8 11 -14v-413h60c7 0 13 -6 13 -13s-6 -13 -13 -13h-78c-8 0 -12 6 -12 12v46c-26 -43 -73 -71 -153 -71c-151 0 -183 85 -183 178v263h-60c-7 0 -13 6 -13 13s6 13 13 13h75c8 0 15 -7 15 -15v-274c0 -82 26 -152 153 -152 c120 0 153 70 153 140v275h-60c-7 0 -13 6 -13 13s6 13 13 13zM207 635c-7 7 -6 16 1 22c8 7 16 6 22 -1l99 -118c5 -6 3 -11 -2 -16c-4 -4 -10 -6 -16 1z" />
<glyph unicode="&#xfa;" horiz-adv-x="568" d="M372 454h75c1 0 2 0 4 -1c6 -2 11 -8 11 -14v-413h60c7 0 13 -6 13 -13s-6 -13 -13 -13h-78c-8 0 -12 6 -12 12v46c-26 -43 -73 -71 -153 -71c-151 0 -183 85 -183 178v263h-60c-7 0 -13 6 -13 13s6 13 13 13h75c8 0 15 -7 15 -15v-274c0 -82 26 -152 153 -152 c120 0 153 70 153 140v275h-60c-7 0 -13 6 -13 13s6 13 13 13zM327 656c6 7 14 8 22 1c7 -6 8 -15 1 -22l-104 -112c-6 -7 -12 -5 -16 -1c-5 5 -7 10 -2 16z" />
<glyph unicode="&#xfb;" horiz-adv-x="568" d="M372 454h75c1 0 2 0 4 -1c6 -2 11 -8 11 -14v-413h60c7 0 13 -6 13 -13s-6 -13 -13 -13h-78c-8 0 -12 6 -12 12v46c-26 -43 -73 -71 -153 -71c-151 0 -183 85 -183 178v263h-60c-7 0 -13 6 -13 13s6 13 13 13h75c8 0 15 -7 15 -15v-274c0 -82 26 -152 153 -152 c120 0 153 70 153 140v275h-60c-7 0 -13 6 -13 13s6 13 13 13zM376 531l-93 84l-93 -84c-2 -2 -5 -4 -9 -4c-7 0 -13 6 -13 13c0 5 3 8 5 10l99 89c3 3 7 5 11 5s8 -2 11 -5l99 -89c2 -2 5 -5 5 -10c0 -7 -6 -13 -13 -13c-4 0 -7 2 -9 4z" />
<glyph unicode="&#xfc;" horiz-adv-x="568" d="M372 454h75c1 0 2 0 4 -1c6 -2 11 -8 11 -14v-413h60c7 0 13 -6 13 -13s-6 -13 -13 -13h-78c-8 0 -12 6 -12 12v46c-26 -43 -73 -71 -153 -71c-151 0 -183 85 -183 178v263h-60c-7 0 -13 6 -13 13s6 13 13 13h75c8 0 15 -7 15 -15v-274c0 -82 26 -152 153 -152 c120 0 153 70 153 140v275h-60c-7 0 -13 6 -13 13s6 13 13 13zM221 573c0 -16 -7 -23 -22 -23s-22 7 -22 23s7 23 22 23s22 -7 22 -23zM381 573c0 -16 -7 -23 -22 -23s-22 7 -22 23s7 23 22 23s22 -7 22 -23z" />
<glyph unicode="&#x169;" horiz-adv-x="568" d="M372 454h75c1 0 2 0 4 -1c6 -2 11 -8 11 -14v-413h60c7 0 13 -6 13 -13s-6 -13 -13 -13h-78c-8 0 -12 6 -12 12v46c-26 -43 -73 -71 -153 -71c-151 0 -183 85 -183 178v263h-60c-7 0 -13 6 -13 13s6 13 13 13h75c8 0 15 -7 15 -15v-274c0 -82 26 -152 153 -152 c120 0 153 70 153 140v275h-60c-7 0 -13 6 -13 13s6 13 13 13zM427 580c-8 -18 -31 -46 -73 -46c-57 0 -83 42 -132 42c-31 0 -45 -15 -53 -34c-2 -5 -7 -8 -12 -8c-7 0 -13 6 -13 13c0 3 1 6 2 8c9 20 32 46 76 46c57 0 83 -42 132 -42c26 0 44 13 51 34c2 5 7 8 12 8 c6 0 12 -6 12 -13c0 -3 -1 -6 -2 -8z" />
<glyph unicode="&#x16b;" horiz-adv-x="568" d="M372 454h75c1 0 2 0 4 -1c6 -2 11 -8 11 -14v-413h60c7 0 13 -6 13 -13s-6 -13 -13 -13h-78c-8 0 -12 6 -12 12v46c-26 -43 -73 -71 -153 -71c-151 0 -183 85 -183 178v263h-60c-7 0 -13 6 -13 13s6 13 13 13h75c8 0 15 -7 15 -15v-274c0 -82 26 -152 153 -152 c120 0 153 70 153 140v275h-60c-7 0 -13 6 -13 13s6 13 13 13zM391 576c6 0 12 -5 12 -12c0 -6 -6 -12 -12 -12h-212c-6 0 -12 6 -12 12c0 7 6 12 12 12h212z" />
<glyph unicode="&#x16d;" horiz-adv-x="568" d="M372 454h75c1 0 2 0 4 -1c6 -2 11 -8 11 -14v-413h60c7 0 13 -6 13 -13s-6 -13 -13 -13h-78c-8 0 -12 6 -12 12v46c-26 -43 -73 -71 -153 -71c-151 0 -183 85 -183 178v263h-60c-7 0 -13 6 -13 13s6 13 13 13h75c8 0 15 -7 15 -15v-274c0 -82 26 -152 153 -152 c120 0 153 70 153 140v275h-60c-7 0 -13 6 -13 13s6 13 13 13zM383 625c0 -70 -50 -96 -105 -96s-105 26 -105 96c0 7 6 13 13 13s13 -6 13 -13c0 -49 27 -72 79 -72s79 23 79 72c0 7 6 13 13 13s13 -6 13 -13z" />
<glyph unicode="&#x16f;" horiz-adv-x="568" d="M372 454h75c1 0 2 0 4 -1c6 -2 11 -8 11 -14v-413h60c7 0 13 -6 13 -13s-6 -13 -13 -13h-78c-8 0 -12 6 -12 12v46c-26 -43 -73 -71 -153 -71c-151 0 -183 85 -183 178v263h-60c-7 0 -13 6 -13 13s6 13 13 13h75c8 0 15 -7 15 -15v-274c0 -82 26 -152 153 -152 c120 0 153 70 153 140v275h-60c-7 0 -13 6 -13 13s6 13 13 13zM176 605c0 61 33 98 104 98s104 -37 104 -98s-33 -98 -104 -98s-104 37 -104 98zM202 605c0 -52 23 -76 78 -76s78 24 78 76s-23 76 -78 76s-78 -24 -78 -76z" />
<glyph unicode="&#x171;" horiz-adv-x="568" d="M372 454h75c1 0 2 0 4 -1c6 -2 11 -8 11 -14v-413h60c7 0 13 -6 13 -13s-6 -13 -13 -13h-78c-8 0 -12 6 -12 12v46c-26 -43 -73 -71 -153 -71c-151 0 -183 85 -183 178v263h-60c-7 0 -13 6 -13 13s6 13 13 13h75c8 0 15 -7 15 -15v-274c0 -82 26 -152 153 -152 c120 0 153 70 153 140v275h-60c-7 0 -13 6 -13 13s6 13 13 13zM305 661c6 7 14 8 22 1c7 -6 8 -15 1 -22l-104 -112c-6 -7 -12 -5 -16 -1c-5 5 -7 10 -2 16zM409 661c6 7 14 8 22 1c7 -6 8 -15 1 -22l-104 -112c-6 -7 -12 -5 -16 -1c-5 5 -7 10 -2 16z" />
<glyph unicode="&#x173;" horiz-adv-x="568" d="M517 -146c2 1 4 2 7 2c6 0 11 -5 11 -11c0 -5 -3 -8 -6 -10c-16 -9 -36 -14 -59 -14c-66 0 -88 35 -88 73c0 48 29 87 78 106h-16c-8 0 -12 6 -12 12v46c-26 -43 -73 -71 -153 -71c-151 0 -183 85 -183 178v263h-60c-7 0 -13 6 -13 13s6 13 13 13h75c8 0 15 -7 15 -15 v-274c0 -82 26 -152 153 -152c120 0 153 70 153 140v275h-60c-7 0 -13 6 -13 13s6 13 13 13h75c1 0 2 0 4 -1c6 -2 11 -8 11 -14v-413h60c7 0 13 -6 13 -13s-6 -13 -13 -13h-30c-58 -29 -84 -62 -84 -102c0 -29 15 -53 64 -53c22 0 32 3 45 9z" />
<glyph unicode="&#x175;" horiz-adv-x="740" d="M588 454h123c7 0 13 -6 13 -13s-6 -13 -13 -13h-37l-156 -426c-2 -6 -7 -10 -14 -10c-8 0 -13 4 -15 10l-119 396l-120 -396c-2 -6 -6 -10 -15 -10c-7 0 -11 4 -13 10l-156 426h-37c-7 0 -13 6 -13 13s6 13 13 13h123c7 0 13 -6 13 -13s-6 -13 -13 -13h-55l139 -387 l122 404c1 4 5 9 12 9c8 0 12 -5 13 -9l122 -404l139 387h-56c-7 0 -13 6 -13 13s6 13 13 13zM463 531l-93 84l-93 -84c-2 -2 -5 -4 -9 -4c-7 0 -13 6 -13 13c0 5 3 8 5 10l99 89c3 3 7 5 11 5s8 -2 11 -5l99 -89c2 -2 5 -5 5 -10c0 -7 -6 -13 -13 -13c-4 0 -7 2 -9 4z" />
<glyph unicode="&#x1e81;" horiz-adv-x="740" d="M588 454h123c7 0 13 -6 13 -13s-6 -13 -13 -13h-37l-156 -426c-2 -6 -7 -10 -14 -10c-8 0 -13 4 -15 10l-119 396l-120 -396c-2 -6 -6 -10 -15 -10c-7 0 -11 4 -13 10l-156 426h-37c-7 0 -13 6 -13 13s6 13 13 13h123c7 0 13 -6 13 -13s-6 -13 -13 -13h-55l139 -387 l122 404c1 4 5 9 12 9c8 0 12 -5 13 -9l122 -404l139 387h-56c-7 0 -13 6 -13 13s6 13 13 13zM310 635c-7 7 -6 16 1 22c8 7 16 6 22 -1l99 -118c5 -6 3 -11 -2 -16c-4 -4 -10 -6 -16 1z" />
<glyph unicode="&#x1e83;" horiz-adv-x="740" d="M588 454h123c7 0 13 -6 13 -13s-6 -13 -13 -13h-37l-156 -426c-2 -6 -7 -10 -14 -10c-8 0 -13 4 -15 10l-119 396l-120 -396c-2 -6 -6 -10 -15 -10c-7 0 -11 4 -13 10l-156 426h-37c-7 0 -13 6 -13 13s6 13 13 13h123c7 0 13 -6 13 -13s-6 -13 -13 -13h-55l139 -387 l122 404c1 4 5 9 12 9c8 0 12 -5 13 -9l122 -404l139 387h-56c-7 0 -13 6 -13 13s6 13 13 13zM407 656c6 7 14 8 22 1c7 -6 8 -15 1 -22l-104 -112c-6 -7 -12 -5 -16 -1c-5 5 -7 10 -2 16z" />
<glyph unicode="&#x1e85;" horiz-adv-x="740" d="M588 454h123c7 0 13 -6 13 -13s-6 -13 -13 -13h-37l-156 -426c-2 -6 -7 -10 -14 -10c-8 0 -13 4 -15 10l-119 396l-120 -396c-2 -6 -6 -10 -15 -10c-7 0 -11 4 -13 10l-156 426h-37c-7 0 -13 6 -13 13s6 13 13 13h123c7 0 13 -6 13 -13s-6 -13 -13 -13h-55l139 -387 l122 404c1 4 5 9 12 9c8 0 12 -5 13 -9l122 -404l139 387h-56c-7 0 -13 6 -13 13s6 13 13 13zM312 573c0 -16 -7 -23 -22 -23s-22 7 -22 23s7 23 22 23s22 -7 22 -23zM472 573c0 -16 -7 -23 -22 -23s-22 7 -22 23s7 23 22 23s22 -7 22 -23z" />
<glyph unicode="&#xfd;" horiz-adv-x="509" d="M29 454h123c7 0 13 -6 13 -13s-6 -13 -13 -13h-55l158 -390l157 390h-54c-7 0 -13 6 -13 13s6 13 13 13h123c7 0 13 -6 13 -13s-6 -13 -13 -13h-37l-206 -498c-41 -98 -89 -131 -182 -131c-7 0 -13 6 -13 13s6 13 13 13c109 0 134 55 184 179l-175 424h-36 c-7 0 -13 6 -13 13s6 13 13 13zM315 656c6 7 14 8 22 1c7 -6 8 -15 1 -22l-104 -112c-6 -7 -12 -5 -16 -1c-5 5 -7 10 -2 16z" />
<glyph unicode="&#xff;" horiz-adv-x="509" d="M29 454h123c7 0 13 -6 13 -13s-6 -13 -13 -13h-55l158 -390l157 390h-54c-7 0 -13 6 -13 13s6 13 13 13h123c7 0 13 -6 13 -13s-6 -13 -13 -13h-37l-206 -498c-41 -98 -89 -131 -182 -131c-7 0 -13 6 -13 13s6 13 13 13c109 0 134 55 184 179l-175 424h-36 c-7 0 -13 6 -13 13s6 13 13 13zM197 573c0 -16 -7 -23 -22 -23s-22 7 -22 23s7 23 22 23s22 -7 22 -23zM357 573c0 -16 -7 -23 -22 -23s-22 7 -22 23s7 23 22 23s22 -7 22 -23z" />
<glyph unicode="&#x177;" horiz-adv-x="509" d="M29 454h123c7 0 13 -6 13 -13s-6 -13 -13 -13h-55l158 -390l157 390h-54c-7 0 -13 6 -13 13s6 13 13 13h123c7 0 13 -6 13 -13s-6 -13 -13 -13h-37l-206 -498c-41 -98 -89 -131 -182 -131c-7 0 -13 6 -13 13s6 13 13 13c109 0 134 55 184 179l-175 424h-36 c-7 0 -13 6 -13 13s6 13 13 13zM351 531l-93 84l-93 -84c-2 -2 -5 -4 -9 -4c-7 0 -13 6 -13 13c0 5 3 8 5 10l99 89c3 3 7 5 11 5s8 -2 11 -5l99 -89c2 -2 5 -5 5 -10c0 -7 -6 -13 -13 -13c-4 0 -7 2 -9 4z" />
<glyph unicode="&#x1ef3;" horiz-adv-x="509" d="M29 454h123c7 0 13 -6 13 -13s-6 -13 -13 -13h-55l158 -390l157 390h-54c-7 0 -13 6 -13 13s6 13 13 13h123c7 0 13 -6 13 -13s-6 -13 -13 -13h-37l-206 -498c-41 -98 -89 -131 -182 -131c-7 0 -13 6 -13 13s6 13 13 13c109 0 134 55 184 179l-175 424h-36 c-7 0 -13 6 -13 13s6 13 13 13zM189 635c-7 7 -6 16 1 22c8 7 16 6 22 -1l99 -118c5 -6 3 -11 -2 -16c-4 -4 -10 -6 -16 1z" />
<glyph unicode="&#x17a;" horiz-adv-x="431" d="M54 360v81c0 7 6 13 13 13h298c7 0 13 -6 13 -13c0 -5 -2 -8 -4 -11l-294 -404h279v73c0 7 6 13 13 13s13 -6 13 -13v-86c0 -8 -7 -13 -13 -13h-320c-7 0 -13 6 -13 13c0 3 1 5 3 8l297 407h-259v-68c0 -7 -6 -13 -13 -13s-13 6 -13 13zM265 656c6 7 14 8 22 1 c7 -6 8 -15 1 -22l-104 -112c-6 -7 -12 -5 -16 -1c-5 5 -7 10 -2 16z" />
<glyph unicode="&#x17c;" horiz-adv-x="431" d="M54 360v81c0 7 6 13 13 13h298c7 0 13 -6 13 -13c0 -5 -2 -8 -4 -11l-294 -404h279v73c0 7 6 13 13 13s13 -6 13 -13v-86c0 -8 -7 -13 -13 -13h-320c-7 0 -13 6 -13 13c0 3 1 5 3 8l297 407h-259v-68c0 -7 -6 -13 -13 -13s-13 6 -13 13zM235 574c0 -15 -8 -22 -22 -22 s-22 7 -22 22c0 16 8 23 22 23s22 -7 22 -23z" />
<glyph unicode="&#x17e;" horiz-adv-x="431" d="M54 360v81c0 7 6 13 13 13h298c7 0 13 -6 13 -13c0 -5 -2 -8 -4 -11l-294 -404h279v73c0 7 6 13 13 13s13 -6 13 -13v-86c0 -8 -7 -13 -13 -13h-320c-7 0 -13 6 -13 13c0 3 1 5 3 8l297 407h-259v-68c0 -7 -6 -13 -13 -13s-13 6 -13 13zM120 640l93 -84l93 84 c2 2 5 4 9 4c7 0 13 -6 13 -13c0 -5 -3 -8 -5 -10l-99 -89c-3 -3 -7 -5 -11 -5s-8 2 -11 5l-99 89c-2 2 -5 5 -5 10c0 7 6 13 13 13c4 0 7 -2 9 -4z" />
<glyph unicode="&#x133;" horiz-adv-x="477" d="M55 454h75c8 0 15 -5 15 -15v-413h60c7 0 13 -6 13 -13s-6 -13 -13 -13h-150c-7 0 -13 6 -13 13s6 13 13 13h60v402h-60c-7 0 -13 6 -13 13s6 13 13 13zM148 613c0 -15 -6 -21 -18 -21s-18 6 -18 21s6 21 18 21s18 -6 18 -21zM299 454h74c9 0 16 -6 16 -15v-497 c0 -79 -58 -143 -138 -143h-4c-7 0 -13 6 -13 13s6 13 13 13h4c64 0 108 53 108 117v486h-60c-7 0 -13 6 -13 13s6 13 13 13zM391 613c0 -15 -6 -21 -18 -21s-18 6 -18 21s6 21 18 21s18 -6 18 -21z" />
<glyph unicode="&#xaa;" horiz-adv-x="436" d="M356 390c7 0 13 -6 13 -13s-6 -13 -13 -13h-38c-8 0 -13 6 -13 13v37c-22 -36 -63 -53 -109 -53c-76 0 -120 37 -120 96c0 55 45 94 124 94h104v26c0 55 -32 84 -95 84c-56 0 -77 -24 -90 -38c-3 -3 -6 -4 -9 -4c-7 0 -13 6 -13 13c0 3 1 5 3 8c17 24 58 47 109 47 c86 0 122 -49 122 -116v-181h25zM104 457c0 -45 32 -70 92 -70c57 0 108 30 108 88v51h-107c-55 0 -93 -22 -93 -69zM353 298c7 0 13 -6 13 -13s-6 -13 -13 -13h-274c-7 0 -13 6 -13 13s6 13 13 13h274z" />
<glyph unicode="&#xba;" horiz-adv-x="456" d="M88 524c0 110 52 163 140 163s140 -53 140 -163s-52 -163 -140 -163s-140 53 -140 163zM116 524c0 -95 41 -137 112 -137s112 42 112 137c0 92 -41 137 -112 137s-112 -45 -112 -137zM373 298c7 0 13 -6 13 -13s-6 -13 -13 -13h-289c-7 0 -13 6 -13 13s6 13 13 13h289z " />
<glyph unicode="&#x17f;" horiz-adv-x="271" d="M50 26h60v402h-57c-7 0 -13 6 -13 13s6 13 13 13h57v90c0 87 51 168 166 168h27c7 0 13 -6 13 -13s-6 -13 -13 -13h-27c-97 0 -136 -60 -136 -142v-518h83c7 0 13 -6 13 -13s-6 -13 -13 -13h-173c-7 0 -13 6 -13 13s6 13 13 13z" />
<glyph unicode="0" horiz-adv-x="614" d="M307 661c-149 0 -211 -98 -211 -324s62 -324 211 -324s211 98 211 324s-62 324 -211 324zM307 687c169 0 242 -103 242 -350s-73 -351 -242 -351s-242 104 -242 351s73 350 242 350z" />
<glyph unicode="1" horiz-adv-x="381" d="M353 0h-277c-8 0 -14 6 -14 14s6 14 14 14h133v611l-149 -87c-3 -2 -6 -3 -9 -3c-7 0 -14 6 -14 14c0 5 2 9 6 12l171 102c4 3 7 4 11 4c9 0 15 -6 15 -15v-638h113c8 0 14 -6 14 -14s-6 -14 -14 -14z" />
<glyph unicode="2" horiz-adv-x="541" d="M481 122v-108c0 -8 -7 -14 -14 -14h-411c-8 0 -14 6 -14 14c0 235 396 253 396 492c0 88 -58 153 -174 153c-103 0 -148 -49 -170 -112c-2 -5 -7 -8 -13 -8c-8 0 -14 6 -14 14c0 1 0 3 1 6c26 79 92 128 196 128c133 0 206 -73 206 -181c0 -246 -396 -292 -396 -478h379 v94c0 8 6 14 14 14s14 -6 14 -14z" />
<glyph unicode="3" horiz-adv-x="537" d="M82 561v97c0 8 6 15 14 15h342c8 0 14 -6 14 -14c0 -2 0 -5 -3 -9l-196 -253h23c157 0 204 -97 204 -205c0 -128 -77 -206 -224 -206c-110 0 -177 42 -210 109c-2 4 -3 7 -3 10c0 8 6 14 14 14c5 0 10 -2 13 -8c32 -64 92 -96 186 -96c128 0 192 66 192 177 c0 106 -44 177 -178 177h-47c-8 0 -14 6 -14 14c0 4 2 8 5 11l193 251h-297v-84c0 -8 -6 -14 -14 -14s-14 6 -14 14z" />
<glyph unicode="4" horiz-adv-x="547" d="M495 164h-90v-136h77c8 0 14 -6 14 -14s-6 -14 -14 -14h-229c-8 0 -14 6 -14 14s6 14 14 14h121v136h-341c-8 0 -14 6 -14 14c0 3 1 6 3 9l353 485c4 6 8 9 14 9c9 0 16 -7 16 -16v-473h90c8 0 14 -6 14 -14s-6 -14 -14 -14zM60 192h314v429z" />
<glyph unicode="5" horiz-adv-x="562" d="M451 561v84h-302l-51 -282c33 37 92 71 181 71c133 0 225 -71 225 -223c0 -156 -92 -225 -225 -225c-109 0 -188 44 -228 135c-1 2 -1 4 -1 5c0 8 6 14 14 14c4 0 10 -2 13 -8c36 -79 105 -118 202 -118c114 0 193 55 193 197c0 138 -79 195 -193 195 c-82 0 -132 -23 -181 -75c-3 -3 -6 -7 -12 -7c-10 0 -17 6 -17 14c0 1 0 3 1 8l54 316c1 6 6 11 13 11h328c8 0 14 -6 14 -14v-98c0 -8 -6 -14 -14 -14s-14 6 -14 14z" />
<glyph unicode="6" horiz-adv-x="572" d="M523 205c0 -155 -95 -219 -228 -219c-180 0 -230 139 -230 334c0 260 88 367 246 367c77 0 133 -28 157 -52c3 -3 5 -7 5 -11c0 -7 -6 -13 -13 -13c-3 0 -6 1 -10 4c-38 31 -80 44 -139 44c-153 0 -215 -121 -215 -308v-58c30 71 94 130 199 130c133 0 228 -69 228 -218z M295 395c-103 0 -160 -59 -194 -151c7 -147 71 -229 194 -229c114 0 196 46 196 190c0 137 -82 190 -196 190z" />
<glyph unicode="7" horiz-adv-x="481" d="M34 552v107c0 9 7 14 14 14h396c7 0 13 -6 13 -13c0 -235 -280 -285 -280 -655c0 -7 -7 -13 -14 -13s-16 6 -16 13c0 372 278 442 278 640h-363v-93c0 -8 -6 -14 -14 -14s-14 6 -14 14z" />
<glyph unicode="8" horiz-adv-x="574" d="M287 -14c-136 0 -228 64 -228 194c0 105 60 168 149 188c-70 15 -117 68 -117 154c0 113 80 165 196 165c117 0 196 -52 196 -165c0 -86 -47 -139 -117 -154c89 -20 149 -83 149 -188c0 -130 -92 -194 -228 -194zM454 522c0 96 -63 138 -167 138 c-103 0 -167 -42 -167 -138c0 -97 66 -143 167 -143s167 46 167 143zM483 180c0 120 -81 172 -196 172c-116 0 -196 -52 -196 -172c0 -119 86 -166 196 -166c111 0 196 47 196 166z" />
<glyph unicode="9" horiz-adv-x="572" d="M277 250c-133 0 -228 69 -228 218c0 155 95 219 228 219c180 0 230 -139 230 -334c0 -260 -88 -367 -246 -367c-77 0 -133 28 -157 52c-3 3 -5 7 -5 11c0 7 6 13 13 13c3 0 6 -1 10 -4c38 -31 80 -44 139 -44c153 0 215 121 215 308v58c-30 -71 -94 -130 -199 -130z M277 278c103 0 160 59 194 151c-7 147 -71 229 -194 229c-114 0 -196 -46 -196 -190c0 -137 82 -190 196 -190z" />
<glyph horiz-adv-x="600" d="M300 661c-149 0 -211 -98 -211 -324s62 -324 211 -324s211 98 211 324s-62 324 -211 324zM300 687c169 0 242 -103 242 -350s-73 -351 -242 -351s-242 104 -242 351s73 350 242 350z" />
<glyph horiz-adv-x="600" d="M146 28h184v611l-206 -152c-3 -2 -6 -3 -9 -3c-7 0 -14 6 -14 14c0 5 2 9 6 12l228 167c4 3 7 4 11 4c9 0 15 -6 15 -15v-638h152c8 0 14 -6 14 -14s-6 -14 -14 -14h-367c-8 0 -14 6 -14 14s6 14 14 14z" />
<glyph horiz-adv-x="600" d="M510 122v-108c0 -8 -7 -14 -14 -14h-411c-8 0 -14 6 -14 14c0 235 396 253 396 492c0 88 -58 153 -174 153c-103 0 -148 -49 -170 -112c-2 -5 -7 -8 -13 -8c-8 0 -14 6 -14 14c0 1 0 3 1 6c26 79 92 128 196 128c133 0 206 -73 206 -181c0 -246 -396 -292 -396 -478h379 v94c0 8 6 14 14 14s14 -6 14 -14z" />
<glyph horiz-adv-x="600" d="M113 561v97c0 8 6 15 14 15h342c8 0 14 -6 14 -14c0 -2 0 -5 -3 -9l-196 -253h23c157 0 204 -97 204 -205c0 -128 -77 -206 -224 -206c-110 0 -177 42 -210 109c-2 4 -3 7 -3 10c0 8 6 14 14 14c5 0 10 -2 13 -8c32 -64 92 -96 186 -96c128 0 192 66 192 177 c0 106 -44 177 -178 177h-47c-8 0 -14 6 -14 14c0 4 2 8 5 11l193 251h-297v-84c0 -8 -6 -14 -14 -14s-14 6 -14 14z" />
<glyph horiz-adv-x="600" d="M521 164h-90v-136h77c8 0 14 -6 14 -14s-6 -14 -14 -14h-229c-8 0 -14 6 -14 14s6 14 14 14h121v136h-341c-8 0 -14 6 -14 14c0 3 1 6 3 9l353 485c4 6 8 9 14 9c9 0 16 -7 16 -16v-473h90c8 0 14 -6 14 -14s-6 -14 -14 -14zM86 192h314v429z" />
<glyph horiz-adv-x="600" d="M470 561v84h-302l-51 -282c33 37 92 71 181 71c133 0 225 -71 225 -223c0 -156 -92 -225 -225 -225c-109 0 -188 44 -228 135c-1 2 -1 4 -1 5c0 8 6 14 14 14c4 0 10 -2 13 -8c36 -79 105 -118 202 -118c114 0 193 55 193 197c0 138 -79 195 -193 195 c-82 0 -132 -23 -181 -75c-3 -3 -6 -7 -12 -7c-10 0 -17 6 -17 14c0 1 0 3 1 8l54 316c1 6 6 11 13 11h328c8 0 14 -6 14 -14v-98c0 -8 -6 -14 -14 -14s-14 6 -14 14z" />
<glyph horiz-adv-x="600" d="M537 205c0 -155 -95 -219 -228 -219c-180 0 -230 139 -230 334c0 260 88 367 246 367c77 0 133 -28 157 -52c3 -3 5 -7 5 -11c0 -7 -6 -13 -13 -13c-3 0 -6 1 -10 4c-38 31 -80 44 -139 44c-153 0 -215 -121 -215 -308v-58c30 71 94 130 199 130c133 0 228 -69 228 -218z M309 395c-103 0 -160 -59 -194 -151c7 -147 71 -229 194 -229c114 0 196 46 196 190c0 137 -82 190 -196 190z" />
<glyph horiz-adv-x="600" d="M93 552v107c0 9 7 14 14 14h396c7 0 13 -6 13 -13c0 -235 -280 -285 -280 -655c0 -7 -7 -13 -14 -13s-16 6 -16 13c0 372 278 442 278 640h-363v-93c0 -8 -6 -14 -14 -14s-14 6 -14 14z" />
<glyph horiz-adv-x="600" d="M300 -14c-136 0 -228 64 -228 194c0 105 60 168 149 188c-70 15 -117 68 -117 154c0 113 80 165 196 165c117 0 196 -52 196 -165c0 -86 -47 -139 -117 -154c89 -20 149 -83 149 -188c0 -130 -92 -194 -228 -194zM467 522c0 96 -63 138 -167 138 c-103 0 -167 -42 -167 -138c0 -97 66 -143 167 -143s167 46 167 143zM496 180c0 120 -81 172 -196 172c-116 0 -196 -52 -196 -172c0 -119 86 -166 196 -166c111 0 196 47 196 166z" />
<glyph horiz-adv-x="600" d="M291 250c-133 0 -228 69 -228 218c0 155 95 219 228 219c180 0 230 -139 230 -334c0 -260 -88 -367 -246 -367c-77 0 -133 28 -157 52c-3 3 -5 7 -5 11c0 7 6 13 13 13c3 0 6 -1 10 -4c38 -31 80 -44 139 -44c153 0 215 121 215 308v58c-30 -71 -94 -130 -199 -130z M291 278c103 0 160 59 194 151c-7 147 -71 229 -194 229c-114 0 -196 -46 -196 -190c0 -137 82 -190 196 -190z" />
<glyph horiz-adv-x="623" d="M64 270c0 193 95 282 246 282c153 0 249 -89 249 -282c0 -192 -96 -283 -249 -283c-151 0 -246 91 -246 283zM94 270c0 -177 83 -257 216 -257c136 0 219 80 219 257c0 175 -83 256 -219 256c-133 0 -216 -81 -216 -256z" />
<glyph horiz-adv-x="380" d="M103 28h109v480l-151 -106c-3 -2 -5 -3 -8 -3c-7 0 -13 6 -13 13c0 4 2 8 6 11l169 118c4 3 7 5 12 5c8 0 15 -7 15 -15v-503h94c8 0 14 -6 14 -14s-6 -14 -14 -14h-233c-8 0 -14 6 -14 14s6 14 14 14z" />
<glyph horiz-adv-x="536" d="M71 424c0 1 0 2 1 5c24 75 82 123 190 123c133 0 197 -68 197 -158c0 -206 -377 -198 -377 -368h362v86c0 8 6 14 14 14s14 -6 14 -14v-99c0 -7 -6 -13 -13 -13h-395c-8 0 -13 5 -13 13c0 217 378 188 378 381c0 75 -56 132 -167 132c-103 0 -143 -45 -164 -107 c-2 -6 -7 -9 -13 -9c-7 0 -14 6 -14 14z" />
<glyph horiz-adv-x="539" d="M84 426v99c0 7 6 13 14 13h342c8 0 14 -6 14 -14c0 -2 0 -5 -3 -9l-196 -253h23c157 0 204 -97 204 -205c0 -128 -77 -206 -224 -206c-110 0 -177 42 -210 109c-2 4 -3 7 -3 10c0 8 6 14 14 14c5 0 10 -2 13 -8c32 -64 92 -96 186 -96c128 0 192 66 192 177 c0 106 -44 177 -178 177h-47c-8 0 -14 6 -14 14c0 4 2 8 5 11l193 251h-297v-84c0 -8 -6 -14 -14 -14s-14 6 -14 14z" />
<glyph horiz-adv-x="533" d="M278 -127h90v156h-331c-7 0 -13 6 -13 13c0 2 0 4 2 7l345 490c3 4 7 7 13 7c8 0 14 -7 14 -15v-476h82c7 0 13 -6 13 -13s-6 -13 -13 -13h-82v-156h57c8 0 14 -6 14 -14s-6 -14 -14 -14h-177c-8 0 -14 6 -14 14s6 14 14 14zM63 55h305v433z" />
<glyph horiz-adv-x="565" d="M451 426v84h-302l-51 -282c33 37 92 71 181 71c133 0 225 -71 225 -223c0 -156 -92 -225 -225 -225c-109 0 -188 44 -228 135c-1 2 -1 4 -1 5c0 8 6 14 14 14c4 0 10 -2 13 -8c36 -79 105 -118 202 -118c114 0 193 55 193 197c0 138 -79 195 -193 195 c-82 0 -132 -23 -181 -75c-3 -3 -6 -7 -12 -7c-10 0 -17 6 -17 14c0 1 0 3 1 8l54 316c1 6 6 11 13 11h328c8 0 14 -6 14 -14v-98c0 -8 -6 -14 -14 -14s-14 6 -14 14z" />
<glyph horiz-adv-x="571" d="M94 287c30 71 94 130 200 130c133 0 228 -66 228 -215c0 -155 -95 -216 -228 -216c-180 0 -230 136 -230 328c0 260 88 367 246 367c77 0 133 -28 157 -52c3 -3 5 -7 5 -11c0 -7 -6 -12 -12 -12c-3 0 -6 1 -10 4c-38 31 -81 45 -140 45c-153 0 -216 -123 -216 -310v-58z M98 238c0 -142 73 -225 196 -225c114 0 198 45 198 189c0 137 -84 189 -198 189c-95 0 -166 -57 -196 -153z" />
<glyph horiz-adv-x="498" d="M42 417v107c0 7 6 14 14 14h396c7 0 13 -6 13 -13c0 -235 -280 -285 -280 -655c0 -7 -7 -13 -14 -13s-16 6 -16 13c0 372 278 442 278 640h-363v-93c0 -8 -6 -14 -14 -14s-14 6 -14 14z" />
<glyph horiz-adv-x="574" d="M515 178c0 -130 -92 -192 -228 -192s-228 62 -228 192c0 105 60 166 149 186c-70 15 -117 66 -117 152c0 113 80 164 196 164c117 0 196 -51 196 -164c0 -86 -47 -137 -117 -152c89 -20 149 -81 149 -186zM455 516c0 96 -64 139 -168 139c-103 0 -168 -43 -168 -139 c0 -97 67 -141 168 -141s168 44 168 141zM485 178c0 120 -81 170 -198 170c-118 0 -198 -50 -198 -170c0 -119 86 -166 198 -166c113 0 198 47 198 166z" />
<glyph horiz-adv-x="571" d="M476 251c-30 -71 -94 -130 -200 -130c-133 0 -228 66 -228 215c0 155 95 216 228 216c180 0 230 -136 230 -328c0 -260 -88 -367 -246 -367c-77 0 -133 28 -157 52c-3 3 -5 7 -5 11c0 7 6 12 12 12c3 0 6 -1 10 -4c38 -31 81 -45 140 -45c153 0 216 123 216 310v58z M472 300c0 142 -73 225 -196 225c-114 0 -198 -45 -198 -189c0 -137 84 -189 198 -189c95 0 166 57 196 153z" />
<glyph horiz-adv-x="486" d="M411 477c-5 0 -8 3 -10 6c-31 43 -74 76 -157 76c-107 0 -147 -51 -147 -111c0 -169 340 -97 340 -303c0 -96 -65 -152 -179 -158v-87c0 -8 -6 -14 -14 -14s-14 6 -14 14v86c-93 3 -152 49 -187 103c-2 3 -3 6 -3 9c0 8 6 14 13 14c6 0 9 -2 13 -8c34 -51 85 -92 171 -92 c111 0 170 42 170 133c0 183 -340 105 -340 303c0 70 50 131 163 136v73c0 8 6 14 14 14s14 -6 14 -14v-73c74 -3 130 -34 164 -85c2 -3 3 -6 3 -9c0 -7 -6 -13 -14 -13z" />
<glyph horiz-adv-x="531" d="M277 -13c-133 7 -220 88 -220 283c0 193 92 275 220 282v72c0 8 6 14 14 14s14 -6 14 -14v-72c106 -4 159 -63 167 -74c3 -4 4 -6 4 -10c0 -7 -6 -13 -13 -13c-4 0 -7 2 -10 5c-27 31 -72 66 -157 66c-134 0 -209 -82 -209 -256c0 -176 75 -257 209 -257 c85 0 136 38 156 63c4 5 8 6 11 6c7 0 13 -5 13 -12c0 -3 -1 -6 -4 -10c-9 -12 -61 -67 -167 -73v-87c0 -8 -6 -14 -14 -14s-14 6 -14 14v87z" />
<glyph horiz-adv-x="538" d="M491 46c-21 -43 -59 -62 -116 -62c-67 0 -112 38 -177 38c-61 0 -97 -23 -106 -29c-3 -2 -7 -4 -11 -4c-8 0 -12 6 -12 12c0 4 2 8 7 11c46 33 84 87 84 146c0 46 -9 74 -28 110h-57c-8 0 -14 6 -14 14s6 14 14 14h42c-22 39 -43 81 -43 131c0 81 68 159 187 159 c105 0 170 -47 192 -114c1 -3 2 -8 2 -9c0 -7 -6 -13 -13 -13c-6 0 -10 3 -12 8c-20 56 -67 102 -169 102c-93 0 -157 -59 -157 -133c0 -53 20 -87 46 -131h152c8 0 14 -6 14 -14s-6 -14 -14 -14h-139c15 -32 25 -62 25 -109c0 -41 -24 -94 -55 -123c21 9 39 12 64 12 c78 0 120 -38 178 -38c46 0 72 14 94 50c3 4 7 6 11 6c7 0 13 -6 13 -13c0 -3 -1 -5 -2 -7z" />
<glyph horiz-adv-x="592" d="M209 28h72v173h-131c-7 0 -13 6 -13 13s6 13 13 13h131v78h-131c-7 0 -13 6 -13 13s6 13 13 13h114l-179 219h-38c-8 0 -14 6 -14 14s6 14 14 14h144c8 0 14 -6 14 -14s-6 -14 -14 -14h-68l174 -217l171 217h-67c-8 0 -14 6 -14 14s6 14 14 14h144c8 0 14 -6 14 -14 s-6 -14 -14 -14h-39l-178 -219h114c7 0 13 -6 13 -13s-6 -13 -13 -13h-131v-78h131c7 0 13 -6 13 -13s-6 -13 -13 -13h-131v-173h72c8 0 14 -6 14 -14s-6 -14 -14 -14h-174c-8 0 -14 6 -14 14s6 14 14 14z" />
<glyph horiz-adv-x="602" d="M293 219h-163c17 -115 81 -206 225 -206c90 0 131 41 157 73c4 5 7 7 12 7c7 0 13 -5 13 -13c0 -3 -1 -7 -4 -11c-50 -60 -111 -82 -178 -82c-154 0 -236 92 -255 232h-33c-7 0 -13 6 -13 13c0 8 6 13 13 13h30c-1 13 -1 27 -1 42c0 22 2 42 2 42h-31c-7 0 -13 6 -13 13 c0 8 6 13 13 13h34c21 126 101 230 254 230c95 0 154 -43 178 -75c3 -4 4 -6 4 -10c0 -7 -6 -13 -13 -13c-5 0 -8 2 -12 7c-21 25 -67 65 -157 65c-126 0 -203 -85 -223 -204h161c7 0 13 -6 13 -13s-6 -13 -13 -13h-165s-2 -15 -2 -42c0 -14 0 -29 1 -42h166 c7 0 13 -6 13 -13s-6 -13 -13 -13z" />
<glyph horiz-adv-x="310" d="M363 669c7 -3 10 -7 10 -12c0 -10 -7 -14 -13 -14c-2 0 -5 1 -8 2c-8 3 -25 9 -54 9c-61 0 -91 -40 -111 -138l-24 -118h103c7 0 13 -6 13 -13s-6 -13 -13 -13h-107l-78 -405c-21 -110 -47 -168 -162 -168c-21 0 -42 6 -51 10c-3 1 -8 5 -8 12s5 12 12 12c4 0 6 -1 9 -2 c9 -3 21 -6 42 -6c76 0 108 37 127 138l79 409h-71c-7 0 -13 6 -13 13s6 13 13 13h75l23 114c25 118 59 168 148 168c22 0 49 -6 59 -11z" />
<glyph unicode="&#x2070;" horiz-adv-x="310" d="M34 575c0 110 46 155 121 155c76 0 121 -45 121 -155s-45 -156 -121 -156c-75 0 -121 46 -121 156zM60 575c0 -97 32 -134 95 -134c64 0 95 37 95 134c0 96 -31 133 -95 133c-63 0 -95 -37 -95 -133z" />
<glyph unicode="&#xb9;" horiz-adv-x="197" d="M49 444h53v249l-57 -39c-3 -2 -5 -3 -9 -3c-6 0 -11 5 -11 11c0 3 1 8 6 11l73 50c3 2 6 4 10 4c7 0 12 -5 12 -12v-271h45c7 0 11 -5 11 -10c0 -7 -4 -12 -11 -12h-122c-7 0 -11 5 -11 12c0 5 4 10 11 10z" />
<glyph unicode="&#xb2;" horiz-adv-x="272" d="M235 488v-52c0 -6 -5 -11 -11 -11h-185c-6 0 -11 5 -11 11c0 116 183 102 183 206c0 36 -22 66 -79 66c-40 0 -59 -19 -72 -48c-2 -5 -6 -7 -10 -7c-6 0 -11 5 -11 11c0 0 0 3 1 6c13 36 48 60 92 60c67 0 105 -36 105 -88c0 -112 -183 -116 -183 -195h159v41 c0 7 5 11 12 11c5 0 10 -4 10 -11z" />
<glyph unicode="&#xb3;" horiz-adv-x="267" d="M132 603h11c70 0 95 -45 95 -90c0 -56 -34 -94 -110 -94c-49 0 -82 20 -97 50c-2 4 -3 7 -3 9c0 6 4 10 10 10c5 0 7 -2 9 -5c17 -29 40 -42 81 -42c58 0 84 22 84 72c0 43 -19 68 -81 68h-32c-4 0 -6 5 -6 8c0 2 1 4 2 5l95 108h-125v-41c0 -7 -5 -11 -10 -11 c-7 0 -12 4 -12 11v52c0 5 4 11 11 11h159c6 0 11 -5 11 -11c0 -4 -2 -7 -4 -9z" />
<glyph unicode="&#x2074;" horiz-adv-x="257" d="M130 444h36v54h-137c-6 0 -11 5 -11 11c0 4 1 6 3 9l146 202c2 3 5 7 11 7c7 0 12 -5 12 -12v-195h31c6 0 11 -5 11 -11s-5 -11 -11 -11h-31v-54h28c7 0 11 -5 11 -10c0 -7 -4 -12 -11 -12h-88c-7 0 -11 5 -11 12c0 5 4 10 11 10zM49 520h117v161z" />
<glyph unicode="&#x2075;" horiz-adv-x="276" d="M233 712v-53c0 -7 -5 -11 -10 -11c-7 0 -12 4 -12 11v41h-127l-20 -106c15 13 36 23 73 23c58 0 107 -29 107 -99c0 -65 -43 -99 -107 -99c-58 0 -94 33 -109 62c-1 2 -2 5 -2 7c0 6 4 10 10 10c5 0 7 -2 9 -5c19 -31 45 -52 92 -52c51 0 81 23 81 77c0 48 -30 77 -81 77 c-30 0 -51 -4 -77 -27c-2 -2 -5 -4 -10 -4c-6 0 -11 5 -11 11c0 0 0 2 1 6l25 132c1 5 5 9 11 9h146c5 0 11 -4 11 -10z" />
<glyph unicode="&#x2076;" horiz-adv-x="281" d="M58 562c8 20 36 51 86 51c61 0 109 -31 109 -97c0 -68 -50 -97 -109 -97c-80 0 -110 62 -110 148c0 115 50 163 117 163c34 0 63 -14 74 -24c3 -3 4 -5 4 -9c0 -6 -4 -10 -10 -10c-3 0 -5 1 -8 3c-18 12 -34 18 -60 18c-58 0 -93 -39 -93 -146zM62 531 c0 -45 28 -90 82 -90c51 0 83 22 83 75c0 49 -32 75 -83 75c-35 0 -68 -19 -82 -60z" />
<glyph unicode="&#x2077;" horiz-adv-x="236" d="M79 421c-7 0 -12 5 -12 12c0 165 124 172 124 267h-152v-41c0 -7 -5 -11 -10 -11c-7 0 -12 4 -12 11v52c0 6 5 11 11 11h176c6 0 11 -5 11 -11c0 -128 -124 -114 -124 -278c0 -7 -5 -12 -12 -12z" />
<glyph unicode="&#x2078;" horiz-adv-x="280" d="M247 507c0 -58 -44 -88 -107 -88s-107 30 -107 88c0 47 30 72 66 79c-27 8 -53 27 -53 68c0 50 42 76 94 76s94 -26 94 -76c0 -41 -26 -60 -53 -68c36 -7 66 -32 66 -79zM210 654c0 37 -24 54 -70 54s-70 -17 -70 -54c0 -39 25 -56 70 -56s70 17 70 56zM223 507 c0 50 -36 67 -83 67s-83 -17 -83 -67c0 -48 36 -66 83 -66s83 18 83 66z" />
<glyph unicode="&#x2079;" horiz-adv-x="281" d="M223 587c-8 -20 -36 -51 -86 -51c-61 0 -109 31 -109 97c0 68 50 97 109 97c80 0 110 -62 110 -148c0 -115 -50 -163 -117 -163c-34 0 -63 14 -74 24c-3 3 -4 5 -4 9c0 6 4 10 10 10c3 0 5 -1 8 -3c18 -12 34 -18 60 -18c58 0 93 39 93 146zM219 618c0 45 -28 90 -82 90 c-51 0 -83 -22 -83 -75c0 -49 32 -75 83 -75c35 0 68 19 82 60z" />
<glyph unicode="&#xbc;" horiz-adv-x="495" d="M67 401h53v249l-57 -39c-3 -2 -5 -3 -9 -3c-6 0 -11 5 -11 11c0 3 1 8 6 11l73 50c3 2 6 4 10 4c7 0 12 -5 12 -12v-271h45c7 0 11 -5 11 -10c0 -7 -4 -12 -11 -12h-122c-7 0 -11 5 -11 12c0 5 4 10 11 10zM362 673c2 6 6 8 11 8c6 0 11 -5 11 -11c0 -3 -1 -6 -2 -8 l-257 -663c-1 -3 -4 -7 -10 -7s-11 5 -11 11c0 3 1 5 2 8zM353 14h36v54h-137c-6 0 -11 5 -11 11c0 4 1 6 3 9l146 202c2 3 5 7 11 7c7 0 12 -5 12 -12v-195h31c6 0 11 -5 11 -11s-5 -11 -11 -11h-31v-54h28c7 0 11 -5 11 -10c0 -7 -4 -12 -11 -12h-88c-7 0 -11 5 -11 12 c0 5 4 10 11 10zM272 90h117v161z" />
<glyph unicode="&#x2044;" horiz-adv-x="111" d="M173 673c2 6 6 8 11 8c6 0 11 -5 11 -11c0 -3 -1 -6 -2 -8l-257 -663c-1 -3 -4 -7 -10 -7s-11 5 -11 11c0 3 1 5 2 8z" />
<glyph unicode="&#xbd;" horiz-adv-x="545" d="M67 401h53v249l-57 -39c-3 -2 -5 -3 -9 -3c-6 0 -11 5 -11 11c0 3 1 8 6 11l73 50c3 2 6 4 10 4c7 0 12 -5 12 -12v-271h45c7 0 11 -5 11 -10c0 -7 -4 -12 -11 -12h-122c-7 0 -11 5 -11 12c0 5 4 10 11 10zM363 673c2 6 6 8 11 8c6 0 11 -5 11 -11c0 -3 -1 -6 -2 -8 l-257 -663c-1 -3 -4 -7 -10 -7s-11 5 -11 11c0 3 1 5 2 8zM498 63v-52c0 -6 -5 -11 -11 -11h-185c-6 0 -11 5 -11 11c0 116 183 102 183 206c0 36 -22 66 -79 66c-40 0 -59 -19 -72 -48c-2 -5 -6 -7 -10 -7c-6 0 -11 5 -11 11c0 0 0 3 1 6c13 36 48 60 92 60 c67 0 105 -36 105 -88c0 -112 -183 -116 -183 -195h159v41c0 7 5 11 12 11c5 0 10 -4 10 -11z" />
<glyph unicode="&#xbe;" horiz-adv-x="549" d="M416 673c2 6 6 8 11 8c6 0 11 -5 11 -11c0 -3 -1 -6 -2 -8l-257 -663c-1 -3 -4 -7 -10 -7s-11 5 -11 11c0 3 1 5 2 8zM407 14h36v54h-137c-6 0 -11 5 -11 11c0 4 1 6 3 9l146 202c2 3 5 7 11 7c7 0 12 -5 12 -12v-195h31c6 0 11 -5 11 -11s-5 -11 -11 -11h-31v-54h28 c7 0 11 -5 11 -10c0 -7 -4 -12 -11 -12h-88c-7 0 -11 5 -11 12c0 5 4 10 11 10zM326 90h117v161zM142 560h11c70 0 95 -45 95 -90c0 -56 -34 -94 -110 -94c-49 0 -82 20 -97 50c-2 4 -3 7 -3 9c0 6 4 10 10 10c5 0 7 -2 9 -5c17 -29 40 -42 81 -42c58 0 84 22 84 72 c0 43 -19 68 -81 68h-32c-4 0 -6 5 -6 8c0 2 1 4 2 5l95 108h-125v-41c0 -7 -5 -11 -10 -11c-7 0 -12 4 -12 11v52c0 5 4 11 11 11h159c6 0 11 -5 11 -11c0 -4 -2 -7 -4 -9z" />
<glyph unicode="&#x2080;" horiz-adv-x="310" d="M34 99c0 110 46 155 121 155c76 0 121 -45 121 -155s-45 -156 -121 -156c-75 0 -121 46 -121 156zM60 99c0 -97 32 -134 95 -134c64 0 95 37 95 134c0 96 -31 133 -95 133c-63 0 -95 -37 -95 -133z" />
<glyph unicode="&#x2081;" horiz-adv-x="197" d="M51 -30h53v249l-57 -39c-3 -2 -5 -3 -9 -3c-6 0 -11 5 -11 11c0 3 1 8 6 11l73 50c3 2 6 4 10 4c7 0 12 -5 12 -12v-271h45c7 0 11 -5 11 -10c0 -7 -4 -12 -11 -12h-122c-7 0 -11 5 -11 12c0 5 4 10 11 10z" />
<glyph unicode="&#x2082;" horiz-adv-x="272" d="M234 12v-52c0 -6 -5 -11 -11 -11h-185c-6 0 -11 5 -11 11c0 116 183 102 183 206c0 36 -22 66 -79 66c-40 0 -59 -19 -72 -48c-2 -5 -6 -7 -10 -7c-6 0 -11 5 -11 11c0 0 0 3 1 6c13 36 48 60 92 60c67 0 105 -36 105 -88c0 -112 -183 -116 -183 -195h159v41 c0 7 5 11 12 11c5 0 10 -4 10 -11z" />
<glyph unicode="&#x2083;" horiz-adv-x="267" d="M131 127h11c70 0 95 -45 95 -90c0 -56 -34 -94 -110 -94c-49 0 -82 20 -97 50c-2 4 -3 7 -3 9c0 6 4 10 10 10c5 0 7 -2 9 -5c17 -29 40 -42 81 -42c58 0 84 22 84 72c0 43 -19 68 -81 68h-32c-4 0 -6 5 -6 8c0 2 1 4 2 5l95 108h-125v-41c0 -7 -5 -11 -10 -11 c-7 0 -12 4 -12 11v52c0 5 4 11 11 11h159c6 0 11 -5 11 -11c0 -4 -2 -7 -4 -9z" />
<glyph unicode="&#x2084;" horiz-adv-x="257" d="M125 -30h36v54h-137c-6 0 -11 5 -11 11c0 4 1 6 3 9l146 202c2 3 5 7 11 7c7 0 12 -5 12 -12v-195h31c6 0 11 -5 11 -11s-5 -11 -11 -11h-31v-54h28c7 0 11 -5 11 -10c0 -7 -4 -12 -11 -12h-88c-7 0 -11 5 -11 12c0 5 4 10 11 10zM44 46h117v161z" />
<glyph unicode="&#x2085;" horiz-adv-x="276" d="M230 236v-53c0 -7 -5 -11 -10 -11c-7 0 -12 4 -12 11v41h-127l-20 -106c15 13 36 23 73 23c58 0 107 -29 107 -99c0 -65 -43 -99 -107 -99c-58 0 -94 33 -109 62c-1 2 -2 5 -2 7c0 6 4 10 10 10c5 0 7 -2 9 -5c19 -31 45 -52 92 -52c51 0 81 23 81 77c0 48 -30 77 -81 77 c-30 0 -51 -4 -77 -27c-2 -2 -5 -4 -10 -4c-6 0 -11 5 -11 11c0 0 0 2 1 6l25 132c1 5 5 9 11 9h146c5 0 11 -4 11 -10z" />
<glyph unicode="&#x2086;" horiz-adv-x="281" d="M55 86c8 20 36 51 86 51c61 0 109 -31 109 -97c0 -68 -50 -97 -109 -97c-80 0 -110 62 -110 148c0 115 50 163 117 163c34 0 63 -14 74 -24c3 -3 4 -5 4 -9c0 -6 -4 -10 -10 -10c-3 0 -5 1 -8 3c-18 12 -34 18 -60 18c-58 0 -93 -39 -93 -146zM59 55c0 -45 28 -90 82 -90 c51 0 83 22 83 75c0 49 -32 75 -83 75c-35 0 -68 -19 -82 -60z" />
<glyph unicode="&#x2087;" horiz-adv-x="236" d="M84 -53c-7 0 -12 5 -12 12c0 165 124 172 124 267h-152v-41c0 -7 -5 -11 -10 -11c-7 0 -12 4 -12 11v52c0 6 5 11 11 11h176c6 0 11 -5 11 -11c0 -128 -124 -114 -124 -278c0 -7 -5 -12 -12 -12z" />
<glyph unicode="&#x2088;" horiz-adv-x="280" d="M247 31c0 -58 -44 -88 -107 -88s-107 30 -107 88c0 47 30 72 66 79c-27 8 -53 27 -53 68c0 50 42 76 94 76s94 -26 94 -76c0 -41 -26 -60 -53 -68c36 -7 66 -32 66 -79zM210 178c0 37 -24 54 -70 54s-70 -17 -70 -54c0 -39 25 -56 70 -56s70 17 70 56zM223 31 c0 50 -36 67 -83 67s-83 -17 -83 -67c0 -48 36 -66 83 -66s83 18 83 66z" />
<glyph unicode="&#x2089;" horiz-adv-x="281" d="M224 111c-8 -20 -36 -51 -86 -51c-61 0 -109 31 -109 97c0 68 50 97 109 97c80 0 110 -62 110 -148c0 -115 -50 -163 -117 -163c-34 0 -63 14 -74 24c-3 3 -4 5 -4 9c0 6 4 10 10 10c3 0 5 -1 8 -3c18 -12 34 -18 60 -18c58 0 93 39 93 146zM220 142c0 45 -28 90 -82 90 c-51 0 -83 -22 -83 -75c0 -49 32 -75 83 -75c35 0 68 19 82 60z" />
<glyph horiz-adv-x="310" d="M34 532c0 110 46 155 121 155c76 0 121 -45 121 -155s-45 -156 -121 -156c-75 0 -121 46 -121 156zM60 532c0 -97 32 -134 95 -134c64 0 95 37 95 134c0 96 -31 133 -95 133c-63 0 -95 -37 -95 -133z" />
<glyph horiz-adv-x="197" d="M49 401h53v249l-57 -39c-3 -2 -5 -3 -9 -3c-6 0 -11 5 -11 11c0 3 1 8 6 11l73 50c3 2 6 4 10 4c7 0 12 -5 12 -12v-271h45c7 0 11 -5 11 -10c0 -7 -4 -12 -11 -12h-122c-7 0 -11 5 -11 12c0 5 4 10 11 10z" />
<glyph horiz-adv-x="272" d="M235 445v-52c0 -6 -5 -11 -11 -11h-185c-6 0 -11 5 -11 11c0 116 183 102 183 206c0 36 -22 66 -79 66c-40 0 -59 -19 -72 -48c-2 -5 -6 -7 -10 -7c-6 0 -11 5 -11 11c0 0 0 3 1 6c13 36 48 60 92 60c67 0 105 -36 105 -88c0 -112 -183 -116 -183 -195h159v41 c0 7 5 11 12 11c5 0 10 -4 10 -11z" />
<glyph horiz-adv-x="267" d="M132 560h11c70 0 95 -45 95 -90c0 -56 -34 -94 -110 -94c-49 0 -82 20 -97 50c-2 4 -3 7 -3 9c0 6 4 10 10 10c5 0 7 -2 9 -5c17 -29 40 -42 81 -42c58 0 84 22 84 72c0 43 -19 68 -81 68h-32c-4 0 -6 5 -6 8c0 2 1 4 2 5l95 108h-125v-41c0 -7 -5 -11 -10 -11 c-7 0 -12 4 -12 11v52c0 5 4 11 11 11h159c6 0 11 -5 11 -11c0 -4 -2 -7 -4 -9z" />
<glyph horiz-adv-x="257" d="M130 401h36v54h-137c-6 0 -11 5 -11 11c0 4 1 6 3 9l146 202c2 3 5 7 11 7c7 0 12 -5 12 -12v-195h31c6 0 11 -5 11 -11s-5 -11 -11 -11h-31v-54h28c7 0 11 -5 11 -10c0 -7 -4 -12 -11 -12h-88c-7 0 -11 5 -11 12c0 5 4 10 11 10zM49 477h117v161z" />
<glyph horiz-adv-x="276" d="M233 670v-53c0 -7 -5 -11 -10 -11c-7 0 -12 4 -12 11v41h-127l-20 -106c15 13 36 23 73 23c58 0 107 -29 107 -99c0 -65 -43 -99 -107 -99c-58 0 -94 33 -109 62c-1 2 -2 5 -2 7c0 6 4 10 10 10c5 0 7 -2 9 -5c19 -31 45 -52 92 -52c51 0 81 23 81 77c0 48 -30 77 -81 77 c-30 0 -51 -4 -77 -27c-2 -2 -5 -4 -10 -4c-6 0 -11 5 -11 11c0 0 0 2 1 6l25 132c1 5 5 9 11 9h146c5 0 11 -4 11 -10z" />
<glyph horiz-adv-x="281" d="M58 519c8 20 36 51 86 51c61 0 109 -31 109 -97c0 -68 -50 -97 -109 -97c-80 0 -110 62 -110 148c0 115 50 163 117 163c34 0 63 -14 74 -24c3 -3 4 -5 4 -9c0 -6 -4 -10 -10 -10c-3 0 -5 1 -8 3c-18 12 -34 18 -60 18c-58 0 -93 -39 -93 -146zM62 488 c0 -45 28 -90 82 -90c51 0 83 22 83 75c0 49 -32 75 -83 75c-35 0 -68 -19 -82 -60z" />
<glyph horiz-adv-x="236" d="M79 380c-7 0 -12 5 -12 12c0 165 124 172 124 267h-152v-41c0 -7 -5 -11 -10 -11c-7 0 -12 4 -12 11v52c0 6 5 11 11 11h176c6 0 11 -5 11 -11c0 -128 -124 -114 -124 -278c0 -7 -5 -12 -12 -12z" />
<glyph horiz-adv-x="280" d="M247 464c0 -58 -44 -88 -107 -88s-107 30 -107 88c0 47 30 72 66 79c-27 8 -53 27 -53 68c0 50 42 76 94 76s94 -26 94 -76c0 -41 -26 -60 -53 -68c36 -7 66 -32 66 -79zM210 611c0 37 -24 54 -70 54s-70 -17 -70 -54c0 -39 25 -56 70 -56s70 17 70 56zM223 464 c0 50 -36 67 -83 67s-83 -17 -83 -67c0 -48 36 -66 83 -66s83 18 83 66z" />
<glyph horiz-adv-x="281" d="M223 544c-8 -20 -36 -51 -86 -51c-61 0 -109 31 -109 97c0 68 50 97 109 97c80 0 110 -62 110 -148c0 -115 -50 -163 -117 -163c-34 0 -63 14 -74 24c-3 3 -4 5 -4 9c0 6 4 10 10 10c3 0 5 -1 8 -3c18 -12 34 -18 60 -18c58 0 93 39 93 146zM219 575c0 45 -28 90 -82 90 c-51 0 -83 -22 -83 -75c0 -49 32 -75 83 -75c35 0 68 19 82 60z" />
<glyph horiz-adv-x="310" d="M34 143c0 110 46 155 121 155c76 0 121 -45 121 -155s-45 -156 -121 -156c-75 0 -121 46 -121 156zM60 143c0 -97 32 -134 95 -134c64 0 95 37 95 134c0 96 -31 133 -95 133c-63 0 -95 -37 -95 -133z" />
<glyph horiz-adv-x="197" d="M49 14h53v249l-57 -39c-3 -2 -5 -3 -9 -3c-6 0 -11 5 -11 11c0 3 1 8 6 11l73 50c3 2 6 4 10 4c7 0 12 -5 12 -12v-271h45c7 0 11 -5 11 -10c0 -7 -4 -12 -11 -12h-122c-7 0 -11 5 -11 12c0 5 4 10 11 10z" />
<glyph horiz-adv-x="272" d="M235 63v-52c0 -6 -5 -11 -11 -11h-185c-6 0 -11 5 -11 11c0 116 183 102 183 206c0 36 -22 66 -79 66c-40 0 -59 -19 -72 -48c-2 -5 -6 -7 -10 -7c-6 0 -11 5 -11 11c0 0 0 3 1 6c13 36 48 60 92 60c67 0 105 -36 105 -88c0 -112 -183 -116 -183 -195h159v41 c0 7 5 11 12 11c5 0 10 -4 10 -11z" />
<glyph horiz-adv-x="267" d="M132 171h11c70 0 95 -45 95 -90c0 -56 -34 -94 -110 -94c-49 0 -82 20 -97 50c-2 4 -3 7 -3 9c0 6 4 10 10 10c5 0 7 -2 9 -5c17 -29 40 -42 81 -42c58 0 84 22 84 72c0 43 -19 68 -81 68h-32c-4 0 -6 5 -6 8c0 2 1 4 2 5l95 108h-125v-41c0 -7 -5 -11 -10 -11 c-7 0 -12 4 -12 11v52c0 5 4 11 11 11h159c6 0 11 -5 11 -11c0 -4 -2 -7 -4 -9z" />
<glyph horiz-adv-x="257" d="M130 14h36v54h-137c-6 0 -11 5 -11 11c0 4 1 6 3 9l146 202c2 3 5 7 11 7c7 0 12 -5 12 -12v-195h31c6 0 11 -5 11 -11s-5 -11 -11 -11h-31v-54h28c7 0 11 -5 11 -10c0 -7 -4 -12 -11 -12h-88c-7 0 -11 5 -11 12c0 5 4 10 11 10zM49 90h117v161z" />
<glyph horiz-adv-x="276" d="M233 279v-53c0 -7 -5 -11 -10 -11c-7 0 -12 4 -12 11v41h-127l-20 -106c15 13 36 23 73 23c58 0 107 -29 107 -99c0 -65 -43 -99 -107 -99c-58 0 -94 33 -109 62c-1 2 -2 5 -2 7c0 6 4 10 10 10c5 0 7 -2 9 -5c19 -31 45 -52 92 -52c51 0 81 23 81 77c0 48 -30 77 -81 77 c-30 0 -51 -4 -77 -27c-2 -2 -5 -4 -10 -4c-6 0 -11 5 -11 11c0 0 0 2 1 6l25 132c1 5 5 9 11 9h146c5 0 11 -4 11 -10z" />
<glyph horiz-adv-x="281" d="M58 129c8 20 36 51 86 51c61 0 109 -31 109 -97c0 -68 -50 -97 -109 -97c-80 0 -110 62 -110 148c0 115 50 163 117 163c34 0 63 -14 74 -24c3 -3 4 -5 4 -9c0 -6 -4 -10 -10 -10c-3 0 -5 1 -8 3c-18 12 -34 18 -60 18c-58 0 -93 -39 -93 -146zM62 98 c0 -45 28 -90 82 -90c51 0 83 22 83 75c0 49 -32 75 -83 75c-35 0 -68 -19 -82 -60z" />
<glyph horiz-adv-x="236" d="M79 -9c-7 0 -12 5 -12 12c0 165 124 172 124 267h-152v-41c0 -7 -5 -11 -10 -11c-7 0 -12 4 -12 11v52c0 6 5 11 11 11h176c6 0 11 -5 11 -11c0 -128 -124 -114 -124 -278c0 -7 -5 -12 -12 -12z" />
<glyph horiz-adv-x="280" d="M247 74c0 -58 -44 -88 -107 -88s-107 30 -107 88c0 47 30 72 66 79c-27 8 -53 27 -53 68c0 50 42 76 94 76s94 -26 94 -76c0 -41 -26 -60 -53 -68c36 -7 66 -32 66 -79zM210 221c0 37 -24 54 -70 54s-70 -17 -70 -54c0 -39 25 -56 70 -56s70 17 70 56zM223 74 c0 50 -36 67 -83 67s-83 -17 -83 -67c0 -48 36 -66 83 -66s83 18 83 66z" />
<glyph horiz-adv-x="281" d="M223 154c-8 -20 -36 -51 -86 -51c-61 0 -109 31 -109 97c0 68 50 97 109 97c80 0 110 -62 110 -148c0 -115 -50 -163 -117 -163c-34 0 -63 14 -74 24c-3 3 -4 5 -4 9c0 6 4 10 10 10c3 0 5 -1 8 -3c18 -12 34 -18 60 -18c58 0 93 39 93 146zM219 185c0 45 -28 90 -82 90 c-51 0 -83 -22 -83 -75c0 -49 32 -75 83 -75c35 0 68 19 82 60z" />
<glyph unicode="_" horiz-adv-x="448" d="M435 -56c7 0 13 -6 13 -13s-6 -13 -13 -13h-422c-7 0 -13 6 -13 13s6 13 13 13h422z" />
<glyph unicode="-" horiz-adv-x="357" d="M270 265c7 0 13 -6 13 -13s-6 -13 -13 -13h-183c-7 0 -13 6 -13 13s6 13 13 13h183z" />
<glyph unicode="&#x2013;" horiz-adv-x="508" d="M430 295c7 0 13 -6 13 -13s-6 -13 -13 -13h-352c-7 0 -13 6 -13 13s6 13 13 13h352z" />
<glyph unicode="&#x2014;" horiz-adv-x="842" d="M764 295c7 0 13 -6 13 -13s-6 -13 -13 -13h-686c-7 0 -13 6 -13 13s6 13 13 13h686z" />
<glyph unicode="(" horiz-adv-x="268" d="M230 -145c-161 67 -167 284 -167 441s6 374 167 441c2 1 5 1 5 1c8 0 14 -6 14 -14c0 -5 -3 -10 -8 -12c-146 -56 -148 -284 -148 -416s2 -360 148 -416c5 -2 8 -7 8 -12c0 -8 -6 -14 -14 -14c0 0 -3 0 -5 1z" />
<glyph unicode=")" horiz-adv-x="268" d="M38 737c161 -67 167 -284 167 -441s-6 -374 -167 -441c-2 -1 -5 -1 -5 -1c-8 0 -14 6 -14 14c0 5 3 10 8 12c146 56 148 284 148 416s-2 360 -148 416c-5 2 -8 7 -8 12c0 8 6 14 14 14c0 0 3 0 5 -1z" />
<glyph unicode="[" horiz-adv-x="259" d="M208 -120c7 0 13 -6 13 -13s-6 -13 -13 -13h-92c-7 0 -13 6 -13 13v858c0 7 6 13 13 13h92c7 0 13 -6 13 -13s-6 -13 -13 -13h-75v-832h75z" />
<glyph unicode="]" horiz-adv-x="259" d="M51 -146c-7 0 -13 6 -13 13s6 13 13 13h75v832h-75c-7 0 -13 6 -13 13s6 13 13 13h92c7 0 13 -6 13 -13v-858c0 -7 -6 -13 -13 -13h-92z" />
<glyph unicode="{" horiz-adv-x="272" d="M156 -62c0 -39 23 -58 59 -58c7 0 13 -6 13 -13s-6 -13 -13 -13c-53 0 -91 32 -91 84c0 83 13 158 13 237c0 78 -43 109 -104 109h-10c-7 0 -12 5 -12 12s5 12 12 12h10c61 0 104 31 104 109c0 80 -13 154 -13 237c0 53 38 84 91 84c7 0 13 -6 13 -13s-6 -13 -13 -13 c-36 0 -59 -19 -59 -58c0 -78 6 -161 6 -238c0 -70 -37 -120 -99 -120c62 0 99 -50 99 -120c0 -77 -6 -160 -6 -238z" />
<glyph unicode="}" horiz-adv-x="272" d="M44 -133c0 7 6 13 13 13c36 0 59 19 59 58c0 78 -6 161 -6 238c0 70 37 120 99 120c-62 0 -99 50 -99 120c0 77 6 160 6 238c0 39 -23 58 -59 58c-7 0 -13 6 -13 13s6 13 13 13c53 0 91 -31 91 -84c0 -83 -13 -157 -13 -237c0 -78 43 -109 104 -109h10c7 0 12 -5 12 -12 s-5 -12 -12 -12h-10c-61 0 -104 -31 -104 -109c0 -79 13 -154 13 -237c0 -52 -38 -84 -91 -84c-7 0 -13 6 -13 13z" />
<glyph unicode="#" horiz-adv-x="509" d="M290 19l32 204h-166l-35 -220c-1 -7 -7 -11 -13 -11c-7 0 -13 6 -13 13c0 3 1 8 2 14l32 204h-76c-7 0 -13 6 -13 13s6 13 13 13h80l25 158h-78c-7 0 -13 6 -13 13s6 13 13 13h82l34 208c1 7 7 11 13 11c7 0 13 -6 13 -13c0 -3 -1 -8 -2 -14l-31 -192h166l34 208 c1 7 7 11 13 11c7 0 13 -6 13 -13c0 -3 -1 -8 -2 -14l-31 -192h74c7 0 13 -6 13 -13s-6 -13 -13 -13h-78l-25 -158h76c7 0 13 -6 13 -13s-6 -13 -13 -13h-80l-35 -220c-1 -7 -7 -11 -13 -11c-7 0 -13 6 -13 13c0 3 1 8 2 14zM185 407l-25 -158h166l25 158h-166z" />
<glyph unicode="%" horiz-adv-x="720" d="M63 524c0 -77 26 -138 112 -138s112 61 112 138s-26 138 -112 138s-112 -61 -112 -138zM37 524c0 91 36 163 138 163s138 -72 138 -163s-36 -163 -138 -163s-138 72 -138 163zM543 661l-334 -661c-2 -5 -8 -8 -12 -8c-7 0 -13 6 -13 13c0 3 1 5 2 7l334 661c2 5 7 8 12 8 c7 0 13 -6 13 -13c0 -2 -1 -5 -2 -7zM433 150c0 -77 26 -138 112 -138s112 61 112 138s-26 138 -112 138s-112 -61 -112 -138zM407 150c0 91 36 163 138 163s138 -72 138 -163s-36 -163 -138 -163s-138 72 -138 163z" />
<glyph unicode="&#x2030;" horiz-adv-x="1049" d="M63 524c0 -77 26 -138 112 -138s112 61 112 138s-26 138 -112 138s-112 -61 -112 -138zM37 524c0 91 36 163 138 163s138 -72 138 -163s-36 -163 -138 -163s-138 72 -138 163zM543 661l-334 -661c-2 -5 -8 -8 -12 -8c-7 0 -13 6 -13 13c0 3 1 5 2 7l334 661c2 5 7 8 12 8 c7 0 13 -6 13 -13c0 -2 -1 -5 -2 -7zM433 150c0 -77 26 -138 112 -138s112 61 112 138s-26 138 -112 138s-112 -61 -112 -138zM407 150c0 91 36 163 138 163s138 -72 138 -163s-36 -163 -138 -163s-138 72 -138 163zM765 150c0 -77 26 -138 112 -138s112 61 112 138 s-26 138 -112 138s-112 -61 -112 -138zM739 150c0 91 36 163 138 163s138 -72 138 -163s-36 -163 -138 -163s-138 72 -138 163z" />
<glyph unicode="'" horiz-adv-x="169" d="M85 681c10 0 18 -5 17 -17l-8 -171c0 -5 -4 -8 -9 -8c-6 0 -10 3 -10 8l-7 171c0 12 6 17 17 17z" />
<glyph unicode="&#x22;" horiz-adv-x="264" d="M85 681c10 0 18 -5 17 -17l-8 -171c0 -5 -4 -8 -9 -8c-6 0 -10 3 -10 8l-7 171c0 12 6 17 17 17zM180 681c10 0 18 -5 17 -17l-8 -171c0 -5 -4 -8 -9 -8c-6 0 -10 3 -10 8l-7 171c0 12 6 17 17 17z" />
<glyph unicode="&#x201c;" horiz-adv-x="273" d="M87 533c-18 0 -26 12 -26 30c0 46 14 91 31 112c4 5 7 6 11 6c5 0 10 -4 10 -9c0 -3 -1 -6 -4 -11c-13 -22 -20 -45 -20 -70c16 -4 24 -15 24 -32c0 -14 -7 -26 -26 -26zM184 533c-18 0 -26 12 -26 30c0 46 14 91 31 112c4 5 7 6 11 6c5 0 10 -4 10 -9c0 -3 -1 -6 -4 -11 c-13 -22 -20 -45 -20 -70c16 -4 24 -15 24 -32c0 -14 -7 -26 -26 -26z" />
<glyph unicode="&#x201d;" horiz-adv-x="271" d="M92 681c18 0 26 -12 26 -30c0 -46 -14 -91 -31 -112c-4 -5 -7 -6 -11 -6c-5 0 -10 4 -10 9c0 3 1 6 4 11c13 22 20 45 20 70c-16 4 -24 15 -24 32c0 14 7 26 26 26zM189 681c18 0 26 -12 26 -30c0 -46 -14 -91 -31 -112c-4 -5 -7 -6 -11 -6c-5 0 -10 4 -10 9 c0 3 1 6 4 11c13 22 20 45 20 70c-16 4 -24 15 -24 32c0 14 7 26 26 26z" />
<glyph unicode="&#x201a;" horiz-adv-x="188" d="M94 39c18 0 26 -12 26 -30c0 -46 -14 -91 -31 -112c-4 -5 -7 -6 -11 -6c-5 0 -10 4 -10 9c0 3 1 6 4 11c13 22 20 45 20 70c-16 4 -24 15 -24 32c0 14 7 26 26 26z" />
<glyph unicode="&#x201e;" horiz-adv-x="284" d="M94 39c18 0 26 -12 26 -30c0 -46 -14 -91 -31 -112c-4 -5 -7 -6 -11 -6c-5 0 -10 4 -10 9c0 3 1 6 4 11c13 22 20 45 20 70c-16 4 -24 15 -24 32c0 14 7 26 26 26zM190 39c18 0 26 -12 26 -30c0 -46 -14 -91 -31 -112c-4 -5 -7 -6 -11 -6c-5 0 -10 4 -10 9c0 3 1 6 4 11 c13 22 20 45 20 70c-16 4 -24 15 -24 32c0 14 7 26 26 26z" />
<glyph unicode="&#x2039;" horiz-adv-x="294" d="M75 212l169 -195c2 -2 3 -6 3 -9c0 -8 -6 -14 -14 -14c-4 0 -7 1 -10 4l-176 207c-1 1 -3 3 -3 7s2 6 3 7l176 207c3 3 6 4 10 4c8 0 14 -6 14 -14c0 -3 -1 -7 -3 -9z" />
<glyph unicode="&#x203a;" horiz-adv-x="294" d="M50 17l169 195l-169 195c-2 2 -3 6 -3 9c0 8 6 14 14 14c4 0 7 -1 10 -4l176 -207c1 -1 3 -3 3 -7s-2 -6 -3 -7l-176 -207c-3 -3 -6 -4 -10 -4c-8 0 -14 6 -14 14c0 3 1 7 3 9z" />
<glyph unicode="&#xab;" horiz-adv-x="434" d="M75 212l169 -195c2 -2 3 -6 3 -9c0 -8 -6 -14 -14 -14c-4 0 -7 1 -10 4l-176 207c-1 1 -3 3 -3 7s2 6 3 7l176 207c3 3 6 4 10 4c8 0 14 -6 14 -14c0 -3 -1 -7 -3 -9zM215 212l169 -195c2 -2 3 -6 3 -9c0 -8 -6 -14 -14 -14c-4 0 -7 1 -10 4l-176 207c-1 1 -3 3 -3 7 s2 6 3 7l176 207c3 3 6 4 10 4c8 0 14 -6 14 -14c0 -3 -1 -7 -3 -9z" />
<glyph unicode="&#xbb;" horiz-adv-x="434" d="M50 17l169 195l-169 195c-2 2 -3 6 -3 9c0 8 6 14 14 14c4 0 7 -1 10 -4l176 -207c1 -1 3 -3 3 -7s-2 -6 -3 -7l-176 -207c-3 -3 -6 -4 -10 -4c-8 0 -14 6 -14 14c0 3 1 7 3 9zM190 17l169 195l-169 195c-2 2 -3 6 -3 9c0 8 6 14 14 14c4 0 7 -1 10 -4l176 -207 c1 -1 3 -3 3 -7s-2 -6 -3 -7l-176 -207c-3 -3 -6 -4 -10 -4c-8 0 -14 6 -14 14c0 3 1 7 3 9z" />
<glyph unicode="*" horiz-adv-x="403" d="M201 539l-72 -109c-3 -4 -5 -6 -8 -6c-6 0 -17 7 -17 14c0 4 2 6 4 9l75 101l-119 27c-8 2 -11 6 -11 12s4 15 12 15c2 0 6 -1 9 -2l117 -34l-3 120c0 11 5 13 13 13c9 0 14 -2 14 -13l-3 -120l117 34c3 1 7 2 9 2c8 0 12 -9 12 -15s-3 -10 -11 -12l-119 -27l75 -101 c2 -3 4 -5 4 -9c0 -7 -11 -14 -17 -14c-3 0 -5 2 -8 6z" />
<glyph unicode="&#x2020;" horiz-adv-x="388" d="M204 -142c0 -6 -5 -8 -10 -8s-10 2 -10 8l-5 621h-120c-10 0 -13 5 -13 13s3 13 13 13h120l-2 190c0 12 5 17 17 17s17 -5 17 -17l-2 -190h120c10 0 13 -5 13 -13s-3 -13 -13 -13h-120z" />
<glyph unicode="&#x2021;" horiz-adv-x="388" d="M179 479h-120c-10 0 -13 5 -13 13s3 13 13 13h120l-2 190c0 12 5 17 17 17s17 -5 17 -17l-2 -190h120c10 0 13 -5 13 -13s-3 -13 -13 -13h-120l-2 -223l2 -223h120c10 0 13 -5 13 -13s-3 -13 -13 -13h-120l2 -190c0 -12 -5 -17 -17 -17s-17 5 -17 17l2 190h-120 c-10 0 -13 5 -13 13s3 13 13 13h120l2 223z" />
<glyph unicode="." horiz-adv-x="172" d="M109 15c0 -16 -9 -23 -23 -23s-23 7 -23 23s9 24 23 24s23 -8 23 -24z" />
<glyph unicode="," horiz-adv-x="184" d="M68 17c0 12 7 22 24 22c16 0 24 -10 24 -25c0 -38 -14 -75 -29 -93c-3 -4 -6 -5 -10 -5c-5 0 -9 4 -9 9c0 3 1 5 2 7c14 23 20 38 20 59c-15 2 -22 12 -22 26z" />
<glyph unicode=":" horiz-adv-x="192" d="M119 15c0 -16 -9 -23 -23 -23s-23 7 -23 23s9 24 23 24s23 -8 23 -24zM119 432c0 -16 -9 -23 -23 -23s-23 7 -23 23s9 24 23 24s23 -8 23 -24z" />
<glyph unicode=";" horiz-adv-x="194" d="M73 17c0 12 7 22 24 22c16 0 24 -10 24 -25c0 -38 -14 -75 -29 -93c-3 -4 -6 -5 -10 -5c-5 0 -9 4 -9 9c0 3 1 5 2 7c14 23 20 38 20 59c-15 2 -22 12 -22 26zM120 432c0 -16 -9 -23 -23 -23s-23 7 -23 23s9 24 23 24s23 -8 23 -24z" />
<glyph unicode="!" horiz-adv-x="236" d="M141 15c0 -16 -9 -23 -23 -23s-23 7 -23 23s9 24 23 24s23 -8 23 -24zM130 133c0 -7 -6 -11 -12 -11s-12 4 -12 11l-7 531c0 12 8 17 19 17s19 -5 19 -17z" />
<glyph unicode="&#xa1;" horiz-adv-x="220" d="M133 445c0 -16 -9 -24 -23 -24s-23 8 -23 24s9 23 23 23s23 -7 23 -23zM98 327c0 7 6 11 12 11s12 -4 12 -11l7 -531c0 -12 -8 -17 -19 -17s-19 5 -19 17z" />
<glyph unicode="?" horiz-adv-x="451" d="M202 123c-5 0 -9 2 -12 5c-21 21 -29 51 -29 76c0 144 222 124 222 311c0 92 -61 146 -163 146c-106 0 -155 -53 -155 -152c0 -8 -7 -15 -15 -15s-15 7 -15 15c0 105 59 178 185 178c120 0 193 -68 193 -172c0 -204 -222 -185 -222 -311c0 -25 8 -41 21 -57 c4 -5 4 -7 4 -10c0 -9 -8 -14 -14 -14zM219 15c0 -16 -9 -23 -23 -23s-23 7 -23 23s9 24 23 24s23 -8 23 -24z" />
<glyph unicode="&#xbf;" horiz-adv-x="442" d="M245 337c5 0 9 -2 12 -5c21 -21 29 -51 29 -76c0 -144 -222 -124 -222 -311c0 -92 61 -146 163 -146c106 0 155 53 155 152c0 8 7 15 15 15s15 -7 15 -15c0 -105 -59 -178 -185 -178c-120 0 -193 68 -193 172c0 204 222 185 222 311c0 25 -8 41 -21 57c-4 5 -4 7 -4 10 c0 9 8 14 14 14zM228 445c0 16 9 23 23 23s23 -7 23 -23s-9 -24 -23 -24s-23 8 -23 24z" />
<glyph unicode="/" horiz-adv-x="383" d="M315 740c2 7 8 11 14 11c9 0 16 -7 16 -16c0 -1 0 -2 -1 -5l-276 -818c-2 -6 -8 -10 -15 -10c-9 0 -15 8 -15 15c0 1 0 3 1 6z" />
<glyph unicode="\" horiz-adv-x="383" d="M38 735c0 9 7 16 16 16c6 0 12 -4 14 -11l276 -817c1 -3 1 -5 1 -6c0 -7 -6 -15 -15 -15c-7 0 -13 4 -15 10l-276 818c-1 3 -1 4 -1 5z" />
<glyph unicode="|" horiz-adv-x="236" d="M133 793v-938c0 -8 -7 -15 -15 -15s-15 7 -15 15v938c0 8 7 15 15 15s15 -7 15 -15z" />
<glyph unicode="&#xa6;" horiz-adv-x="236" d="M133 793v-422c0 -8 -7 -15 -15 -15s-15 7 -15 15v422c0 8 7 15 15 15s15 -7 15 -15zM133 278v-423c0 -8 -7 -15 -15 -15s-15 7 -15 15v423c0 8 7 15 15 15s15 -7 15 -15z" />
<glyph unicode="@" horiz-adv-x="840" d="M292 310c16 18 51 49 115 49c65 0 137 -31 137 -116v-173c0 -50 29 -58 70 -58c70 0 134 43 134 183c0 202 -128 314 -330 314c-207 0 -328 -108 -328 -337c0 -230 121 -336 328 -336c86 0 168 13 238 65c4 3 6 4 10 4c7 0 13 -6 13 -13c0 -4 -2 -8 -6 -11 c-60 -49 -147 -71 -255 -71c-225 0 -358 115 -358 362c0 248 133 363 358 363c209 0 360 -111 360 -340c0 -86 -33 -207 -164 -207c-44 0 -80 9 -94 50c-25 -30 -62 -50 -129 -50c-97 0 -136 50 -136 107c0 75 62 106 157 106h104v46c0 59 -51 86 -109 86 c-43 0 -71 -15 -95 -39c-4 -4 -7 -6 -12 -6c-7 0 -12 6 -12 13c0 4 2 7 4 9zM516 176h-112c-79 0 -119 -25 -119 -81c0 -38 25 -82 106 -82c88 0 125 42 125 82v81z" />
<glyph unicode="&#x26;" horiz-adv-x="656" d="M475 260h152c8 0 14 -6 14 -14s-6 -14 -14 -14h-63c-12 -53 -35 -106 -63 -144c43 -30 77 -49 124 -70c8 -3 11 -8 11 -12c0 -8 -6 -14 -14 -14c-2 0 -6 1 -9 2c-56 21 -86 41 -132 72c-45 -48 -104 -80 -196 -80c-118 0 -209 64 -209 184c0 82 51 140 122 193 c-25 43 -56 109 -56 182c0 78 46 142 132 142c70 0 124 -46 124 -126c0 -86 -71 -137 -164 -206c56 -98 140 -173 243 -249c34 42 49 94 58 126h-60c-8 0 -14 6 -14 14s6 14 14 14zM458 84c-109 84 -189 154 -246 256c-56 -42 -106 -91 -106 -170c0 -101 82 -157 179 -157 c85 0 140 35 173 71zM172 545c0 -66 20 -115 50 -166c79 59 146 109 146 182c0 67 -42 101 -94 101c-62 0 -102 -46 -102 -117z" />
<glyph unicode="&#xa7;" horiz-adv-x="530" d="M149 407c-36 -27 -58 -68 -58 -124c0 -143 183 -127 292 -201c36 26 57 66 57 123c0 142 -180 133 -291 202zM472 205c0 -56 -30 -111 -67 -139c31 -27 51 -64 51 -112c0 -82 -61 -155 -200 -155c-85 0 -150 36 -188 86c-3 4 -4 7 -4 10c0 8 6 14 13 14s11 -3 14 -8 c20 -30 72 -76 165 -76c122 0 168 62 168 129c0 199 -365 109 -365 329c0 60 29 104 67 138c-31 28 -51 65 -51 114c0 82 59 152 198 152c85 0 154 -36 190 -86c2 -3 3 -6 3 -10c0 -7 -6 -12 -13 -12c-4 0 -8 1 -11 5c-20 24 -66 77 -169 77c-122 0 -166 -59 -166 -126 c0 -196 365 -111 365 -330z" />
<glyph unicode="&#xb6;" horiz-adv-x="486" d="M349 428h-78v-609c0 -6 -7 -12 -15 -12s-15 6 -15 12v321h-55c-86 0 -156 70 -156 157c0 86 70 157 156 157h225c7 0 13 -6 13 -13s-6 -13 -13 -13h-32v-609c0 -6 -7 -12 -15 -12s-15 6 -15 12v609z" />
<glyph unicode="&#x2116;" horiz-adv-x="1095" d="M737 395c0 116 55 172 147 172c93 0 148 -56 148 -172s-55 -171 -148 -171c-92 0 -147 55 -147 171zM76 673h72c8 0 12 -4 14 -7l449 -619v598h-55c-8 0 -14 6 -14 14s6 14 14 14h140c8 0 14 -6 14 -14s-6 -14 -14 -14h-55v-637c0 -9 -7 -16 -16 -16c-7 0 -11 3 -15 9 l-449 623v-596h55c8 0 14 -6 14 -14s-6 -14 -14 -14h-140c-8 0 -14 6 -14 14s6 14 14 14h55v617h-55c-8 0 -14 6 -14 14s6 14 14 14zM765 395c0 -101 43 -144 119 -144s120 43 120 144c0 98 -44 145 -120 145s-119 -47 -119 -145zM744 151h281c8 0 14 -6 14 -14 s-6 -14 -14 -14h-281c-8 0 -14 6 -14 14s6 14 14 14z" />
<glyph unicode="&#x2022;" horiz-adv-x="432" d="M346 279c0 -88 -47 -130 -130 -130s-130 42 -130 130c0 94 47 136 130 136s130 -42 130 -136z" />
<glyph unicode="+" horiz-adv-x="502" d="M448 231c7 0 13 -6 13 -13s-6 -13 -13 -13h-182v-198c0 -8 -7 -15 -15 -15s-15 7 -15 15v198h-182c-7 0 -13 6 -13 13s6 13 13 13h182v199c0 8 7 15 15 15s15 -7 15 -15v-199h182z" />
<glyph unicode="&#x2212;" horiz-adv-x="572" d="M483 231c7 0 13 -6 13 -13s-6 -13 -13 -13h-394c-7 0 -13 6 -13 13s6 13 13 13h394z" />
<glyph unicode="&#xb1;" horiz-adv-x="542" d="M468 319c7 0 13 -6 13 -13s-6 -13 -13 -13h-182v-198c0 -8 -7 -15 -15 -15s-15 7 -15 15v198h-182c-7 0 -13 6 -13 13s6 13 13 13h182v199c0 8 7 15 15 15s15 -7 15 -15v-199h182zM468 26c7 0 13 -6 13 -13s-6 -13 -13 -13h-394c-7 0 -13 6 -13 13s6 13 13 13h394z" />
<glyph unicode="&#xf7;" horiz-adv-x="572" d="M286 366c13 0 23 -10 23 -23c0 -12 -10 -23 -23 -23c-12 0 -23 11 -23 23c0 13 11 23 23 23zM286 116c13 0 23 -11 23 -23c0 -13 -10 -24 -23 -24c-12 0 -23 11 -23 24c0 12 11 23 23 23zM483 231c7 0 13 -6 13 -13s-6 -13 -13 -13h-394c-7 0 -13 6 -13 13s6 13 13 13 h394z" />
<glyph unicode="&#xd7;" horiz-adv-x="478" d="M384 53l-145 145l-145 -145c-3 -3 -7 -4 -10 -4c-9 0 -15 6 -15 14c0 4 1 8 4 11l146 144l-146 144c-3 3 -4 7 -4 11c0 8 6 14 15 14c3 0 7 -1 10 -4l145 -145l145 145c3 3 7 4 10 4c9 0 15 -6 15 -14c0 -4 -1 -8 -4 -11l-146 -144l146 -144c3 -3 4 -7 4 -11 c0 -8 -6 -14 -15 -14c-3 0 -7 1 -10 4z" />
<glyph unicode="=" horiz-adv-x="574" d="M484 308c7 0 13 -6 13 -13s-6 -13 -13 -13h-394c-7 0 -13 6 -13 13s6 13 13 13h394zM484 155c7 0 13 -6 13 -13s-6 -13 -13 -13h-394c-7 0 -13 6 -13 13s6 13 13 13h394z" />
<glyph unicode="&#x3c;" horiz-adv-x="407" d="M42 222c-4 3 -7 7 -7 13s3 10 7 13l298 234c3 2 5 3 9 3c8 0 14 -6 14 -14c0 -3 -1 -8 -5 -11l-285 -225l285 -225c4 -3 5 -8 5 -11c0 -8 -6 -14 -14 -14c-4 0 -6 1 -9 3z" />
<glyph unicode="&#x3e;" horiz-adv-x="407" d="M365 248c4 -3 7 -7 7 -13s-3 -10 -7 -13l-298 -234c-3 -2 -5 -3 -9 -3c-8 0 -14 6 -14 14c0 3 1 8 5 11l285 225l-285 225c-4 3 -5 8 -5 11c0 8 6 14 14 14c4 0 6 -1 9 -3z" />
<glyph unicode="&#x2264;" horiz-adv-x="451" d="M374 26c7 0 13 -6 13 -13s-6 -13 -13 -13h-302c-7 0 -13 6 -13 13s6 13 13 13h302zM96 287l286 -173c4 -3 5 -8 5 -11c0 -8 -6 -14 -14 -14c-4 0 -6 1 -9 3l-298 182c-5 3 -7 7 -7 13c0 7 3 10 7 13l298 182c4 2 5 3 9 3c8 0 14 -6 14 -14c0 -3 -1 -8 -5 -11z" />
<glyph unicode="&#x2265;" horiz-adv-x="451" d="M77 0c-7 0 -13 6 -13 13s6 13 13 13h302c7 0 13 -6 13 -13s-6 -13 -13 -13h-302zM69 114l286 173l-286 173c-4 3 -5 8 -5 11c0 8 6 14 14 14c4 0 6 -1 9 -3l298 -182c4 -3 7 -6 7 -13c0 -6 -2 -10 -7 -13l-298 -182c-3 -2 -5 -3 -9 -3c-8 0 -14 6 -14 14c0 3 1 8 5 11z " />
<glyph unicode="&#x2260;" horiz-adv-x="574" d="M73 308h266l41 60c3 4 6 5 9 5c6 0 11 -5 11 -11c0 0 0 -3 -2 -6l-32 -48h135c7 0 13 -6 13 -13s-6 -13 -13 -13h-153l-85 -127h238c7 0 13 -6 13 -13s-6 -13 -13 -13h-256l-40 -60c-2 -3 -5 -6 -11 -6c-5 0 -10 5 -10 12c0 0 0 3 2 6l32 48h-145c-7 0 -13 6 -13 13 s6 13 13 13h163l86 127h-249c-7 0 -13 6 -13 13s6 13 13 13z" />
<glyph unicode="&#xac;" horiz-adv-x="612" d="M505 281h-415c-7 0 -13 6 -13 13s6 13 13 13h432c7 0 13 -6 13 -13v-231c0 -8 -7 -15 -15 -15s-15 7 -15 15v218z" />
<glyph unicode="&#x221a;" horiz-adv-x="533" d="M276 -171c-7 0 -13 4 -15 10l-163 399l-71 -53c-2 -2 -5 -3 -8 -3c-7 0 -13 6 -13 13c0 4 2 8 5 10l81 61c5 4 8 6 13 6c6 0 11 -3 13 -8l156 -390l208 827c2 7 7 11 14 11c8 0 14 -6 14 -14c0 -1 0 -3 -1 -6l-218 -853c-1 -5 -7 -10 -15 -10z" />
<glyph unicode="&#xb5;" horiz-adv-x="599" d="M392 454h75c9 0 15 -8 15 -15v-413h60c7 0 13 -6 13 -13s-6 -13 -13 -13h-78c-8 0 -12 6 -12 12v46c-26 -43 -73 -71 -153 -71c-81 0 -134 32 -153 72v-249c0 -8 -7 -15 -15 -15s-15 7 -15 15v618h-60c-7 0 -13 6 -13 13s6 13 13 13h75c8 0 15 -7 15 -15v-274 c0 -82 26 -152 153 -152s153 70 153 152v263h-60c-7 0 -13 6 -13 13s6 13 13 13z" />
<glyph unicode="$" horiz-adv-x="542" d="M469 564c-6 0 -9 2 -12 6c-34 45 -83 90 -185 90c-126 0 -173 -63 -173 -134c0 -198 398 -115 398 -354c0 -114 -76 -179 -212 -185v-86c0 -8 -7 -15 -15 -15s-15 7 -15 15v85c-109 3 -178 56 -219 121c-2 3 -3 6 -3 9c0 8 7 15 15 15c6 0 10 -3 13 -8 c38 -60 102 -109 203 -109c130 0 201 51 201 158c0 217 -398 123 -398 354c0 82 57 154 188 160v87c0 8 7 15 15 15s15 -7 15 -15v-87c86 -3 151 -38 196 -98c2 -3 3 -6 3 -9c0 -8 -7 -15 -15 -15z" />
<glyph unicode="&#xa2;" horiz-adv-x="476" d="M249 -12c-120 6 -190 82 -190 240c0 157 70 233 190 239v68c0 8 6 14 14 14s14 -6 14 -14v-68c94 -5 132 -57 139 -66c2 -3 3 -6 3 -9c0 -7 -6 -13 -13 -13c-5 0 -8 2 -11 6c-17 20 -50 57 -132 57c-113 0 -174 -66 -174 -214c0 -150 61 -215 174 -215 c69 0 107 29 133 49c3 2 5 3 8 3c7 0 13 -6 13 -13c0 -3 -1 -7 -6 -11c-19 -15 -62 -49 -134 -53v-81c0 -8 -6 -14 -14 -14s-14 6 -14 14v81z" />
<glyph unicode="&#xa3;" horiz-adv-x="582" d="M519 81c3 6 8 8 12 8c8 0 14 -6 14 -13c0 -4 -1 -7 -2 -9c-32 -64 -83 -83 -147 -83c-74 0 -110 51 -182 51c-68 0 -109 -32 -119 -40c-3 -2 -6 -4 -11 -4c-9 0 -15 6 -15 15c0 5 2 9 7 13c42 34 95 100 95 161c0 42 -12 79 -31 118h-65c-7 0 -13 6 -13 13s6 13 13 13h54 c-30 54 -59 109 -59 176c0 108 81 187 210 187c117 0 189 -46 214 -131c1 -3 2 -7 2 -9c0 -8 -7 -15 -15 -15s-13 6 -15 13c-27 76 -77 116 -186 116c-103 0 -180 -62 -180 -161c0 -58 24 -107 62 -176h191c7 0 13 -6 13 -13s-6 -13 -13 -13h-180c17 -35 28 -73 28 -118 c0 -54 -39 -111 -72 -139c24 11 46 20 84 20c87 0 119 -51 183 -51c52 0 97 17 123 71z" />
<glyph unicode="&#xa4;" horiz-adv-x="571" d="M404 174c-30 -28 -71 -44 -117 -44c-47 0 -89 17 -120 45l-62 -63c-3 -3 -6 -5 -10 -5c-7 0 -13 6 -13 13c0 4 2 8 5 11l61 64c-25 32 -39 72 -39 117s15 86 40 117l-62 66c-3 3 -5 7 -5 11c0 7 6 13 13 13c4 0 7 -2 10 -5l63 -65c31 28 72 45 119 45 c46 0 86 -16 116 -43l62 63c3 3 6 5 10 5c7 0 13 -6 13 -13c0 -4 -2 -8 -5 -11l-61 -64c25 -32 40 -73 40 -119s-15 -87 -40 -118l61 -63c3 -3 5 -7 5 -11c0 -7 -6 -13 -13 -13c-4 0 -7 2 -10 5zM137 312c0 -86 62 -156 150 -156s147 70 147 156s-59 156 -147 156 s-150 -70 -150 -156z" />
<glyph unicode="&#xa5;" horiz-adv-x="631" d="M467 301h-135v-81h135c7 0 13 -6 13 -13s-6 -13 -13 -13h-135v-166h71c8 0 14 -6 14 -14s-6 -14 -14 -14h-174c-8 0 -14 6 -14 14s6 14 14 14h71v166h-135c-7 0 -13 6 -13 13s6 13 13 13h135v81h-135c-7 0 -13 6 -13 13s6 13 13 13h129l-204 318h-48c-8 0 -14 6 -14 14 s6 14 14 14h148c8 0 14 -6 14 -14s-6 -14 -14 -14h-60l186 -297l184 297h-59c-8 0 -14 6 -14 14s6 14 14 14h148c8 0 14 -6 14 -14s-6 -14 -14 -14h-49l-203 -318h130c7 0 13 -6 13 -13s-6 -13 -13 -13z" />
<glyph unicode="&#x20ac;" horiz-adv-x="699" d="M334 377h-194c-1 -13 -1 -27 -1 -41c0 -17 0 -34 1 -49h194c7 0 13 -6 13 -13s-6 -13 -13 -13h-191c20 -179 116 -247 272 -247c76 0 153 30 200 93c4 5 8 6 12 6c8 0 14 -6 14 -14c0 -2 -1 -6 -3 -9c-43 -65 -130 -104 -223 -104c-172 0 -283 82 -304 275h-56 c-7 0 -13 6 -13 13s6 13 13 13h54c-1 15 -2 32 -2 49c0 14 0 28 1 41h-53c-7 0 -13 6 -13 13s6 13 13 13h55c20 191 131 284 305 284c95 0 177 -41 222 -104c2 -3 4 -7 4 -11c0 -8 -6 -14 -14 -14c-4 0 -8 1 -12 6c-40 54 -113 95 -200 95c-157 0 -254 -81 -273 -256h192 c7 0 13 -6 13 -13s-6 -13 -13 -13z" />
<glyph unicode="&#x192;" horiz-adv-x="451" d="M417 676c7 -3 10 -7 10 -12c0 -10 -7 -14 -13 -14c-2 0 -5 1 -8 2c-8 3 -26 9 -55 9c-61 0 -89 -34 -110 -138l-25 -125h103c7 0 13 -6 13 -13s-6 -13 -13 -13h-107l-78 -405c-21 -110 -47 -168 -162 -168c-21 0 -42 6 -51 10c-3 1 -8 5 -8 12s5 12 12 12c4 0 6 -1 9 -2 c9 -3 21 -6 42 -6c76 0 108 37 127 138l79 409h-71c-7 0 -13 6 -13 13s6 13 13 13h75l24 121c23 118 59 168 148 168c22 0 49 -6 59 -11z" />
<glyph unicode="^" horiz-adv-x="482" d="M404 377l-163 275l-163 -275c-3 -6 -8 -8 -13 -8c-8 0 -14 6 -14 14c0 3 1 6 3 9l174 290c3 5 6 9 13 9s10 -4 13 -9l174 -290c2 -3 3 -6 3 -9c0 -8 -6 -14 -14 -14c-5 0 -10 2 -13 8z" />
<glyph unicode="~" horiz-adv-x="550" d="M449 341c2 4 5 9 12 9s12 -6 12 -12c0 -3 -1 -6 -2 -8c-13 -28 -48 -75 -107 -75c-69 0 -111 70 -174 70c-49 0 -71 -38 -85 -61c-3 -5 -5 -8 -12 -8s-12 5 -12 12c0 3 2 7 3 9c13 25 48 74 106 74c76 0 112 -71 174 -71c48 0 72 37 85 61z" />
<glyph unicode="&#xa9;" horiz-adv-x="788" d="M517 214c-24 -34 -71 -59 -122 -59c-102 0 -163 48 -163 181s61 184 163 184c63 0 109 -34 123 -60c2 -4 2 -6 2 -8c0 -7 -5 -12 -11 -12c-4 0 -8 1 -11 5c-23 31 -57 49 -103 49c-84 0 -133 -35 -133 -158c0 -125 49 -154 133 -154c41 0 82 15 102 48c3 5 8 6 11 6 c6 0 12 -5 12 -12c0 -4 -1 -7 -3 -10zM394 687c209 0 333 -114 333 -351c0 -236 -124 -350 -333 -350s-333 114 -333 350c0 237 124 351 333 351zM394 661c-196 0 -303 -102 -303 -325c0 -222 107 -324 303 -324s303 102 303 324c0 223 -107 325 -303 325z" />
<glyph unicode="&#xae;" horiz-adv-x="418" d="M208 382c-91 0 -146 49 -146 153s55 152 146 152c93 0 147 -48 147 -152s-54 -153 -147 -153zM208 402c80 0 125 41 125 133c0 90 -45 132 -125 132c-79 0 -124 -42 -124 -132c0 -92 45 -133 124 -133zM204 518h-28v-51c0 -6 -5 -11 -11 -11s-11 5 -11 11v135 c0 6 5 11 11 11h58c31 0 46 -23 46 -48s-17 -45 -41 -47l34 -42c3 -3 4 -6 4 -9c0 -6 -5 -11 -11 -11c-4 0 -7 2 -10 6zM176 538h42c18 0 28 11 28 27c0 18 -10 28 -28 28h-42v-55z" />
<glyph unicode="&#x2122;" horiz-adv-x="465" d="M59 652h131c6 0 10 -4 10 -10s-4 -10 -10 -10h-55v-154c0 -6 -5 -11 -11 -11s-11 5 -11 11v154h-54c-6 0 -10 4 -10 10s4 10 10 10zM250 477c0 -6 -4 -10 -10 -10s-10 4 -10 10v167c0 6 5 11 11 11s9 -4 11 -8l55 -112l55 112c2 4 5 8 11 8s11 -5 11 -11v-167 c0 -6 -4 -10 -10 -10s-10 4 -10 10v132l-46 -93c-2 -4 -5 -8 -11 -8s-9 4 -11 8l-46 93v-132z" />
<glyph unicode="&#xb0;" horiz-adv-x="378" d="M189 413c-76 0 -137 61 -137 137s61 137 137 137s137 -61 137 -137s-61 -137 -137 -137zM188 661c-63 0 -110 -52 -110 -112s47 -110 110 -110s112 50 112 110s-49 112 -112 112z" />
<glyph unicode="&#xfb06;" horiz-adv-x="665" d="M267 568c0 -64 49 -119 93 -160c4 -4 4 -6 4 -10c0 -7 -6 -13 -13 -13c-2 0 -5 0 -9 4c-35 35 -73 53 -131 53c-59 0 -117 -21 -117 -86c0 -133 286 -87 286 -245c0 -85 -72 -124 -165 -124c-84 0 -146 36 -170 69c-3 4 -4 6 -4 10c0 8 7 13 13 13c3 0 6 -1 9 -4 c34 -38 77 -62 152 -62c73 0 135 26 135 98c0 129 -286 87 -286 245c0 77 65 112 147 112c22 0 46 -4 77 -15c-31 35 -48 74 -48 117c0 59 37 117 135 117c101 0 155 -56 155 -180v-53h90c7 0 13 -6 13 -13s-6 -13 -13 -13h-90v-318c0 -60 34 -92 83 -92c7 0 13 -6 13 -13 s-6 -13 -13 -13c-73 0 -113 50 -113 118v318h-62c-7 0 -13 6 -13 13s6 13 13 13h62v52c0 94 -32 155 -127 155c-76 0 -106 -45 -106 -93z" />
<glyph horiz-adv-x="716" d="M259 442c-113 0 -174 -66 -174 -214c0 -150 61 -215 174 -215c69 0 107 29 133 49c3 2 5 3 8 3c7 0 13 -6 13 -13c0 -3 -1 -7 -6 -11c-20 -16 -67 -54 -148 -54c-128 0 -204 77 -204 241s76 240 204 240c26 0 51 -3 79 -15c-29 35 -48 73 -48 116c0 60 37 118 136 118 c101 0 155 -56 155 -180v-53h90c7 0 13 -6 13 -13s-6 -13 -13 -13h-90v-318c0 -60 34 -92 83 -92c7 0 13 -6 13 -13s-6 -13 -13 -13c-73 0 -113 50 -113 118v318h-62c-7 0 -13 6 -13 13s6 13 13 13h62v52c0 94 -32 155 -127 155c-75 0 -104 -45 -104 -95 c0 -61 51 -123 89 -161c5 -5 6 -10 6 -13c0 -7 -6 -13 -13 -13c-4 0 -8 2 -11 6c-18 20 -49 57 -132 57z" />
<glyph horiz-adv-x="361" d="M272 350c7 0 13 -6 13 -13s-6 -13 -13 -13h-183c-7 0 -13 6 -13 13s6 13 13 13h183z" />
<glyph horiz-adv-x="530" d="M441 350c7 0 13 -6 13 -13s-6 -13 -13 -13h-352c-7 0 -13 6 -13 13s6 13 13 13h352z" />
<glyph horiz-adv-x="864" d="M775 350c7 0 13 -6 13 -13s-6 -13 -13 -13h-686c-7 0 -13 6 -13 13s6 13 13 13h686z" />
<glyph horiz-adv-x="278" d="M233 -104c-161 67 -167 284 -167 441s6 374 167 441c2 1 5 1 5 1c8 0 14 -6 14 -14c0 -5 -3 -10 -8 -12c-146 -56 -148 -284 -148 -416s2 -360 148 -416c5 -2 8 -7 8 -12c0 -8 -6 -14 -14 -14c0 0 -3 0 -5 1z" />
<glyph horiz-adv-x="278" d="M45 778c161 -67 167 -284 167 -441s-6 -374 -167 -441c-2 -1 -5 -1 -5 -1c-8 0 -14 6 -14 14c0 5 3 10 8 12c146 56 148 284 148 416s-2 360 -148 416c-5 2 -8 7 -8 12c0 8 6 14 14 14c0 0 3 0 5 -1z" />
<glyph horiz-adv-x="273" d="M215 -79c7 0 13 -6 13 -13s-6 -13 -13 -13h-92c-7 0 -13 6 -13 13v858c0 7 6 13 13 13h92c7 0 13 -6 13 -13s-6 -13 -13 -13h-75v-832h75z" />
<glyph horiz-adv-x="273" d="M58 -105c-7 0 -13 6 -13 13s6 13 13 13h75v832h-75c-7 0 -13 6 -13 13s6 13 13 13h92c7 0 13 -6 13 -13v-858c0 -7 -6 -13 -13 -13h-92z" />
<glyph horiz-adv-x="287" d="M163 -21c0 -39 23 -58 59 -58c7 0 13 -6 13 -13s-6 -13 -13 -13c-53 0 -91 32 -91 84c0 83 13 158 13 237c0 78 -43 109 -104 109h-10c-7 0 -12 5 -12 12s5 12 12 12h10c61 0 104 31 104 109c0 80 -13 154 -13 237c0 53 38 84 91 84c7 0 13 -6 13 -13s-6 -13 -13 -13 c-36 0 -59 -19 -59 -58c0 -78 6 -161 6 -238c0 -70 -37 -120 -99 -120c62 0 99 -50 99 -120c0 -77 -6 -160 -6 -238z" />
<glyph horiz-adv-x="287" d="M52 -92c0 7 6 13 13 13c36 0 59 19 59 58c0 78 -6 161 -6 238c0 70 37 120 99 120c-62 0 -99 50 -99 120c0 77 6 160 6 238c0 39 -23 58 -59 58c-7 0 -13 6 -13 13s6 13 13 13c53 0 91 -31 91 -84c0 -83 -13 -157 -13 -237c0 -78 43 -109 104 -109h10c7 0 12 -5 12 -12 s-5 -12 -12 -12h-10c-61 0 -104 -31 -104 -109c0 -79 13 -154 13 -237c0 -52 -38 -84 -91 -84c-7 0 -13 6 -13 13z" />
<glyph horiz-adv-x="329" d="M85 337l169 -195c2 -2 3 -6 3 -9c0 -8 -6 -14 -14 -14c-4 0 -7 1 -10 4l-176 207c-1 1 -3 3 -3 7s2 6 3 7l176 207c3 3 6 4 10 4c8 0 14 -6 14 -14c0 -3 -1 -7 -3 -9z" />
<glyph horiz-adv-x="329" d="M75 142l169 195l-169 195c-2 2 -3 6 -3 9c0 8 6 14 14 14c4 0 7 -1 10 -4l176 -207c1 -1 3 -3 3 -7s-2 -6 -3 -7l-176 -207c-3 -3 -6 -4 -10 -4c-8 0 -14 6 -14 14c0 3 1 7 3 9z" />
<glyph horiz-adv-x="469" d="M85 337l169 -195c2 -2 3 -6 3 -9c0 -8 -6 -14 -14 -14c-4 0 -7 1 -10 4l-176 207c-1 1 -3 3 -3 7s2 6 3 7l176 207c3 3 6 4 10 4c8 0 14 -6 14 -14c0 -3 -1 -7 -3 -9zM225 337l169 -195c2 -2 3 -6 3 -9c0 -8 -6 -14 -14 -14c-4 0 -7 1 -10 4l-176 207c-1 1 -3 3 -3 7 s2 6 3 7l176 207c3 3 6 4 10 4c8 0 14 -6 14 -14c0 -3 -1 -7 -3 -9z" />
<glyph horiz-adv-x="469" d="M75 142l169 195l-169 195c-2 2 -3 6 -3 9c0 8 6 14 14 14c4 0 7 -1 10 -4l176 -207c1 -1 3 -3 3 -7s-2 -6 -3 -7l-176 -207c-3 -3 -6 -4 -10 -4c-8 0 -14 6 -14 14c0 3 1 7 3 9zM215 142l169 195l-169 195c-2 2 -3 6 -3 9c0 8 6 14 14 14c4 0 7 -1 10 -4l176 -207 c1 -1 3 -3 3 -7s-2 -6 -3 -7l-176 -207c-3 -3 -6 -4 -10 -4c-8 0 -14 6 -14 14c0 3 1 7 3 9z" />
<glyph horiz-adv-x="383" d="M315 750c2 7 8 11 14 11c9 0 16 -7 16 -16c0 -1 0 -2 -1 -5l-276 -818c-2 -6 -8 -10 -15 -10c-9 0 -15 8 -15 15c0 1 0 3 1 6z" />
<glyph horiz-adv-x="383" d="M38 745c0 9 7 16 16 16c6 0 12 -4 14 -11l276 -817c1 -3 1 -5 1 -6c0 -7 -6 -15 -15 -15c-7 0 -13 4 -15 10l-276 818c-1 3 -1 4 -1 5z" />
<glyph horiz-adv-x="250" d="M140 806v-938c0 -8 -7 -15 -15 -15s-15 7 -15 15v938c0 8 7 15 15 15s15 -7 15 -15z" />
<glyph horiz-adv-x="823" d="M292 474c16 18 51 49 115 49c65 0 137 -31 137 -116v-173c0 -50 29 -58 70 -58c70 0 134 43 134 183c0 202 -128 314 -330 314c-207 0 -328 -108 -328 -337c0 -230 121 -336 328 -336c86 0 168 13 238 65c4 3 6 4 10 4c7 0 13 -6 13 -13c0 -4 -2 -8 -6 -11 c-60 -49 -147 -71 -255 -71c-225 0 -358 115 -358 362c0 248 133 363 358 363c209 0 360 -111 360 -340c0 -86 -33 -207 -164 -207c-44 0 -80 9 -94 50c-25 -30 -62 -50 -129 -50c-97 0 -136 50 -136 107c0 75 62 106 157 106h104v46c0 59 -51 86 -109 86 c-43 0 -71 -15 -95 -39c-4 -4 -7 -6 -12 -6c-7 0 -12 6 -12 13c0 4 2 7 4 9zM516 340h-112c-79 0 -119 -25 -119 -81c0 -38 25 -82 106 -82c88 0 125 42 125 82v81z" />
<glyph horiz-adv-x="250" d="M148 658c0 -16 -9 -24 -23 -24s-23 8 -23 24s9 23 23 23s23 -7 23 -23zM113 540c0 7 6 11 12 11s12 -4 12 -11l7 -531c0 -12 -8 -17 -19 -17s-19 5 -19 17z" />
<glyph horiz-adv-x="452" d="M250 550c5 0 9 -2 12 -5c21 -21 29 -51 29 -76c0 -144 -222 -124 -222 -311c0 -92 61 -146 163 -146c106 0 155 53 155 152c0 8 7 15 15 15s15 -7 15 -15c0 -105 -59 -178 -185 -178c-120 0 -193 68 -193 172c0 204 222 185 222 311c0 25 -8 41 -21 57c-4 5 -4 7 -4 10 c0 9 8 14 14 14zM233 658c0 16 9 23 23 23s23 -7 23 -23s-9 -24 -23 -24s-23 8 -23 24z" />
<glyph horiz-adv-x="211" d="M135 336c0 -20 -11 -29 -30 -29c-18 0 -29 9 -29 29c0 21 11 31 29 31c19 0 30 -10 30 -31z" />
<glyph horiz-adv-x="428" d="M344 337c0 -88 -47 -130 -130 -130s-130 42 -130 130c0 94 47 136 130 136s130 -42 130 -136z" />
<glyph horiz-adv-x="602" d="M415 379h152c8 0 14 -6 14 -14s-6 -14 -14 -14h-112c45 -35 73 -83 73 -140c0 -62 -28 -122 -80 -165c8 -22 14 -50 14 -79c0 -76 -49 -147 -134 -147c-23 0 -46 6 -64 18c-3 2 -6 6 -6 11c0 7 6 13 13 13c4 0 7 -2 9 -3c13 -8 32 -13 47 -13c68 0 107 57 107 121 c0 22 -3 45 -10 63c-36 -25 -89 -44 -155 -44c-118 0 -216 64 -216 185c0 90 56 147 131 192c-26 48 -56 105 -56 185c0 78 50 139 132 139c70 0 124 -43 124 -123c0 -85 -63 -148 -163 -209c59 -100 163 -172 217 -281c49 39 63 94 63 137c0 61 -34 103 -90 140 c-6 4 -10 8 -10 15c0 8 6 13 14 13zM83 171c0 -110 87 -159 186 -159c69 0 116 21 147 45c-52 114 -146 173 -219 284c-68 -41 -114 -91 -114 -170zM260 662c-62 0 -102 -43 -102 -114c0 -70 24 -125 50 -171c88 54 146 114 146 187c0 67 -42 98 -94 98z" />
<glyph horiz-adv-x="574" d="M55 228c0 164 75 240 203 240c88 0 147 -29 175 -92v64c0 8 6 14 14 14h74c7 0 13 -6 13 -13s-6 -13 -13 -13h-57v-402h57c7 0 13 -6 13 -13s-6 -13 -13 -13h-74c-8 0 -14 6 -14 14v75c-29 -64 -83 -102 -175 -102c-128 0 -203 77 -203 241zM85 228 c0 -150 60 -215 173 -215c112 0 176 67 176 215c0 151 -58 214 -176 214c-113 0 -173 -66 -173 -214z" />
<glyph horiz-adv-x="574" d="M207 635c-7 7 -6 16 1 22c8 7 16 6 22 -1l99 -118c5 -6 3 -11 -2 -16c-4 -4 -10 -6 -16 1zM55 228c0 164 75 240 203 240c88 0 147 -29 175 -92v64c0 8 6 14 14 14h74c7 0 13 -6 13 -13s-6 -13 -13 -13h-57v-402h57c7 0 13 -6 13 -13s-6 -13 -13 -13h-74 c-8 0 -14 6 -14 14v75c-29 -64 -83 -102 -175 -102c-128 0 -203 77 -203 241zM85 228c0 -150 60 -215 173 -215c112 0 176 67 176 215c0 151 -58 214 -176 214c-113 0 -173 -66 -173 -214z" />
<glyph horiz-adv-x="574" d="M319 656c6 7 14 8 22 1c7 -6 8 -15 1 -22l-104 -112c-6 -7 -12 -5 -16 -1c-5 5 -7 10 -2 16zM55 228c0 164 75 240 203 240c88 0 147 -29 175 -92v64c0 8 6 14 14 14h74c7 0 13 -6 13 -13s-6 -13 -13 -13h-57v-402h57c7 0 13 -6 13 -13s-6 -13 -13 -13h-74 c-8 0 -14 6 -14 14v75c-29 -64 -83 -102 -175 -102c-128 0 -203 77 -203 241zM85 228c0 -150 60 -215 173 -215c112 0 176 67 176 215c0 151 -58 214 -176 214c-113 0 -173 -66 -173 -214z" />
<glyph horiz-adv-x="574" d="M361 531l-93 84l-93 -84c-2 -2 -5 -4 -9 -4c-7 0 -13 6 -13 13c0 5 3 8 5 10l99 89c3 3 7 5 11 5s8 -2 11 -5l99 -89c2 -2 5 -5 5 -10c0 -7 -6 -13 -13 -13c-4 0 -7 2 -9 4zM55 228c0 164 75 240 203 240c88 0 147 -29 175 -92v64c0 8 6 14 14 14h74c7 0 13 -6 13 -13 s-6 -13 -13 -13h-57v-402h57c7 0 13 -6 13 -13s-6 -13 -13 -13h-74c-8 0 -14 6 -14 14v75c-29 -64 -83 -102 -175 -102c-128 0 -203 77 -203 241zM85 228c0 -150 60 -215 173 -215c112 0 176 67 176 215c0 151 -58 214 -176 214c-113 0 -173 -66 -173 -214z" />
<glyph horiz-adv-x="574" d="M407 580c-8 -18 -31 -46 -73 -46c-57 0 -83 42 -132 42c-31 0 -45 -15 -53 -34c-2 -5 -7 -8 -12 -8c-7 0 -13 6 -13 13c0 3 1 6 2 8c9 20 32 46 76 46c57 0 83 -42 132 -42c26 0 44 13 51 34c2 5 7 8 12 8c6 0 12 -6 12 -13c0 -3 -1 -6 -2 -8zM55 228 c0 164 75 240 203 240c88 0 147 -29 175 -92v64c0 8 6 14 14 14h74c7 0 13 -6 13 -13s-6 -13 -13 -13h-57v-402h57c7 0 13 -6 13 -13s-6 -13 -13 -13h-74c-8 0 -14 6 -14 14v75c-29 -64 -83 -102 -175 -102c-128 0 -203 77 -203 241zM85 228c0 -150 60 -215 173 -215 c112 0 176 67 176 215c0 151 -58 214 -176 214c-113 0 -173 -66 -173 -214z" />
<glyph horiz-adv-x="574" d="M210 573c0 -16 -7 -23 -22 -23s-22 7 -22 23s7 23 22 23s22 -7 22 -23zM370 573c0 -16 -7 -23 -22 -23s-22 7 -22 23s7 23 22 23s22 -7 22 -23zM55 228c0 164 75 240 203 240c88 0 147 -29 175 -92v64c0 8 6 14 14 14h74c7 0 13 -6 13 -13s-6 -13 -13 -13h-57v-402h57 c7 0 13 -6 13 -13s-6 -13 -13 -13h-74c-8 0 -14 6 -14 14v75c-29 -64 -83 -102 -175 -102c-128 0 -203 77 -203 241zM85 228c0 -150 60 -215 173 -215c112 0 176 67 176 215c0 151 -58 214 -176 214c-113 0 -173 -66 -173 -214z" />
<glyph horiz-adv-x="574" d="M159 605c0 61 33 98 104 98s104 -37 104 -98s-33 -98 -104 -98s-104 37 -104 98zM185 605c0 -52 23 -76 78 -76s78 24 78 76s-23 76 -78 76s-78 -24 -78 -76zM55 228c0 164 75 240 203 240c88 0 147 -29 175 -92v64c0 8 6 14 14 14h74c7 0 13 -6 13 -13s-6 -13 -13 -13 h-57v-402h57c7 0 13 -6 13 -13s-6 -13 -13 -13h-74c-8 0 -14 6 -14 14v75c-29 -64 -83 -102 -175 -102c-128 0 -203 77 -203 241zM85 228c0 -150 60 -215 173 -215c112 0 176 67 176 215c0 151 -58 214 -176 214c-113 0 -173 -66 -173 -214z" />
<glyph horiz-adv-x="574" d="M372 576c6 0 12 -5 12 -12c0 -6 -6 -12 -12 -12h-212c-6 0 -12 6 -12 12c0 7 6 12 12 12h212zM55 228c0 164 75 240 203 240c88 0 147 -29 175 -92v64c0 8 6 14 14 14h74c7 0 13 -6 13 -13s-6 -13 -13 -13h-57v-402h57c7 0 13 -6 13 -13s-6 -13 -13 -13h-74 c-8 0 -14 6 -14 14v75c-29 -64 -83 -102 -175 -102c-128 0 -203 77 -203 241zM85 228c0 -150 60 -215 173 -215c112 0 176 67 176 215c0 151 -58 214 -176 214c-113 0 -173 -66 -173 -214z" />
<glyph horiz-adv-x="574" d="M374 625c0 -70 -50 -96 -105 -96s-105 26 -105 96c0 7 6 13 13 13s13 -6 13 -13c0 -49 27 -72 79 -72s79 23 79 72c0 7 6 13 13 13s13 -6 13 -13zM55 228c0 164 75 240 203 240c88 0 147 -29 175 -92v64c0 8 6 14 14 14h74c7 0 13 -6 13 -13s-6 -13 -13 -13h-57v-402h57 c7 0 13 -6 13 -13s-6 -13 -13 -13h-74c-8 0 -14 6 -14 14v75c-29 -64 -83 -102 -175 -102c-128 0 -203 77 -203 241zM85 228c0 -150 60 -215 173 -215c112 0 176 67 176 215c0 151 -58 214 -176 214c-113 0 -173 -66 -173 -214z" />
<glyph horiz-adv-x="574" d="M496 -146c2 1 4 2 7 2c6 0 11 -5 11 -11c0 -5 -3 -8 -6 -10c-16 -9 -36 -14 -59 -14c-66 0 -88 35 -88 73c0 48 31 88 80 107c-5 2 -8 7 -8 13v75c-29 -64 -83 -102 -175 -102c-128 0 -203 77 -203 241s75 240 203 240c88 0 147 -29 175 -92v64c0 8 6 14 14 14h74 c7 0 13 -6 13 -13s-6 -13 -13 -13h-57v-402h57c7 0 13 -6 13 -13s-6 -13 -13 -13h-50c-58 -29 -84 -62 -84 -102c0 -29 15 -53 64 -53c22 0 32 3 45 9zM85 228c0 -150 60 -215 173 -215c112 0 176 67 176 215c0 151 -58 214 -176 214c-113 0 -173 -66 -173 -214z" />
<glyph horiz-adv-x="574" d="M378 807c6 7 14 8 22 1c7 -6 8 -15 1 -22l-96 -104c38 -13 56 -45 56 -90c0 -61 -33 -98 -104 -98s-104 37 -104 98s33 98 104 98c7 0 15 0 22 -1zM179 592c0 -52 23 -76 78 -76s78 24 78 76s-23 76 -78 76s-78 -24 -78 -76zM55 228c0 164 75 240 203 240 c88 0 147 -29 175 -92v64c0 8 6 14 14 14h74c7 0 13 -6 13 -13s-6 -13 -13 -13h-57v-402h57c7 0 13 -6 13 -13s-6 -13 -13 -13h-74c-8 0 -14 6 -14 14v75c-29 -64 -83 -102 -175 -102c-128 0 -203 77 -203 241zM85 228c0 -150 60 -215 173 -215c112 0 176 67 176 215 c0 151 -58 214 -176 214c-113 0 -173 -66 -173 -214z" />
<glyph d="M255 -201c-78 0 -133 27 -164 65c-2 3 -3 6 -3 9c0 6 5 13 13 13c4 0 8 -2 11 -6c26 -31 67 -56 143 -56c101 0 168 51 168 164v95s-42 -96 -165 -96c-127 0 -203 77 -203 241s76 240 203 240c72 0 132 -28 165 -85v56c0 7 6 15 15 15h75c7 0 13 -6 13 -13 s-6 -13 -13 -13h-60v-440c0 -134 -87 -189 -198 -189zM423 130v145c0 117 -72 167 -165 167c-112 0 -171 -66 -171 -214c0 -150 59 -215 171 -215c122 0 165 117 165 117z" />
<glyph d="M354 531l-93 84l-93 -84c-2 -2 -5 -4 -9 -4c-7 0 -13 6 -13 13c0 5 3 8 5 10l99 89c3 3 7 5 11 5s8 -2 11 -5l99 -89c2 -2 5 -5 5 -10c0 -7 -6 -13 -13 -13c-4 0 -7 2 -9 4zM255 -201c-78 0 -133 27 -164 65c-2 3 -3 6 -3 9c0 6 5 13 13 13c4 0 8 -2 11 -6 c26 -31 67 -56 143 -56c101 0 168 51 168 164v95s-42 -96 -165 -96c-127 0 -203 77 -203 241s76 240 203 240c72 0 132 -28 165 -85v56c0 7 6 15 15 15h75c7 0 13 -6 13 -13s-6 -13 -13 -13h-60v-440c0 -134 -87 -189 -198 -189zM423 130v145c0 117 -72 167 -165 167 c-112 0 -171 -66 -171 -214c0 -150 59 -215 171 -215c122 0 165 117 165 117z" />
<glyph d="M365 625c0 -70 -50 -96 -105 -96s-105 26 -105 96c0 7 6 13 13 13s13 -6 13 -13c0 -49 27 -72 79 -72s79 23 79 72c0 7 6 13 13 13s13 -6 13 -13zM255 -201c-78 0 -133 27 -164 65c-2 3 -3 6 -3 9c0 6 5 13 13 13c4 0 8 -2 11 -6c26 -31 67 -56 143 -56 c101 0 168 51 168 164v95s-42 -96 -165 -96c-127 0 -203 77 -203 241s76 240 203 240c72 0 132 -28 165 -85v56c0 7 6 15 15 15h75c7 0 13 -6 13 -13s-6 -13 -13 -13h-60v-440c0 -134 -87 -189 -198 -189zM423 130v145c0 117 -72 167 -165 167c-112 0 -171 -66 -171 -214 c0 -150 59 -215 171 -215c122 0 165 117 165 117z" />
<glyph d="M282 574c0 -15 -8 -22 -22 -22s-22 7 -22 22c0 16 8 23 22 23s22 -7 22 -23zM255 -201c-78 0 -133 27 -164 65c-2 3 -3 6 -3 9c0 6 5 13 13 13c4 0 8 -2 11 -6c26 -31 67 -56 143 -56c101 0 168 51 168 164v95s-42 -96 -165 -96c-127 0 -203 77 -203 241s76 240 203 240 c72 0 132 -28 165 -85v56c0 7 6 15 15 15h75c7 0 13 -6 13 -13s-6 -13 -13 -13h-60v-440c0 -134 -87 -189 -198 -189zM423 130v145c0 117 -72 167 -165 167c-112 0 -171 -66 -171 -214c0 -150 59 -215 171 -215c122 0 165 117 165 117z" />
<glyph d="M258 498c-18 0 -26 12 -26 30c0 46 14 91 31 112c4 5 7 6 11 6c5 0 10 -4 10 -9c0 -3 -1 -6 -4 -11c-13 -22 -20 -45 -20 -70c16 -4 24 -15 24 -32c0 -14 -7 -26 -26 -26zM255 -201c-78 0 -133 27 -164 65c-2 3 -3 6 -3 9c0 6 5 13 13 13c4 0 8 -2 11 -6 c26 -31 67 -56 143 -56c101 0 168 51 168 164v95s-42 -96 -165 -96c-127 0 -203 77 -203 241s76 240 203 240c72 0 132 -28 165 -85v56c0 7 6 15 15 15h75c7 0 13 -6 13 -13s-6 -13 -13 -13h-60v-440c0 -134 -87 -189 -198 -189zM423 130v145c0 117 -72 167 -165 167 c-112 0 -171 -66 -171 -214c0 -150 59 -215 171 -215c122 0 165 117 165 117z" />
<glyph horiz-adv-x="752" d="M540 671c16 12 34 16 59 16c67 0 121 -49 121 -116c0 -82 -69 -125 -154 -125c-19 0 -42 1 -68 6c-13 -20 -37 -39 -56 -47c78 0 137 -45 137 -115c0 -189 -282 -74 -282 -200c0 -29 20 -46 49 -46c55 0 25 66 80 66c34 0 44 -20 44 -45c0 -59 -71 -73 -119 -73 c-179 0 -253 183 -253 301c0 96 52 195 166 195c43 0 81 -19 104 -44c-97 -63 -156 -119 -156 -240c0 -13 0 -27 2 -40c1 -9 5 -16 12 -16c8 0 9 6 9 17s-1 26 -1 39c0 99 55 156 138 207c29 18 51 35 67 55c-59 15 -114 54 -152 81c-43 30 -90 88 -137 88 c-24 0 -40 -17 -40 -41s18 -39 40 -39c17 0 25 12 33 20c5 4 10 6 17 6c14 0 26 -12 26 -26c0 -32 -49 -52 -80 -52c-50 0 -92 41 -92 91c0 51 42 93 92 93c51 0 89 -30 122 -58c22 31 60 58 113 58c77 0 142 -64 142 -142c0 -19 -4 -34 -7 -43c22 -4 35 -4 50 -4 c43 0 98 17 98 73c0 33 -26 64 -65 64c-23 0 -28 -12 -44 -12c-15 0 -26 12 -26 26c0 8 4 17 11 22zM310 593c39 -31 96 -65 151 -83c3 8 6 21 6 35c0 42 -31 90 -86 90c-31 0 -56 -14 -71 -42z" />
<glyph horiz-adv-x="727" d="M511 589c0 50 37 92 90 92c52 0 93 -41 93 -92c0 -90 -109 -123 -185 -123c-8 0 -19 1 -19 1s2 -19 2 -45c0 -157 -125 -283 -214 -321c-4 -2 -6 -6 -6 -11s5 -10 11 -10c3 0 6 1 9 2c100 42 182 132 219 248c54 0 102 -38 102 -115c0 -119 -110 -223 -294 -223 c-141 0 -261 72 -261 211c0 45 20 71 59 71c31 0 43 -18 43 -45c0 -36 -36 -39 -36 -67c0 -24 24 -47 49 -47c28 0 52 25 52 54c0 42 -36 100 -36 163c0 68 51 110 111 110c51 0 98 -23 129 -78c4 11 8 33 8 68c0 24 -2 41 -2 41c-81 15 -194 74 -229 158 c-41 -3 -72 -28 -72 -65c0 -31 21 -48 53 -48c16 0 28 -12 28 -28c0 -15 -12 -28 -28 -28c-55 0 -109 36 -109 104c0 80 74 121 153 121c102 0 208 -68 249 -167c7 -1 17 -2 29 -2c79 0 129 35 129 71c0 20 -16 36 -37 36c-20 0 -36 -16 -36 -36c0 -15 -13 -27 -27 -27 c-15 0 -27 12 -27 27zM415 531c-28 45 -85 95 -153 103c41 -60 88 -82 153 -103z" />
<glyph horiz-adv-x="534" d="M355 -175h70v258s-42 -96 -165 -96c-129 0 -205 78 -205 241s76 240 205 240c114 0 195 -64 195 -193v-450h60c7 0 13 -6 13 -13s-6 -13 -13 -13h-160c-7 0 -13 6 -13 13s6 13 13 13zM260 13c122 0 165 117 165 117v145c0 117 -73 167 -165 167 c-113 0 -173 -67 -173 -214c0 -150 60 -215 173 -215z" />
<glyph horiz-adv-x="350" d="M204 549c0 -14 -8 -26 -28 -26c-17 0 -27 12 -27 30c0 41 18 79 34 100c3 4 7 6 11 6c6 0 12 -5 12 -11c0 -4 -1 -6 -3 -9c-14 -21 -20 -38 -20 -62c14 -3 21 -13 21 -28z" />
<glyph horiz-adv-x="500" />
<glyph horiz-adv-x="187" d="M90 712h5c10 0 18 -5 17 -17l-13 -123c0 -5 -4 -8 -9 -8c-6 0 -10 3 -10 8l-7 123c-1 12 6 17 17 17z" />
<glyph unicode="&#x21a;" horiz-adv-x="554" d="M203 28h58v617h-193v-107c0 -8 -6 -14 -14 -14s-14 6 -14 14v121c0 8 6 14 14 14h446c8 0 14 -6 14 -14v-121c0 -8 -6 -14 -14 -14s-14 6 -14 14v107h-193v-617h58c8 0 14 -6 14 -14s-6 -14 -14 -14h-148c-8 0 -14 6 -14 14s6 14 14 14zM248 -70c0 14 8 26 28 26 c17 0 27 -12 27 -30c0 -41 -18 -80 -34 -100c-3 -4 -7 -6 -12 -6c-6 0 -11 5 -11 11c0 4 1 6 3 9c16 24 20 38 20 62c-14 3 -21 13 -21 28z" />
<glyph unicode="&#x21b;" horiz-adv-x="270" d="M101 454v122c0 8 7 15 15 15s15 -7 15 -15v-122h90c7 0 13 -6 13 -13s-6 -13 -13 -13h-90v-318c0 -60 37 -92 91 -92c7 0 13 -6 13 -13s-6 -13 -13 -13c-78 0 -121 50 -121 118v318h-62c-7 0 -13 6 -13 13s6 13 13 13h62zM131 -70c0 14 8 26 28 26c17 0 27 -12 27 -30 c0 -41 -18 -80 -34 -100c-3 -4 -7 -6 -12 -6c-6 0 -11 5 -11 11c0 4 1 6 3 9c16 24 20 38 20 62c-14 3 -21 13 -21 28z" />
</font>
</defs>
</svg>
