<svg width="216" height="172" viewBox="0 0 216 172" xmlns="http://www.w3.org/2000/svg"><g transform="translate(4 4)" fill="none" fill-rule="evenodd"><path d="M124.979 103.741s43.449-3.015 59.616-48.234c0 0 1.01 13.867-.506 17.485 0 0 8.589-4.219 12.63-10.852 0 0-2.02 13.867-5.052 16.278 0 0 7.577-2.41 11.114-6.028 0 0 .001 10.852-3.031 13.866 0 0 5.052 1.81 8.589.604 0 0-25.767 35.572-63.153 30.146-37.385-5.427-20.207-13.265-20.207-13.265" fill="#231F20"/><path d="M55.246 152.972a5.558 5.558 0 0 0 4.962 6.094l.215.022a5.555 5.555 0 0 0 6.093-4.963l2.015-19.681a5.556 5.556 0 0 0-4.963-6.094l-.215-.022a5.556 5.556 0 0 0-6.093 4.962l-2.014 19.682zm26.717 1.938a5.557 5.557 0 0 0 6.469 4.463l.212-.038a5.56 5.56 0 0 0 4.464-6.47l-3.57-19.459a5.557 5.557 0 0 0-6.469-4.464l-.211.039a5.556 5.556 0 0 0-4.464 6.468l3.569 19.461z" fill="#FAAF3C"/><path d="M103.088 8.22C69.471-8.506 25.996-.269 8.861 34.171c-17.135 34.441-1.443 82.045 32.174 98.771 33.616 16.726 70.815.103 91.894-32.077 20.649-31.522 3.775-75.919-29.841-92.645" fill="#F69221"/><path d="M103.088 8.22C69.471-8.506 25.996-.269 8.861 34.171c-17.135 34.441-1.443 82.045 32.174 98.771 33.616 16.726 70.815.103 91.894-32.077 20.649-31.522 3.775-75.919-29.841-92.645z" stroke="#FAAF3C" stroke-width="7.722"/><path d="M53.167 154.041l14.195 1.24s-1.24 9.222-8.002 8.553c-6.762-.669-6.193-9.793-6.193-9.793m28.012.544l13.902-1.182s1.104 9.952-5.65 10.702c-6.753.749-8.252-9.52-8.252-9.52" fill="#B8529E"/><path d="M53.309 91.358c14.146 12.012 29.424 12.053 40.958 1.789" stroke="#FAAF3C" stroke-width="7.722"/><path d="M24.554 15.86s23.034 8.753 49.753 8.292c26.719-.461 41-9.214 41-9.214S89.048.196 68.318-.265C47.587-.725 24.554 15.86 24.554 15.86" fill="#FAAF3C"/><path d="M109.318 10.792s10.199 41.422 31.163 53.898c-.001 0 9.064-28.945-31.163-53.898m-79.237 2.764S16.26 46.264.598 56.86c0 0 .46-27.18 29.483-43.304" fill="#FAAF3C"/><path d="M42.637 84.048a7.982 7.982 0 0 1-7.983 7.983 7.982 7.982 0 0 1-7.982-7.983 7.981 7.981 0 0 1 7.982-7.982 7.981 7.981 0 0 1 7.983 7.982m73.736-1.367a7.981 7.981 0 0 1-7.983 7.982 7.98 7.98 0 0 1-7.981-7.982 7.982 7.982 0 1 1 15.964 0" fill="#F5927A"/><path d="M4.011 44.589s104.076 5.557 132.368-6.063c0 0 8.589 13.137 8.589 26.777 0 0-59.616 12.63-64.163 7.073-4.547-5.558-8.59-4.042-11.115-.506C67.164 75.407.475 72.88.475 72.88s-3.537-17.176 3.536-28.291" fill="#231F20"/><path d="M62.149 62.37c.227-1.931-1.987-4.304-4.019-4.542-2.033-.238-3.863 1.134-4.09 3.064-.227 1.931 1.174 4.314 3.206 4.553 2.032.238 4.677-1.145 4.903-3.075m35.879 1.545c.227-1.931-1.398-4.618-3.431-4.855-2.031-.239-4.716 1.753-4.942 3.683-.227 1.93 1.604 4.348 3.635 4.586 2.034.239 4.512-1.484 4.738-3.414" fill="#3B68B1"/><path d="M26.185 125.93l46.794 6.82 47.316-10.862 12.548-12.125-59.864 17.935-60.127-15.661c.001 0 4.968 7.83 13.333 13.893" fill="#231F20"/><path d="M79.491 128.961c0 3.348-2.804 6.063-6.265 6.063-3.46 0-6.264-2.714-6.264-6.063 0-3.348 2.804-6.063 6.264-6.063 3.461 0 6.265 2.714 6.265 6.063" fill="#FFF100"/><ellipse stroke="#231F20" stroke-width="2" cx="73.265" cy="129.063" rx="6.265" ry="6.063"/></g></svg>