<svg width="216" height="172" viewBox="0 0 216 172" xmlns="http://www.w3.org/2000/svg"><g transform="translate(4 4)" fill="none" fill-rule="evenodd"><path d="M124.98 103.74s43.448-3.014 59.615-48.233c0 0 1.01 13.867-.506 17.485 0 0 8.588-4.22 12.63-10.852 0 0-2.02 13.867-5.053 16.278 0 0 7.577-2.41 11.114-6.028 0 0 .002 10.852-3.03 13.866 0 0 5.052 1.81 8.59.604 0 0-25.768 35.572-63.154 30.146-37.385-5.427-20.207-13.265-20.207-13.265" fill="#231F20"/><path d="M55.246 152.972a5.558 5.558 0 0 0 4.962 6.094l.215.022a5.555 5.555 0 0 0 6.093-4.963l2.015-19.68a5.556 5.556 0 0 0-4.962-6.095l-.215-.022a5.556 5.556 0 0 0-6.093 4.962l-2.014 19.682zM81.963 154.91a5.557 5.557 0 0 0 6.47 4.463l.21-.038a5.56 5.56 0 0 0 4.465-6.47l-3.57-19.46a5.557 5.557 0 0 0-6.47-4.463l-.21.04a5.556 5.556 0 0 0-4.464 6.467l3.57 19.46z" fill="#FAAF3C"/><path d="M103.088 8.22C69.47-8.506 25.996-.27 8.86 34.17c-17.134 34.442-1.442 82.046 32.175 98.772 33.616 16.726 70.815.103 91.894-32.077 20.648-31.522 3.774-75.92-29.842-92.645" fill="#F69221"/><path d="M103.088 8.22C69.47-8.506 25.996-.27 8.86 34.17c-17.134 34.442-1.442 82.046 32.175 98.772 33.616 16.726 70.815.103 91.894-32.077 20.648-31.522 3.774-75.92-29.842-92.645z" stroke="#FAAF3C" stroke-width="7.722"/><path d="M53.167 154.04l14.195 1.24s-1.24 9.223-8.002 8.554c-6.762-.67-6.193-9.793-6.193-9.793M81.18 154.585l13.9-1.182s1.105 9.952-5.65 10.702c-6.752.75-8.25-9.52-8.25-9.52" fill="#B8529E"/><path d="M53.31 91.358c14.145 12.012 29.423 12.053 40.957 1.79" stroke="#FAAF3C" stroke-width="7.722"/><path d="M24.554 15.86s23.034 8.753 49.753 8.292c26.72-.46 41-9.214 41-9.214S89.047.196 68.317-.265C47.588-.725 24.555 15.86 24.555 15.86" fill="#FAAF3C"/><path d="M109.318 10.792s10.2 41.422 31.163 53.898c0 0 9.065-28.945-31.162-53.898M30.08 13.556S16.26 46.264.6 56.86c0 0 .46-27.18 29.483-43.304" fill="#FAAF3C"/><path d="M42.637 84.048a7.982 7.982 0 0 1-7.983 7.983 7.982 7.982 0 0 1-7.982-7.982 7.98 7.98 0 0 1 7.982-7.982 7.98 7.98 0 0 1 7.983 7.982M116.373 82.68a7.98 7.98 0 0 1-7.983 7.983 7.98 7.98 0 0 1-7.98-7.982 7.982 7.982 0 0 1 15.963 0" fill="#F5927A"/><path d="M4.01 44.59s104.077 5.556 132.37-6.064c0 0 8.588 13.137 8.588 26.777 0 0-59.616 12.63-64.163 7.073-4.547-5.558-8.59-4.042-11.115-.506C67.164 75.407.475 72.88.475 72.88S-3.062 55.704 4.01 44.59" fill="#231F20"/><path d="M62.15 62.37c.226-1.93-1.988-4.304-4.02-4.542-2.033-.238-3.863 1.134-4.09 3.064-.227 1.93 1.174 4.314 3.206 4.553 2.032.238 4.677-1.145 4.903-3.075M98.028 63.915c.227-1.93-1.398-4.618-3.43-4.855-2.032-.24-4.717 1.753-4.943 3.683-.227 1.93 1.604 4.348 3.635 4.586 2.034.238 4.512-1.485 4.738-3.415" fill="#3B68B1"/><path d="M26.185 125.93l46.794 6.82 47.315-10.862 12.548-12.125-59.864 17.935-60.128-15.66s4.968 7.83 13.333 13.892" fill="#231F20"/><path d="M79.49 128.96c0 3.35-2.803 6.064-6.264 6.064-3.46 0-6.264-2.714-6.264-6.063 0-3.347 2.804-6.062 6.264-6.062 3.46 0 6.265 2.714 6.265 6.063" fill="#FFF100"/><ellipse stroke="#231F20" stroke-width="2" cx="73.265" cy="129.063" rx="6.265" ry="6.063"/></g></svg>