<svg id="Layer_1" xmlns="http://www.w3.org/2000/svg" viewBox="0 0 643.3 818.9"><style>.st0{fill:#fbb03b}.st1{fill:#f7931e;stroke:#fbb03b;stroke-width:16.8128;stroke-miterlimit:10}.st2{fill:#f0f}.st3{fill:#0065e3}.st4{fill:#f7931e;stroke:#fbb03b;stroke-width:16.8128;stroke-linecap:round;stroke-miterlimit:10}.st5{fill:#f79379}.st6{fill:url(#SVGID_1_)}.st7{fill:url(#SVGID_2_)}.st8{fill:url(#SVGID_3_)}.st9{fill:url(#SVGID_4_)}.st10{fill:url(#SVGID_5_)}.st11{fill:url(#SVGID_6_)}.st12{fill:url(#SVGID_7_)}.st13{fill:url(#SVGID_8_)}.st14{fill:url(#SVGID_9_)}.st15{fill:url(#SVGID_10_)}.st16{fill:url(#SVGID_11_)}.st17{fill:url(#SVGID_12_)}.st18{fill:url(#SVGID_13_)}.st19{fill:url(#SVGID_14_)}.st20{fill:url(#SVGID_15_)}.st21{fill:url(#SVGID_16_)}.st22{fill:url(#SVGID_17_)}.st23{fill:url(#SVGID_18_)}.st24{fill:url(#SVGID_19_)}.st25{fill:url(#SVGID_20_)}.st26{fill:url(#SVGID_21_)}.st27{fill:url(#SVGID_22_)}.st28{fill:url(#SVGID_23_)}.st29{fill:url(#SVGID_24_)}.st30{fill:url(#SVGID_25_)}.st31{fill:url(#SVGID_26_)}.st32{fill:url(#SVGID_27_)}.st33{fill:url(#SVGID_28_)}.st34{fill:url(#SVGID_29_)}.st35{fill:url(#SVGID_30_)}.st36{fill:url(#SVGID_31_)}.st37{fill:url(#SVGID_32_)}.st38{fill:url(#SVGID_33_)}.st39{fill:url(#SVGID_34_)}.st40{fill:url(#SVGID_35_)}.st41{fill:url(#SVGID_36_)}.st42{fill:url(#SVGID_37_)}.st43{fill:url(#SVGID_38_)}.st44{fill:url(#SVGID_39_)}.st45{fill:url(#SVGID_40_)}.st46{fill:url(#SVGID_41_)}.st47{fill:url(#SVGID_42_)}.st48{fill:url(#SVGID_43_)}.st49{fill:url(#SVGID_44_)}.st50{fill:url(#SVGID_45_)}.st51{fill:url(#SVGID_46_)}.st52{fill:url(#SVGID_47_)}.st53{fill:url(#SVGID_48_)}.st54{fill:url(#SVGID_49_)}.st55{fill:url(#SVGID_50_)}.st56{fill:url(#SVGID_51_)}.st57{fill:url(#SVGID_52_)}.st58{fill:url(#SVGID_53_)}.st59{fill:url(#SVGID_54_)}.st60{fill:url(#SVGID_55_)}.st61{fill:url(#SVGID_56_)}.st62{fill:url(#SVGID_57_)}.st63{fill:url(#SVGID_58_)}.st64{fill:url(#SVGID_59_)}.st65{fill:url(#SVGID_60_)}.st66{fill:url(#SVGID_61_)}.st67{fill:url(#SVGID_62_)}.st68{fill:url(#SVGID_63_)}.st69{fill:url(#SVGID_64_)}.st70{fill:url(#SVGID_65_)}.st71{fill:url(#SVGID_66_)}.st72{fill:url(#SVGID_67_)}.st73{fill:url(#SVGID_68_)}.st74{fill:url(#SVGID_69_)}.st75{fill:url(#SVGID_70_)}.st76{fill:url(#SVGID_71_)}.st77{fill:url(#SVGID_72_)}.st78{fill:url(#SVGID_73_)}.st79{fill:url(#SVGID_74_)}.st80{fill:url(#SVGID_75_)}.st81{fill:url(#SVGID_76_)}.st82{fill:url(#SVGID_77_)}.st83{fill:url(#SVGID_78_)}.st84{fill:url(#SVGID_79_)}.st85{fill:url(#SVGID_80_)}.st86{fill:url(#SVGID_81_)}.st87{fill:url(#SVGID_82_)}.st88{fill:url(#SVGID_83_)}.st89{fill:url(#SVGID_84_)}.st90{fill:url(#SVGID_85_)}.st91{fill:url(#SVGID_86_)}.st92{fill:url(#SVGID_87_)}.st93{fill:url(#SVGID_88_)}.st94{fill:url(#SVGID_89_)}.st95{fill:url(#SVGID_90_)}.st96{fill:url(#SVGID_91_)}.st97{fill:url(#SVGID_92_)}.st98{fill:url(#SVGID_93_)}.st99{fill:url(#SVGID_94_)}.st100{fill:url(#SVGID_95_)}.st101{fill:url(#SVGID_96_)}.st102{fill:url(#SVGID_97_)}.st103{fill:url(#SVGID_98_)}.st104{fill:url(#SVGID_99_)}.st105{fill:url(#SVGID_100_)}.st106{fill:url(#SVGID_101_)}.st107{fill:url(#SVGID_102_)}.st108{fill:url(#SVGID_103_)}.st109{fill:url(#SVGID_104_)}.st110{fill:url(#SVGID_105_)}.st111{fill:url(#SVGID_106_)}.st112{fill:url(#SVGID_107_)}.st113{fill:url(#SVGID_108_)}.st114{fill:url(#SVGID_109_)}.st115{fill:url(#SVGID_110_)}.st116{fill:url(#SVGID_111_)}.st117{fill:url(#SVGID_112_)}.st118{fill:url(#SVGID_113_)}.st119{fill:url(#SVGID_114_)}.st120{fill:url(#SVGID_115_)}.st121{fill:url(#SVGID_116_)}.st122{fill:url(#SVGID_117_)}.st123{fill:url(#SVGID_118_)}.st124{fill:url(#SVGID_119_)}.st125{fill:url(#SVGID_120_)}.st126{fill:url(#SVGID_121_)}.st127{fill:url(#SVGID_122_)}</style><path class="st0" d="M182.7 782.5c-1 10 6.2 18.9 16.2 19.9l.7.1c10 1 18.9-6.2 19.9-16.2l6.6-64.3c1-10-6.2-18.9-16.2-19.9l-.7-.1c-10-1-18.9 6.2-19.9 16.2l-6.6 64.3zm87.2 6.3c1.8 9.9 11.3 16.4 21.1 14.6l.7-.1c9.9-1.8 16.4-11.3 14.6-21.1l-11.7-63.5c-1.8-9.9-11.3-16.4-21.1-14.6l-.7.1c-9.9 1.8-16.4 11.3-14.6 21.1l11.7 63.5z"/><path class="st1" d="M338.9 309.9c-109.8-54.6-251.7-27.7-307.6 84.7-55.9 112.4-4.7 267.9 105 322.5 109.7 54.6 231.2.3 300-104.7 67.4-103 12.3-247.9-97.4-302.5z"/><path class="st2" d="M175.9 786l46.3 4s-4 30.1-26.1 27.9c-22.1-2.2-20.2-31.9-20.2-31.9zm91.5 1.7l45.4-3.9s3.6 32.5-18.4 34.9c-22.2 2.6-27-31-27-31z"/><path class="st3" d="M202.4 480.6c.7-6.3-6.5-14.1-13.1-14.8-6.6-.8-12.6 3.7-13.4 10-.7 6.3 3.8 14.1 10.5 14.9 6.6.7 15.3-3.8 16-10.1zm117.1 5.1c.7-6.3-4.6-15.1-11.2-15.9-6.6-.8-15.4 5.7-16.1 12-.7 6.3 5.2 14.2 11.9 15 6.6.8 14.7-4.8 15.4-11.1z"/><path class="st4" d="M176.4 581.3c46.2 39.2 96.1 39.3 133.7 5.8"/><path class="st0" d="M82.5 334.8s75.2 28.6 162.4 27.1 133.9-30.1 133.9-30.1-85.7-48.1-153.4-49.6-142.9 52.6-142.9 52.6z"/><path class="st0" d="M359.2 318.3s33.3 135.2 101.7 176c.1 0 29.7-94.5-101.7-176zm-258.7 9S55.4 434.1 4.2 468.7c.1 0 1.6-88.7 96.3-141.4z"/><circle class="st5" cx="124.2" cy="537.9" r="26.1"/><circle class="st5" cx="356.2" cy="553" r="26.1"/><radialGradient id="SVGID_1_" cx="186.55" cy="90.975" r="315.106" gradientUnits="userSpaceOnUse"><stop offset=".294" stop-color="#ec2224"/><stop offset="1" stop-color="#941a1d"/></radialGradient><path class="st6" d="M67 291.5S83.8 163.2 184.8 79.1c0 0 73.6-56.8 164-77.8 0 0 37.9-16.8 111.5 71.5 0 0 86.2 111.5 107.3 271.3l-42.1-29.4s-23.1-75.7-65.2-86.2c0 0-33.6-18.9-40-40 0 0 4.2 65.2 4.2 79.9l8.4 82L67 291.5z"/><radialGradient id="SVGID_2_" cx="554.671" cy="327.256" r="84.364" gradientUnits="userSpaceOnUse"><stop offset="0" stop-color="#fffffc"/><stop offset=".355" stop-color="#f8f2ee"/><stop offset=".52" stop-color="#f3ece8"/><stop offset=".744" stop-color="#e5ddd6"/><stop offset="1" stop-color="#cec3ba"/></radialGradient><path class="st7" d="M508.7 270.5s8.4-12.6 28.4-23.1c0 0-11.6 10.5-8.4 14.7 0 0 6.3-2.1 13.7-11.6 0 0-6.3 2.1-3.2 11.6 0 0-2.1 0 6.3-5.2 0 0-2.1 3.2-1.1 9.5 0 0-2.1-6.3 13.7-13.7 0 0-11.6 5.3-3.2 15.8 0 0 3.2 1.1 7.4 2.1 0 0 3.2 4.2 7.4-10.5 0 0 3.2 5.2 1.1 13.7 0 0-.6-4.2 3.2-10.3 1.2-2 2.9-4.2 5.2-6.5 0 0-3.7 6.8-2.1 11 0 0-.5-7.9 7.9-7.4 0 0-6.8 2.1-4.2 10 0 0 6.3 4.2 13.1-5.8 0 0 .5 6.3-6.3 12.6 0 0 1.6 3.7 8.4-3.2 0 0 1.6 2.6-2.1 8.4 0 0 8.9-6.3 14.7-5.3 0 0-8.4 3.7-7.9 8.9 0 0 2.1 2.6 6.8-4.2 0 0 .5 5.8-2.1 8.4 0 0 13.1-7.4 18.4-5.8 0 0-7.4.5-7.9 8.9 0 0 5.3 1.1 8.4-2.6 0 0 .5 6.3-5.3 8.4 0 0 3.7 10 12.6 0 0 0 3.2 10.5-7.4 13.1 0 0 7.9-3.7 13.7 0 0 0-12.1 0-12.6 6.3 0 0 10.5 0 17.9 14.7 0 0-11.6-10.5-17.4-1 0 0-5.8 4.2 4.7 16.8 0 0 3.2-2.1-10-.5 0 0 12.6 2.6 15.8 20 0 0-1.6-7.9-12.1-6.8 0 0 3.7 5.8 2.6 19.4 0 0-4.2-6.8-19.5-8.4 0 0-7.9-.5 3.7 13.7 0 0 1.6-1.1-13.1-4.2 0 0 4.7 5.8 16.8 13.7 0 0 .5 1.6-17.9-3.7 0 0-6.3-1.6 5.3 7.4 0 0 1 1.6-13.7-5.3 0 0-7.9 2.1-8.4 12.6 0 0-4.7-6.3-2.1-14.2 0 0-7.4-2.1-8.9 11.6 0 0-4.2-2.1 1.6-13.7 0 0-8.9 2.6-11.6 11.6 0 0 .5-5.3 3.7-13.7 0 0-7.4 1.6-13.7 14.7 0 0-.5-8.4 3.2-14.2 0 0-2.1 7.9-12.6 12.1 0 0 5.3-5.3 7.9-12.6 0 0-10 9.5-17.9 11 0 0 7.9-5.8 11-13.7 0 0-7.4 0-16.8 8.4 0 0 0-6.3 3.2-11 0 0-9.5 1-12.6 9.5 0 0-1.6-5.8 2.6-13.7 0 0-10.5 5.3-11 12.1 0 0-1.6-7.4 3.7-15.2 0 0-.5 4.7-12.1 5.8 0 0 2.6-1.1 8.4-10 0 0-4.7 8-17.9 5.9 0 0 8.9-1.2 12.1-6.9 0 0-3.2 3.7-18.9-1.6 0 0 1.1 3.2 6.8-3.7 0 0-8.9 2.6-12.1-2.1-3.2-4.7 0-2.1 0-2.1s7.9 4.2 13.1-3.2c0 0-15.2-7.6-20.5-3.9 0 0-2.6-2.4 9.5-9.8 0 0-.5-4.9-12.1-3.4 0 0-.5-5.1 12.1-4.5 0 0-10.5-2.6-10.5-9.5 0 0 5.3 5.8 12.6 4.2 0 0 0-10-5.3-11.6 0 0 5.3-3.2 8.4.5 0 0-7.4-5.2-10-13.7 0 0-1.1.5 8.9 4.7 0 0-11-3.2-8.9-25.2 0 0-.5 6.3 4.7 11 0 0-4.2-10.5-1-19.5 0 0-1.1 11 6.8 15.8 0 0 3.7 1.1-1.1-13.7 0 0 2.6-2.6 6.8 3.7 0 0-6.8-11.6-5.8-20 0 0 1.6 4.7 10 7.9 0 0-5.3 0 7.9-10 0 0-5.8 6.3 0 14.2 0 0 2.6-16.8 4.7-21 .3.3-.8 11.3 2.4 16.1z"/><radialGradient id="SVGID_3_" cx="643.981" cy="249.759" r="224.402" gradientUnits="userSpaceOnUse"><stop offset="0" stop-color="#fffffc"/><stop offset=".355" stop-color="#f8f2ee"/><stop offset=".52" stop-color="#f3ece8"/><stop offset=".744" stop-color="#e5ddd6"/><stop offset="1" stop-color="#cec3ba"/></radialGradient><path class="st8" d="M516.9 280.6s6.9-10.4 23.3-19c0 0-9.5 8.6-6.9 12.1 0 0 5.2-1.7 11.2-9.5 0 0-5.2 1.7-2.6 9.5 0 0-1.7 0 5.2-4.3 0 0-1.7 2.6-.9 7.8 0 0-1.7-5.2 11.2-11.2 0 0-9.5 4.3-2.6 13 0 0 2.6.9 6.1 1.7 0 0 2.6 3.5 6-8.6 0 0 2.6 4.3.9 11.2 0 0-.5-3.4 2.6-8.5 1-1.6 2.4-3.5 4.3-5.3 0 0-3 5.6-1.7 9.1 0 0-.4-6.5 6.5-6.1 0 0-5.6 1.7-3.5 8.2 0 0 5.2 3.5 10.8-4.7 0 0 .4 5.2-5.2 10.4 0 0 1.3 3 6.9-2.6 0 0 1.3 2.2-1.7 6.9 0 0 7.3-5.2 12.1-4.3 0 0-6.9 3-6.5 7.3 0 0 1.7 2.2 5.6-3.5 0 0 .4 4.8-1.7 6.9 0 0 10.8-6.1 15.1-4.7 0 0-6.1.4-6.5 7.3 0 0 4.3.9 6.9-2.2 0 0 .4 5.2-4.3 6.9 0 0 3 8.2 10.4 0 0 0 2.6 8.6-6 10.8 0 0 6.5-3 11.2 0 0 0-9.9 0-10.4 5.2 0 0 8.6 0 14.7 12.1 0 0-9.5-8.6-14.3-.9 0 0-4.8 3.5 3.9 13.8 0 0 2.6-1.7-8.2-.4 0 0 10.4 2.2 13 16.4 0 0-1.3-6.5-9.9-5.6 0 0 3 4.7 2.2 16 0 0-3.5-5.6-16-6.9 0 0-6.5-.4 3 11.2 0 0 1.3-.9-10.8-3.5 0 0 3.9 4.8 13.8 11.2 0 0 .4 1.3-14.7-3 0 0-5.2-1.3 4.3 6 0 0 .9 1.3-11.2-4.3 0 0-6.5 1.7-6.9 10.4 0 0-3.9-5.2-1.7-11.7 0 0-6.1-1.7-7.3 9.5 0 0-3.5-1.7 1.3-11.2 0 0-7.3 2.2-9.5 9.5 0 0 .4-4.3 3-11.2 0 0-6.1 1.3-11.2 12.1 0 0-.4-6.9 2.6-11.7 0 0-1.7 6.5-10.4 9.9 0 0 4.3-4.3 6.5-10.4 0 0-8.2 7.8-14.7 9.1 0 0 6.5-4.8 9.1-11.2 0 0-6.1 0-13.8 6.9 0 0 0-5.2 2.6-9.1 0 0-7.8.9-10.4 7.8 0 0-1.3-4.7 2.2-11.2 0 0-8.6 4.3-9.1 9.9 0 0-1.3-6 3-12.5 0 0-.4 3.9-9.9 4.8 0 0 2.2-.9 6.9-8.2 0 0-3.9 6.6-14.7 4.8 0 0 7.3-1 9.9-5.7 0 0-2.6 3-15.6-1.3 0 0 .9 2.6 5.6-3 0 0-7.3 2.2-9.9-1.7-2.6-3.9 0-1.7 0-1.7s6.5 3.5 10.8-2.6c0 0-12.5-6.2-16.9-3.2 0 0-2.2-2 7.8-8 0 0-.4-4.1-9.9-2.8 0 0-.4-4.2 9.9-3.7 0 0-8.6-2.1-8.6-7.8 0 0 4.3 4.8 10.4 3.5 0 0 0-8.2-4.3-9.5 0 0 4.3-2.6 6.9.4 0 0-6.1-4.3-8.2-11.2 0 0-.9.4 7.3 3.9 0 0-9.1-2.6-7.3-20.7 0 0-.4 5.2 3.9 9.1 0 0-3.5-8.7-.9-16 0 0-.9 9.1 5.6 13 0 0 3 .9-.9-11.2 0 0 2.2-2.2 5.6 3 0 0-5.6-9.5-4.7-16.4 0 0 1.3 3.9 8.2 6.5 0 0-4.3 0 6.5-8.2 0 0-4.7 5.2 0 11.7 0 0 2.2-13.8 3.9-17.3-.1-.3-.9 8.8 1.7 12.7z"/><linearGradient id="SVGID_4_" gradientUnits="userSpaceOnUse" x1="188.66" y1="95.692" x2="206.012" y2="114.622"><stop offset=".173" stop-color="#ec2224"/><stop offset=".634" stop-color="#cc2123"/><stop offset=".695" stop-color="#c82123"/><stop offset=".758" stop-color="#b22"/><stop offset=".824" stop-color="#a62221"/><stop offset=".89" stop-color="#882420"/><stop offset=".914" stop-color="#7c241f"/></linearGradient><path class="st9" d="M269.4 38.4c4.8-5.4 9.1-10.4 12.9-14.9-57.3 24.7-97.4 55.6-97.4 55.6-36.3 30.3-61.7 66.3-79.4 100 24.1-9.8 75.3-41 163.9-140.7z"/><linearGradient id="SVGID_5_" gradientUnits="userSpaceOnUse" x1="189.536" y1="84.688" x2="216.947" y2="116.314"><stop offset=".396" stop-color="#f27263"/><stop offset=".878" stop-color="#ec2224"/></linearGradient><path class="st10" d="M229.7 107.8c36.9-35.1 51-66.8 51-66.8 8.4-28.4-11.3-2.6-11.3-2.6-83.2 98.2-122.2 116.7-147.1 132.1 0 0 33.2 7.8 107.4-62.7z"/><linearGradient id="SVGID_6_" gradientUnits="userSpaceOnUse" x1="150.703" y1="122.73" x2="241.666" y2="222.633"><stop offset=".289" stop-color="#ec2224"/><stop offset="1" stop-color="#cc2123"/></linearGradient><path class="st11" d="M151.1 173.3c10.8-5.9 36.3-3.9 40.2-28.4 0 0 2.4-37.9 52.1 23.6 0 0 14.2 14.2 37.1 22.9 0 0 35 24.7-32.3 23.7-26.5-.4-141.4-17.5-97.1-41.8z"/><radialGradient id="SVGID_7_" cx="168.171" cy="172.202" r="103.445" gradientUnits="userSpaceOnUse"><stop offset=".122" stop-color="#ec2224"/><stop offset=".289" stop-color="#ec2224"/><stop offset=".538" stop-color="#e12224"/><stop offset="1" stop-color="#cb2123"/></radialGradient><path class="st12" d="M151.8 173.3c10.7-5.9 35.8-3.9 39.7-28 0 0 2.3-37.4 51.4 23.4 0 0 14 14 36.6 22.6 0 0 34.6 24.4-32 23.4-25.9-.5-139.4-17.4-95.7-41.4z"/><radialGradient id="SVGID_8_" cx="166.743" cy="170.238" r="105.141" gradientUnits="userSpaceOnUse"><stop offset=".122" stop-color="#ec2224"/><stop offset=".289" stop-color="#ec2224"/><stop offset=".538" stop-color="#e02224"/><stop offset="1" stop-color="#cb2123"/></radialGradient><path class="st13" d="M152.6 173.3c10.5-5.8 35.4-3.8 39.3-27.7 0 0 2.3-37 50.8 23.1 0 0 13.9 13.9 36.2 22.3 0 0 34.2 24.1-31.6 23.1-25.8-.4-138-17.1-94.7-40.8z"/><radialGradient id="SVGID_9_" cx="165.363" cy="168.322" r="106.809" gradientUnits="userSpaceOnUse"><stop offset=".122" stop-color="#ec2224"/><stop offset=".289" stop-color="#eb2224"/><stop offset=".538" stop-color="#e02224"/><stop offset="1" stop-color="#ca2123"/></radialGradient><path class="st14" d="M153.3 173.3c10.4-5.7 35-3.8 38.8-27.4 0 0 2.3-36.5 50.2 22.8 0 0 13.7 13.7 35.8 22.1 0 0 33.8 23.8-31.2 22.8-25.5-.4-136.3-16.8-93.6-40.3z"/><radialGradient id="SVGID_10_" cx="164.03" cy="166.453" r="108.448" gradientUnits="userSpaceOnUse"><stop offset=".122" stop-color="#ec2224"/><stop offset=".289" stop-color="#eb2224"/><stop offset=".538" stop-color="#e02224"/><stop offset="1" stop-color="#c92123"/></radialGradient><path class="st15" d="M154.1 173.3c10.3-5.6 34.6-3.8 38.3-27.1 0 0 2.3-36.1 49.6 22.5 0 0 13.5 13.5 35.3 21.8 0 0 33.3 23.5-30.8 22.6-25.1-.3-134.6-16.6-92.4-39.8z"/><radialGradient id="SVGID_11_" cx="162.745" cy="164.632" r="110.055" gradientUnits="userSpaceOnUse"><stop offset=".122" stop-color="#ec2224"/><stop offset=".289" stop-color="#eb2224"/><stop offset=".538" stop-color="#e02224"/><stop offset="1" stop-color="#c82123"/></radialGradient><path class="st16" d="M154.8 173.3c10.2-5.6 34.1-3.7 37.9-26.7 0 0 2.2-35.6 49 22.3 0 0 13.4 13.4 34.9 21.5 0 0 32.9 23.2-30.4 22.3-24.9-.4-133-16.5-91.4-39.4z"/><radialGradient id="SVGID_12_" cx="161.508" cy="162.86" r="111.63" gradientUnits="userSpaceOnUse"><stop offset=".122" stop-color="#ec2224"/><stop offset=".289" stop-color="#eb2224"/><stop offset=".538" stop-color="#df2224"/><stop offset="1" stop-color="#c82023"/></radialGradient><path class="st17" d="M155.6 173.3c10-5.5 33.7-3.7 37.4-26.4 0 0 2.2-35.2 48.4 22 0 0 13.2 13.2 34.5 21.3 0 0 32.5 22.9-30.1 22-24.6-.4-131.4-16.3-90.2-38.9z"/><radialGradient id="SVGID_13_" cx="160.319" cy="161.134" r="113.17" gradientUnits="userSpaceOnUse"><stop offset=".122" stop-color="#ec2224"/><stop offset=".289" stop-color="#eb2224"/><stop offset=".538" stop-color="#df2224"/><stop offset="1" stop-color="#c72023"/></radialGradient><path class="st18" d="M156.3 173.3c9.9-5.4 33.3-3.6 36.9-26.1 0 0 2.2-34.8 47.8 21.7 0 0 13 13 34 21 0 0 32.1 22.6-29.7 21.7-24.2-.3-129.6-15.9-89-38.3z"/><radialGradient id="SVGID_14_" cx="159.178" cy="159.457" r="114.674" gradientUnits="userSpaceOnUse"><stop offset=".122" stop-color="#ec2224"/><stop offset=".289" stop-color="#ea2224"/><stop offset=".538" stop-color="#df2224"/><stop offset="1" stop-color="#c62023"/></radialGradient><path class="st19" d="M157.1 173.3c9.8-5.4 32.9-3.6 36.4-25.7 0 0 2.1-34.3 47.2 21.4 0 0 12.9 12.9 33.6 20.7 0 0 31.7 22.3-29.3 21.4-23.9-.2-128-15.7-87.9-37.8z"/><radialGradient id="SVGID_15_" cx="158.084" cy="157.827" r="116.139" gradientUnits="userSpaceOnUse"><stop offset=".122" stop-color="#ec2224"/><stop offset=".289" stop-color="#ea2224"/><stop offset=".538" stop-color="#de2224"/><stop offset="1" stop-color="#c52022"/></radialGradient><path class="st20" d="M157.8 173.4c9.7-5.3 32.4-3.5 36-25.4 0 0 2.1-33.9 46.6 21.2 0 0 12.7 12.7 33.2 20.5 0 0 31.3 22-28.9 21.2-23.7-.5-126.4-15.8-86.9-37.5z"/><radialGradient id="SVGID_16_" cx="157.038" cy="156.245" r="117.565" gradientUnits="userSpaceOnUse"><stop offset=".122" stop-color="#ec2224"/><stop offset=".289" stop-color="#ea2224"/><stop offset=".538" stop-color="#de2224"/><stop offset="1" stop-color="#c52022"/></radialGradient><path class="st21" d="M158.6 173.4c9.5-5.2 32-3.5 35.5-25.1 0 0 2.1-33.4 45.9 20.9 0 0 12.5 12.5 32.7 20.2 0 0 30.9 21.8-28.5 20.9-23.3-.4-124.7-15.5-85.6-36.9z"/><radialGradient id="SVGID_17_" cx="156.04" cy="154.711" r="118.949" gradientUnits="userSpaceOnUse"><stop offset=".122" stop-color="#ec2224"/><stop offset=".289" stop-color="#ea2224"/><stop offset=".538" stop-color="#de2224"/><stop offset="1" stop-color="#c42022"/></radialGradient><path class="st22" d="M159.4 173.4c9.4-5.2 31.6-3.4 35-24.7 0 0 2.1-33 45.3 20.6 0 0 12.4 12.4 32.3 19.9 0 0 30.5 21.5-28.2 20.6-23-.4-123-15.2-84.4-36.4z"/><radialGradient id="SVGID_18_" cx="155.089" cy="153.225" r="120.29" gradientUnits="userSpaceOnUse"><stop offset=".122" stop-color="#ec2224"/><stop offset=".289" stop-color="#ea2224"/><stop offset=".538" stop-color="#dd2224"/><stop offset="1" stop-color="#c32022"/></radialGradient><path class="st23" d="M160.1 173.4c9.3-5.1 31.2-3.4 34.6-24.4 0 0 2-32.5 44.7 20.3 0 0 12.2 12.2 31.8 19.7 0 0 30.1 21.2-27.8 20.3-22.6-.3-121.3-15-83.3-35.9z"/><radialGradient id="SVGID_19_" cx="154.186" cy="151.786" r="121.586" gradientUnits="userSpaceOnUse"><stop offset=".122" stop-color="#ec2224"/><stop offset=".289" stop-color="#e92224"/><stop offset=".538" stop-color="#dd2124"/><stop offset="1" stop-color="#c32022"/></radialGradient><path class="st24" d="M160.9 173.4c9.1-5 30.7-3.3 34.1-24.1 0 0 2-32.1 44.1 20 0 0 12 12 31.4 19.4 0 0 29.7 20.9-27.4 20.1-22.4-.3-119.8-14.8-82.2-35.4z"/><radialGradient id="SVGID_20_" cx="153.332" cy="150.395" r="122.835" gradientUnits="userSpaceOnUse"><stop offset=".122" stop-color="#ec2224"/><stop offset=".289" stop-color="#e92224"/><stop offset=".538" stop-color="#dd2124"/><stop offset="1" stop-color="#c22022"/></radialGradient><path class="st25" d="M161.6 173.4c9-4.9 30.3-3.3 33.6-23.7 0 0 2-31.6 43.5 19.8 0 0 11.9 11.9 31 19.1 0 0 29.2 20.6-27 19.8-22.1-.4-118.1-14.7-81.1-35z"/><radialGradient id="SVGID_21_" cx="152.524" cy="149.052" r="124.037" gradientUnits="userSpaceOnUse"><stop offset=".122" stop-color="#ec2224"/><stop offset=".289" stop-color="#e92224"/><stop offset=".538" stop-color="#dd2124"/><stop offset="1" stop-color="#c12022"/></radialGradient><path class="st26" d="M162.4 173.4c8.9-4.9 29.9-3.2 33.1-23.4 0 0 2-31.2 42.9 19.5 0 0 11.7 11.7 30.5 18.8 0 0 28.8 20.3-26.6 19.5-21.8-.3-116.4-14.3-79.9-34.4z"/><radialGradient id="SVGID_22_" cx="151.765" cy="147.757" r="125.189" gradientUnits="userSpaceOnUse"><stop offset=".122" stop-color="#ec2224"/><stop offset=".289" stop-color="#e92224"/><stop offset=".538" stop-color="#dc2124"/><stop offset="1" stop-color="#c01f22"/></radialGradient><path class="st27" d="M163.1 173.4c8.8-4.8 29.5-3.2 32.7-23.1 0 0 1.9-30.8 42.3 19.2 0 0 11.5 11.5 30.1 18.6 0 0 28.4 20-26.3 19.2-21.4-.2-114.7-14.1-78.8-33.9z"/><radialGradient id="SVGID_23_" cx="151.053" cy="146.509" r="126.29" gradientUnits="userSpaceOnUse"><stop offset=".122" stop-color="#ec2224"/><stop offset=".289" stop-color="#e92224"/><stop offset=".538" stop-color="#dc2124"/><stop offset="1" stop-color="#c01f22"/></radialGradient><path class="st28" d="M163.9 173.4c8.6-4.7 29-3.2 32.2-22.7 0 0 1.9-30.3 41.7 18.9 0 0 11.4 11.4 29.7 18.3 0 0 28 19.7-25.9 18.9-21.2-.2-113.2-13.9-77.7-33.4z"/><radialGradient id="SVGID_24_" cx="150.389" cy="145.309" r="127.338" gradientUnits="userSpaceOnUse"><stop offset=".122" stop-color="#ec2224"/><stop offset=".289" stop-color="#e82224"/><stop offset=".538" stop-color="#dc2124"/><stop offset="1" stop-color="#bf1f22"/></radialGradient><path class="st29" d="M164.6 173.5c8.5-4.7 28.6-3.1 31.7-22.4 0 0 1.9-29.9 41.1 18.7 0 0 11.2 11.2 29.2 18 0 0 27.6 19.4-25.5 18.7-20.8-.4-111.4-13.9-76.5-33z"/><radialGradient id="SVGID_25_" cx="149.773" cy="144.157" r="128.332" gradientUnits="userSpaceOnUse"><stop offset=".122" stop-color="#ec2224"/><stop offset=".289" stop-color="#e82224"/><stop offset=".538" stop-color="#db2124"/><stop offset="1" stop-color="#be1f22"/></radialGradient><path class="st30" d="M165.4 173.5c8.4-4.6 28.2-3.1 31.3-22.1 0 0 1.8-29.4 40.5 18.4 0 0 11 11 28.8 17.8 0 0 27.2 19.2-25.1 18.4-20.7-.4-109.9-13.6-75.5-32.5z"/><radialGradient id="SVGID_26_" cx="149.204" cy="143.053" r="129.271" gradientUnits="userSpaceOnUse"><stop offset=".122" stop-color="#ec2224"/><stop offset=".289" stop-color="#e82224"/><stop offset=".538" stop-color="#db2124"/><stop offset="1" stop-color="#bd1f22"/></radialGradient><path class="st31" d="M166.1 173.5c8.3-4.5 27.8-3 30.8-21.7 0 0 1.8-29 39.8 18.1 0 0 10.9 10.9 28.4 17.5 0 0 26.8 18.9-24.7 18.1-20.2-.3-108.1-13.4-74.3-32z"/><radialGradient id="SVGID_27_" cx="148.684" cy="141.996" r="130.152" gradientUnits="userSpaceOnUse"><stop offset=".122" stop-color="#ec2224"/><stop offset=".289" stop-color="#e82224"/><stop offset=".538" stop-color="#db2124"/><stop offset="1" stop-color="#bd1f22"/></radialGradient><path class="st32" d="M166.9 173.5c8.1-4.5 27.3-3 30.3-21.4 0 0 1.8-28.5 39.2 17.8 0 0 10.7 10.7 27.9 17.2 0 0 26.4 18.6-24.4 17.8-19.8-.2-106.4-13.1-73-31.4z"/><radialGradient id="SVGID_28_" cx="148.211" cy="140.988" r="130.974" gradientUnits="userSpaceOnUse"><stop offset=".122" stop-color="#ec2224"/><stop offset=".289" stop-color="#e82224"/><stop offset=".538" stop-color="#db2124"/><stop offset="1" stop-color="#bc1f22"/></radialGradient><path class="st33" d="M167.6 173.5c8-4.4 26.9-2.9 29.8-21.1 0 0 1.8-28.1 38.6 17.5 0 0 10.5 10.5 27.5 17 0 0 26 18.3-24 17.6-19.5-.3-104.7-13-71.9-31z"/><radialGradient id="SVGID_29_" cx="147.785" cy="140.027" r="131.736" gradientUnits="userSpaceOnUse"><stop offset=".122" stop-color="#ec2224"/><stop offset=".289" stop-color="#e72224"/><stop offset=".538" stop-color="#da2124"/><stop offset="1" stop-color="#bb1f22"/></radialGradient><path class="st34" d="M168.4 173.5c7.9-4.3 26.5-2.9 29.4-20.7 0 0 1.7-27.6 38 17.3 0 0 10.4 10.4 27.1 16.7 0 0 25.5 18-23.6 17.3-19.4-.4-103.2-12.8-70.9-30.6z"/><radialGradient id="SVGID_30_" cx="147.408" cy="139.113" r="132.436" gradientUnits="userSpaceOnUse"><stop offset=".122" stop-color="#ec2224"/><stop offset=".289" stop-color="#e72224"/><stop offset=".538" stop-color="#da2124"/><stop offset="1" stop-color="#bb1f22"/></radialGradient><path class="st35" d="M169.1 173.5c7.8-4.3 26.1-2.8 28.9-20.4 0 0 1.7-27.2 37.4 17 0 0 10.2 10.2 26.6 16.4 0 0 25.1 17.7-23.2 17-18.9-.2-101.5-12.5-69.7-30z"/><radialGradient id="SVGID_31_" cx="147.078" cy="138.248" r="133.073" gradientUnits="userSpaceOnUse"><stop offset=".122" stop-color="#ec2224"/><stop offset=".289" stop-color="#e72224"/><stop offset=".538" stop-color="#da2124"/><stop offset="1" stop-color="#ba1f22"/></radialGradient><path class="st36" d="M169.9 173.5c7.6-4.2 25.6-2.8 28.4-20.1 0 0 1.7-26.8 36.8 16.7 0 0 10 10 26.2 16.2 0 0 24.7 17.4-22.8 16.7-18.7-.2-99.9-12.3-68.6-29.5z"/><radialGradient id="SVGID_32_" cx="146.796" cy="137.43" r="133.645" gradientUnits="userSpaceOnUse"><stop offset=".122" stop-color="#ec2224"/><stop offset=".289" stop-color="#e72124"/><stop offset=".538" stop-color="#d92124"/><stop offset="1" stop-color="#b91e21"/></radialGradient><path class="st37" d="M170.6 173.5c7.5-4.1 25.2-2.7 27.9-19.7 0 0 1.6-26.3 36.2 16.4 0 0 9.9 9.9 25.8 15.9 0 0 24.3 17.1-22.5 16.4-18.3-.2-98.1-12.1-67.4-29z"/><radialGradient id="SVGID_33_" cx="146.562" cy="136.66" r="134.15" gradientUnits="userSpaceOnUse"><stop offset=".122" stop-color="#ec2224"/><stop offset=".289" stop-color="#e72124"/><stop offset=".538" stop-color="#d92124"/><stop offset="1" stop-color="#b81e21"/></radialGradient><path class="st38" d="M171.4 173.6c7.4-4 24.8-2.7 27.5-19.4 0 0 1.6-25.9 35.6 16.2 0 0 9.7 9.7 25.3 15.6 0 0 23.9 16.8-22.1 16.2-18.1-.4-96.5-12-66.3-28.6z"/><radialGradient id="SVGID_34_" cx="146.375" cy="135.938" r="134.588" gradientUnits="userSpaceOnUse"><stop offset=".122" stop-color="#ec2224"/><stop offset=".289" stop-color="#e72124"/><stop offset=".538" stop-color="#d92124"/><stop offset="1" stop-color="#b81e21"/></radialGradient><path class="st39" d="M172.2 173.6c7.2-4 24.4-2.6 27-19.1 0 0 1.6-25.4 35 15.9 0 0 9.5 9.5 24.9 15.4 0 0 23.5 16.6-21.7 15.9-17.8-.3-95-11.8-65.2-28.1z"/><radialGradient id="SVGID_35_" cx="146.237" cy="135.263" r="134.957" gradientUnits="userSpaceOnUse"><stop offset=".122" stop-color="#ec2224"/><stop offset=".289" stop-color="#e62124"/><stop offset=".538" stop-color="#d82124"/><stop offset="1" stop-color="#b71e21"/></radialGradient><path class="st40" d="M172.9 173.6c7.1-3.9 23.9-2.6 26.5-18.7 0 0 1.6-25 34.3 15.6 0 0 9.4 9.4 24.5 15.1 0 0 23.1 16.3-21.3 15.6-17.4-.3-93.2-11.6-64-27.6z"/><radialGradient id="SVGID_36_" cx="146.146" cy="134.637" r="135.255" gradientUnits="userSpaceOnUse"><stop offset=".122" stop-color="#ec2224"/><stop offset=".289" stop-color="#e62124"/><stop offset=".538" stop-color="#d82124"/><stop offset="1" stop-color="#b61e21"/></radialGradient><path class="st41" d="M173.7 173.6c7-3.8 23.5-2.6 26.1-18.4 0 0 1.5-24.5 33.7 15.3 0 0 9.2 9.2 24 14.8 0 0 22.7 16-21 15.3-17.1-.2-91.5-11.3-62.8-27z"/><radialGradient id="SVGID_37_" cx="146.102" cy="134.058" r="135.481" gradientUnits="userSpaceOnUse"><stop offset=".122" stop-color="#ec2224"/><stop offset=".289" stop-color="#e62124"/><stop offset=".538" stop-color="#d82124"/><stop offset="1" stop-color="#b61e21"/></radialGradient><path class="st42" d="M174.4 173.6c6.9-3.8 23.1-2.5 25.6-18.1 0 0 1.5-24.1 33.1 15.1 0 0 9 9 23.6 14.6 0 0 22.3 15.7-20.6 15.1-16.8-.3-89.8-11.2-61.7-26.7z"/><radialGradient id="SVGID_38_" cx="146.107" cy="133.527" r="135.634" gradientUnits="userSpaceOnUse"><stop offset=".122" stop-color="#ec2224"/><stop offset=".289" stop-color="#e62124"/><stop offset=".538" stop-color="#d82124"/><stop offset="1" stop-color="#b51e21"/></radialGradient><path class="st43" d="M175.2 173.6c6.7-3.7 22.7-2.5 25.1-17.7 0 0 1.5-23.6 32.5 14.8 0 0 8.9 8.9 23.1 14.3 0 0 21.9 15.4-20.2 14.8-16.4-.3-88.2-11-60.5-26.2z"/><radialGradient id="SVGID_39_" cx="146.159" cy="133.043" r="135.711" gradientUnits="userSpaceOnUse"><stop offset=".122" stop-color="#ec2224"/><stop offset=".289" stop-color="#e62124"/><stop offset=".538" stop-color="#d72124"/><stop offset="1" stop-color="#b41e21"/></radialGradient><path class="st44" d="M175.9 173.6c6.6-3.6 22.2-2.4 24.6-17.4 0 0 1.4-23.2 31.9 14.5 0 0 8.7 8.7 22.7 14 0 0 21.4 15.1-19.8 14.5-16.1-.2-86.5-10.7-59.4-25.6z"/><radialGradient id="SVGID_40_" cx="146.259" cy="132.608" r="135.712" gradientUnits="userSpaceOnUse"><stop offset=".122" stop-color="#ec2224"/><stop offset=".289" stop-color="#e52124"/><stop offset=".538" stop-color="#d72124"/><stop offset="1" stop-color="#b31e21"/></radialGradient><path class="st45" d="M176.7 173.6c6.5-3.6 21.8-2.4 24.2-17.1 0 0 1.4-22.8 31.3 14.2 0 0 8.5 8.5 22.3 13.7 0 0 21 14.8-19.4 14.2-16-.1-85-10.4-58.4-25z"/><radialGradient id="SVGID_41_" cx="146.407" cy="132.22" r="135.635" gradientUnits="userSpaceOnUse"><stop offset=".122" stop-color="#ec2224"/><stop offset=".289" stop-color="#e52124"/><stop offset=".538" stop-color="#d72124"/><stop offset="1" stop-color="#b31e21"/></radialGradient><path class="st46" d="M177.4 173.7c6.4-3.5 21.4-2.3 23.7-16.7 0 0 1.4-22.3 30.7 13.9 0 0 8.4 8.4 21.8 13.5 0 0 20.6 14.5-19.1 14-15.5-.3-83.2-10.4-57.1-24.7z"/><radialGradient id="SVGID_42_" cx="146.603" cy="131.88" r="135.479" gradientUnits="userSpaceOnUse"><stop offset=".122" stop-color="#ec2224"/><stop offset=".289" stop-color="#e52124"/><stop offset=".538" stop-color="#d62124"/><stop offset="1" stop-color="#b21d21"/></radialGradient><path class="st47" d="M178.2 173.7c6.2-3.4 21-2.3 23.2-16.4 0 0 1.4-21.9 30.1 13.7 0 0 8.2 8.2 21.4 13.2 0 0 20.2 14.2-18.7 13.7-15.2-.3-81.6-10.2-56-24.2z"/><radialGradient id="SVGID_43_" cx="146.846" cy="131.587" r="135.242" gradientUnits="userSpaceOnUse"><stop offset=".122" stop-color="#ec2224"/><stop offset=".289" stop-color="#e52124"/><stop offset=".538" stop-color="#d62124"/><stop offset="1" stop-color="#b11d21"/></radialGradient><path class="st48" d="M178.9 173.7c6.1-3.4 20.5-2.2 22.8-16.1 0 0 1.3-21.4 29.5 13.4 0 0 8 8 21 12.9 0 0 19.8 14-18.3 13.4-15-.2-80-9.9-55-23.6z"/><radialGradient id="SVGID_44_" cx="147.137" cy="131.343" r="134.923" gradientUnits="userSpaceOnUse"><stop offset=".122" stop-color="#ec2224"/><stop offset=".289" stop-color="#e52124"/><stop offset=".538" stop-color="#d62124"/><stop offset="1" stop-color="#b01d21"/></radialGradient><path class="st49" d="M179.7 173.7c6-3.3 20.1-2.2 22.3-15.7 0 0 1.3-21 28.8 13.1 0 0 7.9 7.9 20.5 12.7 0 0 19.4 13.7-17.9 13.1-14.6-.3-78.2-9.7-53.7-23.2z"/><radialGradient id="SVGID_45_" cx="147.476" cy="131.146" r="134.52" gradientUnits="userSpaceOnUse"><stop offset=".122" stop-color="#ec2224"/><stop offset=".289" stop-color="#e42124"/><stop offset=".538" stop-color="#d62024"/><stop offset="1" stop-color="#b01d21"/></radialGradient><path class="st50" d="M180.4 173.7c5.9-3.2 19.7-2.1 21.8-15.4 0 0 1.3-20.5 28.2 12.8 0 0 7.7 7.7 20.1 12.4 0 0 19 13.4-17.5 12.8-14.3-.1-76.6-9.4-52.6-22.6z"/><radialGradient id="SVGID_46_" cx="147.862" cy="130.997" r="134.032" gradientUnits="userSpaceOnUse"><stop offset=".122" stop-color="#ec2224"/><stop offset=".289" stop-color="#e42124"/><stop offset=".538" stop-color="#d52024"/><stop offset="1" stop-color="#af1d21"/></radialGradient><path class="st51" d="M181.2 173.7c5.7-3.1 19.3-2.1 21.3-15.1 0 0 1.3-20.1 27.6 12.6 0 0 7.5 7.5 19.7 12.1 0 0 18.6 13.1-17.2 12.6-13.9-.2-74.9-9.3-51.4-22.2z"/><radialGradient id="SVGID_47_" cx="148.296" cy="130.896" r="133.458" gradientUnits="userSpaceOnUse"><stop offset=".122" stop-color="#ec2224"/><stop offset=".289" stop-color="#e42124"/><stop offset=".538" stop-color="#d52024"/><stop offset="1" stop-color="#ae1d21"/></radialGradient><path class="st52" d="M181.9 173.7c5.6-3.1 18.8-2 20.9-14.7 0 0 1.2-19.6 27 12.3 0 0 7.4 7.4 19.2 11.9 0 0 18.2 12.8-16.8 12.3-13.6-.3-73.2-9.2-50.3-21.8z"/><radialGradient id="SVGID_48_" cx="148.779" cy="130.842" r="132.796" gradientUnits="userSpaceOnUse"><stop offset=".122" stop-color="#ec2224"/><stop offset=".289" stop-color="#e42124"/><stop offset=".538" stop-color="#d52024"/><stop offset="1" stop-color="#ae1d21"/></radialGradient><path class="st53" d="M182.7 173.7c5.5-3 18.4-2 20.4-14.4 0 0 1.2-19.2 26.4 12 0 0 7.2 7.2 18.8 11.6 0 0 17.8 12.5-16.4 12-13.4-.2-71.6-8.8-49.2-21.2z"/><radialGradient id="SVGID_49_" cx="149.308" cy="130.837" r="132.044" gradientUnits="userSpaceOnUse"><stop offset=".122" stop-color="#ec2224"/><stop offset=".289" stop-color="#e42124"/><stop offset=".538" stop-color="#d42024"/><stop offset="1" stop-color="#ad1d20"/></radialGradient><path class="st54" d="M183.5 173.7c5.3-2.9 18-2 19.9-14.1 0 0 1.2-18.8 25.8 11.7 0 0 7 7 18.4 11.3 0 0 17.3 12.2-16 11.7-13.2 0-70.1-8.5-48.1-20.6z"/><radialGradient id="SVGID_50_" cx="149.886" cy="130.879" r="131.202" gradientUnits="userSpaceOnUse"><stop offset=".122" stop-color="#ec2224"/><stop offset=".289" stop-color="#e32124"/><stop offset=".538" stop-color="#d42024"/><stop offset="1" stop-color="#ac1d20"/></radialGradient><path class="st55" d="M184.2 173.8c5.2-2.9 17.5-1.9 19.5-13.7 0 0 1.1-18.3 25.2 11.4 0 0 6.9 6.9 17.9 11.1 0 0 16.9 11.9-15.6 11.5-12.8-.3-68.4-8.6-47-20.3z"/><radialGradient id="SVGID_51_" cx="150.511" cy="130.968" r="130.268" gradientUnits="userSpaceOnUse"><stop offset=".122" stop-color="#ec2224"/><stop offset=".289" stop-color="#e32124"/><stop offset=".538" stop-color="#d42024"/><stop offset="1" stop-color="#ab1d20"/></radialGradient><path class="st56" d="M185 173.8c5.1-2.8 17.1-1.9 19-13.4 0 0 1.1-17.9 24.6 11.2 0 0 6.7 6.7 17.5 10.8 0 0 16.5 11.6-15.3 11.2-12.5-.3-66.7-8.4-45.8-19.8z"/><radialGradient id="SVGID_52_" cx="151.184" cy="131.106" r="129.24" gradientUnits="userSpaceOnUse"><stop offset=".122" stop-color="#ec2224"/><stop offset=".289" stop-color="#e32124"/><stop offset=".538" stop-color="#d32024"/><stop offset="1" stop-color="#ab1c20"/></radialGradient><path class="st57" d="M185.7 173.8c5-2.7 16.7-1.8 18.5-13.1 0 0 1.1-17.4 24 10.9 0 0 6.5 6.5 17.1 10.5 0 0 16.1 11.4-14.9 10.9-12.2-.2-65.1-8-44.7-19.2z"/><radialGradient id="SVGID_53_" cx="151.905" cy="131.291" r="128.118" gradientUnits="userSpaceOnUse"><stop offset=".122" stop-color="#ec2224"/><stop offset=".289" stop-color="#e32124"/><stop offset=".538" stop-color="#d32024"/><stop offset="1" stop-color="#aa1c20"/></radialGradient><path class="st58" d="M186.5 173.8c4.8-2.7 16.3-1.8 18-12.7 0 0 1.1-17 23.3 10.6 0 0 6.4 6.4 16.6 10.3 0 0 15.7 11.1-14.5 10.6-11.8-.2-63.3-7.9-43.4-18.8z"/><radialGradient id="SVGID_54_" cx="152.673" cy="131.524" r="126.899" gradientUnits="userSpaceOnUse"><stop offset=".122" stop-color="#ec2224"/><stop offset=".289" stop-color="#e32124"/><stop offset=".538" stop-color="#d32024"/><stop offset="1" stop-color="#a91c20"/></radialGradient><path class="st59" d="M187.2 173.8c4.7-2.6 15.8-1.7 17.6-12.4 0 0 1-16.5 22.7 10.3 0 0 6.2 6.2 16.2 10 0 0 15.3 10.8-14.1 10.3-11.5-.1-61.7-7.6-42.4-18.2z"/><radialGradient id="SVGID_55_" cx="153.49" cy="131.805" r="125.582" gradientUnits="userSpaceOnUse"><stop offset=".122" stop-color="#ec2224"/><stop offset=".289" stop-color="#e22124"/><stop offset=".538" stop-color="#d32024"/><stop offset="1" stop-color="#a81c20"/></radialGradient><path class="st60" d="M188 173.8c4.6-2.5 15.4-1.7 17.1-12.1 0 0 1-16.1 22.1 10.1 0 0 6 6 15.8 9.7 0 0 14.9 10.5-13.7 10.1-11.3-.2-60.1-7.5-41.3-17.8z"/><radialGradient id="SVGID_56_" cx="154.354" cy="132.133" r="124.166" gradientUnits="userSpaceOnUse"><stop offset=".122" stop-color="#ec2224"/><stop offset=".289" stop-color="#e22124"/><stop offset=".538" stop-color="#d22024"/><stop offset="1" stop-color="#a81c20"/></radialGradient><path class="st61" d="M188.7 173.8c4.5-2.4 15-1.6 16.6-11.7 0 0 1-15.6 21.5 9.8 0 0 5.9 5.9 15.3 9.4 0 0 14.5 10.2-13.4 9.8-10.8-.2-58.3-7.2-40-17.3z"/><radialGradient id="SVGID_57_" cx="155.265" cy="132.51" r="122.65" gradientUnits="userSpaceOnUse"><stop offset=".122" stop-color="#ec2224"/><stop offset=".538" stop-color="#d22024"/><stop offset="1" stop-color="#a71c20"/></radialGradient><path class="st62" d="M189.5 173.8c4.3-2.4 14.6-1.6 16.2-11.4 0 0 .9-15.2 20.9 9.5 0 0 5.7 5.7 14.9 9.2 0 0 14.1 9.9-13 9.5-10.7-.1-56.8-7-39-16.8z"/><radialGradient id="SVGID_58_" cx="301.174" cy="202.433" r="92.439" gradientUnits="userSpaceOnUse"><stop offset=".01" stop-color="#dd2224"/><stop offset="1" stop-color="#c92123"/></radialGradient><path class="st63" d="M264.6 114.1c-16.6 8.6-42.6 41.8 27.6 69.4 0 0-14.2-24.4-11.8-49.7 0 0 4.2-30-15.8-19.7z"/><linearGradient id="SVGID_59_" gradientUnits="userSpaceOnUse" x1="316.097" y1="429.704" x2="496.958" y2="179.442"><stop offset="0" stop-color="#af1d21"/><stop offset=".456" stop-color="#a32120"/><stop offset=".502" stop-color="#a22120"/><stop offset="1" stop-color="#8a181b"/></linearGradient><path class="st64" d="M468.9 168.5c4.7 17.4 9.5 27.6-10.3 51.3-1.5 1.8-2.8 3.5-3.9 5.2 3.4 2.2 5.6 3.4 5.6 3.4 10.2 2.5 19.3 9 27.3 17.2 1.5-3.2 3.2-6.5 5-10.1 27.6-54.3-28.4-84.3-23.7-67z"/><linearGradient id="SVGID_60_" gradientUnits="userSpaceOnUse" x1="288.334" y1="158.419" x2="444.247" y2="158.419"><stop offset=".086" stop-color="#d22024"/><stop offset=".386" stop-color="#cd1f23"/><stop offset="1" stop-color="#a71c20"/></linearGradient><path class="st65" d="M420.3 188.4s3 46.7 3.9 70c-9.1-27.9-34.4-80.4-94.2-69.4-23.5 4.3-51.1 2.6-38.7-87.5 2.7-19.2 10.2-53.2 66.2-40.2 29.5 6.8 97 55.2 85.2 75.7-13.7 24-55.3-58.6-110.2-11.9-6.2 5.3-7.9 14.2 27.6 17.4 0 0 52.2 7.8 60.2 45.9z"/><linearGradient id="SVGID_61_" gradientUnits="userSpaceOnUse" x1="475.498" y1="192.732" x2="343" y2="140.679"><stop offset=".02" stop-color="#af1d21"/><stop offset=".807" stop-color="#c01d22"/></linearGradient><path class="st66" d="M420.3 188.4s3 46.7 3.9 70c-9.1-27.9-34.4-80.4-94.2-69.4-23.5 4.3-51.1 2.6-38.7-87.5 2.7-19.2 10.2-53.2 66.2-40.2 29.5 6.8 97 55.2 85.2 75.7-13.7 24-55.3-58.6-110.2-11.9-6.2 5.3-7.9 14.2 27.6 17.4 0 0 52.2 7.8 60.2 45.9z"/><linearGradient id="SVGID_62_" gradientUnits="userSpaceOnUse" x1="476.071" y1="192.76" x2="341.053" y2="139.884"><stop offset=".02" stop-color="#af1d21"/><stop offset=".371" stop-color="#b71d21"/><stop offset=".716" stop-color="#be1d22"/><stop offset=".807" stop-color="#bf1d22"/><stop offset="1" stop-color="#be1d22"/></linearGradient><path class="st67" d="M420.3 188.5s3 46.3 3.9 69.5c-9.1-27.9-34.4-80.5-94-69.5-23.5 4.3-50.9 2.6-38.4-86.9 2.7-19.1 10-53.2 65.9-40.2 29.4 6.8 96.7 55.1 85 75.3-13.7 23.7-55.6-58.6-110.4-12-6.2 5.3-8.2 14.8 27.9 17.9.3.1 52.2 8.1 60.1 45.9z"/><linearGradient id="SVGID_63_" gradientUnits="userSpaceOnUse" x1="476.639" y1="192.784" x2="339.118" y2="139.098"><stop offset=".02" stop-color="#af1d21"/><stop offset=".371" stop-color="#b71d21"/><stop offset=".716" stop-color="#bd1d22"/><stop offset=".807" stop-color="#be1d22"/><stop offset="1" stop-color="#bc1d22"/></linearGradient><path class="st68" d="M420.3 188.6s3 45.8 3.9 69c-9.1-27.8-34.4-80.5-93.9-69.5-23.4 4.3-50.7 2.6-38.2-86.2 2.7-19.1 9.8-53.1 65.6-40.2 29.3 6.8 96.4 54.9 84.8 75-13.5 23.4-55.7-58.7-110.3-12.2-6.2 5.3-8.6 15.5 28.2 18.4.6.1 52.1 8.3 59.9 45.7z"/><linearGradient id="SVGID_64_" gradientUnits="userSpaceOnUse" x1="477.202" y1="192.806" x2="337.197" y2="138.322"><stop offset=".02" stop-color="#af1d21"/><stop offset=".371" stop-color="#b71d21"/><stop offset=".716" stop-color="#bd1d22"/><stop offset=".807" stop-color="#be1d22"/><stop offset="1" stop-color="#ba1d22"/></linearGradient><path class="st69" d="M420.3 188.7s3 45.4 3.9 68.5c-9-27.8-34.4-80.5-93.8-69.6-23.4 4.3-50.4 2.6-38-85.6 2.8-19 9.6-53 65.3-40.1 29.3 6.8 96.1 54.8 84.6 74.6-13.3 23.1-55.7-58.7-110.3-12.3-6.2 5.3-8.9 16.1 28.5 19 1 0 52.2 8.5 59.8 45.5z"/><linearGradient id="SVGID_65_" gradientUnits="userSpaceOnUse" x1="477.76" y1="192.824" x2="335.29" y2="137.556"><stop offset=".02" stop-color="#af1d21"/><stop offset=".371" stop-color="#b61d21"/><stop offset=".716" stop-color="#bc1d22"/><stop offset=".807" stop-color="#bd1d22"/><stop offset="1" stop-color="#b91d22"/></linearGradient><path class="st70" d="M420.3 188.8s3 44.9 3.9 68c-9-27.7-34.4-80.5-93.6-69.6-23.3 4.3-50.2 2.6-37.8-84.9 2.7-19 9.4-53 65-40.2 29.2 6.8 95.8 54.7 84.4 74.3-13.2 22.8-55.9-58.7-110.3-12.4-6.2 5.2-9.3 16.8 28.8 19.5 1.2-.1 52.1 8.6 59.6 45.3z"/><linearGradient id="SVGID_66_" gradientUnits="userSpaceOnUse" x1="478.313" y1="192.838" x2="333.397" y2="136.8"><stop offset=".02" stop-color="#af1d21"/><stop offset=".371" stop-color="#b61d21"/><stop offset=".716" stop-color="#bc1d22"/><stop offset=".807" stop-color="#bc1d22"/><stop offset="1" stop-color="#b71d22"/></linearGradient><path class="st71" d="M420.3 188.9s3 44.5 3.9 67.5c-9-27.6-34.3-80.5-93.5-69.7-23.3 4.3-50 2.5-37.6-84.3 2.7-19 9.2-53 64.7-40.2 29.1 6.7 95.5 54.5 84.2 73.9-13.1 22.5-56-58.8-110.3-12.6-6.1 5.2-9.7 17.4 29.1 20 1.6.1 52.2 9.1 59.5 45.4z"/><linearGradient id="SVGID_67_" gradientUnits="userSpaceOnUse" x1="478.861" y1="192.85" x2="331.516" y2="136.054"><stop offset=".02" stop-color="#af1d21"/><stop offset=".371" stop-color="#b61d21"/><stop offset=".716" stop-color="#bc1d22"/><stop offset=".807" stop-color="#bb1d22"/><stop offset="1" stop-color="#b51e21"/></linearGradient><path class="st72" d="M420.3 189s2.9 44 3.9 67c-9-27.6-34.3-80.6-93.4-69.7-23.2 4.3-49.7 2.5-37.4-83.6 2.8-18.9 9-53 64.4-40.2 29.1 6.7 95.3 54.4 84 73.5-12.9 22.2-56.1-58.8-110.3-12.7-6.1 5.2-10 18.1 29.4 20.6 2 0 52.2 9.2 59.4 45.1z"/><linearGradient id="SVGID_68_" gradientUnits="userSpaceOnUse" x1="479.405" y1="192.858" x2="329.65" y2="135.317"><stop offset=".02" stop-color="#af1d21"/><stop offset=".371" stop-color="#b61d21"/><stop offset=".716" stop-color="#bb1d22"/><stop offset=".807" stop-color="#bb1d22"/><stop offset="1" stop-color="#b31e21"/></linearGradient><path class="st73" d="M420.3 189.1s2.9 43.6 3.8 66.5c-9-27.5-34.3-80.6-93.2-69.7-23.2 4.3-49.5 2.5-37.1-82.9 2.8-18.9 8.8-52.9 64.1-40.1 29 6.7 95 54.2 83.9 73.2-12.9 21.7-56.3-59.1-110.4-13.1-6.1 5.2-10.4 18.7 29.7 21.1 2.2 0 52.1 9.4 59.2 45z"/><linearGradient id="SVGID_69_" gradientUnits="userSpaceOnUse" x1="479.944" y1="192.863" x2="327.796" y2="134.589"><stop offset=".02" stop-color="#af1d21"/><stop offset=".371" stop-color="#b61d21"/><stop offset=".716" stop-color="#bb1d22"/><stop offset=".807" stop-color="#ba1d22"/><stop offset="1" stop-color="#b11e21"/></linearGradient><path class="st74" d="M420.3 189.2s2.9 43.1 3.8 66c-8.9-27.5-34.3-80.6-93.1-69.8-23.1 4.3-49.2 2.5-36.9-82.3 2.8-18.8 8.6-52.9 63.7-40.1 29 6.7 94.7 54.1 83.7 72.8-12.6 21.5-56.3-58.9-110.2-13-6.1 5.2-10.7 19.3 30 21.7 2.5-.2 52.1 9.5 59 44.7z"/><linearGradient id="SVGID_70_" gradientUnits="userSpaceOnUse" x1="480.478" y1="192.865" x2="325.956" y2="133.872"><stop offset=".02" stop-color="#af1d21"/><stop offset=".371" stop-color="#b61d21"/><stop offset=".716" stop-color="#ba1d22"/><stop offset=".807" stop-color="#b91d21"/><stop offset="1" stop-color="#af1e21"/></linearGradient><path class="st75" d="M420.3 189.2s2.9 42.7 3.8 65.5c-8.9-27.4-34.3-80.6-92.9-69.8-23.1 4.3-49 2.4-36.7-81.6 2.8-18.8 8.4-52.8 63.4-40.1 28.9 6.7 94.4 54 83.5 72.5-12.4 21.2-56.4-59-110.2-13.2-6.1 5.2-11.1 20 30.3 22.2 2.8-.1 52 9.8 58.8 44.5z"/><linearGradient id="SVGID_71_" gradientUnits="userSpaceOnUse" x1="481.007" y1="192.864" x2="324.13" y2="133.163"><stop offset=".02" stop-color="#af1d21"/><stop offset=".371" stop-color="#b51d21"/><stop offset=".716" stop-color="#ba1d22"/><stop offset=".807" stop-color="#b81d21"/><stop offset="1" stop-color="#ae1e21"/></linearGradient><path class="st76" d="M420.3 189.3s2.9 42.2 3.8 65c-8.9-27.3-34.3-80.7-92.8-69.9-23 4.2-48.8 2.4-36.5-81 2.8-18.7 8.2-52.8 63.1-40.1 28.8 6.7 94.1 53.8 83.3 72.1-12.3 20.9-56.5-59-110.2-13.3-6.1 5.2-11.4 20.6 30.6 22.7 3.1 0 52.1 10.1 58.7 44.5z"/><linearGradient id="SVGID_72_" gradientUnits="userSpaceOnUse" x1="481.531" y1="192.859" x2="322.317" y2="132.465"><stop offset=".02" stop-color="#af1d21"/><stop offset=".371" stop-color="#b51d21"/><stop offset=".716" stop-color="#ba1d22"/><stop offset=".807" stop-color="#b81d21"/><stop offset="1" stop-color="#ac1e21"/></linearGradient><path class="st77" d="M420.3 189.4s2.9 41.8 3.8 64.5c-8.9-27.3-34.3-80.7-92.7-69.9-23 4.2-48.5 2.4-36.3-80.3 2.8-18.7 8.1-52.8 62.8-40.1 28.8 6.7 93.8 53.7 83.1 71.7-12.1 20.6-56.6-59.1-110.2-13.5-6.1 5.2-11.8 21.3 30.9 23.3 3.5-.1 52.1 10.3 58.6 44.3z"/><linearGradient id="SVGID_73_" gradientUnits="userSpaceOnUse" x1="482.05" y1="192.852" x2="320.517" y2="131.775"><stop offset=".02" stop-color="#af1d21"/><stop offset=".371" stop-color="#b51d21"/><stop offset=".716" stop-color="#b91d22"/><stop offset=".807" stop-color="#b71d21"/><stop offset="1" stop-color="#aa1e21"/></linearGradient><path class="st78" d="M420.3 189.5s2.9 41.3 3.8 64c-8.9-27.2-34.3-80.7-92.5-70-22.9 4.2-48.3 2.4-36.1-79.7 2.9-18.6 7.9-52.7 62.5-40.1 28.7 6.6 93.5 53.6 82.9 71.4-12 20.2-56.7-59.1-110.1-13.7-6 5.1-12.1 21.9 31.2 23.8 3.7 0 51.9 10.7 58.3 44.3z"/><linearGradient id="SVGID_74_" gradientUnits="userSpaceOnUse" x1="482.565" y1="192.841" x2="318.731" y2="131.095"><stop offset=".02" stop-color="#af1d21"/><stop offset=".371" stop-color="#b51d21"/><stop offset=".716" stop-color="#b91d21"/><stop offset=".807" stop-color="#b61d21"/><stop offset="1" stop-color="#a81e21"/></linearGradient><path class="st79" d="M420.2 189.6s2.8 40.9 3.7 63.5c-8.8-27.1-34.3-80.7-92.4-70-22.9 4.2-48.1 2.4-35.8-79 2.9-18.6 7.7-52.7 62.2-40.1 28.6 6.6 93.2 53.4 82.7 71-11.8 19.9-56.8-59.2-110.1-13.8-6 5.1-12.5 22.5 31.5 24.4 4.1-.1 52.1 10.7 58.2 44z"/><linearGradient id="SVGID_75_" gradientUnits="userSpaceOnUse" x1="483.077" y1="192.829" x2="316.945" y2="130.419"><stop offset=".02" stop-color="#af1d21"/><stop offset=".371" stop-color="#b51d21"/><stop offset=".716" stop-color="#b91d21"/><stop offset=".807" stop-color="#b51d21"/><stop offset="1" stop-color="#a61e21"/></linearGradient><path class="st80" d="M420.2 189.7s2.8 40.5 3.7 63c-8.8-27.1-34.3-80.7-92.3-70.1-22.8 4.2-48 2.3-35.6-78.3 2.8-18.6 7.5-52.6 61.9-40.1 28.6 6.6 92.9 53.3 82.5 70.6-11.7 19.6-56.9-59.2-110.1-14-6 5.1-12.8 23.2 31.8 24.9 4.5 0 52.1 11.1 58.1 44z"/><linearGradient id="SVGID_76_" gradientUnits="userSpaceOnUse" x1="483.583" y1="192.813" x2="315.184" y2="129.757"><stop offset=".02" stop-color="#af1d21"/><stop offset=".371" stop-color="#b51d21"/><stop offset=".716" stop-color="#b81d21"/><stop offset=".807" stop-color="#b51d21"/><stop offset="1" stop-color="#a41e21"/></linearGradient><path class="st81" d="M420.2 189.8s2.8 40 3.7 62.5c-8.8-27-34.3-80.8-92.1-70.1-22.8 4.2-47.8 2.3-35.4-77.7 2.9-18.5 7.3-52.6 61.5-40.1 28.5 6.6 92.6 53.2 82.3 70.3-11.5 19.3-57-59.3-110.1-14.1-6 5.1-13.2 23.8 32.1 25.4 4.9-.1 52.1 11.3 58 43.8z"/><linearGradient id="SVGID_77_" gradientUnits="userSpaceOnUse" x1="484.083" y1="192.793" x2="313.437" y2="129.104"><stop offset=".02" stop-color="#af1d21"/><stop offset=".371" stop-color="#b41d21"/><stop offset=".716" stop-color="#b81d21"/><stop offset=".807" stop-color="#b41d21"/><stop offset="1" stop-color="#a31f20"/></linearGradient><path class="st82" d="M420.2 189.9s2.8 39.6 3.7 62c-8.8-27-34.3-80.8-92-70.2-22.7 4.2-47.5 2.3-35.2-77 2.9-18.5 7.1-52.6 61.2-40 28.4 6.6 92.3 53 82.2 69.9-11.3 19-57-59.3-110-14.3-6 5.1-13.5 24.5 32.4 26 5.1-.2 52 11.4 57.7 43.6z"/><linearGradient id="SVGID_78_" gradientUnits="userSpaceOnUse" x1="484.579" y1="192.77" x2="311.702" y2="128.459"><stop offset=".02" stop-color="#af1d21"/><stop offset=".371" stop-color="#b41d21"/><stop offset=".716" stop-color="#b71d21"/><stop offset=".807" stop-color="#b31d21"/><stop offset="1" stop-color="#a11f20"/></linearGradient><path class="st83" d="M420.2 190s2.8 39.1 3.7 61.5c-8.8-26.9-34.3-80.8-91.8-70.2-22.7 4.2-47.3 2.3-35-76.4 2.9-18.4 6.9-52.5 60.9-40 28.4 6.6 92 52.9 82 69.6-11.2 18.6-57.2-59.5-110-14.5-6 5.1-13.9 25.1 32.7 26.5 5.3-.1 51.9 11.7 57.5 43.5z"/><linearGradient id="SVGID_79_" gradientUnits="userSpaceOnUse" x1="485.07" y1="192.745" x2="309.982" y2="127.824"><stop offset=".02" stop-color="#af1d21"/><stop offset=".371" stop-color="#b41d21"/><stop offset=".716" stop-color="#b71d21"/><stop offset=".807" stop-color="#b21d21"/><stop offset="1" stop-color="#9f1f20"/></linearGradient><path class="st84" d="M420.2 190s2.8 38.7 3.7 61c-8.7-26.8-34.2-80.8-91.7-70.2-22.6 4.2-47.1 2.2-34.7-75.7 2.9-18.4 6.7-52.5 60.6-40 28.3 6.5 91.7 52.7 81.8 69.2-11.1 18.3-57.2-59.4-110-14.6-6 5.1-14.2 25.8 33 27.1 5.6-.2 51.9 11.9 57.3 43.2z"/><linearGradient id="SVGID_80_" gradientUnits="userSpaceOnUse" x1="485.556" y1="192.716" x2="308.274" y2="127.198"><stop offset=".02" stop-color="#af1d21"/><stop offset=".371" stop-color="#b41d21"/><stop offset=".716" stop-color="#b71d21"/><stop offset=".807" stop-color="#b11d21"/><stop offset="1" stop-color="#9d1f20"/></linearGradient><path class="st85" d="M420.2 190.1s2.8 38.2 3.7 60.5c-8.7-26.8-34.2-80.9-91.6-70.3-22.5 4.2-46.8 2.2-34.5-75.1 2.9-18.3 6.5-52.5 60.3-40 28.2 6.5 91.4 52.6 81.6 68.8-10.9 18-57.3-59.5-110-14.7-6 5.1-14.6 26.4 33.3 27.6 6-.1 51.9 12.2 57.2 43.2z"/><linearGradient id="SVGID_81_" gradientUnits="userSpaceOnUse" x1="486.037" y1="192.685" x2="306.58" y2="126.581"><stop offset=".02" stop-color="#af1d21"/><stop offset=".371" stop-color="#b41d21"/><stop offset=".716" stop-color="#b61d21"/><stop offset=".807" stop-color="#b11d21"/><stop offset="1" stop-color="#9b1f20"/></linearGradient><path class="st86" d="M420.2 190.2s2.8 37.8 3.6 60c-8.7-26.7-34.2-80.9-91.4-70.3-22.5 4.2-46.6 2.2-34.3-74.4 2.9-18.3 6.3-52.4 60-40 28.2 6.5 91.1 52.5 81.4 68.5-10.7 17.7-57.4-59.5-110-14.9-5.9 5.1-14.9 27 33.6 28.1 6.3-.1 51.9 12.4 57.1 43z"/><linearGradient id="SVGID_82_" gradientUnits="userSpaceOnUse" x1="486.514" y1="192.651" x2="304.899" y2="125.972"><stop offset=".02" stop-color="#af1d21"/><stop offset=".371" stop-color="#b41d21"/><stop offset=".716" stop-color="#b61d21"/><stop offset=".807" stop-color="#b01d21"/><stop offset="1" stop-color="#991f20"/></linearGradient><path class="st87" d="M420.2 190.3s2.7 37.3 3.6 59.5c-8.7-26.7-34.2-80.9-91.3-70.4-22.4 4.1-46.4 2.2-34.1-73.7 2.9-18.2 6.1-52.4 59.7-40 28.1 6.5 90.8 52.3 81.2 68.1-10.6 17.4-57.5-59.6-109.9-15-5.9 5-15.3 27.7 33.9 28.7 6.6-.2 51.9 12.6 56.9 42.8z"/><linearGradient id="SVGID_83_" gradientUnits="userSpaceOnUse" x1="486.985" y1="192.613" x2="303.231" y2="125.373"><stop offset=".02" stop-color="#af1d21"/><stop offset=".371" stop-color="#b41d21"/><stop offset=".716" stop-color="#b51d21"/><stop offset=".807" stop-color="#af1d21"/><stop offset="1" stop-color="#971f20"/></linearGradient><path class="st88" d="M420.2 190.4s2.7 36.9 3.6 59c-8.7-26.6-34.2-80.9-91.2-70.4-22.4 4.1-46.1 2.1-33.9-73.1 3-18.2 5.9-52.3 59.3-40 28.1 6.5 90.5 52.2 81 67.8-10.4 17.1-57.6-59.6-109.9-15.2-5.9 5-15.7 28.3 34.2 29.2 7.1-.2 52 12.8 56.9 42.7z"/><linearGradient id="SVGID_84_" gradientUnits="userSpaceOnUse" x1="487.453" y1="192.573" x2="301.576" y2="124.782"><stop offset=".02" stop-color="#af1d21"/><stop offset=".371" stop-color="#b31d21"/><stop offset=".716" stop-color="#b51d21"/><stop offset=".807" stop-color="#ae1d21"/><stop offset="1" stop-color="#961f20"/></linearGradient><path class="st89" d="M420.2 190.5s2.7 36.4 3.6 58.5c-8.6-26.5-34.2-80.9-91-70.5-22.3 4.1-45.9 2.1-33.7-72.4 3-18.1 5.8-52.3 59-40 28 6.5 90.3 52.1 80.8 67.4-10.3 16.7-57.7-59.7-109.9-15.3-5.9 5-16 29 34.5 29.7 7.3-.2 52 13.1 56.7 42.6z"/><linearGradient id="SVGID_85_" gradientUnits="userSpaceOnUse" x1="487.915" y1="192.531" x2="299.934" y2="124.199"><stop offset=".02" stop-color="#af1d21"/><stop offset=".371" stop-color="#b31d21"/><stop offset=".716" stop-color="#b51d21"/><stop offset=".807" stop-color="#ae1d21"/><stop offset="1" stop-color="#941f20"/></linearGradient><path class="st90" d="M420.2 190.6s2.7 36 3.6 58c-8.6-26.5-34.2-81-90.9-70.5-22.3 4.1-45.7 2.1-33.4-71.8 3-18.1 5.6-52.3 58.7-40 27.9 6.5 90 51.9 80.6 67-10.1 16.4-57.8-59.7-109.9-15.5-5.9 5-16.4 29.6 34.8 30.3 7.6-.1 51.9 13.3 56.5 42.5z"/><linearGradient id="SVGID_86_" gradientUnits="userSpaceOnUse" x1="488.373" y1="192.485" x2="298.306" y2="123.625"><stop offset=".02" stop-color="#af1d21"/><stop offset=".371" stop-color="#b31d21"/><stop offset=".716" stop-color="#b41d21"/><stop offset=".807" stop-color="#ad1d21"/><stop offset="1" stop-color="#921f20"/></linearGradient><path class="st91" d="M420.2 190.7s2.7 35.5 3.6 57.5c-8.6-26.4-34.2-81-90.7-70.6-22.2 4.1-45.4 2.1-33.2-71.1 3-18.1 5.4-52.2 58.4-39.9 27.9 6.4 89.7 51.8 80.5 66.7-10 16.1-57.9-59.8-109.8-15.6-5.9 5-16.7 30.2 35.1 30.8 7.7-.3 51.6 13.4 56.1 42.2z"/><linearGradient id="SVGID_87_" gradientUnits="userSpaceOnUse" x1="488.826" y1="192.437" x2="296.69" y2="123.06"><stop offset=".02" stop-color="#af1d21"/><stop offset=".371" stop-color="#b31d21"/><stop offset=".716" stop-color="#b41c21"/><stop offset=".807" stop-color="#ac1d20"/><stop offset="1" stop-color="#90201f"/></linearGradient><path class="st92" d="M420.2 190.8s2.7 35.1 3.5 57c-8.6-26.4-34.2-81-90.6-70.6-22.2 4.1-45.2 2.1-33-70.5 3-18 5.2-52.2 58.1-39.9 27.8 6.4 89.4 51.6 80.3 66.3-9.8 15.8-58-59.8-109.8-15.8-5.9 5-17.1 30.9 35.4 31.4 8.1-.3 51.8 13.7 56.1 42.1z"/><linearGradient id="SVGID_88_" gradientUnits="userSpaceOnUse" x1="489.274" y1="192.385" x2="295.088" y2="122.503"><stop offset=".02" stop-color="#af1d21"/><stop offset=".371" stop-color="#b31d21"/><stop offset=".716" stop-color="#b31c21"/><stop offset=".807" stop-color="#ab1d20"/><stop offset="1" stop-color="#8e201f"/></linearGradient><path class="st93" d="M420.2 190.8s2.7 34.6 3.5 56.5c-8.6-26.3-34.2-81-90.5-70.7-22.1 4.1-44.9 2-32.8-69.8 3-18 5-52.1 57.8-39.9 27.7 6.4 89.1 51.5 80.1 65.9-9.6 15.5-58.1-59.9-109.8-15.9-5.8 5-17.4 31.5 35.7 31.9 8.5-.2 51.8 14 56 42z"/><linearGradient id="SVGID_89_" gradientUnits="userSpaceOnUse" x1="489.718" y1="192.331" x2="293.499" y2="121.955"><stop offset=".02" stop-color="#af1d21"/><stop offset=".371" stop-color="#b31d21"/><stop offset=".716" stop-color="#b31c21"/><stop offset=".807" stop-color="#ab1d20"/><stop offset="1" stop-color="#8c201f"/></linearGradient><path class="st94" d="M420.1 190.9s2.6 34.2 3.5 56c-8.5-26.2-34.2-81-90.3-70.7-22.1 4.1-44.7 2-32.6-69.1 3.1-17.9 4.8-52.1 57.5-39.9 27.7 6.4 88.8 51.4 79.9 65.6-9.5 15.1-58.2-59.9-109.8-16.1-5.8 5-17.8 32.2 36 32.4 8.9-.2 51.9 14.2 55.8 41.8z"/><linearGradient id="SVGID_90_" gradientUnits="userSpaceOnUse" x1="490.157" y1="192.275" x2="291.923" y2="121.415"><stop offset=".02" stop-color="#af1d21"/><stop offset=".371" stop-color="#b21d21"/><stop offset=".716" stop-color="#b31c21"/><stop offset=".807" stop-color="#aa1d20"/><stop offset="1" stop-color="#8b201f"/></linearGradient><path class="st95" d="M420.1 191s2.6 33.7 3.5 55.5c-8.5-26.2-34.2-81.1-90.2-70.8-22 4.1-44.5 2-32.4-68.5 3.1-17.9 4.6-52.1 57.1-39.9 27.6 6.4 88.5 51.2 79.7 65.2-9.3 14.8-58.3-60-109.7-16.2-5.8 4.9-18.1 32.8 36.3 33 9.2-.2 51.9 14.5 55.7 41.7z"/><linearGradient id="SVGID_91_" gradientUnits="userSpaceOnUse" x1="490.591" y1="192.215" x2="290.359" y2="120.883"><stop offset=".02" stop-color="#af1d21"/><stop offset=".371" stop-color="#b21d21"/><stop offset=".716" stop-color="#b21c21"/><stop offset=".807" stop-color="#a91d20"/><stop offset="1" stop-color="#89201f"/></linearGradient><path class="st96" d="M420.1 191.1s2.6 33.3 3.5 55c-8.5-26.1-34.2-81.1-90-70.8-22 4.1-44.2 2-32.1-67.8 3.1-17.8 4.4-52 56.8-39.9 27.5 6.4 88.2 51.1 79.5 64.9-9.2 14.5-58.4-60-109.7-16.4-5.8 4.9-18.5 33.5 36.6 33.5 9.4-.3 51.7 14.6 55.4 41.5z"/><linearGradient id="SVGID_92_" gradientUnits="userSpaceOnUse" x1="491.021" y1="192.153" x2="288.809" y2="120.359"><stop offset=".02" stop-color="#af1d21"/><stop offset=".371" stop-color="#b21d21"/><stop offset=".716" stop-color="#b21c21"/><stop offset=".807" stop-color="#a81d20"/><stop offset="1" stop-color="#87201f"/></linearGradient><path class="st97" d="M420.1 191.2s2.6 32.8 3.5 54.5c-8.5-26-34.1-81.1-89.9-70.8-21.9 4-44 2-31.9-67.2 3.1-17.8 4.2-52 56.5-39.9 27.5 6.4 87.9 51 79.3 64.5-9 14.2-58.5-60.1-109.7-16.5-5.8 4.9-18.8 34.1 37 34.1 9.7-.3 51.7 14.8 55.2 41.3z"/><linearGradient id="SVGID_93_" gradientUnits="userSpaceOnUse" x1="491.446" y1="192.089" x2="287.271" y2="119.843"><stop offset=".02" stop-color="#af1d21"/><stop offset=".371" stop-color="#b21d21"/><stop offset=".716" stop-color="#b11c21"/><stop offset=".807" stop-color="#a81d20"/><stop offset="1" stop-color="#85201f"/></linearGradient><path class="st98" d="M420.1 191.3s2.6 32.4 3.5 54c-8.5-26-34.1-81.1-89.8-70.9-21.9 4-43.7 1.9-31.7-66.5 3.1-17.7 4-51.9 56.2-39.9 27.4 6.3 87.6 50.8 79.1 64.1-8.9 13.9-58.6-60.1-109.7-16.7-5.8 4.9-19.2 34.7 37.3 34.6 10.1-.2 51.7 15.2 55.1 41.3z"/><linearGradient id="SVGID_94_" gradientUnits="userSpaceOnUse" x1="491.867" y1="192.021" x2="285.747" y2="119.336"><stop offset=".02" stop-color="#af1d21"/><stop offset=".371" stop-color="#b21d21"/><stop offset=".716" stop-color="#b11c21"/><stop offset=".807" stop-color="#a71d20"/><stop offset="1" stop-color="#83201f"/></linearGradient><path class="st99" d="M420.1 191.4s2.6 31.9 3.4 53.5c-8.4-25.9-34.1-81.2-89.6-70.9-21.8 4-43.5 1.9-31.5-65.9 3.1-17.7 3.8-51.9 55.9-39.9 27.3 6.3 87.3 50.7 78.9 63.8-8.7 13.6-58.7-60.2-109.6-16.8-5.8 4.9-19.5 35.4 37.6 35.1 10.3-.3 51.7 15.3 54.9 41.1z"/><linearGradient id="SVGID_95_" gradientUnits="userSpaceOnUse" x1="492.283" y1="191.951" x2="284.235" y2="118.836"><stop offset=".02" stop-color="#af1d21"/><stop offset=".371" stop-color="#b21d21"/><stop offset=".716" stop-color="#b11c21"/><stop offset=".807" stop-color="#a61d20"/><stop offset="1" stop-color="#81201f"/></linearGradient><path class="st100" d="M420.1 191.5s2.6 31.5 3.4 53c-8.4-25.9-34.1-81.2-89.5-71-21.8 4-43.3 1.9-31.3-65.2 3.1-17.6 3.7-51.9 55.6-39.8 27.3 6.3 87 50.6 78.8 63.4-8.5 13.2-58.8-60.2-109.6-17-5.7 4.9-19.9 36 37.9 35.7 10.6-.4 51.6 15.5 54.7 40.9z"/><linearGradient id="SVGID_96_" gradientUnits="userSpaceOnUse" x1="492.694" y1="191.879" x2="282.736" y2="118.345"><stop offset=".02" stop-color="#af1d21"/><stop offset=".371" stop-color="#b21d21"/><stop offset=".716" stop-color="#b01c21"/><stop offset=".807" stop-color="#a51d20"/><stop offset="1" stop-color="#7f201f"/></linearGradient><path class="st101" d="M420.1 191.6s2.6 31 3.4 52.5c-8.4-25.8-34.1-81.2-89.4-71-21.7 4-43 1.9-31.1-64.5 3.2-17.6 3.5-51.8 55.3-39.8 27.2 6.3 86.8 50.4 78.6 63.1-8.4 12.9-58.9-60.3-109.6-17.2-5.7 4.9-20.2 36.7 38.2 36.2 11-.4 51.6 15.7 54.6 40.7z"/><linearGradient id="SVGID_97_" gradientUnits="userSpaceOnUse" x1="493.1" y1="191.804" x2="281.25" y2="117.861"><stop offset=".02" stop-color="#af1d21"/><stop offset=".371" stop-color="#b11d21"/><stop offset=".716" stop-color="#b01c21"/><stop offset=".804" stop-color="#a41d20"/><stop offset=".807" stop-color="#a41d20"/><stop offset="1" stop-color="#7e211e"/></linearGradient><path class="st102" d="M420.1 191.6s2.5 30.6 3.4 52c-8.4-25.7-34.1-81.2-89.2-71.1-21.7 4-42.8 1.9-30.8-63.9 3.2-17.6 3.3-51.8 54.9-39.8 27.2 6.3 86.5 50.3 78.4 62.7-8.2 12.6-59-60.3-109.6-17.3-5.7 4.9-20.6 37.3 38.5 36.7 11.2-.2 51.6 16.1 54.4 40.7z"/><linearGradient id="SVGID_98_" gradientUnits="userSpaceOnUse" x1="493.502" y1="191.726" x2="279.777" y2="117.386"><stop offset=".02" stop-color="#af1d21"/><stop offset=".371" stop-color="#b11d21"/><stop offset=".716" stop-color="#af1c21"/><stop offset=".807" stop-color="#a41d20"/><stop offset="1" stop-color="#7c211e"/></linearGradient><path class="st103" d="M420.1 191.7s2.5 30.2 3.4 51.5c-8.4-25.7-34.1-81.2-89.1-71.1-21.6 4-42.5 1.8-30.6-63.2 3.2-17.5 3.1-51.7 54.6-39.8 27.1 6.3 86.2 50.2 78.2 62.3-8.1 12.3-59.1-60.4-109.6-17.5-5.7 4.9-21 37.9 38.8 37.3 11.6-.3 51.6 16.3 54.3 40.5z"/><linearGradient id="SVGID_99_" gradientUnits="userSpaceOnUse" x1="493.9" y1="191.646" x2="278.317" y2="116.918"><stop offset=".02" stop-color="#af1d21"/><stop offset=".371" stop-color="#b11d21"/><stop offset=".716" stop-color="#af1c21"/><stop offset=".804" stop-color="#a31d20"/><stop offset=".807" stop-color="#a31d20"/><stop offset="1" stop-color="#7a211e"/></linearGradient><path class="st104" d="M420.1 191.8s2.5 29.7 3.4 51c-8.3-25.6-34.1-81.3-88.9-71.2-21.6 4-42.3 1.8-30.4-62.6 3.2-17.5 2.9-51.7 54.3-39.8 27 6.3 85.9 50 78 62-7.9 12-59.2-60.4-109.5-17.6-5.7 4.8-21.3 38.6 39.1 37.8 11.8-.3 51.5 16.6 54 40.4z"/><linearGradient id="SVGID_100_" gradientUnits="userSpaceOnUse" x1="494.293" y1="191.563" x2="276.869" y2="116.457"><stop offset=".02" stop-color="#af1d21"/><stop offset=".371" stop-color="#b11d21"/><stop offset=".716" stop-color="#af1c20"/><stop offset=".799" stop-color="#a31d20"/><stop offset=".807" stop-color="#a21d20"/><stop offset="1" stop-color="#78211e"/></linearGradient><path class="st105" d="M420.1 191.9s2.5 29.3 3.3 50.5c-8.3-25.6-34.1-81.3-88.8-71.2-21.5 4-42 1.8-30.2-61.9 3.2-17.4 2.7-51.7 54-39.8 27 6.2 85.6 49.9 77.8 61.6-7.7 11.7-59.3-60.5-109.5-17.8-5.7 4.8-21.7 39.2 39.4 38.4 12.2-.3 51.6 16.7 54 40.2z"/><linearGradient id="SVGID_101_" gradientUnits="userSpaceOnUse" x1="494.682" y1="191.478" x2="275.434" y2="116.005"><stop offset=".02" stop-color="#af1d21"/><stop offset=".371" stop-color="#b11d21"/><stop offset=".716" stop-color="#ae1c20"/><stop offset=".799" stop-color="#a21d20"/><stop offset=".807" stop-color="#a11d20"/><stop offset="1" stop-color="#76211e"/></linearGradient><path class="st106" d="M420.1 192s2.5 28.8 3.3 50c-8.3-25.5-34.1-81.3-88.7-71.3-21.5 4-41.8 1.8-30-61.2 3.3-17.4 2.5-51.6 53.7-39.8 26.9 6.2 85.3 49.8 77.6 61.2-7.6 11.3-59.4-60.5-109.5-17.9-5.7 4.8-22 39.9 39.7 38.9 12.6-.3 51.6 17 53.9 40.1z"/><linearGradient id="SVGID_102_" gradientUnits="userSpaceOnUse" x1="495.065" y1="191.391" x2="274.012" y2="115.56"><stop offset=".02" stop-color="#af1d21"/><stop offset=".371" stop-color="#b11d21"/><stop offset=".716" stop-color="#ae1c20"/><stop offset=".799" stop-color="#a21d20"/><stop offset=".807" stop-color="#a11d20"/><stop offset="1" stop-color="#74211e"/></linearGradient><path class="st107" d="M420.1 192.1s2.5 28.4 3.3 49.5c-8.3-25.4-34.1-81.3-88.5-71.3-21.4 4-41.5 1.8-29.8-60.6 3.3-17.3 2.3-51.6 53.4-39.8 26.8 6.2 85 49.6 77.4 60.9-7.4 11-59.5-60.6-109.5-18.1-5.7 4.8-22.4 40.5 40 39.4 12.9-.3 51.6 17.3 53.7 40z"/><linearGradient id="SVGID_103_" gradientUnits="userSpaceOnUse" x1="495.445" y1="191.301" x2="272.602" y2="115.123"><stop offset=".02" stop-color="#af1d21"/><stop offset=".371" stop-color="#b01d21"/><stop offset=".716" stop-color="#ae1c20"/><stop offset=".794" stop-color="#a21d20"/><stop offset=".807" stop-color="#a01d20"/><stop offset="1" stop-color="#73211e"/></linearGradient><path class="st108" d="M420.1 192.2s2.5 27.9 3.3 49c-8.3-25.4-34.1-81.4-88.4-71.4-21.4 3.9-41.3 1.7-29.5-59.9 3.3-17.3 2.1-51.5 53.1-39.8 26.8 6.2 84.7 49.5 77.2 60.5-7.2 10.7-59.6-60.6-109.4-18.2-5.6 4.8-22.7 41.2 40.3 40 13-.3 51.4 17.4 53.4 39.8z"/><linearGradient id="SVGID_104_" gradientUnits="userSpaceOnUse" x1="495.815" y1="191.207" x2="271.222" y2="114.699"><stop offset=".02" stop-color="#af1d21"/><stop offset=".371" stop-color="#b01d21"/><stop offset=".716" stop-color="#ad1c20"/><stop offset=".794" stop-color="#a11d1f"/><stop offset=".807" stop-color="#9f1d1f"/><stop offset="1" stop-color="#71211e"/></linearGradient><path class="st109" d="M420 192.3s2.4 27.5 3.3 48.5c-8.2-25.3-34.1-81.4-88.3-71.4-21.3 3.9-40.9 1.7-29.3-59.3 3.3-17.2 1.9-51.5 52.8-39.7 26.7 6.2 84.4 49.4 77.1 60.2-7.1 10.4-59.7-60.7-109.4-18.4-5.6 4.8-23.1 41.8 40.6 40.5 13.4-.4 51.5 17.6 53.2 39.6z"/><linearGradient id="SVGID_105_" gradientUnits="userSpaceOnUse" x1="496.186" y1="191.112" x2="269.836" y2="114.276"><stop offset=".02" stop-color="#af1d21"/><stop offset=".371" stop-color="#b01d21"/><stop offset=".716" stop-color="#ad1c20"/><stop offset=".79" stop-color="#a11d1f"/><stop offset=".807" stop-color="#9e1d1f"/><stop offset="1" stop-color="#6f211e"/></linearGradient><path class="st110" d="M420 192.4s2.4 27 3.3 48c-8.2-25.3-34.1-81.4-88.1-71.4-21.3 3.9-40.7 1.7-29.1-58.6 3.4-17.2 1.7-51.5 52.4-39.7 26.6 6.2 84.1 49.2 76.9 59.8-6.9 10.1-59.7-60.7-109.4-18.5-5.6 4.8-23.4 42.4 40.9 41.1 13.8-.6 51.5 17.7 53.1 39.3z"/><linearGradient id="SVGID_106_" gradientUnits="userSpaceOnUse" x1="496.552" y1="191.015" x2="268.462" y2="113.86"><stop offset=".02" stop-color="#af1d21"/><stop offset=".371" stop-color="#b01d21"/><stop offset=".716" stop-color="#ac1c20"/><stop offset=".794" stop-color="#a01d1f"/><stop offset=".807" stop-color="#9e1d1f"/><stop offset="1" stop-color="#6d211e"/></linearGradient><path class="st111" d="M420 192.4s2.4 26.6 3.3 47.5c-8.2-25.2-34-81.4-88-71.5-21.2 3.9-40.5 1.7-28.9-58 3.4-17.1 1.5-51.4 52.1-39.7 26.6 6.2 83.9 49.1 76.7 59.4-6.8 9.8-59.8-60.8-109.4-18.7-5.6 4.8-23.8 43.1 41.2 41.6 14.1-.3 51.5 18.2 53 39.4z"/><linearGradient id="SVGID_107_" gradientUnits="userSpaceOnUse" x1="496.914" y1="190.916" x2="267.101" y2="113.452"><stop offset=".02" stop-color="#af1d21"/><stop offset=".371" stop-color="#b01d21"/><stop offset=".716" stop-color="#ac1c20"/><stop offset=".79" stop-color="#a01d1f"/><stop offset=".807" stop-color="#9d1d1f"/><stop offset="1" stop-color="#6b221d"/></linearGradient><path class="st112" d="M420 192.5s2.4 26.1 3.2 47c-8.2-25.1-34-81.4-87.8-71.5-21.2 3.9-40.2 1.7-28.7-57.3 3.4-17.1 1.4-51.4 51.8-39.7 26.5 6.1 83.6 49 76.5 59.1-6.6 9.5-59.9-60.8-109.3-18.8-5.6 4.7-24.1 43.7 41.5 42.1 14.4-.4 51.5 18.3 52.8 39.1z"/><linearGradient id="SVGID_108_" gradientUnits="userSpaceOnUse" x1="497.272" y1="190.814" x2="265.753" y2="113.051"><stop offset=".02" stop-color="#af1d21"/><stop offset=".371" stop-color="#b01d21"/><stop offset=".716" stop-color="#ac1c20"/><stop offset=".786" stop-color="#a01d1f"/><stop offset=".807" stop-color="#9c1d1f"/><stop offset="1" stop-color="#69221d"/></linearGradient><path class="st113" d="M420 192.6s2.4 25.7 3.2 46.5c-8.2-25.1-34-81.5-87.7-71.6-21.1 3.9-40 1.7-28.5-56.6 3.4-17 1.2-51.3 51.5-39.7 26.5 6.1 83.3 48.8 76.3 58.7-6.4 9.2-60-60.9-109.3-19-5.6 4.7-24.5 44.4 41.8 42.7 14.8-.4 51.5 18.6 52.7 39z"/><linearGradient id="SVGID_109_" gradientUnits="userSpaceOnUse" x1="497.625" y1="190.71" x2="264.416" y2="112.657"><stop offset=".02" stop-color="#af1d21"/><stop offset=".371" stop-color="#af1d21"/><stop offset=".716" stop-color="#ab1c20"/><stop offset=".786" stop-color="#9f1d1f"/><stop offset=".807" stop-color="#9b1d1f"/><stop offset="1" stop-color="#68221d"/></linearGradient><path class="st114" d="M420 192.7s2.4 25.2 3.2 46c-8.1-25-34-81.5-87.6-71.6-21.1 3.9-39.7 1.6-28.2-56 3.4-17 1-51.3 51.2-39.7 26.4 6.1 83 48.7 76.1 58.4-6.3 8.8-60.1-60.9-109.3-19.1-5.6 4.7-24.8 45 42.1 43.2 15.1-.5 51.4 18.7 52.5 38.8z"/><linearGradient id="SVGID_110_" gradientUnits="userSpaceOnUse" x1="497.974" y1="190.604" x2="263.092" y2="112.27"><stop offset=".02" stop-color="#af1d21"/><stop offset=".371" stop-color="#af1d21"/><stop offset=".716" stop-color="#ab1c20"/><stop offset=".786" stop-color="#9f1d1f"/><stop offset=".807" stop-color="#9b1d1f"/><stop offset="1" stop-color="#66221d"/></linearGradient><path class="st115" d="M420 192.8s2.4 24.8 3.2 45.5c-8.1-24.9-34-81.5-87.4-71.7-21 3.9-39.5 1.6-28-55.3 3.4-16.9.8-51.3 50.9-39.7 26.3 6.1 82.7 48.6 75.9 58-6.1 8.5-60.2-61-109.3-19.3-5.5 4.7-25.2 45.6 42.4 43.8 15.3-.4 51.4 19 52.3 38.7z"/><linearGradient id="SVGID_111_" gradientUnits="userSpaceOnUse" x1="498.319" y1="190.495" x2="261.78" y2="111.89"><stop offset=".02" stop-color="#af1d21"/><stop offset=".371" stop-color="#af1d21"/><stop offset=".716" stop-color="#aa1c20"/><stop offset=".786" stop-color="#9e1d1f"/><stop offset=".807" stop-color="#9a1d1f"/><stop offset="1" stop-color="#64221d"/></linearGradient><path class="st116" d="M420 192.9s2.4 24.3 3.2 45c-8.1-24.9-34-81.5-87.3-71.7-21 3.9-39.3 1.6-27.8-54.7 3.5-16.9.6-51.2 50.6-39.7 26.3 6.1 82.4 48.4 75.7 57.6-5.9 8.2-60.3-61-109.3-19.4-5.5 4.7-25.5 46.3 42.7 44.3 15.7-.4 51.4 19.3 52.2 38.6z"/><linearGradient id="SVGID_112_" gradientUnits="userSpaceOnUse" x1="498.659" y1="190.385" x2="260.48" y2="111.518"><stop offset=".371" stop-color="#af1d21"/><stop offset=".716" stop-color="#aa1c20"/><stop offset=".783" stop-color="#9e1d20"/><stop offset=".902" stop-color="#80201e"/><stop offset="1" stop-color="#62221d"/></linearGradient><path class="st117" d="M420 193s2.3 23.9 3.2 44.6c-8.1-24.8-34-81.5-87.2-71.8-20.9 3.9-39 1.6-27.6-54 3.5-16.9.4-51.2 50.2-39.7 26.2 6.1 82.1 48.3 75.5 57.3-5.8 7.9-60.4-61.1-109.2-19.6-5.5 4.7-25.9 46.9 43 44.8 16.1-.5 51.5 19.4 52.1 38.4z"/><radialGradient id="SVGID_113_" cx="186.971" cy="87.988" r="299.066" gradientUnits="userSpaceOnUse"><stop offset=".122" stop-color="#ec2224"/><stop offset=".538" stop-color="#d22024"/><stop offset=".751" stop-color="#a71c20"/><stop offset=".86" stop-color="#9b1e20"/><stop offset="1" stop-color="#86231f"/></radialGradient><path class="st118" d="M63.5 351.5s13.4-178 51.3-144.3c0 0 62.2 35.2 178 39.4 21 .8 147.2 18.9-4.2 84.1-151.5 65.2-225.1 20.8-225.1 20.8z"/><radialGradient id="SVGID_114_" cx="236.308" cy="358.486" r="178.379" gradientUnits="userSpaceOnUse"><stop offset="0" stop-color="#fffffc"/><stop offset=".355" stop-color="#f8f2ee"/><stop offset=".52" stop-color="#f3ece8"/><stop offset=".744" stop-color="#e5ddd6"/><stop offset="1" stop-color="#cec3ba"/></radialGradient><path class="st119" d="M52.3 284.8s4.3-4.8-8.4-19.1c0 0 15.6 7.6 17.8 15.9 0 0 3.9 2.7 2.2-13 0 0 5.1 13.2 10.2 15.8 0 0 2.4-.3 1.2-11.8 0 0 10.3 5.3 12.1 11.5 0 0 5.9-1.6-1.3-13.6 0 0 13.5.8 19.3 13 0 0-16.2 7.7 9-8.1 0 0-8.1 3.8-.3 11.6 0 0 1.9-5.5 13.5-12.6 0 0-11.8 3-1.5 12.8 0 0 7.2 1.6 11.2-11.3 0 0 5.4 9.1 2.1 14.6 0 0 10.5-2.8 10-12.2 0 0 2.6 3 6.5 10.2 0 0 9.6.6 9.1-9.9 0 0 7.5 7 3.1 15.6 0 0 2.1-4.3 11.4-12.1 0 0-8.4-2.8 2.8 10.4 0 0 7.2 2.9 8-10.8 0 0 7.3 5.1 5.2 13.5 0 0 8.3.9 8-12.8 0 0 8.5 5.1 8.6 12.5 0 0-1.3-7.4 8.1-13.8 0 0-5.9 5.3 1.3 13.7 0 0 5.3 0 7.1-10.6 0 0 1.8-6.3 6.6 6.8 0 0 1.8-7.9 9-12.6 0 0-4.8 2.6-1.2 7.9 0 0 3-4.2 7.8-6.2 0 0-10.2 3.6-3.7 12.6 0 0 9.5 1.1 12.6-6.7 0 0 7 5.9 1 9.5 0 0 0-.5 10.2-5.1 0 0-5.3-.6-1.9 6.8 0 0 1.2-1.6 10.8-6.6 0 0-7.8 3.5 1.6 7.4 0 0 7.1-.3 6.7-6.6 0 0 5.3.2 5.7 5.5 0 0 .8-5.2 5.2-10.3 0 0-2.8-3.3 2.1 6.9 0 0 1.8-.4 6.3-8.1 0 0-4.7-.8 2 7.5 0 0 5.2 2.4 8.2-8.5 0 0 6-.2 4.3 8.1 0 0-1-3.8 7.7-9 0 0-6.1 2.8-1.8 10.4 0 0 6.5.9 8.9-8.9 0 0 3-.3 3.1 7.1 0 0 1-6.3 6.2-11.2 0 0-6 .1-1.2 8.9 0 0 3.8 4.5 8.6-11 0 0 3.3 2.5.9 9.7 0 0 5.4.8 8.8-10.5 0 0 1.2-.9 1.8 5.4 0 0-.9-2.2 5.8-9.5 0 0-4.1-.9 1.1 7.5 0 0 3.9 3 6.2-8.9 0 0 4.8.5 4.3 6.2 0 0 3.6.3 6.3-8.4 0 0-3 .2 3.4 8.3 0 0-8.3-1.9 7.2-10.9 0 0-4.8-1-.7 6.8 0 0-4.6-2.6 10-7.9 0 0-5.7 2-3.7 11.2 0 0 9.6-4.2 11.2-13 0 0 4.7 1.6.7 9.6 0 0 1.4-1.4 11.2-11.3 0 0-4.2-.5-2.4 9.8 0 0 8-5.4 9.2-14.7 0 0 5.3 2.3 3.9 7.9 0 0 1.2-8.9 9.2-8.8 0 0-7.5 10.1-6.2 14 0 0 4.9-8.9 10.6-9.7 0 0-9.8 8.2-8.1 14.3 0 0 5.3-11.5 10.3-8.1 0 0-6.1 8.2-6.6 11.8 0 0 7.3 0 11.3-6.4 0 0-.4 6.8-9.5 10.9 0 0 8.4-3.6 11.1-.5 0 0-10.1 2.3-9.8 4.4 0 0 10.6 2.6 13.6-1.7 0 0-.2 5.3-7.5 5.3 0 0 5.2 5.6 10.8 1.1 0 0-6.1 8.1-13.2 7.6 0 0-.9-1.8 8.8 5.6 9.7 7.3-3.1.6-8 1.5 0 0 2.5 3.5 10.6 5.3 0 0-3 4.3-10.6 2.7 0 0 6.4.9 10 5.2 0 0-7.3-2.7-10.2.6 0 0 6.3 1.5 9.2 6.2 0 0-8.9-4-9.3-1.4 0 0 7.9 2.8 10.9 6.4 0 0-9.1-2.5-8.8-.8 0 0 3.5.5 6.1 6.3 0 0-7.4-5.9-8-1.8 0 0-2.6 6 5.2 8.2 0 0 3.7 2.7-8.2 3.5 0 0 4.5 8.7 10.3 9 0 0-12.4-2.4-13.1 2.3 0 0 2.6 6.2 10.1 5.8 0 0-1.2 4.1-8.6 3.5 0 0 .2 10.1 9.2 7.6 0 0 1 9.7-11.4 7 0 0 5 .8 8.6 5.3 0 0-10.4-4.8-11.1-.1 0 0 .7 6.4 11.7 7.4 0 0 0 5.5-10.8 3.9 0 0-3.3 5.1 9.9 7.1 0 0-3.2 9.8-13.5 5.9 0 0-4.4 1.7 7.3 12.3 0 0-3.3.2-16.3-8 0 0-5.4 3.2 4.2 11 0 0-6.1 2.3-12.6-10.6 0 0-8.4 1.2-1.2 14.9 0 0-6.5-.1-13-7.3 0 0 3.7 9.7-.4 16.3 0 0 2.3-5-5.1-11.5 0 0-6 1.6-4.6 10.6 0 0 .1-.8-6.8-11.1 0 0 3.2 7.5-3.1 13.1 0 0-.5-9.6-3.3-13.9 0 0-8.8 5.4-5.8 8.1 0 0-.9-3.9-3.5-9.7 0 0-7.3 3.9-6.2 17.4 0 0-2.7-5-5.1-14 0 0 2.5-.6-4.6 14.6 0 0-4.8-9.1-3.4-15.4 0 0-5.5 7.6-3.4 19.7 0 0-4.7-1.4-6-14.9 0 0-.5 15-9.4 16.7 0 0 4.4-5.2 2.8-15.6 0 0-10 3.2-9.3 16.7 0 0-6 16.5-.5-15.5l-.6-2.7c-11.5 6.7-6.7 38.4-14.3 22 0 0-6.2-3.5-4.6-16.9 0 0 1 11.7-15.2 18 0 0 5.9-10.6 6.4-20.1 0 0-16.5 8.7-15.4 22.2 0 0-5.1-12-4-21.5 0 0-10.7 7.6-6.8 13.2 0 0-7-4.2-6-12 0 0 2 13.4-12.4 18.6 0 0 11.1-.6 2.8-18.9 0 0-16.9 6.8-12.2 15.6 0 0-6.3-8.7-5.4-18.2 0 0-5.7 11-13.6 13.4 0 0 2.4-4.7 4-12.6 0 0-12.9.8-12.8 11.1 0 0-5.6-4.7-5-14.2 0 0-1.5 6.3-7.8 15.1 0 0-2.4.1.5-14.2 0 0-11.1 5.8-10.9 13.7 0 0-3.3-3.9-2.8-14.1 0 0-1.2 15-8.3 16.1 0 0 3.2 1.5 1.9-14.3 0 0-15.1 6.1-14.6 16.4 0 0-2.6-4.6.9-16.6 0 0-4.5 8.1-14.6 14.1 0 0 3.8-3.4 6.5-13.8 0 0-15.1 4.7-17.7 14.4 0 0 .5-4 7-17.8 0 0-14.2 6.4-16.5 19.2 0 0 1.5-13.5-3.8-19.5 0 0-7.6 6.9-7.5 18 0 0-3.6-4.5-3.1-18.7 0 0-2.6 8.1-13.3 15.4 0 0 5.7.3 3.6-14.6 0 0-19.2 4.1-18.2 13.6 0 0-8.5-3.9.5-19.1 0 0-7.1 18.1-14.2 19.7 0 0 2-4.2 3.6-11.5 0 0-11.2 2-12.1 8.5 0 0 .7-.9.4-17.5 0 0-16.5 6.7-14.2 17.6 0 0-5.6-4.9-.4-23 5.2-18.1-.4-3.1-.4-3.1s-5.9 19-14.5 21.8c0 0 5.2-10.3 4.1-18.1 0 0-7.4 12.9-20.2 14.8 0 0 11.4-6.4 13.4-16.3 0 0-8.3.3-19.7 7.6 0 0-1-6.3 10.3-15.1 0 0-16.7.1-20.6-8.1 0 0 4.8 4 16.5-2.5 0 0 2.1-3.6-19.8-12.9 0 0 8.6-5.3 13.2-2.8 0 0-14.4-5-15.1-14.4 0 0-2.3 1.9 12.4 2.1 0 0 .1-5.6-11.7-14.2 0 0 3.1-8.5 8.9-4.5 0 0 5.3-5.6-11.3-11 0 0 7.3-4.3 12.1-1.8 0 0-13.1.4-15.5-14.4 0 0-4.2 7 16.5 3.1 0 0 3.8-4.6-14.4-13 0 0 5.7-4.1 8.5-2.9 0 0 .4-9.7-8.9-11.4 0 0 4.2-8.6 13.2-2.7 0 0 6.6-5-10.2-13.7 0 0 8.6-2.5 17.2 6.6 0 0-8.8-5.5-.9-20.9 0 0-2.1 11.4 6.7 15.8 0 0 .9-6.5 1-12.9 0 0 4 2.7 6 11.1 0 0-.8-6.3 2.9-13.1-.5-.4-.1 5.1 8.5 11.2z"/><radialGradient id="SVGID_115_" cx="37.693" cy="46.811" r="467.317" gradientTransform="matrix(1.0332 0 0 1 -.706 0)" gradientUnits="userSpaceOnUse"><stop offset="0" stop-color="#fffffc"/><stop offset=".629" stop-color="#f8f2ee"/><stop offset=".756" stop-color="#f3ede8"/><stop offset=".928" stop-color="#e5ddd6"/><stop offset="1" stop-color="#ded5cd"/></radialGradient><path class="st120" d="M51.9 287.9s4.3-4.6-8.4-18.3c0 0 15.5 7.3 17.6 15.2 0 0 3.9 2.6 2.1-12.4 0 0 5.1 12.6 10.1 15.1 0 0 2.4-.3 1.2-11.3 0 0 10.2 5.1 11.9 11 0 0 5.8-1.6-1.3-13.1 0 0 13.3.8 19.1 12.5 0 0-16 7.4 8.9-7.8 0 0-8 3.7-.3 11.2 0 0 1.9-5.2 13.3-12.1 0 0-11.7 2.9-1.5 12.2 0 0 7.2 1.5 11.1-10.9 0 0 5.3 8.8 2.1 14 0 0 10.4-2.6 9.9-11.7 0 0 2.6 2.9 6.5 9.8 0 0 9.5.5 9-9.5 0 0 7.4 6.7 3.1 15 0 0 2.1-4.2 11.3-11.6 0 0-8.4-2.7 2.7 10 0 0 7.1 2.8 7.9-10.3 0 0 7.2 4.8 5.1 13 0 0 8.2.8 7.9-12.3 0 0 8.4 4.9 8.5 11.9 0 0-1.3-7.1 8.1-13.2 0 0-5.8 5.1 1.3 13.1 0 0 5.3 0 7-10.1 0 0 1.8-6.1 6.5 6.5 0 0 1.7-7.6 8.9-12.1 0 0-4.8 2.5-1.2 7.6 0 0 3-4 7.7-6 0 0-10.1 3.5-3.6 12.1 0 0 9.4 1.1 12.4-6.4 0 0 6.9 5.7 1 9.1 0 0 0-.5 10.1-4.9 0 0-5.3-.6-1.9 6.5 0 0 1.2-1.5 10.7-6.3 0 0-7.7 3.3 1.6 7.1 0 0 7-.3 6.7-6.4 0 0 5.3.2 5.7 5.2 0 0 .8-5 5.1-9.9 0 0-2.8-3.1 2.1 6.6 0 0 1.8-.4 6.2-7.8 0 0-4.7-.7 2 7.1 0 0 5.2 2.3 8.1-8.2 0 0 5.9-.2 4.3 7.8 0 0-1-3.6 7.6-8.6 0 0-6.1 2.7-1.8 10 0 0 6.4.9 8.8-8.5 0 0 3-.3 3.1 6.8 0 0 1-6 6.1-10.7 0 0-5.9.1-1.2 8.5 0 0 3.8 4.3 8.5-10.5 0 0 3.3 2.4.9 9.3 0 0 5.4.8 8.7-10 0 0 1.2-.9 1.8 5.2 0 0-.9-2.1 5.7-9.1 0 0-4.1-.9 1.1 7.2 0 0 3.9 2.9 6.2-8.6 0 0 4.8.4 4.2 5.9 0 0 3.5.3 6.2-8 0 0-3 .2 3.4 7.9 0 0-8.2-1.8 7.1-10.4 0 0-4.7-1-.7 6.5 0 0-4.6-2.5 9.9-7.6 0 0-5.6 1.9-3.6 10.8 0 0 9.5-4 11.1-12.5 0 0 4.7 1.5.7 9.2 0 0 1.3-1.4 11.1-10.9 0 0-4.2-.5-2.4 9.4 0 0 7.9-5.1 9.1-14.1 0 0 5.2 2.2 3.9 7.6 0 0 1.1-8.5 9.1-8.5 0 0-7.5 9.7-6.1 13.4 0 0 4.8-8.5 10.5-9.3 0 0-9.7 7.9-8 13.7 0 0 5.2-11 10.2-7.8 0 0-6 7.9-6.5 11.3 0 0 7.2 0 11.2-6.1 0 0-.4 6.6-9.4 10.4 0 0 8.4-3.4 10.9-.5 0 0-10 2.2-9.7 4.2 0 0 10.4 2.5 13.5-1.7 0 0-.2 5.1-7.4 5 0 0 5.2 5.3 10.7 1 0 0-6 7.8-13.1 7.3 0 0-.9-1.7 8.7 5.3s-3.1.5-8 1.4c0 0 2.5 3.4 10.5 5.1 0 0-3 4.1-10.5 2.5 0 0 6.4.9 9.9 5 0 0-7.3-2.6-10.1.6 0 0 6.3 1.4 9.1 5.9 0 0-8.8-3.8-9.2-1.4 0 0 7.8 2.7 10.8 6.2 0 0-9-2.4-8.7-.8 0 0 3.4.5 6.1 6 0 0-7.3-5.7-7.9-1.7 0 0-2.6 5.7 5.2 7.9 0 0 3.6 2.6-8.1 3.4 0 0 4.5 8.3 10.2 8.6 0 0-12.3-2.3-13 2.2 0 0 2.5 6 10 5.5 0 0-1.2 3.9-8.5 3.3 0 0 .2 9.7 9.1 7.2 0 0 1 9.3-11.3 6.7 0 0 5 .7 8.5 5.1 0 0-10.3-4.6-11-.1 0 0 .7 6.2 11.5 7.1 0 0 0 5.3-10.7 3.8 0 0-3.3 4.8 9.8 6.8 0 0-3.2 9.4-13.4 5.6 0 0-4.3 1.7 7.3 11.8 0 0-3.3.2-16.2-7.7 0 0-5.4 3 4.2 10.5 0 0-6 2.2-12.5-10.1 0 0-8.4 1.2-1.2 14.3 0 0-6.5-.1-12.9-7 0 0 3.6 9.3-.4 15.6 0 0 2.3-4.8-5.1-11 0 0-5.9 1.6-4.5 10.1 0 0 .1-.8-6.8-10.7 0 0 3.2 7.2-3.1 12.6 0 0-.5-9.2-3.3-13.3 0 0-8.7 5.2-5.7 7.8 0 0-.9-3.7-3.5-9.3 0 0-7.2 3.7-6.1 16.7 0 0-2.7-4.8-5.1-13.4 0 0 2.4-.5-4.6 14 0 0-4.8-8.8-3.4-14.7 0 0-5.5 7.3-3.3 18.8 0 0-4.6-1.3-5.9-14.3 0 0-.5 14.4-9.3 16 0 0 4.4-5 2.8-15 0 0-9.9 3.1-9.2 16 0 0-5.9 15.8-.5-14.9-.2-.9-.4-1.7-.6-2.6-11.4 6.4-6.6 36.8-14.2 21.1 0 0-6.1-3.4-4.6-16.2 0 0 1 11.2-15 17.3 0 0 5.9-10.2 6.4-19.2 0 0-16.3 8.3-15.2 21.3 0 0-5-11.5-3.9-20.6 0 0-10.6 7.2-6.8 12.6 0 0-7-4-6-11.5 0 0 1.9 12.9-12.3 17.9 0 0 11-.6 2.7-18.1 0 0-16.8 6.6-12.1 14.9 0 0-6.2-8.4-5.4-17.4 0 0-5.6 10.5-13.5 12.8 0 0 2.4-4.5 3.9-12.1 0 0-12.7.8-12.6 10.6 0 0-5.6-4.5-4.9-13.6 0 0-1.5 6.1-7.7 14.5 0 0-2.4 0 .5-13.6 0 0-11 5.5-10.8 13.1 0 0-3.3-3.7-2.8-13.5 0 0-1.2 14.4-8.2 15.4 0 0 3.2 1.4 1.9-13.7 0 0-14.9 5.8-14.4 15.7 0 0-2.6-4.4.9-15.9 0 0-4.5 7.7-14.4 13.5 0 0 3.8-3.2 6.4-13.2 0 0-14.9 4.5-17.5 13.8 0 0 .5-3.8 6.9-17 0 0-14.1 6.1-16.3 18.4 0 0 1.5-13-3.8-18.7 0 0-7.5 6.6-7.5 17.2 0 0-3.5-4.3-3.1-18 0 0-2.6 7.7-13.1 14.7 0 0 5.6.3 3.5-13.9 0 0-19 3.9-18 13 0 0-8.4-3.7.5-18.3 0 0-7.1 17.4-14.1 18.9 0 0 1.9-4 3.6-11 0 0-11.1 1.9-11.9 8.2 0 0 .7-.9.4-16.8 0 0-16.3 6.5-14.1 16.9 0 0-5.5-4.7-.4-22 5.2-17.4-.4-3-.4-3s-5.8 18.2-14.3 20.9c0 0 5.1-9.8 4.1-17.3 0 0-7.3 12.3-20 14.2 0 0 11.3-6.2 13.3-15.6 0 0-8.2.3-19.5 7.3 0 0-1-6 10.2-14.5 0 0-16.6.1-20.4-7.7 0 0 4.8 3.8 16.4-2.4 0 0 2.1-3.4-19.6-12.4 0 0 8.5-5.1 13.1-2.7 0 0-14.3-4.8-15-13.8 0 0-2.2 1.8 12.3 2 0 0 .1-5.4-11.6-13.6 0 0 3-8.1 8.8-4.3 0 0 5.3-5.4-11.2-10.6 0 0 7.2-4.2 11.9-1.8 0 0-13 .4-15.3-13.8 0 0-4.2 6.7 16.3 3 0 0 3.8-4.4-14.3-12.4 0 0 5.6-3.9 8.5-2.8 0 0 .4-9.2-8.8-10.9 0 0 4.1-8.3 13-2.6 0 0 6.5-4.8-10.1-13.1 0 0 8.5-2.4 17 6.4 0 0-8.7-5.2-.9-20 0 0-2 11 6.7 15.1 0 0 .9-6.2 1-12.3 0 0 4 2.6 6 10.7 0 0-.8-6 2.9-12.6-.2.4.3 5.6 8.8 11.5z"/><radialGradient id="SVGID_116_" cx="316.422" cy="-18.913" r="78.751" gradientUnits="userSpaceOnUse"><stop offset=".218" stop-color="#f27263"/><stop offset=".497" stop-color="#ec2224"/><stop offset=".658" stop-color="#e02124"/><stop offset=".848" stop-color="#cd2023"/><stop offset="1" stop-color="#bd1e22"/></radialGradient><path class="st121" d="M336.7 40.5c28.8 0 53-11.3 60.1-26.7-31.8-19.7-48-12.5-48-12.5-23.3 5.4-45.4 13.2-65.5 21.8 11 10.4 30.7 17.4 53.4 17.4z"/><linearGradient id="SVGID_117_" gradientUnits="userSpaceOnUse" x1="445.16" y1="173.148" x2="478.679" y2="212.188"><stop offset=".005" stop-color="#f05c4c"/><stop offset=".168" stop-color="#ec2224"/><stop offset=".303" stop-color="#e02123"/><stop offset=".545" stop-color="#c21e22"/><stop offset=".726" stop-color="#a71c20"/></linearGradient><path class="st122" d="M462.2 220.2s19.7-12.6 11.8-40.6c0 0 5.9 22.8-11.8 40.6z"/><linearGradient id="SVGID_118_" gradientUnits="userSpaceOnUse" x1="235.363" y1="119.41" x2="491.944" y2="286.608"><stop offset=".005" stop-color="#f05c4c"/><stop offset=".168" stop-color="#ec2224"/><stop offset=".303" stop-color="#e02123"/><stop offset=".545" stop-color="#c21e22"/><stop offset=".726" stop-color="#a71c20"/></linearGradient><path class="st123" d="M317.5 190.6s59.9-28 97.4 46.9c0 0-36.3-64.2-97.4-46.9z"/><radialGradient id="SVGID_119_" cx="248.075" cy="209.277" r="174.691" gradientUnits="userSpaceOnUse"><stop offset=".122" stop-color="#ec2224"/><stop offset=".538" stop-color="#d22024"/><stop offset=".751" stop-color="#a71c20"/><stop offset=".86" stop-color="#9b1e20"/><stop offset="1" stop-color="#86231f"/></radialGradient><path class="st124" d="M300.4 245.3s76.8-.5 64.1 41.3c0 0 11.1-36.6-64.1-41.3z"/><linearGradient id="SVGID_120_" gradientUnits="userSpaceOnUse" x1="309.849" y1="4.627" x2="296.441" y2="107.949"><stop offset=".396" stop-color="#f27263"/><stop offset=".878" stop-color="#ec2224"/></linearGradient><path class="st125" d="M314.7 59.3s-35.1-3.5-30.8 83.2c.1 0-2.7-73 30.8-83.2z"/><linearGradient id="SVGID_121_" gradientUnits="userSpaceOnUse" x1="334.421" y1="-23.194" x2="329.19" y2="17.117"><stop offset=".497" stop-color="#f4846b"/><stop offset=".878" stop-color="#ec2224"/></linearGradient><path class="st126" d="M287.1 25.8s61.1-32.7 84.8-22.1c0 0-25.6-5.9-84.8 22.1z"/><linearGradient id="SVGID_122_" gradientUnits="userSpaceOnUse" x1="166.549" y1="74.778" x2="180.348" y2="94.096"><stop offset=".497" stop-color="#f4846b"/><stop offset=".574" stop-color="#f37b65"/><stop offset=".699" stop-color="#f16353"/><stop offset=".856" stop-color="#ee3b36"/><stop offset=".944" stop-color="#ec2224"/></linearGradient><path class="st127" d="M121.5 154.7s44.9-79.6 124.6-111.6c0 0-78.1 40.2-124.6 111.6z"/></svg>